<?xml version="1.0" encoding="utf-8"?>
<!-- Generator: Adobe Illustrator 23.0.4, SVG Export Plug-In . SVG Version: 6.00 Build 0)  -->
<svg version="1.1" id="Capa_1" xmlns="http://www.w3.org/2000/svg" xmlns:xlink="http://www.w3.org/1999/xlink" x="0px" y="0px"
	 viewBox="0 0 632.24 391.32" style="enable-background:new 0 0 632.24 391.32;" xml:space="preserve">
<style type="text/css">
	.st0{fill:url(#SVGID_1_);}
	.st1{opacity:0.42;fill:#010202;}
	.st2{fill:#130D1D;}
	.st3{fill:#2F2B4B;}
	.st4{opacity:0.06;fill:#FFFFFF;}
</style>
<g>
	<g>
		
			<radialGradient id="SVGID_1_" cx="686.3505" cy="1047.7135" r="283.361" gradientTransform="matrix(1.1729 0 0 0.8287 -480.6924 -787.6565)" gradientUnits="userSpaceOnUse">
			<stop  offset="0.0681" style="stop-color:#991B77"/>
			<stop  offset="0.2673" style="stop-color:#671F60"/>
			<stop  offset="0.434" style="stop-color:#481E51"/>
			<stop  offset="0.5236" style="stop-color:#3E1D4B"/>
			<stop  offset="0.5866" style="stop-color:#3B1D47"/>
			<stop  offset="0.6939" style="stop-color:#331C3D"/>
			<stop  offset="0.8323" style="stop-color:#24172A"/>
			<stop  offset="0.9949" style="stop-color:#0A0509"/>
			<stop  offset="1" style="stop-color:#090408"/>
		</radialGradient>
		<rect x="0.04" class="st0" width="632.2" height="390.09"/>
		<path class="st1" d="M632.24,227.78c-9.63-7.94-18.08-17.29-28.21-24.63c-10.81-7.84-21.92-11.11-35.23-9.9
			c-14.86,1.35-5.2-1.58-5.2-1.58c-0.15-1.44,0.55-3.34-0.81-4.31c0.4-0.66,0.31-1.23,0.14-1.91c-3.52,0.82-0.65-2.9-0.38-4.29
			c0.82-4.23-1.85-1.14-3.57-2.04c-0.19-1.37,0.5-2.4,0.36-3.73c-2.56,0.28-1.15-3.1-1.27-4.69c-0.48,0.11-1.15-0.18-1.63-0.07
			c-0.03-1.8,0.02-1.87-0.93-2.48c-0.97-0.62-1.45,0.98-1.86-1.06c-0.43-2.12,2.62-3.77,2.31-5.78c-0.2,0.08-0.57,0.12-0.82,0.21
			c-1.34-1.26,1.04-2.6-0.27-4.01c-1.17,0.48-1.57,2.1-2.54,2.65c-1.5,0.86-1.92,0.03-1.43-1.8c0.62-2.36,2.74-4.29,3.36-6.64
			c-0.08-0.08-0.16-0.16-0.23-0.25c-0.79,0.42-1.42,1.12-2.24,1.27c-0.13-2.15,3.27-4.34,1.93-6.24c-0.65-0.93-2.55-0.16-3.24-1.04
			c-1.08-1.36,0.24-1.14,0.45-2.51c0.43-2.83-2.6-2.04-2.29-5.09c0.28-2.82,0.93-3.51-1.56-5.2c0.16-0.69,1.36-2.55,0.83-3.3
			c-0.65-0.92-1.93,0.43-2.73-0.71c0.54-0.98,1.86-1.62,1.73-2.9c-0.26-2.54-1.77-0.13-2.73-1.17c-1.49-1.61,1.83-6.94-0.04-8.91
			c-1.26,1.14-1.38,3.8-1.68,5.4c-0.14,0.75-0.18,2.38-0.48,3.07c-0.22,0.52-1.15,0.97-1.46,1.61c0.23,0.45,0.34,0.7,0.08,1.18
			c-0.66,1.24-0.98-0.01-1.32,1.51c-0.17,0.76,0.66,1.22,0.26,2.06c-0.62,1.32-3.05,0.89-3.47,2.63c-0.43,1.8,1.65,2.97,0.07,4.74
			c-1.45,1.63-1.94,0.48-2.59,3.07c-0.37,1.48,0.11,2.95-0.24,4.65c-0.08,0.4-0.79,1.25-0.97,1.78c-0.21,0.62,0.25,1.23-0.31,2.01
			c-0.85,1.16-3.14,0.65-1.91,3.24c0.61,1.28,2.9,1.65,2.81,3.29c-0.1,1.88-2.59,0.98-3.23,2.62c-0.51,1.3,1.2,2.91,0.91,4.3
			c-0.2,0.96-0.98,1.22-1.23,2.02c-0.11,0.34-0.07,0.65-0.03,0.97c-0.13-0.11-0.29-0.21-0.49-0.35c-1.17-0.75-1.75,1.18-2.24-1.28
			c-0.51-2.54,3.15-4.53,2.78-6.94c-0.24,0.1-0.68,0.14-0.98,0.25c-1.6-1.52,1.25-3.12-0.32-4.82c-1.4,0.58-1.89,2.52-3.06,3.19
			c-1.8,1.04-2.31,0.04-1.72-2.16c0.74-2.83,3.29-5.15,4.04-7.98c-0.09-0.1-0.19-0.2-0.28-0.3c-0.94,0.5-1.71,1.34-2.7,1.53
			c-0.16-2.58,3.93-5.21,2.32-7.5c-0.78-1.12-3.06-0.2-3.9-1.25c-1.3-1.64,0.29-1.37,0.54-3.01c0.51-3.4-3.12-2.46-2.75-6.12
			c0.35-3.39,1.12-4.22-1.87-6.24c0.19-0.83,1.63-3.07,0.99-3.97c-0.78-1.11-2.31,0.51-3.28-0.86c0.64-1.18,2.24-1.94,2.08-3.48
			c-0.31-3.06-2.12-0.16-3.28-1.41c-1.79-1.93,2.2-8.35-0.05-10.71c-1.51,1.37-1.66,4.57-2.02,6.48c-0.17,0.9-0.22,2.86-0.57,3.69
			c-0.27,0.62-1.38,1.17-1.75,1.94c0.27,0.54,0.41,0.84,0.1,1.41c-0.79,1.49-1.18-0.02-1.59,1.81c-0.21,0.91,0.79,1.46,0.31,2.48
			c-0.75,1.58-3.66,1.07-4.16,3.16c-0.52,2.17,1.98,3.57,0.08,5.7c-1.74,1.96-2.34,0.57-3.12,3.69c-0.44,1.78,0.14,3.55-0.29,5.59
			c-0.1,0.48-0.96,1.51-1.16,2.14c-0.25,0.74,0.3,1.48-0.37,2.41c-1.02,1.4-3.77,0.79-2.3,3.9c0.73,1.54,3.48,1.99,3.38,3.95
			c-0.12,2.26-3.12,1.18-3.89,3.15c-0.61,1.56,1.44,3.5,1.09,5.17c-0.24,1.16-1.17,1.46-1.47,2.42c-0.29,0.91,0.26,1.67-0.06,2.67
			c-0.29,0.89-1.73,1.6-1.8,2.42c-0.09,1.09,1.11,1.64,1.48,2.49c0.37,0.85,1.04,2.59,0.65,3.45c-0.57,1.25-1.71,0.73-2.31,1.39
			c-1.9,2.08,0.33,2.04,0.14,4.29c-0.11,1.3-1.21,1.29-1.47,2.09c-0.3,0.93,0.23,1.14,0.2,1.86c-0.87-0.81-0.03-3.17-0.13-4.42
			c-0.48,0.11-1.15-0.18-1.63-0.07c-0.04-1.8,0.02-1.87-0.93-2.48c-0.97-0.62-1.45,0.98-1.86-1.06c-0.43-2.12,2.62-3.77,2.31-5.77
			c-0.2,0.08-0.57,0.12-0.82,0.21c-1.34-1.26,1.04-2.6-0.27-4.01c-1.16,0.48-1.57,2.1-2.54,2.65c-1.5,0.86-1.92,0.03-1.44-1.8
			c0.62-2.36,2.74-4.29,3.36-6.64c-0.08-0.08-0.16-0.16-0.23-0.25c-0.79,0.42-1.42,1.12-2.24,1.28c-0.13-2.15,3.27-4.34,1.93-6.24
			c-0.65-0.93-2.55-0.16-3.24-1.04c-1.08-1.36,0.24-1.14,0.44-2.51c0.43-2.83-2.6-2.04-2.29-5.1c0.29-2.82,0.93-3.51-1.56-5.19
			c0.16-0.69,1.36-2.55,0.83-3.3c-0.65-0.92-1.93,0.43-2.73-0.71c0.54-0.98,1.86-1.62,1.73-2.9c-0.26-2.54-1.77-0.13-2.73-1.17
			c-1.49-1.61,1.83-6.94-0.04-8.91c-1.26,1.14-1.38,3.8-1.68,5.4c-0.14,0.75-0.18,2.38-0.48,3.07c-0.22,0.52-1.15,0.98-1.46,1.61
			c0.23,0.45,0.34,0.7,0.08,1.18c-0.66,1.24-0.98-0.01-1.32,1.51c-0.17,0.76,0.66,1.22,0.26,2.06c-0.62,1.32-3.05,0.89-3.47,2.63
			c-0.43,1.8,1.65,2.97,0.07,4.75c-1.45,1.63-1.94,0.48-2.59,3.07c-0.37,1.48,0.11,2.95-0.24,4.65c-0.08,0.4-0.79,1.25-0.97,1.78
			c-0.21,0.62,0.25,1.23-0.31,2.01c-0.85,1.16-3.14,0.65-1.91,3.24c0.61,1.28,2.9,1.65,2.81,3.29c-0.1,1.88-2.59,0.98-3.23,2.62
			c-0.51,1.3,1.2,2.91,0.91,4.3c-0.2,0.96-0.97,1.22-1.23,2.02c-0.11,0.34-0.07,0.65-0.03,0.97c-0.13-0.11-0.29-0.22-0.49-0.35
			c-1.16-0.75-1.74,1.18-2.24-1.28c-0.51-2.54,3.15-4.53,2.78-6.94c-0.24,0.1-0.68,0.14-0.98,0.26c-1.61-1.52,1.25-3.12-0.32-4.82
			c-1.4,0.58-1.89,2.52-3.06,3.19c-1.8,1.04-2.3,0.04-1.72-2.16c0.74-2.83,3.29-5.15,4.04-7.98c-0.09-0.1-0.19-0.2-0.28-0.3
			c-0.94,0.5-1.71,1.34-2.7,1.53c-0.16-2.58,3.93-5.21,2.32-7.5c-0.79-1.12-3.06-0.2-3.9-1.25c-1.3-1.64,0.29-1.37,0.53-3.01
			c0.51-3.4-3.12-2.46-2.75-6.12c0.34-3.39,1.12-4.22-1.87-6.24c0.19-0.83,1.63-3.07,0.99-3.97c-0.78-1.11-2.31,0.51-3.28-0.86
			c0.64-1.18,2.23-1.94,2.08-3.48c-0.31-3.05-2.12-0.16-3.28-1.4c-1.79-1.93,2.2-8.35-0.05-10.71c-1.51,1.37-1.66,4.57-2.02,6.48
			c-0.17,0.9-0.22,2.86-0.57,3.69c-0.27,0.62-1.38,1.17-1.76,1.93c0.27,0.54,0.41,0.84,0.1,1.42c-0.79,1.49-1.18-0.02-1.6,1.81
			c-0.21,0.91,0.79,1.46,0.31,2.48c-0.75,1.58-3.66,1.07-4.16,3.16c-0.52,2.17,1.98,3.57,0.08,5.7c-1.74,1.96-2.34,0.57-3.12,3.69
			c-0.44,1.78,0.14,3.55-0.29,5.59c-0.1,0.48-0.95,1.51-1.16,2.14c-0.25,0.74,0.29,1.48-0.37,2.41c-1.02,1.4-3.77,0.79-2.3,3.9
			c0.73,1.54,3.48,1.99,3.38,3.96c-0.12,2.26-3.11,1.18-3.88,3.15c-0.61,1.56,1.44,3.5,1.09,5.17c-0.24,1.16-1.17,1.46-1.47,2.42
			c-0.29,0.91,0.26,1.67-0.06,2.67c-0.29,0.89-1.73,1.6-1.8,2.42c-0.09,1.09,1.11,1.64,1.48,2.49c0.37,0.85,1.04,2.59,0.65,3.45
			c-0.57,1.25-1.71,0.73-2.31,1.39c-1.9,2.08,0.33,2.04,0.14,4.29c-0.11,1.3-1.21,1.29-1.47,2.09c-0.31,0.96,0.27,1.15,0.2,1.94
			c-0.27,2.71-0.69,1.71-2.45,3.77c0.36,0.62,0.43,1.29,0.43,1.95c-4.82-0.17-9.61-0.08-14.27,1.45
			c-17.68,5.82-33.93,14.78-50.72,22.68c-16.44,7.73-32.96,13.07-50.74,16.76c-38.3,7.94-76.48,12.24-115.59,9.91
			c-19.86-1.18-40.48-3.9-59.92,1.52c-7.52,2.1-16.4,6.15-24.32,5.84c-6.64-0.26-106.77-4.25-112.65-1.65v118.57h632.24V227.78z"/>
		<path class="st2" d="M632.24,307.34c-15.52-1.37-153.14-13.11-315.36-13.11c-172.27,0-316.84,2.62-316.84,2.62v94.47h632.2V307.34
			z"/>
		<g>
			<path class="st2" d="M525.95,151.13c-0.02,0.02-0.04,0.03-0.05,0.05c0.02-0.01,0.05-0.02,0.07-0.03
				C526.24,150.87,526.24,150.86,525.95,151.13z"/>
			<path class="st2" d="M504.58,198.13c14.95-9.04,22.48-12.08,25.96-31.09c-5.63,10.83-8.42,17.4-19.9,23.39
				c-6.04,3.15-10.68,5.05-15.99,3.85c-3.49-0.78-10.89-3.78-11.08-8.14c4.37-2.15,9.83-2.07,13.83-4.75
				c5.03-3.37,4.38-7.01,6.58-11.58c4.08-8.53,15.09-11.53,21.91-18.63c-6.07,2.44-15.05,5.39-20.25,8.82
				c-2.43,1.6-4.19,6.72-7.51,6.02c-4.39-0.92-3.08-6.76-2.18-10.02c1.87-6.86,8.04-11.79,10.49-18.43
				c3.13-8.5,1.13-17.65-3.21-25.12c3.63,10.28,0.96,20.23-3.79,30.29c-2.3,4.88-5.1,7.99-8.09,12.31c-4.61,6.67-1.99,6.15,0,12.7
				c3.99,13.14-13.05,9.89-20.23,15.37c-3.75,2.86-12.41,28.29-17.07,13.68c-2.33-7.3,4.24-17.8,7.35-23.85
				c5.2-10.14,2.68-16.64,3.67-27.71c0.85-9.47,9.36-11.81,14.52-18.68c4.92-6.56,7.08-16.21,8.32-24.13
				c-2.16,5.98-10.09,24.49-16.12,25.01c0.6-12.37,5.79-21.94,5.77-35.08c-1.45,9.85-5.76,16.3-10.47,24.98
				c-3.14,5.78-1.46,10.08-2.9,16.2c-1.09,4.63-4.34,8.67-5.15,13.93c-6.48-5.52-1.01-16.31-4.45-23.59
				c-2.95-6.25-14.3-11.18-12.89-19.26c1.34-7.63,11.68-8.48,15.27-14.79c4.06-7.14-1.8-17.36,2.26-25.94
				c-4.58,7.34-1.89,23.88-11.28,27.29c-6.69,2.43-3.98-2.94-2.74-8.27c1.2-5.16,2.95-11.91,2.2-17.48
				c-3.12,11.39-6.1,20.52-11.22,31.12c-5.76,11.91,7.17,19.65,10.57,30.69c-1.6-0.79-2.96-0.56-4.41-1.08
				c6.6,7.56,10.99,16.17,11.52,26.19c0.45,8.55-4.19,14.14-7.68,20.7c0.29-4.86,0.7-9.69,1.71-14.36c0.01-0.02-2.61,4.83-3.35,6.69
				c-2.86-17.51-1.14-35.96-18.96-43.18c-6.31-2.55-15.13-5.74-19.82-10.62c-6.61-6.87-5.17-14.38-8.63-22.74
				c-7.05,3.3,5.62,17.88,3.36,26.14c-1.89,6.93-9.77,10.31-14.99,15.13c2.18-1.5,7.72-0.05,11.18-2.56
				c3.08-2.23,4.09-8.5,6.29-8.86c5.13-0.83,15.14,3.99,20.43,5.8c11,3.76,9.71,6.27,12.31,17.12c1.83,7.63,3.77,16.07,4.53,24.12
				c0.74,7.9,2.43,17.01-1.44,24.02c-6.56,11.89-7.68,5.09-8.48-4.39c-0.59-6.88,0.49-17.59-2.53-22.74
				c-3.27-5.57-11.27-7.55-14.66-13.16c1.13,6.77,5.31,11.19,11.46,13.04c-1.92,6.07-0.19,13.43,1.38,19.46
				c-3.52,2.78-6.13,7.98-6.72,12.24c-5.26-5.4-4.18-12.39-6.81-18.96c-4.44-0.89-9.11-0.4-12.76,1.94
				c-6.03-6.99-5.6-20.05-15.54-23.67c-0.71,4.84,2.07,6.01,3.36,9.67c0.21,0.59,4.17,10.07,4.44,10.44
				c4.88,6.71,8.39,7.89,17.23,7.37c-0.27,5.89,1.91,10.72,5.79,14.83c-9.22,12.41-24.73-3.34-32.16-11.12
				c1.59,13.89,15.82,18.55,25.41,16.86c7.48-1.32,12.92-4.14,16.81,2.08c1.73,2.77,1.34,14.53,1.93,18.76
				c2.07,14.65,0.74,30.02,0.03,44.99c-0.34,7.05-0.39,14.9-3.04,21.04c-2.73,6.33-8.87,9.51-11.3,15.91l25.48-8.89
				c1.18,1.92,2.55,3.7,4.16,5.29l10.29-6.16c-1.84-4.8,0.29-10.2,0.02-15.41c-0.25-4.76-2.22-9.71-3.12-14.44
				c-1.93-10.15-1.18-21.54-2.04-31.73c-1.4-16.72,7.26-10.65,16.92-15.37c9.59-4.69,5.57-17.38,11-23.96
				c4.52,1.77,9.6,2.05,13.23,6.24c4.43,5.11,3.33,10.06,5.15,16.16c3.25,10.93,25.27,7.23,20.87,20.85
				c14.37-9.09-15.05-16.79-17.1-23.19c11.45-0.33,20.08,7.77,28.28-6.2C515.57,214.28,485.6,209.61,504.58,198.13z"/>
		</g>
		<g>
			<g>
				<path class="st2" d="M113.22,65.6c1.3-0.38,2.47-1.65,2.51-3.27c0-0.15,0.04-0.52-0.04-0.65c-0.13-0.19-0.45-0.05-0.42-0.36
					c0.19-0.18,0.59-0.09,0.82-0.19c2.67-1.05,5.22,0.21,5.88,1.18c-0.09,0.28-0.35-0.02-0.51-0.03c-0.58-0.02-1.14,0.02-1.71,0.71
					c-0.58,0.68-0.51,1.45-0.51,1.45s-0.77,0.12-1.34,0.51c-0.58,0.39-0.76,1.01-0.76,1.01s-0.64-0.35-1.4-0.21
					c-0.7,0.13-1.1,0.43-1.38,1.03c-0.11-0.22-0.71-0.57-0.84-0.24L113.22,65.6z"/>
				<path class="st2" d="M112.65,65.77c-1.3,0.38-2.97-0.04-3.88-1.38c-0.08-0.12-0.32-0.41-0.32-0.57c0-0.22,0.34-0.29,0.15-0.53
					c-0.26-0.04-0.54,0.24-0.79,0.29c-2.8,0.57-4.26,3.02-4.28,4.19c0.23,0.19,0.28-0.21,0.41-0.3c0.47-0.33,0.96-0.6,1.82-0.34
					c0.86,0.26,1.21,0.94,1.21,0.94s0.71-0.31,1.41-0.3c0.7,0.01,1.19,0.43,1.19,0.43s0.34-0.64,1.06-0.94
					c0.66-0.28,1.15-0.23,1.72,0.12c-0.03-0.24,0.29-0.87,0.57-0.65L112.65,65.77z"/>
				<path class="st2" d="M114.3,66.43c0.38,1.27,0.12,2.82-0.27,2.94c-0.39,0.12-1.46-1.04-1.84-2.31
					c-0.58-1.94-0.21-2.45,0.37-2.62C113.15,64.26,113.76,64.59,114.3,66.43z"/>
				<path class="st2" d="M113.84,65.24c0.33,1.1-1.42,0.52-0.99-0.53c0.17-0.41-0.09-0.84-0.09-0.84S113.52,64.14,113.84,65.24z"/>
				<path class="st2" d="M111.94,65.8c0.33,1.1,1.47-0.34,0.54-0.99c-0.36-0.25-0.38-0.75-0.38-0.75S111.61,64.7,111.94,65.8z"/>
				<path class="st2" d="M113.45,65.64c-0.06,0.21-0.15,0.33-0.15,0.33s0-0.1-0.05-0.23c-0.08,0.04-0.17,0.07-0.28,0.1
					c-0.1,0.03-0.2,0.05-0.28,0.06c0.03,0.13,0.08,0.21,0.08,0.21s-0.13-0.05-0.3-0.19c-0.19,0.01-0.33,0-0.33,0s0.51,0.43,0.95,0.3
					c0.44-0.13,0.63-0.77,0.63-0.77S113.62,65.54,113.45,65.64z"/>
			</g>
			<g>
				<path class="st2" d="M119.2,90.09c1.29,0.41,2.97,0.03,3.91-1.29c0.09-0.12,0.33-0.41,0.33-0.56c0-0.23-0.34-0.29-0.14-0.53
					c0.26-0.04,0.54,0.26,0.78,0.31c2.79,0.63,4.2,3.11,4.19,4.29c-0.23,0.18-0.28-0.22-0.41-0.31c-0.47-0.34-0.95-0.62-1.81-0.38
					c-0.86,0.24-1.24,0.91-1.24,0.91s-0.7-0.33-1.4-0.34c-0.7,0-1.2,0.4-1.2,0.4s-0.33-0.65-1.04-0.96
					c-0.65-0.29-1.15-0.26-1.72,0.08c0.03-0.24-0.27-0.87-0.56-0.67L119.2,90.09z"/>
				<path class="st2" d="M118.64,89.91c-1.29-0.41-2.43-1.7-2.43-3.32c0-0.15-0.03-0.53,0.06-0.65c0.13-0.19,0.45-0.05,0.42-0.36
					c-0.18-0.18-0.58-0.1-0.81-0.2c-2.64-1.11-5.22,0.09-5.9,1.05c0.09,0.29,0.36-0.01,0.51-0.02c0.58-0.01,1.13,0.05,1.7,0.75
					c0.56,0.69,0.48,1.46,0.48,1.46s0.76,0.14,1.33,0.54c0.57,0.4,0.74,1.02,0.74,1.02s0.65-0.33,1.4-0.18
					c0.7,0.14,1.09,0.46,1.35,1.06c0.12-0.22,0.72-0.56,0.84-0.22L118.64,89.91z"/>
				<path class="st2" d="M119.63,91.39c-0.41,1.27-1.49,2.4-1.88,2.27c-0.38-0.12-0.62-1.68-0.22-2.95c0.62-1.93,1.2-2.14,1.78-1.96
					C119.9,88.94,120.21,89.56,119.63,91.39z"/>
				<path class="st2" d="M119.92,90.14c-0.35,1.1-1.46-0.37-0.52-1c0.36-0.24,0.4-0.74,0.4-0.74S120.27,89.05,119.92,90.14z"/>
				<path class="st2" d="M118.03,89.54c-0.35,1.09,1.41,0.55,1-0.51c-0.15-0.41,0.11-0.83,0.11-0.83S118.38,88.44,118.03,89.54z"/>
				<path class="st2" d="M119.38,90.25c-0.17,0.14-0.31,0.18-0.31,0.18s0.06-0.09,0.09-0.21c-0.09-0.01-0.19-0.04-0.29-0.07
					c-0.1-0.03-0.19-0.07-0.27-0.11c-0.04,0.12-0.05,0.23-0.05,0.23s-0.09-0.12-0.15-0.33c-0.17-0.1-0.27-0.19-0.27-0.19
					s0.18,0.64,0.61,0.78c0.43,0.14,0.95-0.28,0.95-0.28S119.57,90.26,119.38,90.25z"/>
			</g>
			<g>
				<path class="st2" d="M81.56,101.16c0.92-0.27,1.74-1.16,1.77-2.31c0.01-0.11,0.03-0.37-0.03-0.46
					c-0.09-0.13-0.31-0.04-0.29-0.26c0.13-0.12,0.41-0.06,0.58-0.13c1.88-0.74,3.69,0.15,4.16,0.84c-0.07,0.2-0.25-0.02-0.36-0.02
					c-0.41-0.01-0.8,0.02-1.21,0.5c-0.41,0.48-0.36,1.03-0.36,1.03s-0.54,0.08-0.95,0.36c-0.41,0.28-0.54,0.71-0.54,0.71
					s-0.45-0.25-0.99-0.15c-0.5,0.09-0.78,0.3-0.97,0.73c-0.08-0.15-0.5-0.4-0.59-0.16L81.56,101.16z"/>
				<path class="st2" d="M81.16,101.28c-0.92,0.27-2.1-0.03-2.74-0.97c-0.06-0.09-0.23-0.29-0.23-0.4c0-0.16,0.24-0.2,0.1-0.38
					c-0.18-0.03-0.38,0.17-0.56,0.21c-1.99,0.4-3.02,2.13-3.03,2.96c0.17,0.13,0.2-0.15,0.29-0.21c0.34-0.24,0.68-0.42,1.29-0.24
					c0.6,0.18,0.86,0.66,0.86,0.66s0.5-0.22,0.99-0.21c0.49,0.01,0.84,0.3,0.84,0.3s0.24-0.45,0.74-0.66
					c0.47-0.2,0.82-0.17,1.22,0.08c-0.02-0.17,0.2-0.61,0.4-0.46L81.16,101.28z"/>
				<path class="st2" d="M82.33,101.75c0.27,0.9,0.08,2-0.19,2.08c-0.27,0.08-1.03-0.73-1.3-1.64c-0.41-1.37-0.15-1.73,0.26-1.85
					C81.51,100.21,81.94,100.45,82.33,101.75z"/>
				<path class="st2" d="M82,100.91c0.23,0.78-1.01,0.36-0.7-0.38c0.12-0.29-0.06-0.59-0.06-0.59S81.77,100.12,82,100.91z"/>
				<path class="st2" d="M80.66,101.3c0.23,0.78,1.04-0.24,0.38-0.7c-0.25-0.18-0.27-0.53-0.27-0.53S80.43,100.52,80.66,101.3z"/>
				<path class="st2" d="M81.73,101.18c-0.05,0.15-0.11,0.23-0.11,0.23s0-0.07-0.03-0.16c-0.06,0.03-0.13,0.05-0.2,0.07
					c-0.07,0.02-0.14,0.03-0.2,0.05c0.02,0.09,0.06,0.15,0.06,0.15s-0.1-0.03-0.22-0.14c-0.14,0.01-0.23,0-0.23,0
					s0.36,0.31,0.67,0.22c0.31-0.09,0.44-0.55,0.44-0.55S81.85,101.11,81.73,101.18z"/>
			</g>
			<g>
				<path class="st2" d="M91.85,44.6c0.9,0.33,2.1,0.11,2.8-0.8c0.06-0.09,0.24-0.28,0.25-0.39c0-0.16-0.23-0.22-0.08-0.38
					c0.18-0.02,0.37,0.19,0.54,0.24c1.96,0.52,2.88,2.32,2.84,3.15c-0.17,0.12-0.19-0.16-0.28-0.23c-0.32-0.25-0.65-0.46-1.27-0.32
					c-0.62,0.14-0.9,0.61-0.9,0.61s-0.48-0.25-0.98-0.28c-0.49-0.02-0.86,0.25-0.86,0.25s-0.22-0.47-0.71-0.71
					c-0.45-0.23-0.8-0.22-1.22,0.01c0.03-0.17-0.16-0.62-0.38-0.49L91.85,44.6z"/>
				<path class="st2" d="M91.45,44.45c-0.9-0.33-1.67-1.27-1.63-2.42c0-0.11-0.01-0.37,0.06-0.46c0.1-0.13,0.32-0.02,0.31-0.24
					c-0.13-0.13-0.41-0.09-0.57-0.17c-1.83-0.86-3.7-0.08-4.2,0.57c0.05,0.21,0.25,0,0.36,0c0.41,0.01,0.8,0.07,1.18,0.57
					c0.38,0.51,0.3,1.05,0.3,1.05s0.53,0.12,0.93,0.42c0.39,0.3,0.49,0.74,0.49,0.74s0.47-0.22,1-0.09
					c0.49,0.12,0.76,0.35,0.93,0.79c0.09-0.15,0.53-0.37,0.6-0.13L91.45,44.45z"/>
				<path class="st2" d="M92.11,45.53c-0.32,0.88-1.12,1.65-1.39,1.56c-0.26-0.1-0.39-1.21-0.07-2.09c0.49-1.34,0.91-1.48,1.31-1.33
					C92.37,43.81,92.58,44.25,92.11,45.53z"/>
				<path class="st2" d="M92.35,44.66c-0.28,0.77-1.02-0.31-0.34-0.72c0.26-0.16,0.3-0.51,0.3-0.51S92.63,43.89,92.35,44.66z"/>
				<path class="st2" d="M91.04,44.17c-0.28,0.77,0.98,0.43,0.72-0.33c-0.1-0.29,0.1-0.59,0.1-0.59S91.31,43.41,91.04,44.17z"/>
				<path class="st2" d="M91.97,44.71c-0.12,0.09-0.22,0.12-0.22,0.12s0.04-0.06,0.07-0.15c-0.06-0.01-0.13-0.03-0.2-0.06
					c-0.07-0.02-0.13-0.06-0.19-0.09c-0.03,0.09-0.04,0.16-0.04,0.16s-0.05-0.08-0.09-0.24c-0.11-0.08-0.19-0.14-0.19-0.14
					s0.11,0.46,0.41,0.57c0.3,0.11,0.68-0.17,0.68-0.17S92.1,44.73,91.97,44.71z"/>
			</g>
		</g>
		<g>
			<g>
				<path class="st2" d="M230.66,112.35c1.97-0.58,3.75-2.5,3.81-4.97c0.01-0.23,0.07-0.79-0.06-0.99
					c-0.19-0.29-0.68-0.08-0.63-0.56c0.29-0.27,0.89-0.14,1.25-0.28c4.05-1.6,7.93,0.31,8.93,1.79c-0.14,0.43-0.54-0.04-0.78-0.04
					c-0.88-0.03-1.72,0.04-2.6,1.07c-0.88,1.03-0.77,2.2-0.77,2.2s-1.16,0.18-2.04,0.78c-0.88,0.59-1.16,1.53-1.16,1.53
					s-0.97-0.53-2.12-0.32c-1.07,0.19-1.67,0.66-2.09,1.57c-0.17-0.33-1.08-0.87-1.27-0.36L230.66,112.35z"/>
				<path class="st2" d="M229.8,112.6c-1.97,0.58-4.51-0.05-5.9-2.09c-0.13-0.19-0.49-0.63-0.48-0.86c0.01-0.35,0.53-0.44,0.23-0.81
					c-0.39-0.07-0.82,0.37-1.2,0.44c-4.26,0.87-6.48,4.58-6.51,6.37c0.36,0.28,0.43-0.32,0.63-0.46c0.72-0.5,1.47-0.9,2.77-0.51
					c1.3,0.39,1.85,1.42,1.85,1.42s1.08-0.48,2.14-0.46c1.06,0.02,1.8,0.66,1.8,0.66s0.53-0.97,1.6-1.43c1-0.42,1.76-0.36,2.61,0.18
					c-0.04-0.37,0.43-1.32,0.87-0.99L229.8,112.6z"/>
				<path class="st2" d="M232.31,113.61c0.58,1.94,0.18,4.29-0.41,4.46c-0.58,0.17-2.22-1.58-2.79-3.51
					c-0.87-2.95-0.32-3.72,0.56-3.98C230.55,110.32,231.48,110.82,232.31,113.61z"/>
				<path class="st2" d="M231.61,111.8c0.5,1.68-2.16,0.78-1.51-0.81c0.25-0.61-0.14-1.27-0.14-1.27S231.11,110.13,231.61,111.8z"/>
				<path class="st2" d="M228.72,112.66c0.5,1.68,2.24-0.52,0.82-1.5c-0.55-0.38-0.58-1.14-0.58-1.14S228.22,110.98,228.72,112.66z"
					/>
				<path class="st2" d="M231.02,112.4c-0.1,0.32-0.23,0.49-0.23,0.49s-0.01-0.15-0.07-0.34c-0.13,0.06-0.27,0.12-0.42,0.16
					c-0.15,0.04-0.3,0.08-0.43,0.1c0.05,0.19,0.13,0.32,0.13,0.32s-0.21-0.07-0.46-0.29c-0.3,0.02-0.5-0.01-0.5-0.01
					s0.78,0.66,1.44,0.46c0.66-0.2,0.95-1.17,0.95-1.17S231.27,112.25,231.02,112.4z"/>
			</g>
			<g>
				<path class="st2" d="M267.18,95.65c1.3-0.38,2.47-1.65,2.5-3.27c0.01-0.15,0.05-0.52-0.04-0.65c-0.13-0.19-0.45-0.05-0.42-0.37
					c0.19-0.18,0.59-0.09,0.82-0.18c2.66-1.05,5.22,0.21,5.87,1.18c-0.09,0.28-0.36-0.02-0.51-0.03c-0.58-0.02-1.13,0.03-1.71,0.71
					c-0.58,0.68-0.51,1.45-0.51,1.45s-0.77,0.12-1.35,0.51c-0.58,0.39-0.76,1.01-0.76,1.01s-0.64-0.35-1.4-0.21
					c-0.7,0.13-1.09,0.43-1.37,1.03c-0.11-0.22-0.71-0.57-0.84-0.24L267.18,95.65z"/>
				<path class="st2" d="M266.62,95.82c-1.29,0.38-2.97-0.04-3.88-1.38c-0.08-0.12-0.32-0.41-0.32-0.57c0-0.23,0.35-0.29,0.15-0.53
					c-0.26-0.05-0.54,0.24-0.79,0.29c-2.81,0.57-4.26,3.02-4.29,4.19c0.23,0.19,0.28-0.21,0.41-0.3c0.47-0.33,0.96-0.6,1.82-0.34
					c0.86,0.26,1.22,0.94,1.22,0.94s0.71-0.31,1.41-0.3c0.7,0.01,1.19,0.43,1.19,0.43s0.34-0.64,1.06-0.94
					c0.66-0.28,1.15-0.23,1.72,0.12c-0.02-0.24,0.29-0.87,0.57-0.65L266.62,95.82z"/>
				<path class="st2" d="M268.27,96.48c0.38,1.27,0.12,2.82-0.27,2.94c-0.38,0.12-1.46-1.04-1.84-2.31
					c-0.58-1.94-0.21-2.45,0.37-2.62C267.11,94.32,267.72,94.64,268.27,96.48z"/>
				<path class="st2" d="M267.81,95.29c0.33,1.1-1.42,0.51-0.99-0.53c0.17-0.4-0.09-0.83-0.09-0.83S267.48,94.19,267.81,95.29z"/>
				<path class="st2" d="M265.9,95.86c0.33,1.1,1.47-0.34,0.54-0.99c-0.36-0.25-0.38-0.75-0.38-0.75S265.58,94.75,265.9,95.86z"/>
				<path class="st2" d="M267.42,95.69c-0.06,0.21-0.15,0.33-0.15,0.33s-0.01-0.1-0.05-0.23c-0.08,0.04-0.18,0.08-0.28,0.1
					c-0.1,0.03-0.2,0.05-0.29,0.06c0.04,0.13,0.09,0.21,0.09,0.21s-0.13-0.05-0.3-0.19c-0.2,0.01-0.33,0-0.33,0s0.51,0.43,0.95,0.3
					c0.43-0.13,0.63-0.77,0.63-0.77S267.59,95.59,267.42,95.69z"/>
			</g>
			<g>
				<path class="st2" d="M234.35,76.1c1.35,0.01,2.84-0.86,3.34-2.41c0.04-0.14,0.19-0.49,0.15-0.63c-0.07-0.22-0.41-0.18-0.29-0.47
					c0.23-0.12,0.59,0.08,0.84,0.06c2.85-0.24,4.94,1.7,5.29,2.82c-0.17,0.24-0.33-0.12-0.48-0.17c-0.55-0.19-1.09-0.3-1.84,0.18
					c-0.75,0.48-0.91,1.24-0.91,1.24s-0.77-0.11-1.43,0.1c-0.67,0.21-1.02,0.74-1.02,0.74s-0.51-0.52-1.28-0.6
					c-0.71-0.08-1.17,0.1-1.62,0.59c-0.04-0.24-0.52-0.76-0.73-0.47L234.35,76.1z"/>
				<path class="st2" d="M233.76,76.09c-1.35-0.01-2.83-0.89-3.32-2.44c-0.05-0.14-0.19-0.49-0.14-0.64
					c0.07-0.22,0.41-0.18,0.29-0.47c-0.23-0.12-0.59,0.08-0.84,0.05c-2.85-0.27-4.95,1.66-5.31,2.78c0.17,0.25,0.33-0.12,0.48-0.17
					c0.55-0.18,1.1-0.29,1.84,0.2c0.75,0.49,0.9,1.25,0.9,1.25s0.76-0.1,1.43,0.11c0.66,0.21,1.01,0.76,1.01,0.76
					s0.51-0.51,1.28-0.59c0.71-0.08,1.17,0.11,1.61,0.61c0.05-0.24,0.52-0.75,0.73-0.46L233.76,76.09z"/>
				<path class="st2" d="M235.15,77.2c-0.01,1.33-0.71,2.73-1.11,2.73c-0.4,0-1.1-1.41-1.09-2.74c0.01-2.02,0.5-2.41,1.11-2.4
					C234.67,74.79,235.16,75.28,235.15,77.2z"/>
				<path class="st2" d="M235.05,75.93c-0.01,1.15-1.51,0.08-0.8-0.8c0.28-0.34,0.15-0.82,0.15-0.82S235.06,74.78,235.05,75.93z"/>
				<path class="st2" d="M233.07,75.92c0,1.15,1.51,0.1,0.8-0.79c-0.27-0.34-0.15-0.82-0.15-0.82S233.07,74.77,233.07,75.92z"/>
				<path class="st2" d="M234.57,76.19c-0.12,0.19-0.24,0.27-0.24,0.27s0.02-0.1,0.02-0.23c-0.09,0.01-0.19,0.02-0.29,0.02
					c-0.1,0-0.2-0.01-0.3-0.02c0,0.13,0.02,0.23,0.02,0.23s-0.11-0.08-0.23-0.27c-0.19-0.04-0.31-0.1-0.31-0.1s0.36,0.56,0.82,0.56
					c0.45,0,0.83-0.56,0.83-0.56S234.76,76.15,234.57,76.19z"/>
			</g>
			<g>
				<path class="st2" d="M285.44,119.05c0.92-0.27,1.74-1.16,1.77-2.31c0-0.11,0.03-0.37-0.03-0.46c-0.09-0.13-0.31-0.03-0.29-0.26
					c0.13-0.13,0.42-0.06,0.58-0.13c1.89-0.74,3.69,0.15,4.16,0.83c-0.07,0.2-0.25-0.01-0.36-0.02c-0.41-0.01-0.8,0.02-1.21,0.5
					c-0.41,0.48-0.36,1.02-0.36,1.02s-0.54,0.08-0.95,0.36c-0.41,0.28-0.54,0.71-0.54,0.71s-0.45-0.25-0.99-0.15
					c-0.5,0.09-0.77,0.31-0.97,0.73c-0.08-0.16-0.5-0.41-0.59-0.17L285.44,119.05z"/>
				<path class="st2" d="M285.04,119.17c-0.92,0.27-2.1-0.03-2.75-0.97c-0.06-0.09-0.23-0.29-0.22-0.4c0-0.16,0.24-0.2,0.1-0.38
					c-0.18-0.03-0.38,0.17-0.56,0.21c-1.99,0.4-3.02,2.13-3.03,2.96c0.16,0.13,0.2-0.15,0.29-0.21c0.34-0.23,0.68-0.42,1.29-0.24
					c0.6,0.18,0.86,0.66,0.86,0.66s0.5-0.22,1-0.21c0.49,0.01,0.84,0.3,0.84,0.3s0.24-0.45,0.75-0.66c0.47-0.2,0.82-0.17,1.22,0.08
					c-0.02-0.17,0.2-0.61,0.4-0.46L285.04,119.17z"/>
				<path class="st2" d="M286.2,119.64c0.27,0.9,0.08,2-0.19,2.08c-0.27,0.08-1.03-0.73-1.3-1.64c-0.41-1.37-0.15-1.73,0.26-1.85
					C285.38,118.11,285.82,118.34,286.2,119.64z"/>
				<path class="st2" d="M285.88,118.8c0.23,0.78-1.01,0.36-0.7-0.38c0.12-0.29-0.06-0.59-0.06-0.59S285.64,118.02,285.88,118.8z"/>
				<path class="st2" d="M284.53,119.2c0.23,0.78,1.04-0.24,0.38-0.7c-0.25-0.18-0.27-0.53-0.27-0.53S284.3,118.42,284.53,119.2z"/>
				<path class="st2" d="M285.6,119.08c-0.05,0.15-0.11,0.23-0.11,0.23s0-0.07-0.03-0.16c-0.06,0.03-0.13,0.05-0.19,0.07
					c-0.07,0.02-0.14,0.04-0.21,0.05c0.03,0.09,0.06,0.15,0.06,0.15s-0.1-0.03-0.22-0.13c-0.14,0.01-0.23,0-0.23,0
					s0.36,0.31,0.67,0.22c0.31-0.09,0.44-0.54,0.44-0.54S285.72,119.01,285.6,119.08z"/>
			</g>
			<g>
				<path class="st2" d="M255.29,47.38c0.92-0.27,1.75-1.16,1.78-2.31c0-0.11,0.03-0.37-0.03-0.46c-0.09-0.13-0.31-0.04-0.29-0.26
					c0.13-0.13,0.42-0.07,0.58-0.13c1.88-0.74,3.69,0.15,4.16,0.84c-0.06,0.2-0.25-0.02-0.36-0.02c-0.41-0.01-0.8,0.02-1.21,0.5
					c-0.41,0.48-0.36,1.03-0.36,1.03s-0.54,0.08-0.95,0.36c-0.41,0.28-0.54,0.71-0.54,0.71s-0.45-0.24-0.99-0.15
					c-0.5,0.09-0.77,0.31-0.97,0.73c-0.08-0.16-0.5-0.41-0.59-0.17L255.29,47.38z"/>
				<path class="st2" d="M254.89,47.5c-0.92,0.27-2.1-0.02-2.75-0.97c-0.06-0.09-0.23-0.29-0.23-0.4c0.01-0.16,0.25-0.2,0.11-0.38
					c-0.18-0.03-0.38,0.17-0.56,0.21c-1.99,0.4-3.02,2.13-3.03,2.96c0.17,0.13,0.2-0.15,0.3-0.21c0.33-0.23,0.68-0.42,1.29-0.24
					c0.61,0.18,0.86,0.66,0.86,0.66s0.5-0.22,0.99-0.22c0.49,0.01,0.84,0.3,0.84,0.3s0.24-0.45,0.75-0.66
					c0.47-0.2,0.82-0.17,1.22,0.08c-0.02-0.17,0.2-0.61,0.41-0.46L254.89,47.5z"/>
				<path class="st2" d="M256.06,47.97c0.27,0.9,0.08,2-0.19,2.08c-0.27,0.08-1.03-0.73-1.3-1.64c-0.4-1.37-0.15-1.73,0.26-1.85
					C255.24,46.44,255.67,46.67,256.06,47.97z"/>
				<path class="st2" d="M255.73,47.13c0.23,0.78-1,0.36-0.7-0.38c0.12-0.29-0.07-0.59-0.07-0.59S255.5,46.35,255.73,47.13z"/>
				<path class="st2" d="M254.39,47.53c0.23,0.78,1.04-0.24,0.38-0.7c-0.26-0.17-0.27-0.53-0.27-0.53S254.16,46.75,254.39,47.53z"/>
				<path class="st2" d="M255.46,47.41c-0.04,0.15-0.11,0.23-0.11,0.23s0-0.07-0.03-0.16c-0.06,0.03-0.12,0.05-0.2,0.07
					c-0.07,0.02-0.14,0.04-0.2,0.05c0.02,0.09,0.06,0.15,0.06,0.15s-0.09-0.04-0.21-0.13c-0.14,0.01-0.23,0-0.23,0
					s0.36,0.31,0.67,0.22c0.31-0.09,0.45-0.55,0.45-0.55S255.58,47.34,255.46,47.41z"/>
			</g>
		</g>
		<g>
			<g>
				<path class="st2" d="M253.19,246.44c-0.01-0.1-0.05-0.2-0.05-0.3c-0.19-0.95,0-1.98,0.9-2.88c0.14-0.15,0.29-0.29,0.43-0.43
					c0.08-0.08,0.17-0.1,0.25-0.17c0.12-0.32,0.26-0.63,0.46-0.9c-0.02-0.17-0.15-0.49-0.39,0.07c-0.27,0.65-0.65,0.86-1.17,0.06
					c-0.51,0.66-1.14,0.32-1.89,0.09c-0.75,0.33-1.61-0.22-2.59,0.13c-0.98-0.89-2.06,0.4-3.25,0.16c-1.19-0.4-2.47,0.33-3.86,0.2
					c-1.39-0.17-2.87,1.12-4.44,0.22c-1.57,0.49-3.23-0.44-4.97,0.25c-1.75-1.42-3.58,1.32-5.48,0.28c-1.9,0.79-3.88-0.33-5.94,0.3
					c-2.06,0.92-4.18-0.9-6.36,0.32c-2.19-1.44-4.44,0.27-6.74,0.34c-2.31,1.14-4.68-0.59-7.1,0.36c-0.93-0.2-1.86-0.82-2.8,0.14
					c-0.94,0.18-1.89,0.1-2.84,0.15c-1.9-0.41-3.83,0.38-5.8,0.3c-1.96-0.8-3.94-1.18-5.95,0.3c-1,1.01-2.01,0.95-3.02,0.71
					c-1.02-0.34-2.03-0.78-3.05-0.4c-1.02-0.19-2.05,0.59-3.08,0.68c-1.03,0.51-2.07-0.45-3.1-0.36c-0.52,0.28-1.04,0.44-1.56,0.46
					c-0.52,0.02-1.05-0.11-1.57-0.41c-0.52,0.46-1.05,0.57-1.57,0.61c-0.52-0.17-1.05,0.38-1.58-0.35c-0.6,0.22-1.2-0.18-1.8,0.21
					c-0.61,0.51-1.21,0-1.82-0.03c-0.6,0.44-1.21,0.58-1.82,0.52c-0.61,0-1.22-0.54-1.83-0.33c-0.61-0.1-1.22,0.4-1.83,0.69
					c-0.61-0.53-1.22,0.03-1.83-0.5c-0.61,0.18-1.23,0.39-1.84,0.06c-0.61,0.83-1.23,0.2-1.84,0.13c-0.62,0.49-1.23,0.07-1.85,0.39
					c-0.62,0.26-1.23-0.18-1.85-0.2c-0.62-0.71-1.23,0.45-1.85,0.1c-0.62,0.32-1.23-0.29-1.85,0.09c-0.62,0.95-1.23,0.22-1.85,0.09
					c-0.61-0.02-1.23-0.48-1.85,0.09c-1.01-0.09-2.01-0.34-3.02,0.15c-1.01,0.05-2.02,0.1-3.02,0.15c-2.01,0.56-4.03,0.49-6.04,0.3
					c-2.01-0.2-4.02-0.18-6.02,0.31c-2-0.72-3.99,1.63-5.98,0.31c-1.99-0.43-3.97,2.36-5.94,0.3c-1.97-0.77-3.93-0.12-5.87,0.3
					c-0.95,1.82-1.89,0.47-2.83,0.14c-0.94-2.23-1.88,1.3-2.81,0.14c-0.47-0.57-0.94-1.36-1.4,0.05c-0.46,0.27-0.93-0.24-1.39,0.02
					c-0.46,0.16-0.92-0.72-1.38,0.12c-0.46-0.5-0.92,0.42-1.38,0.1c-0.46-0.33-0.92-0.08-1.37,0.47c-0.46-1.04-0.91,0.13-1.37,0.15
					c-0.45-0.37-0.91,0.4-1.36-0.19c-0.45-0.72-0.91,0.05-1.35-0.15c-0.45,0.61-0.9-0.26-1.35,0.01c-0.45-0.14-0.89,0.76-1.34,0.42
					c-0.44,0-0.89-0.36-1.33-0.31c-0.44,0.05-0.89,0.18-1.32,0.15c-0.88-2.49-1.76-0.31-2.63,0.46c-0.87-0.29-1.73-0.89-2.59-0.2
					c-0.86,1.06-1.71,2.21-2.56,1.14c-0.85,0.23-1.69,0.45-2.53-0.88c-0.83-0.58-1.66-0.55-2.49-0.11
					c-0.82,0.07-1.64,0.23-2.45,0.36c-1.62,0.57-3.22,0.17-4.78,0.24c-1.57,0.55-3.1,2.82-4.6,0.24c-1.51,0.22-2.98,1.14-4.42,0.22
					c-1.44,0.69-2.85,2.96-4.21,0.22c-1.37,0.1-2.71-0.43-4.01,0.2c-1.3,1.26-2.56,0.14-3.79,0.19c-1.22-1.34-2.4-1.12-3.54,0.18
					c-1.13-0.1-2.24-0.19-3.29,0.17c-1.06-0.02-2.07-1.08-3.03,0.15c-0.97,0.05-1.89,0.1-2.75,0.14c-0.96,0.05-1.87,0.09-2.71,0.13
					c-0.84-0.29-1.62,1.47-2.34,0.12c-0.71,1.78-1.36,0.15-1.95,0.1c-0.58,0.43-1.09,0.39-1.54,0.08c-0.45,0.07-0.82,0.09-1.13,0.06
					c-0.01,0.06-0.03,0.1-0.04,0.15c0.25,0.46,0.42,0.98,0.42,1.63v0.43c0,0.41-0.11,0.74-0.22,1.07c0.39,0.5,0.65,1.14,0.65,1.96
					v0.09c0.25,0.46,0.43,0.99,0.43,1.64v0.43c0,0.1-0.05,0.16-0.05,0.26c0.16,0.31,0.3,0.64,0.37,0.98
					c0.34,0.22,0.71,0.61,1.12-0.16c0.58,0.65,1.24,0.27,1.95-0.12c0.72,0.25,1.49-0.62,2.34-0.14c0.42-0.02,0.85-0.13,1.3-0.08
					c0.46-0.35,0.92-0.59,1.4-0.09c0.87-0.01,1.79-0.02,2.75-0.17c0.97-0.4,1.97-1.05,3.03-0.19c0.53,0.1,1.07,0.07,1.62,0.01
					c0.55-0.07,1.11-0.17,1.68-0.21c0.57,0.34,1.16-0.24,1.74-0.17c0.59,0.44,1.19,0.31,1.8-0.05c1.2,0.81,2.44-0.22,3.71-0.23
					c1.27-1.92,2.58-0.31,3.92-0.24c1.34-1.21,2.72,1.99,4.13-0.26c1.41,0.59,2.84,2.61,4.32-0.26c1.47-1.84,2.96,1.59,4.49-0.28
					c1.53-0.71,3.08,0.23,4.66-0.29c1.58,0.77,3.19-0.03,4.82-0.3c0.82-0.37,1.64-0.58,2.47-0.63c0.83,0.41,1.65,0.24,2.5,0.33
					c0.83,0.9,1.68,1.04,2.53,1.06c0.85-0.06,1.71,0.06,2.56-1.38c0.86-0.77,1.72,0.57,2.59,0.02c0.87,0.08,1.74,0.09,2.62-0.35
					c0.88-0.36,1.76-0.42,2.65-0.4c0.88-0.91,1.78-1.82,2.68,0.07c0.9-0.24,1.8,0.92,2.7-0.47c0.91,1.8,1.81,0.45,2.73,0.14
					c0.91-1.83,1.82,1.01,2.74-0.17c0.91-0.45,1.83,0.41,2.75-0.17c1.9-0.69,3.81,1.84,5.73-0.36c1.92,1.02,3.85-0.94,5.79-0.36
					c1.95-0.1,3.89,0.05,5.85-0.36c1.95-0.58,3.92-0.73,5.88-0.36c0.98-0.06,1.96,0.13,2.95,0.19c0.99,0.06,1.97,0,2.95-0.55
					c0.99-0.53,1.98,0.61,2.96-0.19c0.99-0.63,1.97,0.02,2.96-0.18c0.6-0.07,1.2-0.48,1.81-0.11c0.61-0.6,1.21,0.1,1.81-0.11
					c0.6,0.2,1.21-0.24,1.81-0.08c0.6,0.27,1.21-0.22,1.81-0.14c0.6-0.55,1.21-0.62,1.8-0.69c0.6-0.07,1.2-0.45,1.8,0.47
					c0.6-0.22,1.2,0.3,1.81-0.7c0.6-0.16,1.2,0.3,1.8,0.48c0.6-0.26,1.2-0.82,1.79-0.63c0.6-0.07,1.2,0.32,1.8,0.4
					c0.59,0.34,1.19,0.65,1.79,0.49c0.6-0.07,1.19-0.73,1.79-0.71c0.59-0.03,1.19-0.08,1.78-0.13c0.59-0.05,1.19-0.09,1.78-0.09
					c1.03-0.08,2.06-0.42,3.09-0.19c1.03-0.1,2.06,0.15,3.07-0.19c1.02-0.39,2.04,0.27,3.06,0.17c1.02-0.65,2.02,0.22,3.03-0.55
					c1.01-0.26,2.01-0.32,3.01-0.28c1,0.08,1.99,0.2,2.98-0.09c1.98-0.54,3.94,0.62,5.87-0.36c1.94-1.46,3.86,0.84,5.75-0.35
					c0.94,0.15,1.88,0.07,2.81-0.05c0.93,0.45,1.86,0.29,2.78-0.3c0.92-0.13,1.83-0.69,2.74-0.17c0.91-0.14,1.8,0.22,2.69-0.17
					c2.33,0.28,4.61,0.06,6.84-0.42c2.23,1.39,4.39-0.73,6.49-0.4c2.1,0.23,4.15,0.15,6.12-0.38c1.97,0.12,3.88-0.42,5.71-0.35
					c1.83,1.08,3.58-2.72,5.25-0.33c1.68,0.42,3.27,0.65,4.78-0.29c1.5-0.27,2.92,0.45,4.25-0.27c1.33,0.11,2.56-0.15,3.7-0.23
					c1.13-0.26,2.17,0.03,3.1-0.19c0.93,0.2,1.76-1.04,2.48-0.16c0.27-0.09,0.52-0.02,0.75,0.06
					C252.66,247.45,252.87,246.9,253.19,246.44z"/>
				<path class="st2" d="M27.63,241.81c0,0.21,0.05,0.48,0.14,0.77c0.09,0.22,0.23,3.26,0.41,2.17c0.17,0.99,0.39,2.06,0.62,3.35
					c0.41,2.21,0.91,4.91,1.47,7.89c0.28,1.49,0.57,3.05,0.87,4.67c0.31,0.64,0.61,2.1,0.93,4.98c0.31,2.06,0.63,3.85,0.95,5.15
					c0.32,1.96,0.65,2.29,0.97,5.18c0.32,2.49,0.64,3.42,0.94,5.08c0.36,1.94,0.71,3.82,1.05,5.62c0.33,1.89,0.65,3.08,0.94,5.08
					c0.3,1.78,0.57,2.6,0.8,4.32c0.24,1.38,0.45,2.08,0.62,3.36c0.18,0.01,0.31,1.09,0.41,2.17c0.1,0.67,0.14,1.51,0.14,0.77
					c0-0.09,1.3,0.46,2.6,0c1.3,0.11,2.59,0.35,2.59,0c0-1.05-0.03-1.02-0.09-0.73c-0.06,0.37-0.15-1.96-0.26-2.06
					c-0.11-0.43-0.24-2.35-0.4-3.21c-0.15-1.8-0.33-3.27-0.52-4.17c-0.19-1.89-0.39-2.93-0.61-4.94c-0.22-1.75-0.45-3.61-0.68-5.52
					c-0.2-1.64-0.41-3.51-0.62-5.06c-0.21-2.12-0.43-4.14-0.64-5.23c-0.22-3.31-0.43-4.5-0.66-5.28c-0.1-0.93-0.21-2.02-0.32-2.36
					c-0.11-0.83-0.22-1.93-0.32-2.86c-0.11,0.39-0.21-2.6-0.32-2.55c-0.1-0.26-0.21-0.56-0.31-2.49c-0.1-1.03-0.2-1.07-0.3-2.41
					c-0.09-0.84-0.19-0.5-0.28-2.32c-0.11-3.51-0.22-1.63-0.32-2.6c-0.1,0-0.2-2.16-0.3-2.44c-0.09-1.92-0.19-2.02-0.28-2.63
					c-0.09-0.62-0.17-1.07-0.25-1.63c-0.16-1.98-0.29-1.71-0.41-3.29c-0.11-0.87-0.2-2.31-0.26-2.12c-0.06-0.67-0.09-0.28-0.09-0.75
					c0-1.66-0.91,0.56-2.13,1.57c-1.22,2.61-2.74,2.97-3.96,2.92C28.54,241.02,27.63,240.9,27.63,241.81z"/>
				<path class="st2" d="M83,243.11h-0.43c-0.96,0-1.67-0.36-2.22-0.86c-0.02-0.01-0.04-0.01-0.06-0.03
					c-0.45,0.26-0.96,0.46-1.62,0.46c-0.93,0-1.61-0.34-2.15-0.82c-0.28,0.01-0.43-0.15-0.44-0.05c0.01,0.5,0.02,2.08,0.05,0.78
					c0.04-0.1,0.09-0.37,0.15,2.17c0.04,0.33,0.07,0.19,0.11,1.28c0.04,0.52,0.08,2.23,0.13,2.07c0.05,0.65,0.09,1.65,0.15,2.67
					c0.05,1.27,0.11,1.82,0.16,1.65c0.05,0.47,0.11-0.12,0.17,1.55c0.03,0.16,0.06,0.71,0.09,1.37c0.03,0.67,0.06,1.41,0.1,2.15
					c0.03-0.48,0.07,0.79,0.1,0.88c0.03-0.27,0.07,1.24,0.09,1.41c0.04,0.17,0.07,0.64,0.1,1.67c0.04-0.02,0.07,1.66,0.11,1.66
					c0.07,2.8,0.14,2.69,0.21,3.11c0.07-1.32,0.14,1.14,0.22,2.83c0.07,1.24,0.14,0.92,0.21,3.03c0.04,0.18,0.07,0.66,0.11,1.23
					c0.04,0.57,0.07,1.24,0.11,1.79c0.07-0.17,0.14,1.85,0.21,2.77c0.07,1.22,0.14,2.33,0.22,3.17c0.13,1.43,0.27,3.4,0.4,5.62
					c0.12,2.28,0.25,3.33,0.36,5.08c0.11,1.36,0.21,4.3,0.31,4.32c0.09,1.16,0.17,2.76,0.24,3.36c0.07,2.45,0.12,2.44,0.16,2.17
					c0.03,0.73,0.05,0.8,0.05,0.77c0-0.2,1.3,0.76,2.6,0c1.3-0.5,2.6-0.51,2.6,0v-3.15c0,0.01,0-0.06,0-0.18v-8.59
					c0-3.4,0-0.95,0-5.61v-10.4c0-2.52,0-1.66,0-5.38c0-2.63,0-0.3,0-3.15c0-1.82,0-1.43,0-2.78c0-1.55,0-0.42,0-1.84
					c0-1.3,0-1.4,0-1.37v-4.2c0-1.24,0-0.94,0-1.26c0-1.29,0-0.29,0-2.02c0-1.96,0-1.41,0-1.81v-2.76c0-0.56,0-1.7,0-1.49v-4.5
					C85.04,242.6,84.19,243.11,83,243.11z"/>
				<path class="st2" d="M133.62,225.81c-1.07-0.04-1.91-0.29-2.59-0.77c-0.37,0.19-0.78,0.34-1.31,0.34c-0.7,0-1.26-0.22-1.74-0.51
					c-1.01,0.31-1.72,0.04-1.72-0.36c0-0.64-0.02-0.1-0.05,0.97c-0.03,1.51-0.09,1.14-0.15,2.72c-0.07,1.41-0.15,3.06-0.23,4.21
					c-0.09,1.29-0.19,3.04-0.3,5.44c-0.05-0.4-0.09,0.4-0.14,2.46c-0.05,1.8-0.1,1.13-0.14,2.6c-0.05,0.59-0.1,1.4-0.16,2.74
					c-0.05,0.95-0.1,1.92-0.16,2.78c-0.1,3.28-0.21,3-0.32,5.87c-0.05,0.53-0.11,1.56-0.17,2.7c-0.05,1.14-0.11,2.39-0.17,3.38
					c-0.06,0.92-0.11,2.22-0.17,3.36c-0.06,0.01-0.11,1.21-0.17,2.79c-0.12,2.03-0.23,3.61-0.34,6.07
					c-0.11,1.29-0.22,3.42-0.33,5.87c-0.11,3.37-0.21,4.65-0.3,5.53c-0.1,2.02-0.19,4.42-0.29,5.05c-0.08,0.4-0.17,2.3-0.24,4.44
					c-0.07,1.01-0.14,1.37-0.2,3.69c-0.06,1.97-0.11,2.51-0.16,2.8c-0.01,0.96-0.03,1.54-0.04,1.88c0.23-0.23,0.9,1.43,1.75,0.53
					c1.06,1.4,2.39-0.07,3.44,0c1.06-0.24,1.85-0.64,1.85,0c0-0.63,0.02,0.77,0.06-0.63c0.03,0.57,0.09-1.96,0.16-1.78
					c0.07-0.93,0.15-0.31,0.25-2.8c0.1-0.32,0.21-2.64,0.34-3.69c0.12-1.92,0.26-3.05,0.41-4.44c0.15-1.15,0.3-3.02,0.46-5.05
					c0.16-1.77,0.33-4.2,0.51-5.53c0.18-0.74,0.36-3.41,0.54-5.87c0.18-1.79,0.37-5.32,0.56-6.07c0.09-2.01,0.19-3.11,0.28-3.92
					c0.1-0.81,0.19-1.34,0.28-2.22c0.1-1.54,0.19-2.45,0.28-3.24c0.09-0.79,0.18-1.54,0.27-2.83c0.09-0.6,0.18-2.72,0.27-2.97
					c0.09-1.45,0.18-1.45,0.27-2.9c0.09-0.95,0.18-1.75,0.26-2.61c0.09-0.85,0.17-1.76,0.25-2.92c0.16-2.16,0.32-3.61,0.47-5.06
					c0.14-0.83,0.28-3.47,0.4-4.44c0.12-2.15,0.23-3.14,0.34-3.69c0.1-2.15,0.19-2.94,0.26-2.8c0.08-0.79,0.13-0.91,0.16-1.78
					c0.01-0.21,0.01-0.31,0.01-0.43C135.62,225.38,134.8,225.85,133.62,225.81z"/>
				<path class="st2" d="M193.49,295.53c-0.08-0.8-0.19-1.79-0.31-2.93c-0.12-1.1-0.25-2.6-0.41-3.83
					c-0.15-1.95-0.31-3.52-0.48-4.59c-0.18-2.44-0.36-1.44-0.55-5.2c-0.2-0.91-0.4-3.32-0.6-5.65c-0.21-0.36-0.42-4.26-0.63-5.95
					c-0.22-2.07-0.43-4.2-0.65-6.1c-0.22-1.86-0.43-4.54-0.64-6.1c-0.22-1.75-0.42-3.36-0.63-5.95c-0.21-0.99-0.4-1.44-0.6-5.65
					c-0.19-1.16-0.38-3.81-0.55-5.19c-0.09-0.88-0.17-2-0.25-3.01c-0.08-1.68-0.16-1.78-0.23-1.58c-0.07,0.73-0.14,0.22-0.21-1.04
					c-0.07-0.7-0.13-1.87-0.19-2.8c-0.06-1.18-0.12-1.24-0.17-1.06c-0.06,0.37-0.1-0.74-0.14-1.87c-0.09-0.38-0.16-1.1-0.2-1.87
					c-0.04-0.17-0.07,0.19-0.07-0.65c0-0.11-0.03-0.17-0.05-0.25c-0.36,0.13-0.74,0.23-1.19,0.24c-0.53,0.53-1.25,0.88-2.23,0.88
					c-0.76,0-1.34-0.25-1.84-0.58c-0.24,0.06-0.47,0.15-0.76,0.15h-0.43c-0.12,0-0.2-0.06-0.3-0.06c-0.55,0.55-1.29,0.93-2.29,0.93
					c-0.75,0-1.33-0.24-1.83-0.57c-0.57,0.31-1.17,0.52-1.81,0.51c0.05,0.48,0.12,1.06,0.19,1.28c0.07,1.83,0.15,1.41,0.23,1.57
					c0.08-0.29,0.18,0.58,0.28,1.35c0.1-0.29,0.21-0.13,0.32,1c0.12,0.61,0.24,1.21,0.36,2.84c0.13-0.65,0.26,1.34,0.39,2.13
					c0.14,1.78,0.28,1.92,0.42,2.46c0.14-0.2,0.29,1.47,0.45,2.06c0.08,0.54,0.15,1.48,0.23,1.54c0.07,0.75,0.15,1.43,0.23,1.59
					c0.08-0.29,0.16,0.53,0.24,1.49c0.08,1.14,0.17,1.83,0.25,1.75c0.08,1.16,0.16,1.39,0.24,1.54c0.08,0.78,0.17,0.51,0.26,0.87
					c0.17,0.85,0.35,2.26,0.52,2.86c0.18,0.85,0.36,1.73,0.53,3.09c0.35,3.12,0.71,3.42,1.07,6.1c0.36,3.26,0.72,2,1.08,6.1
					c0.36,2.57,0.71,4.97,1.05,5.95c0.35,2.27,0.68,3.81,1,5.65c0.32,3.33,0.63,3.32,0.92,5.2c0.29,1.33,0.56,3.21,0.81,4.59
					c0.25,1.59,0.48,2.58,0.67,3.83c0.2,1.14,0.37,2.12,0.52,2.93c0.28,1.61,0.45,2.52,0.45,2.52h7.79
					C193.76,298.05,193.66,297.14,193.49,295.53z"/>
				<path class="st2" d="M240.05,224.94c-0.62,0-1.13-0.15-1.58-0.38c-0.05,0-0.1,0.03-0.16,0.02c-0.55,0.72-1.4,1.23-2.59,1.23
					h-0.43c-1.01,0-1.76-0.39-2.31-0.94c-0.16,0.11-0.31,0.2-0.45,0.22c-0.44,0.13-0.7-0.48-0.7-0.58c0-0.44-0.01,1.07-0.03,0.65
					c-0.02-0.38-0.05,1.2-0.09,1.87c-0.02,0.31-0.04,0.27-0.07,1.04c-0.02,0.66-0.05,0.85-0.07,1.89c-0.03,1.08-0.06,1.63-0.08,2.12
					c-0.03,0.49-0.06,0.91-0.1,1.72c-0.03,0.7-0.07,1.44-0.1,2.21c-0.04,0.76-0.07,1.56-0.11,2.38c-0.06,1.97-0.14,3.82-0.21,4.47
					c-0.07,2.54-0.15,3.26-0.23,4.83c-0.04,0.81-0.08,1.51-0.12,2.29c-0.04,0.78-0.08,1.65-0.12,2.8c-0.04,0.99-0.08,0.95-0.12,2.32
					c-0.04,1.55-0.08,1.99-0.12,2.93c-0.04,0.87-0.08,1.62-0.13,2.45c-0.04,0.82-0.08,1.71-0.12,2.86
					c-0.08,1.72-0.17,3.53-0.25,5.27c-0.09,1.96-0.18,3.88-0.27,5.76c-0.09,1.88-0.17,3.7-0.26,5.45c-0.08,1.83-0.16,3.24-0.24,4.99
					c-0.08,0.91-0.14,3.25-0.21,4.4c-0.07,1.87-0.12,2.29-0.17,3.67c-0.05,0.15-0.09,2.65-0.13,2.79c-0.04,1.69-0.07,0.67-0.09,1.78
					c-0.02,0.06-0.03,0.46-0.03,0.63c0,0.2,1.62,0.45,3.25,0c1.62,0.17,3.24,0,3.24,0s0.02-0.22,0.06-0.63
					c0.04-0.84,0.09-0.81,0.16-1.78c0.07,0.24,0.15-2.11,0.25-2.79c0.1-1.76,0.2-1.86,0.33-3.67c0.12-2.26,0.25-3.35,0.38-4.4
					c0.14-1.58,0.29-3.24,0.44-4.99c0.31-3.5,0.64-7.3,0.99-11.21c0.08-0.87,0.15-1.69,0.23-2.54c0.08-0.85,0.16-1.73,0.24-2.73
					c0.07-1.22,0.15-1.8,0.23-2.66c0.08-0.84,0.16-2.08,0.24-2.65c0.08-0.36,0.15-2.29,0.23-2.68c0.08-0.96,0.15-2.45,0.23-2.56
					c0.08-2.05,0.15-3.05,0.23-3.03c0.08-1.16,0.15-1.43,0.22-2.06c0.07-0.5,0.15-2.05,0.22-2.86c0.07-0.81,0.14-1.48,0.21-1.96
					c0.13-1.56,0.27-3.06,0.39-4.47c0.15-1.64,0.28-3.18,0.41-4.59c0.12-0.27,0.24-3.3,0.34-3.84c0.1-1.63,0.19-2,0.26-2.93
					c0.07-0.91,0.13-0.74,0.16-1.87c0.03,0.23,0.05-0.15,0.06-0.49C240.96,224.83,240.54,224.94,240.05,224.94z"/>
				<path class="st2" d="M134.05,276.86c0-0.7,0-0.84,0-0.43c0-0.78,0.08-1.11,0.21-1.22c0.13,1.16,0.33-1.41,0.56-0.94
					c0.22-0.36,0.64-2.39,1.18-1.49c0.05,0.12,0.1-1.9,0.22-0.84c0-1.29,0-1.02,0-1.43c0-1.63,0-0.94,0-1.43
					c0,0.94-0.26,0.54-0.75,0.08c-0.49,0.36-1.21,0.31-2.14,0.23c-0.46-1.31-0.98-0.4-1.54,0.06c-0.56-0.81-1.18,0.04-1.84,0.3
					c-0.66,1.16-1.37,1.1-2.11-0.24c-0.75-0.03-1.54,0.1-2.37,0.72c-1.67-0.63-3.49-0.03-5.46,0.57c-1.96,1.05-4.06,0.43-6.26,0.66
					c-1.66,0.17-3.38,0.35-5.15,0.54c-1.77,2.84-3.59,0.92-5.46,0.58c-1.86-0.06-3.77,0.27-5.72,0.6c-1.94,0.65-3.92-1.09-5.91,0.62
					c-1.99,0.21-4.01,0.42-6.04,0.64c-1.88,0.2-3.78,0.4-5.67,0.6c-1.9,0.09-3.8,1.02-5.69,0.6c-1.9-0.59-3.79,1.03-5.66,0.6
					c-1.87,0.2-3.73,0.39-5.57,0.59c-1.84,0.19-3.65,0.38-5.44,0.57c-1.78,0.61-3.53-0.32-5.25,0.56c-0.86-0.68-1.7-0.73-2.54,0.27
					c-0.83,0.43-1.66-0.13-2.48,0.26c-0.82-0.22-1.62,0.89-2.41,0.1c-0.79-1.07-1.57,1.45-2.33,0.4c-0.77,0.22-1.52-0.13-2.25-0.13
					c-0.73,0-1.45,0.12-2.16,0.59c-1.42,0.22-2.76-0.2-4.03,0.43c-1.27,0.6-2.48,1.02-3.6,0.38c-0.57,0.06-1.11,0.11-1.63,0.16
					c-0.52,0.05-1.02,0.11-1.5,0.17c-0.54,0.03-1.06-0.06-1.54,0.01c-0.48,0.06-0.93,0.12-1.36,0.3c-0.43-0.43-0.82-0.35-1.17-0.24
					c-0.36-0.37-0.69,0.02-0.99,0.46c-0.59,0.83-1.04,0.26-1.35,0.14c-0.3-1.17-0.47-0.58-0.47,0.05c0.48-0.05,0.89,0.97,1.25,0.44
					c0.35,0.25,0.63,0.5,0.86,0.83c0.14,0.55,0.25-0.31,0.41-0.08c0.54,0.33,1.01-0.37,1.42,0.08c0.41,0.91,0.75,0.1,1.02,0.94
					c0.27,0.21,0.49,0.86,0.63,1.13c0.15,0.52,0.23,0.35,0.25,1.14c0.13,0.6,0.26,0.66,0.36,0.51c0,0.61,1.08,0.35,1.08,0.53
					c0,0.85,0.16,0.28,0.47-0.02c0.31-0.78,0.77-0.85,1.36-0.07c0.59-0.11,1.32,0.14,2.17-0.1c0.39,1.66,0.81-0.18,1.25-0.06
					c0.44-0.5,0.91-1.08,1.4-0.07c0.99-0.48,2.06-0.32,3.22-0.16c0.58,0.01,1.19,0.13,1.81,0.17c0.62,0.03,1.26-0.02,1.93-0.34
					c0.66-0.11,1.34,0.39,2.04,0.08c0.7,0.59,1.42-0.57,2.15-0.29c0.73,0.11,1.48-0.44,2.25,0.02c0.77,0.19,1.55-1.01,2.34-0.24
					c1.51-0.06,3.08,0.75,4.68-0.23c1.61,0.02,3.26-0.15,4.94-0.24c1.78-0.08,3.59-0.17,5.44-0.26c1.84-0.09,3.72-1.23,5.62-0.27
					c1.89,0.15,3.81-1.3,5.73-0.27c1.92,0.13,3.85-1.24,5.78-0.28c1.93-0.09,3.86-0.19,5.78-0.28c2.08-0.1,4.15-0.2,6.19-0.3
					c2.04-1.4,4.06,1.21,6.04-0.29c1.98,0.67,3.93,0.07,5.82-0.28c1.89-0.67,3.74,2.03,5.52-0.26c1.79-0.28,3.51,0.42,5.16-0.24
					c0.82,0.14,1.63,0.1,2.41,0.02c0.78-1.52,1.55-0.85,2.29-0.24c2.23,0.08,4.27,0.97,6.06-0.29c0.9-0.18,1.74-0.22,2.52-0.23
					c0.78-0.46,1.49,0.71,2.13,0c1.28-1.21,2.29,0.97,2.97-0.14c0.68-0.79,1.05-0.55,1.05-0.05c-0.43-0.53-0.66-1.57-0.69-2.01
					c-0.42,0.19-0.78-1.56-1.03-1.09C134.2,277.44,134.05,276.17,134.05,276.86z"/>
				<path class="st2" d="M240.42,263.54c-0.3-0.33-0.67-0.39-1.1-0.3c-0.44,0.09-0.93,0.32-1.49,0.59
					c-0.56,0.18-1.18-0.41-1.85,0.28c-0.67-0.44-1.4,0.19-2.17,0.16c-0.77-0.26-1.6,0.99-2.47,0.34c-0.87-0.19-1.79-0.1-2.74,0.23
					c-1.9-0.68-3.96,0.31-6.14,0.68c-0.91,0.1-1.84,0.2-2.78,0.3c-0.95,0.11-1.91,0.21-2.88,0.32c-0.85,0.49-1.72,0.81-2.6,0.29
					c-0.88-0.21-1.75,0.49-2.65,0.29c-0.89-1.47-1.79-0.48-2.68-0.15c-0.9,0.84-1.81,1.01-2.72,0.74c-0.91,1.98-1.82,0.16-2.73,0.36
					c-0.92,0.2-1.83,0.38-2.74,0.23c-1.83,2.31-3.65,0.4-5.46,0.6c-1.8,0.2-3.59,0.4-5.34,0.59c-1.75,0.19-3.47,0.38-5.13,0.56
					c-1.66,0.55-3.27,0-4.82,0.53c-1.55-1.31-3.02-0.65-4.42,0.48c-1.4-0.83-2.71,0.09-3.92,0.43c-0.69-1.17-1.35,0.08-1.97,0.22
					c-0.62,0.07-1.21,0.13-1.76,0.2c-1.1,0.43-2.06,0.45-2.84,0.31c-0.78,0.7-1.39,1.16-1.8,0.2c-0.05,0.01-0.1,0.05-0.15,0.09
					c0.81,1.14,0.86,2.74,0.18,3.96c-0.01,0.11,0.03,0.2,0.02,0.31c0.2,0.36,0.34,0.76,0.41,1.18c0.36-0.14,0.81-0.01,1.35,0.37
					c0.78-0.62,1.73-0.12,2.84,0c0.55,0.19,1.14-0.02,1.76-0.18c0.62,0.77,1.28-0.26,1.97,0.18c0.69-0.94,1.41,0.81,2.16,0
					c0.75-0.03,1.53-0.53,2.33,0c1.41-0.26,2.89,0.05,4.44,0c1.55-0.52,3.16-0.47,4.82,0h10.42c1.79-1.08,3.61,0.13,5.41,0
					c0.91-0.01,1.81,0.02,2.72,0.03c0.91,0.01,1.81,0.02,2.71-0.03c0.9-0.48,1.8-0.4,2.69,0.22c0.9,0.2,1.78-0.19,2.67-0.22
					c0.88-0.18,1.75-1.15,2.61,0c0.86-0.04,1.72,1.09,2.56,0h6.48c2.06,0.43,4,0.88,5.79,0c0.9-0.29,1.75-0.33,2.57-0.27
					c0.82,0.06,1.59,0.2,2.32,0.27c0.72,0.07,1.41,0.59,2.03,0.35c0.63,0.44,1.2-0.26,1.72-0.35c0.52,0.01,0.99,0.01,1.39,0
					c0.4,0.41,0.74-0.39,1.02,0c0.04-0.03,0.08-0.03,0.13-0.03c-0.21-0.3-0.39-0.62-0.45-1c-0.08-0.37-0.05-0.38,0.08-0.04
					c-0.16-0.37-0.31-0.74-0.46-1.12c-0.12-0.49-0.2-0.99-0.18-1.5c0-0.07,0.04-0.14,0.04-0.21c-0.12-0.44-0.12-0.9-0.02-1.34
					c-0.43-1.03-0.34-2.23,0.18-3.2c-0.11-1.01,0.18-2.01,0.84-2.75c-0.06-0.9,0.16-1.8,0.7-2.51c0-0.25,0-0.46,0-0.41v-0.39
					C241.34,264.47,241.03,264.59,240.42,263.54z"/>
			</g>
			<g>
				<path class="st3" d="M26.14,282.55c0.52-0.05,1.06-0.1,1.63-0.16c1.13,0.64,4.09-1.42,3.99-1.88c-0.48,0.03-0.95-0.03-1.4-0.28
					c-0.57,0.06-1.11,0.11-1.63,0.16c-0.52,0.05-1.02,0.11-1.5,0.17c-0.54,0.03-1.06-0.06-1.54,0.01c-0.48,0.06-0.93,0.12-1.36,0.3
					c-0.43-0.43-0.82-0.35-1.17-0.24c-0.36-0.37-0.69,0.02-0.99,0.46c-0.59,0.83-1.04,0.26-1.35,0.14c-0.3-1.17-0.47-0.58-0.47,0.05
					c0.48-0.05,0.89,0.97,1.25,0.44c0.35,0.25,0.63,0.5,0.86,0.83c0.14,0.55,0.25-0.31,0.41-0.08c0.54,0.33,1.01-0.37,1.42,0.08
					c0.04,0.09,0.08,0.1,0.12,0.16c0.08,0,0.16,0.01,0.23,0C25.11,282.66,25.61,282.61,26.14,282.55z"/>
				<path class="st3" d="M42.14,280.72c0.79,0.78,1.59-0.33,2.41-0.1c0.81-0.39,1.64,0.17,2.48-0.26c0.84-0.99,1.69-0.95,2.55-0.27
					c1.71-0.87,3.46,0.06,5.25-0.55c1.78-0.19,3.6-0.38,5.44-0.57c1.84-0.19,3.7-0.39,5.57-0.59c1.87,0.44,9.97-2.17,9.94-2.7
					c-0.57,0.05-1.13,0.06-1.68-0.06c-1.9-0.59-3.79,1.03-5.66,0.6c-1.87,0.2-3.73,0.39-5.57,0.59c-1.84,0.19-3.65,0.38-5.44,0.57
					c-1.78,0.61-3.53-0.32-5.25,0.56c-0.86-0.68-1.7-0.73-2.54,0.27c-0.83,0.43-1.66-0.13-2.48,0.26c-0.82-0.22-1.62,0.89-2.41,0.1
					c-0.79-1.07-1.57,1.45-2.33,0.4c-0.41,0.12-0.82,0.07-1.22,0.01c-0.09-0.79-0.19-1.56-0.29-2.27c-0.21-2.12-0.43-4.14-0.64-5.23
					c-0.22-3.31-0.43-4.5-0.66-5.28c-0.1-0.93-0.21-2.02-0.32-2.36c-0.01-0.09-0.02-0.19-0.03-0.28c-0.47,0.07-0.94,0.07-1.4-0.24
					c-0.49,0.29-0.96,0.41-1.44,0.24c0.09,0.83,0.18,1.74,0.28,2.45c0.11,0.34,0.22,1.43,0.32,2.36c0.22,0.78,0.44,1.98,0.65,5.28
					c0.22,1.09,0.43,3.1,0.64,5.22c0.1,0.71,0.2,1.48,0.29,2.27c0.4,0.07,0.81,0.12,1.22-0.01
					C40.58,282.17,41.35,279.65,42.14,280.72z"/>
				<path class="st3" d="M76.14,242.58c0.04-0.1,0.09-0.37,0.15,2.17c0,0.02,0,0.03,0.01,0.05c0.54-0.04,1-0.19,1.4-0.43
					c0.01,0.01,0.04,0.01,0.06,0.03c0.54,0.5,1.26,0.86,2.22,0.86h0.43c1.19,0,2.04-0.51,2.6-1.23v4.5c0-0.21,0,0.93,0,1.49v2.52
					c0.41-0.08,0.82,0.56,1.23,0c0.45,0.2,0.9-0.57,1.35,0.15c0.45,0.59,0.91-0.18,1.36,0.19c0.46-0.01,0.91-1.19,1.37-0.15
					c0.46-0.55,0.91-0.79,1.37-0.47c0.46,0.32,0.92-0.6,1.38-0.1c0.46-0.84,0.92,0.05,1.39-0.12c0.46-0.26,0.93,0.26,1.39-0.02
					c0.46-1.41,0.93-0.62,1.4-0.05c0.93,1.16,1.87-2.37,2.81-0.14c0.93,0.33,1.88,1.67,2.83-0.14c1.95-0.42,3.9-1.07,5.87-0.3
					c1.96,2.06,3.94-0.73,5.93-0.3c1.99,1.33,3.98-1.03,5.98-0.3c1.22-0.3,2.45-0.38,3.68-0.39c1.81-0.24,2.55-1.3,2.58-1.98
					c-0.4,0.06-3.26,0.1-3.66,0.2c-2-0.72-3.99,1.63-5.98,0.31c-1.99-0.43-3.97,2.36-5.94,0.3c-1.97-0.77-3.93-0.12-5.87,0.3
					c-0.95,1.82-1.89,0.47-2.83,0.14c-0.94-2.23-1.88,1.3-2.81,0.14c-0.47-0.57-0.94-1.36-1.4,0.05c-0.46,0.27-0.93-0.24-1.39,0.02
					c-0.46,0.16-0.92-0.72-1.38,0.12c-0.46-0.5-0.92,0.42-1.38,0.1c-0.46-0.33-0.92-0.08-1.37,0.47c-0.46-1.04-0.91,0.13-1.37,0.15
					c-0.45-0.37-0.91,0.4-1.36-0.19c-0.45-0.72-0.91,0.05-1.35-0.15c-0.41,0.56-0.82-0.09-1.23,0v-2.52c0-0.56,0-1.7,0-1.49v-4.5
					c-0.56,0.72-1.41,1.23-2.6,1.23h-0.43c-0.96,0-1.67-0.36-2.22-0.86c-0.02-0.01-0.04-0.01-0.06-0.03
					c-0.45,0.26-0.96,0.46-1.62,0.46c-0.93,0-1.61-0.34-2.15-0.82c-0.28,0.01-0.43-0.15-0.44-0.05
					C76.09,242.31,76.11,243.89,76.14,242.58z"/>
				<path class="st3" d="M33.34,238.67c0.06-0.2,0.15,1.25,0.26,2.12c0.12,1.57,0.25,1.3,0.41,3.28c0.08,0.57,0.16,1.02,0.25,1.63
					c0.09,0.62,0.18,0.71,0.28,2.63c0.09,0.28,0.2,2.44,0.3,2.44c0.1,0.97,0.21-0.91,0.33,2.6c0.02,0.41,0.04,0.71,0.07,0.94
					c0.85-0.51,1.73-0.39,2.62,0.6c1.22-0.05,2.48,1.07,3.79-0.19c1.3-0.63,2.63-0.1,4-0.2c1.37,2.74,2.78,0.47,4.22-0.22
					c1.44,0.92,2.92-0.01,4.42-0.22c1.5,2.59,3.03,0.31,4.6-0.24c1.56-0.07,3.16,0.33,4.78-0.24c0.81-0.13,1.63-0.29,2.45-0.36
					c0.83-0.44,7.96-0.69,7.95-0.86c-0.11-0.07-0.23-0.17-0.34-0.31c-0.85,0.23-1.69,0.45-2.53-0.88c-0.83-0.58-1.66-0.55-2.49-0.11
					c-0.82,0.07-1.64,0.23-2.45,0.36c-1.62,0.57-3.22,0.17-4.78,0.24c-1.57,0.55-3.1,2.82-4.6,0.24c-1.51,0.22-2.98,1.14-4.42,0.22
					c-1.44,0.69-2.85,2.96-4.21,0.22c-1.37,0.1-2.71-0.43-4.01,0.2c-1.3,1.26-2.56,0.14-3.79,0.19c-0.89-0.99-1.77-1.11-2.62-0.6
					c-0.02-0.23-0.05-0.52-0.07-0.93c-0.11-3.51-0.22-1.63-0.32-2.6c-0.1,0-0.2-2.16-0.3-2.44c-0.09-1.92-0.19-2.02-0.28-2.63
					c-0.09-0.62-0.17-1.07-0.25-1.63c-0.16-1.98-0.29-1.71-0.41-3.29c-0.11-0.87-0.2-2.31-0.26-2.12c-0.06-0.67-0.09-0.28-0.09-0.75
					c0-1.66-0.91,0.56-2.13,1.57c-0.15,0.31-0.3,0.59-0.45,0.84C33.28,238.23,33.31,238.23,33.34,238.67z"/>
				<path class="st3" d="M30.76,240.16c-0.35,0.08-0.68,0.09-1,0.08c-1.22,0.77-2.13,0.66-2.13,1.57c0,0.16,0.05,0.37,0.1,0.58
					C28.71,242.31,29.8,241.81,30.76,240.16z"/>
				<path class="st3" d="M173.47,227.84c0.26,0.07,0.51,0.13,0.81,0.13c1.01,0,1.75-0.37,2.29-0.93c0.11,0.01,0.19,0.06,0.31,0.06
					h0.43c0.29,0,0.51-0.09,0.76-0.15c0.5,0.34,1.08,0.58,1.84,0.58c0.98,0,1.7-0.35,2.23-0.88c0.44-0.01,0.83-0.11,1.19-0.24
					c0.02,0.08,0.05,0.14,0.05,0.25c0,0.84,0.03,0.49,0.07,0.66c0.05,0.76,0.12,1.48,0.2,1.86c0.04,1.13,0.09,2.24,0.14,1.87
					c0.05-0.18,0.11-0.12,0.17,1.06c0.06,0.93,0.12,2.09,0.19,2.8c0.07,1.26,0.14,1.77,0.21,1.04c0.07-0.19,0.15-0.09,0.23,1.59
					c0.08,1,0.17,2.13,0.25,3c0.17,1.38,0.36,4.04,0.55,5.19c0.02,0.4,0.04,0.74,0.05,1.08c0.51,0.13,1.01,0.3,1.52,0.5
					c1.96,0.09,3.89-0.7,5.79-0.29c0.96-0.05,1.9,0.04,2.84-0.15c0.94-0.97,1.87-0.34,2.8-0.14c2.42-0.95,4.79,0.78,7.1-0.36
					c2.3-0.08,4.56-1.79,6.75-0.34c2.18-1.23,4.3,0.59,6.36-0.33c2.05-0.63,4.03,0.49,5.94-0.3c1.32,0.72,2.6-0.35,3.84-0.63
					c0.03-0.31,2.55-1.37,2.58-1.93c-0.44,0.07-3.38,0.63-3.83,0.39c-1.9,0.79-3.88-0.33-5.94,0.3c-2.06,0.92-4.18-0.9-6.36,0.32
					c-2.19-1.44-4.44,0.27-6.74,0.34c-2.31,1.14-4.68-0.59-7.1,0.36c-0.93-0.2-1.86-0.82-2.8,0.14c-0.94,0.18-1.89,0.1-2.84,0.15
					c-1.9-0.41-3.83,0.38-5.8,0.3c-0.5-0.21-1.01-0.38-1.51-0.5c-0.02-0.34-0.03-0.68-0.06-1.08c-0.19-1.16-0.38-3.81-0.55-5.19
					c-0.09-0.88-0.17-2-0.25-3.01c-0.08-1.68-0.16-1.78-0.23-1.58c-0.07,0.73-0.14,0.22-0.21-1.04c-0.07-0.7-0.13-1.87-0.19-2.8
					c-0.06-1.18-0.12-1.24-0.17-1.06c-0.06,0.37-0.1-0.74-0.14-1.87c-0.09-0.38-0.16-1.1-0.2-1.87c-0.04-0.17-0.07,0.19-0.07-0.65
					c0-0.11-0.03-0.17-0.05-0.25c-0.36,0.13-0.74,0.23-1.19,0.24c-0.53,0.53-1.25,0.88-2.23,0.88c-0.76,0-1.34-0.25-1.84-0.58
					c-0.24,0.06-0.47,0.15-0.76,0.15h-0.43c-0.12,0-0.2-0.06-0.3-0.06c-0.55,0.55-1.29,0.93-2.29,0.93c-0.75,0-1.33-0.24-1.83-0.57
					c-0.57,0.31-1.17,0.52-1.81,0.51c0.05,0.48,0.12,1.06,0.19,1.28C173.45,227.38,173.46,227.63,173.47,227.84z"/>
				<path class="st3" d="M85.6,265.92c0-1.82,0-1.43,0-2.78c0-1.55,0-0.42,0-1.84c0-0.64,0-0.98,0-1.17
					c-0.81-0.01-1.63,0.05-2.44,0.38c-0.05,0.03-0.1,0.02-0.16,0.04v1.53c0-0.03,0,0.07,0,1.37c0,1.42,0,0.29,0,1.84
					c0,1.35,0,0.96,0,2.79c0,2.86,0,0.52,0,3.15c0,3.69,0,2.88,0,5.33c1.98-0.21,3.94-0.42,5.89-0.62c2-1.71,3.97,0.03,5.91-0.62
					c1.94-0.34,3.85-0.66,5.71-0.6c1.87,0.35,3.7,2.26,5.47-0.58c1.77-0.19,3.49-0.37,5.15-0.54c2.21-0.23,4.3,0.39,6.27-0.66
					c1.31-0.4,2.55-0.77,3.73-0.8c1.84-0.25,2.56-1.63,2.6-2.19c-0.41,0.11-3.31,0.7-3.73,0.83c-1.96,1.05-4.06,0.43-6.26,0.66
					c-1.66,0.17-3.38,0.35-5.15,0.54c-1.77,2.84-3.59,0.92-5.46,0.58c-1.86-0.06-3.77,0.27-5.72,0.6c-1.94,0.65-3.92-1.09-5.91,0.62
					c-1.94,0.21-3.91,0.41-5.89,0.62c0-2.46,0-1.64,0-5.33C85.6,266.44,85.6,268.77,85.6,265.92z"/>
				<path class="st3" d="M198.1,270.08c0.92,0.14,1.83-0.04,2.74-0.24c0.91-0.2,1.82,1.62,2.73-0.36c0.91,0.27,1.82,0.1,2.72-0.74
					c0.9-0.33,1.8-1.32,2.69,0.15c0.89,0.21,1.77-0.5,2.65-0.29c0.88,0.52,1.74,0.21,2.6-0.28c0.98-0.11,1.94-0.21,2.88-0.32
					c0.95-0.1,1.87-0.21,2.78-0.3c2.17-0.36,4.23-1.36,6.14-0.67c0.45-0.16,0.89-0.25,1.33-0.29c0.02-0.41,2.57,0.38,2.59-0.01
					c0.01-0.31-0.01-1.78,0-2.06c-1.57-0.08-5.73,0.59-7.46,0.88c-0.91,0.1-1.84,0.2-2.78,0.3c-0.95,0.11-1.91,0.21-2.88,0.32
					c-0.85,0.49-1.72,0.81-2.6,0.29c-0.88-0.21-1.75,0.49-2.65,0.29c-0.89-1.47-1.79-0.48-2.68-0.15c-0.9,0.84-1.81,1.01-2.72,0.74
					c-0.91,1.98-1.82,0.16-2.73,0.36c-0.92,0.2-1.83,0.38-2.74,0.23c-1.83,2.31-3.65,0.4-5.46,0.6c-1.55,0.17-3.06,0.34-4.57,0.51
					c-0.06-0.62-0.11-1.2-0.17-1.63c-0.22-2.07-0.43-4.2-0.65-6.1c-0.22-1.86-0.43-4.54-0.64-6.1c-0.05-0.36-0.36-3.08-0.4-3.43
					c-0.95,0.35-2.14,1-2.59,2.16c0.13,1.26,0.26,2.33,0.4,3.43c0.21,1.57,0.42,4.24,0.64,6.1c0.21,1.91,0.43,4.04,0.64,6.1
					c0.06,0.43,0.11,1.01,0.17,1.63c1.5-0.16,3.02-0.33,4.57-0.5C194.45,270.48,196.27,272.38,198.1,270.08z"/>
				<path class="st3" d="M127.13,227.54c0.52,0,0.93-0.15,1.31-0.34c0.68,0.48,1.51,0.73,2.59,0.77c1.18,0.04,2-0.42,2.55-1.1
					c0,0.12,0,0.21-0.01,0.43c-0.03,0.87-0.08,0.99-0.16,1.78c-0.07-0.13-0.16,0.66-0.26,2.81c-0.1,0.55-0.22,1.54-0.34,3.69
					c-0.12,0.97-0.26,3.61-0.4,4.44c-0.15,1.44-0.31,2.89-0.47,5.05c-0.08,1.16-0.16,2.06-0.25,2.92c-0.07,0.71-0.14,1.41-0.22,2.16
					c0.76-0.04,1.52-0.08,2.28-0.12c1.01-0.49,2.01-0.24,3.02-0.15c0.62-0.58,1.24-0.12,1.85-0.09c0.62,0.13,1.24,0.86,1.85-0.1
					c0.62-0.38,1.24,0.23,1.85-0.09c0.62,0.35,1.23-0.81,1.85-0.09c0.62,0.02,1.24,0.46,1.85,0.2c0.61-0.32,1.23,0.1,1.84-0.39
					c0.62,0.08,1.23,0.7,1.84-0.12c0.61,0.33,1.23,0.12,1.84-0.06c0.61,0.53,1.23-0.03,1.84,0.5c0.61-0.3,1.22-0.79,1.83-0.69
					c0.61-0.21,1.22,0.33,1.83,0.33c0.61,0.07,1.22-0.07,1.82-0.51c0.61,0.03,1.21,0.54,1.81,0.03c0.61-0.39,1.21,0.01,1.81-0.21
					c0.53,0.72,1.05,0.17,1.58,0.34c0.52-0.04,1.05-0.15,1.57-0.62c0.52,0.3,1.05,0.43,1.57,0.41c0.52-0.02,1.04-0.18,1.56-0.45
					c1.03-0.09,2.07,0.88,3.1,0.36c0.73-0.06,1.46-0.46,2.19-0.63c-0.02-0.22,1.83-0.37,1.81-0.65c-0.02-0.24,0.85-0.84,0.79-1.52
					c-0.85,0.07-4.43,0.2-5.29,0.27c-0.52,0.28-1.04,0.44-1.56,0.46c-0.52,0.02-1.05-0.11-1.57-0.41c-0.52,0.46-1.05,0.57-1.57,0.61
					c-0.52-0.17-1.05,0.38-1.58-0.35c-0.6,0.22-1.2-0.18-1.8,0.21c-0.61,0.51-1.21,0-1.82-0.03c-0.6,0.44-1.21,0.58-1.82,0.52
					c-0.61,0-1.22-0.54-1.83-0.33c-0.61-0.1-1.22,0.4-1.83,0.69c-0.61-0.53-1.22,0.03-1.83-0.5c-0.61,0.18-1.23,0.39-1.84,0.06
					c-0.61,0.83-1.23,0.2-1.84,0.13c-0.62,0.49-1.23,0.07-1.85,0.39c-0.62,0.26-1.23-0.18-1.85-0.2c-0.62-0.71-1.23,0.45-1.85,0.1
					c-0.62,0.32-1.23-0.29-1.85,0.09c-0.62,0.95-1.23,0.22-1.85,0.09c-0.61-0.02-1.23-0.48-1.85,0.09
					c-1.01-0.09-2.01-0.34-3.02,0.15c-0.76,0.03-1.52,0.08-2.28,0.12c0.07-0.76,0.15-1.45,0.22-2.16c0.09-0.85,0.17-1.76,0.25-2.92
					c0.16-2.16,0.32-3.61,0.47-5.06c0.14-0.83,0.28-3.47,0.4-4.44c0.12-2.15,0.23-3.14,0.34-3.69c0.1-2.15,0.19-2.94,0.26-2.8
					c0.08-0.79,0.13-0.91,0.16-1.78c0.01-0.21,0.01-0.31,0.01-0.43c-0.55,0.68-1.37,1.15-2.55,1.11c-1.07-0.04-1.91-0.29-2.59-0.77
					c-0.37,0.19-0.78,0.34-1.31,0.34c-0.7,0-1.26-0.22-1.74-0.51c-1.01,0.31-1.72,0.04-1.72-0.36c0-0.64-0.02-0.1-0.05,0.97
					c-0.02,1.15-0.07,1.22-0.1,1.89C126.41,227.46,126.74,227.54,127.13,227.54z"/>
				<path class="st3" d="M240.42,263.54c-0.3-0.33-0.67-0.39-1.1-0.3c-0.42,0.08-0.91,0.31-1.45,0.57c0.02-0.17,0.03-0.31,0.05-0.49
					c0.07-1.22,0.15-1.8,0.23-2.66c0.08-0.84,0.16-2.08,0.24-2.65c0.08-0.36,0.15-2.29,0.23-2.68c0.08-0.96,0.15-2.45,0.23-2.56
					c0.02-0.69,0.28-3.46,0.3-3.91c-0.76,0.08-1.97,0.86-2.6,2.18c-0.02,0.23-0.05,0.49-0.07,0.87c-0.08-0.02-0.15,0.99-0.23,3.03
					c-0.07,0.11-0.15,1.6-0.23,2.56c-0.07,0.39-0.15,2.32-0.23,2.68c-0.08,0.57-0.15,1.8-0.24,2.65c-0.08,0.86-0.16,1.44-0.23,2.66
					c-0.02,0.18-0.03,0.32-0.05,0.49c0.55-0.26,1.03-0.49,1.45-0.57c0.43-0.08,0.8-0.02,1.1,0.3c0.6,1.04,0.92,0.93,0.92-0.1v0.39
					c0-0.04,0,0.16,0,0.41c-0.54,0.71-0.77,1.61-0.71,2.51c-0.66,0.75-0.95,1.75-0.84,2.75c-0.52,0.97-0.61,2.17-0.18,3.2
					c-0.09,0.45-0.1,0.9,0.02,1.34c-0.01,0.07-0.04,0.14-0.04,0.21c-0.02,0.51,0.06,1,0.18,1.5c0.04,0.11,0.09,0.22,0.14,0.33
					c0.26-0.12,0.5-0.27,0.74-0.31c0.52,0.01,0.99,0.01,1.39,0c0.4,0.41,0.74-0.39,1.02,0c0.04-0.03,0.08-0.03,0.13-0.03
					c-0.21-0.3-0.39-0.62-0.45-1c-0.08-0.37-0.05-0.38,0.08-0.04c-0.16-0.37-0.31-0.74-0.46-1.12c-0.12-0.49-0.2-0.99-0.18-1.5
					c0-0.07,0.04-0.14,0.04-0.21c-0.12-0.44-0.12-0.9-0.02-1.34c-0.43-1.03-0.34-2.23,0.18-3.2c-0.11-1.01,0.18-2.01,0.84-2.75
					c-0.06-0.9,0.16-1.8,0.7-2.51c0-0.25,0-0.46,0-0.41v-0.39C241.34,264.47,241.03,264.59,240.42,263.54z"/>
				<path class="st3" d="M235.48,280.1c-0.45,0.08-0.95,0.58-1.48,0.43c-0.04,0.47-0.09,0.97-0.13,1.43
					c-0.15,1.75-0.3,3.42-0.44,4.99c-0.14,1.05-0.27,2.14-0.38,4.4c-0.12,1.8-0.23,1.91-0.33,3.67c-0.09,0.68-0.18,3.04-0.24,2.79
					c-0.01,0.13-0.02,0.2-0.03,0.29c1.3,0.06,2.41-0.05,2.41-0.05s0.02-0.22,0.06-0.63c0.04-0.84,0.09-0.81,0.16-1.78
					c0.07,0.24,0.15-2.11,0.25-2.79c0.1-1.76,0.2-1.86,0.33-3.67c0.12-2.26,0.25-3.35,0.38-4.4c0.13-1.48,0.27-3.06,0.41-4.69
					C236.13,280.1,235.84,280.11,235.48,280.1z"/>
				<path class="st3" d="M193.18,292.6c-0.12-1.1-0.25-2.6-0.41-3.83c-0.15-1.95-0.31-3.52-0.48-4.59c-0.15-2.16-0.54-3.8-0.71-6.24
					h-1.66c0.05,0.43-0.83,2.96-0.78,3.21c0.19,3.76,0.37,2.76,0.55,5.2c0.17,1.07,0.33,2.64,0.48,4.59
					c0.15,1.23,0.29,2.74,0.41,3.83c0.12,1.14,0.23,2.12,0.31,2.93c0.01,0.14,0.02,0.23,0.04,0.36h2.82c0,0-0.1-0.91-0.27-2.52
					C193.4,294.73,193.3,293.74,193.18,292.6z"/>
				<path class="st3" d="M254.79,241.83c-0.27,0.65-0.65,0.86-1.17,0.06c-0.51,0.66-1.14,0.32-1.89,0.09
					c-0.75,0.33-1.61-0.22-2.59,0.13c-0.98-0.89-2.06,0.4-3.25,0.16c-1.19-0.4-2.47,0.33-3.86,0.2c-0.74-0.1-1.52,0.22-2.31,0.41
					c0-0.01,0.01-0.03,0.01-0.04c0.13-1.56,0.27-3.06,0.39-4.47c0.15-1.64,0.28-3.18,0.41-4.59c0.12-0.27,0.24-3.3,0.34-3.84
					c0.1-1.63,0.19-2,0.26-2.93c0.07-0.91,0.13-0.74,0.16-1.87c0.03,0.23,0.05-0.15,0.06-0.49c-0.39,0.15-0.8,0.26-1.3,0.26
					c-0.62,0-1.13-0.15-1.58-0.38c-0.05,0-0.1,0.03-0.16,0.02c-0.55,0.72-1.4,1.23-2.59,1.23h-0.43c-1.01,0-1.76-0.39-2.31-0.94
					c-0.16,0.11-0.31,0.2-0.45,0.22c-0.44,0.13-0.7-0.48-0.7-0.58c0-0.44-0.01,1.07-0.03,0.65c-0.02-0.38-0.05,1.2-0.09,1.87
					c-0.01,0.26-0.04,0.3-0.06,0.74c0.32,0.1,0.64,0.2,1.04,0.2h0.43c1.19,0,2.04-0.51,2.59-1.23c0.06,0.01,0.11-0.02,0.16-0.02
					c0.45,0.23,0.96,0.38,1.58,0.38c0.5,0,0.91-0.11,1.3-0.26c-0.01,0.34-0.03,0.72-0.06,0.49c-0.03,1.13-0.09,0.96-0.16,1.86
					c-0.07,0.93-0.16,1.3-0.26,2.93c-0.1,0.53-0.21,3.56-0.34,3.83c-0.13,1.41-0.26,2.95-0.41,4.59c-0.12,1.42-0.26,2.92-0.39,4.48
					c0,0.01,0,0.03-0.01,0.04c0.8-0.19,1.57-0.51,2.31-0.41c1.39,0.13,2.67-0.6,3.86-0.2c1.19,0.23,2.27-1.06,3.24-0.16
					c0.97-0.36,1.84,0.2,2.59-0.13c0.75,0.23,1.38,0.57,1.89-0.09c0.52,0.8,0.91,0.59,1.17-0.06c0.24-0.56,0.37-0.24,0.39-0.07
					c-0.21,0.27-0.35,0.58-0.46,0.9c-0.08,0.07-0.17,0.09-0.24,0.17c-0.14,0.14-0.29,0.29-0.43,0.43c-0.8,0.8-1.02,1.7-0.93,2.56
					c0.49-0.22,0.95-0.43,1.36,0.09c0.27-0.09,0.52-0.02,0.75,0.06c0.04-0.68,0.25-1.22,0.56-1.68c-0.01-0.1-0.05-0.2-0.05-0.3
					c-0.19-0.95,0-1.98,0.9-2.88c0.14-0.15,0.29-0.29,0.43-0.43c0.08-0.08,0.17-0.1,0.25-0.17c0.12-0.32,0.26-0.63,0.46-0.9
					C255.16,241.59,255.03,241.28,254.79,241.83z"/>
				<path class="st3" d="M85.41,286.08c-0.8,0.04-2.41,3.15-2.41,6.55v8.59c0,0.12,0,0.19,0,0.18v0.98c1.3-0.5,2.6-0.51,2.6,0v-3.15
					c0,0.01,0-0.06,0-0.18v-8.59c0-3.04,0-1.44,0-4.4C85.54,286.07,85.47,286.08,85.41,286.08z"/>
				<path class="st3" d="M18.54,256.05c0.51,0.36,1.05,1.23,1.64-0.25c0.72,1.36,1.5-0.41,2.34-0.12c0.84-0.04,4.39-1.59,4.27-2.25
					c-0.57,0.03-1.15,0.06-1.67,0.08c-0.84-0.29-1.62,1.47-2.34,0.12c-0.71,1.78-1.36,0.15-1.95,0.1c-0.58,0.43-1.09,0.39-1.54,0.08
					c-0.45,0.07-0.82,0.09-1.13,0.06c-0.01,0.06-0.03,0.1-0.04,0.15c0.25,0.46,0.42,0.98,0.42,1.63V256.05z"/>
				<path class="st3" d="M43.98,301.65c-0.06,0.37-0.15-1.96-0.26-2.06c-0.11-0.43-0.24-2.35-0.4-3.21
					c-0.15-1.8-0.33-3.27-0.52-4.17c-0.16-1.59-0.33-2.61-0.51-4.08c-0.54,0.17-2.27,4.36-2.09,6.24c0.19,0.9,0.36,2.36,0.52,4.17
					c0.16,0.86,0.29,2.78,0.4,3.21c0.04,0.03,0.07,0.33,0.1,0.68c0.09-0.02,0.16-0.02,0.25-0.05c1.3,0.11,2.59,0.35,2.59,0
					C44.07,301.33,44.04,301.36,43.98,301.65z"/>
				<path class="st3" d="M135.47,269.14c-0.49,0.36-1.21,0.31-2.14,0.23c-0.38-1.07-0.79-0.66-1.24-0.22
					c0.09-1.19,0.19-2.26,0.28-2.64c0.09-2.01,0.19-3.11,0.28-3.92c0.1-0.81,0.19-1.34,0.28-2.22c0.09-1.45,0.18-2.33,0.26-3.09
					c-0.55-0.07-1.11-0.12-1.66,0.23c-0.25,0.2-0.5,0.28-0.75,0.29c-0.06,0.56-0.11,1.02-0.17,1.5c-0.09,0.79-0.19,1.69-0.28,3.24
					c-0.09,0.88-0.19,1.41-0.29,2.22c-0.09,0.82-0.19,1.91-0.28,3.92c-0.09,0.37-0.19,1.44-0.28,2.64c0.45-0.44,0.86-0.86,1.24,0.22
					c0.93,0.08,1.65,0.13,2.14-0.22c0.49,0.46,0.75,0.86,0.75-0.08c0,0.49,0-0.19,0,1.43c0,0.42,0,0.14,0,1.43
					c-0.11-1.05-0.17,0.97-0.22,0.85c-0.53-0.9-0.96,1.13-1.18,1.49c-0.23-0.47-0.43,2.1-0.56,0.94c-0.14,0.11-0.21,0.44-0.21,1.22
					c0,0.11,0,0.25,0,0.43c0-0.69,0.15,0.59,0.4,1.66c0.19-0.34,0.42,0.46,0.69,0.87c1.1-0.52,1.97,1.1,2.58,0.11
					c0.34-0.39,0.6-0.53,0.78-0.5c-0.26-0.55-0.4-1.22-0.42-1.55c-0.42,0.19-0.78-1.56-1.03-1.09c-0.26-1.08-0.4-2.35-0.4-1.66
					c0-0.19,0-0.33,0-0.43c0-0.78,0.08-1.11,0.21-1.22c0.13,1.16,0.33-1.41,0.56-0.94c0.22-0.36,0.64-2.39,1.18-1.49
					c0.05,0.12,0.1-1.9,0.22-0.84c0-1.29,0-1.02,0-1.43c0-1.63,0-0.94,0-1.43C136.22,270.01,135.96,269.6,135.47,269.14z"/>
				<path class="st3" d="M129.57,283.97c-0.38,0.42-0.79,0.2-1.22,0.02c-0.06,0.75-0.12,1.5-0.19,2.16
					c-0.16,2.03-0.32,3.9-0.46,5.05c-0.14,1.39-0.29,2.52-0.41,4.44c-0.13,1.05-0.24,3.37-0.34,3.69c-0.1,2.49-0.19,1.87-0.26,2.81
					c-0.02-0.05-0.03,0.1-0.06,0.33c0.2-0.06,0.39-0.1,0.58-0.09c1.06-0.24,1.85-0.64,1.85,0c0-0.63,0.02,0.77,0.06-0.63
					c0.03,0.57,0.09-1.96,0.16-1.78c0.07-0.93,0.15-0.31,0.25-2.8c0.1-0.32,0.21-2.64,0.34-3.69c0.12-1.92,0.26-3.05,0.41-4.44
					c0.15-1.15,0.47-5.01,0.63-7.05c0.01-0.09-0.15,1.78-0.14,1.67C130.42,283.55,130.01,283.55,129.57,283.97z"/>
			</g>
		</g>
		<g>
			<path class="st2" d="M344.96,299.16c0,0.5-0.1-0.31-0.29,0c-0.19,0-0.47,0.33-0.84,0c-0.36,0.27-0.8-0.2-1.32,0
				c-0.52-0.21-1.11,0.03-1.76,0c-0.66,0-1.38,0-2.15,0c-13.97,0-46.09,0-46.09,0s-0.28-7-0.47-17.1c-0.01-0.84-0.03-1.71-0.04-2.59
				c-0.01-1.15-0.03-1.25-0.04-2.71c-0.01-0.61-0.02-2.14-0.03-2.8c-0.01-0.94-0.02-1.33-0.03-2.89c-0.01-1.15-0.01-2.18-0.01-2.97
				c0-1.24-0.01-2.02-0.01-3.03c0-1.14,0-2.3,0.01-3.08c0-0.73,0.01-2.09,0.02-3.11c0.01-1.05,0.02-2,0.03-3.14
				c0.02-0.57,0.03-2.39,0.05-3.14c0.02-1.01,0.04-2.01,0.07-3.14c0.02-0.94,0.06-3.38,0.08-3.11c0.03-1.51,0.07-1.57,0.1-3.08
				c0.04-1.09,0.08-2.73,0.12-3.03c0.04-0.88,0.09-1.29,0.15-2.98c0.04-0.48,0.13-1.58,0.27-2.36c0.13-0.97,0.31-2.61,0.53-2.22
				c0.22-0.2,0.48-1.09,0.78-2.07c0.3-0.98,0.63-1.98,1-1.93c0.37-0.38,0.78-0.94,1.21-1.78c0.44-0.83,0.91-1.19,1.41-1.63
				c0.5,0.25,1.02-1.12,1.58-1.49c0.56-0.91,1.14-1.22,1.74-1.34c0.6-1.16,1.23-1.66,1.88-1.19c0.65-0.46,1.32-0.85,2-1.05
				c0.69,0.19,1.39-0.73,2.11-0.9c0.72,0.1,1.45-0.85,2.2-0.75c0.75,0.62,1.5,0.35,2.27-0.6c0.77,0.13,1.54,0.1,2.32-0.45
				c0.78-0.98,1.57-0.02,2.36-0.3c0.79-0.34,1.58-0.27,2.37-0.15c0.79-0.47,1.59-0.78,2.38,0.01c0.79,0.17,1.58-0.55,2.36,0.16
				c0.78-0.12,1.56,0.23,2.33,0.31c0.77,0.21,1.53,0.19,2.28,0.46c0.39,0.1,0.78,0.09,1.17,0.14c0.19,0.03,0.39,0.07,0.58,0.15
				c0.19,0.08,0.38-0.02,0.57,0.36c0.38,0.86,0.76,0.48,1.13,0.81c0.37,0.65,0.74,0.46,1.1,0.02c0.36-0.24,0.72,0.28,1.07,0.42
				c0.35,1.12,0.7-0.27,1.04,0.58c0.34,0,0.67-0.21,1,0.43c0.33,0.19,0.66,0.61,0.97,0.74c0.32-0.58,0.63-0.3,0.93,0.29
				c0.3,0.27,0.6,1.07,0.89,1.05c0.29,0.24,0.57,0.48,0.85,0.73c0.27,0.25,0.54,1.07,0.8,0.78c0.44,0.63,0.86,0.83,1.25,1.44
				c0.39,0.75,0.76,1.05,1.09,1.56c0.34,0.36,0.65,1.54,0.92,1.69c0.28,0.81,0.53,0.65,0.74,1.82c0.21,0.36,0.4,1.49,0.55,1.95
				c0.15,0.5,0.26,1.15,0.34,2.08c0.04,0.36,0.07,0.72,0.09,1.09c0.02,0.37,0.03,0.74,0.03,1.12c0,0.86,0,1.87,0,3.07
				c0,1.49,0,2.01,0,3.12c0,0.34,0,2.85,0,3.15c0,1.02,0,2.11,0,3.17c0,1.16,0,2.8,0,3.48c0,0.22,0,3.81,0,3.48c0-0.1,0,2.28,0,3.45
				c0,0.34,0,3.14,0,3.41c0,1.95,0,1.52,0,3.35c0,0.47,0,1.75,0,3.28c0,1.02,0,1.87,0,3.19c0-0.69,0,2.61,0,3.08
				c0,1.53,0,3.34,0,2.96c0,1.64,0,2.49,0,2.81c0,2.45,0,1.82,0,2.66c0,0.55,0,1.81,0,2.49c0,0.74,0,1.13,0,2.29
				c0-0.02,0,1.43,0,2.08c0,1.55,0,1.3,0,1.86c0,1.09,0,1.34,0,1.62c0,0.86,0,0.72,0,1.36c0,0.58,0,1.1,0,1.09c0,0.06,0,0.76,0,0.8
				c0-0.16,0,0.6,0,0.49C344.96,298.97,344.96,299.54,344.96,299.16z"/>
			<path class="st3" d="M302.15,231.28c1.22-0.91,2.57-1.68,4.01-2.32c0.72-0.32,1.46-0.6,2.22-0.86c0.76,0.02,1.54-0.66,2.33-0.66
				c0.79-0.51,1.59-0.44,2.4-0.45c0.81,0.16,1.63-0.19,2.45-0.25c0.82,0,1.64,0.31,2.46-0.04c0.82-0.01,1.64,0.7,2.44,0.17
				c0.81,0.38,1.61,1.18,2.4,0.37c0.78,0.33,1.56-0.47,2.31,0.58c0.75,0.52,1.49,0.63,2.2,0.79c0.71,0.3,1.4,0.63,2.06,1
				c0.66,0.37,1.29,0.55,1.89,1.21c0.59,0.79,1.16,1.34,1.68,1.43c0.52,0.53,1.01,0.55,1.44,1.64c0.44,0.49,0.83,0.79,1.18,1.85
				c0.35,0.28,0.64,1.45,0.88,2.07c0.24,1.56,0.42,1.5,0.55,2.29c0.13,1.29,0.19,2.04,0.19,2.5c0,0.71,0,1.54,0,2.75
				c0,1.65,0,2.1,0,2.79c0,1.04,0,1.53,0,2.82c0,0.46,0,0.99,0,2.84c0,0.7,0,1.35,0,2.84c0,1.48,0,2.27,0,2.82c0,0.43,0,2.27,0,2.8
				c0,1.31,0,2.14,0,2.75c0,0.85,0,2.08,0,2.69c0-0.22,0,2.52,0,2.62c0,1.45,0,1.1,0,2.54c0,0.34,0,1.67,0,2.44
				c0,0.48,0,1.78,0,2.32c0,0.38,0,1.79,0,2.19c0,0.9,0,1.42,0,2.05c0,0.25,0,1.37,0,1.89c0,0.56,0,0.71,0,1.72
				c0,0.58,0,0.78,0,1.53c0,0.41,0,1.08,0,1.32c0,0.88,0,1.22,0,1.11c0-0.01,0.56,0.28,1.12,0c0.56-0.21,1.12,0.13,1.12,0
				c0-0.49,0,0.18,0-0.18c0-0.16,0-0.5,0-0.53c0,0.1,0-0.28,0-0.86c0,0.08,0-0.65,0-1.16c0-0.36,0-1.25,0-1.45c0-0.27,0-1.34,0-1.71
				c0-0.93,0-1.12,0-1.95c0-0.48,0-1.38,0-2.18c0-0.45,0-2.11,0-2.38c0-1.44,0-2.08,0-2.55c0-0.64,0-2,0-2.71c0-1.06,0-1.96,0-2.85
				c0-1.61,0-1.85,0-2.96c0-1.18,0-2.63,0-3.06c0-0.96,0-0.79,0-3.13c0-0.97,0-2.02,0-3.18c0-1.36,0-2.6,0-3.21
				c0-1.32,0-2.58,0-3.22c0,0.42,0-1.94,0-3.21c0-0.24,0-2.23,0-3.18c0-1.28,0-1.65,0-3.12c0-0.81-0.04-0.92-0.11-1.93
				c-0.08-0.04-0.18-0.61-0.33-1.8c-0.14-0.13-0.32-1.04-0.52-1.67c-0.21,0.17-0.44-0.55-0.71-1.55c-0.18,0.37-0.37-1.31-0.57-0.94
				c-0.2,0.01-0.42,0.13-0.64-0.93c-0.23-0.19-0.47-0.5-0.71-1.12c-0.25-0.23-0.51-0.66-0.78-0.53c-0.5-0.33-1.04-0.91-1.61-1.35
				c-0.57,0.85-1.17-1.11-1.8-1.16c-0.63,0.3-1.28-0.56-1.96-0.96c-0.68,0.12-1.37-1.05-2.09-0.77c-0.71,0.35-1.45-0.32-2.19-0.58
				c-0.74-0.49-1.5-0.49-2.27-0.39c-0.77-0.84-1.54-0.16-2.32-0.2c-0.78-0.14-1.56-0.03-2.35-0.01c-0.78-0.86-1.56-0.05-2.34,0.17
				c-0.78,0.22-1.55,0.33-2.31,0.36c-0.76-0.18-1.52-0.23-2.26,0.54c-0.74,0.56-1.46,0.58-2.17,0.73c-0.71,0.32-1.39,0.58-2.06,0.91
				C305.4,228.45,303.61,229.73,302.15,231.28z"/>
		</g>
		<g>
			<g>
				<path class="st2" d="M632.24,266.29c-1.02,0.05-2.13,0.93-3.15,0.26c-1.51,0.49-2.96-0.49-4.57-0.14
					c-1.63,0.57-3.14-0.95-4.89-0.15c-1.59-1.24-3.42-0.07-5.19-0.15c-1.84,0.73-3.54-0.75-5.46-0.16c-0.7-0.21-1.37-0.75-2.15-0.07
					c-0.73,0.08-1.45-0.04-2.19-0.07c-1.43-0.43-2.96,0.06-4.46-0.13c-1.45-0.73-2.95-1.15-4.57-0.14c-0.83,0.71-1.6,0.61-2.36,0.36
					c-0.76-0.32-1.51-0.72-2.32-0.5c-0.77-0.21-1.6,0.33-2.4,0.33c-0.82,0.33-1.55-0.48-2.35-0.47c-0.42,0.18-0.82,0.27-1.23,0.25
					c-0.4-0.02-0.79-0.15-1.18-0.41c-0.43,0.32-0.84,0.37-1.24,0.37c-0.39-0.16-0.83,0.22-1.19-0.36c-0.47,0.13-0.91-0.21-1.4,0.05
					c-0.49,0.36-0.93-0.08-1.39-0.13c-0.49,0.3-0.96,0.37-1.43,0.28c-0.47-0.04-0.9-0.49-1.38-0.37c-0.46-0.11-0.96,0.23-1.44,0.42
					c-0.43-0.44-0.94-0.05-1.37-0.5c-0.48,0.1-0.96,0.23-1.41-0.07c-0.52,0.59-0.95,0.08-1.42-0.02c-0.5,0.34-0.95-0.02-1.44,0.19
					c-0.49,0.16-0.93-0.21-1.4-0.27c-0.43-0.59-0.97,0.27-1.42-0.04c-0.49,0.21-0.93-0.3-1.42-0.05c-0.53,0.69-0.96,0.1-1.43-0.04
					c-0.47-0.06-0.91-0.45-1.42-0.04c-0.77-0.13-1.52-0.39-2.32-0.07c-0.77-0.02-1.55-0.05-2.32-0.07c-1.58,0.3-3.12,0.12-4.64-0.14
					c-1.53-0.28-3.07-0.39-4.63-0.14c-1.49-0.68-3.16,1-4.6-0.14c-1.5-0.46-3.18,1.57-4.56-0.14c-1.46-0.71-3-0.34-4.52-0.14
					c-0.84,1.34-1.48,0.24-2.17-0.06c-0.58-1.77-1.52,0.88-2.16-0.07c-0.32-0.46-0.63-1.1-1.07-0.05c-0.37,0.18-0.7-0.24-1.07-0.07
					c-0.36,0.1-0.66-0.61-1.07,0c-0.32-0.41-0.73,0.26-1.07-0.01c-0.33-0.28-0.7-0.12-1.08,0.27c-0.29-0.83-0.7,0.05-1.06,0.03
					c-0.32-0.31-0.72,0.25-1.03-0.23c-0.3-0.58-0.7-0.02-1.03-0.2c-0.38,0.44-0.67-0.25-1.03-0.08c-0.33-0.14-0.73,0.53-1.05,0.24
					c-0.34-0.02-0.66-0.33-1-0.32c-0.34,0.01-0.69,0.08-1.03,0.03c-0.52-1.96-1.33-0.35-2.04,0.19c-0.65-0.28-1.27-0.79-1.97-0.31
					c-0.73,0.76-1.45,1.59-2.03,0.72c-0.66,0.12-1.32,0.24-1.88-0.83c-0.6-0.5-1.24-0.52-1.9-0.24c-0.64,0.01-1.27,0.07-1.9,0.12
					c-1.28,0.34-2.47-0.07-3.67-0.11c-1.23,0.32-2.55,1.97-3.54-0.1c-1.17,0.07-2.35,0.69-3.4-0.1c-1.14,0.44-2.37,2.09-3.24-0.09
					c-1.06-0.01-2.05-0.49-3.08-0.09c-1.07,0.88-1.97-0.05-2.91-0.09c-0.85-1.11-1.77-1-2.72-0.08c-0.86-0.15-1.7-0.28-2.53-0.07
					c-0.81-0.08-1.52-0.96-2.33-0.07c-0.74-0.02-1.45-0.04-2.12-0.06c-0.74-0.02-1.44-0.05-2.08-0.07c-0.63-0.27-1.33,1.03-1.8-0.05
					c-0.66,1.32-1.05,0.03-1.5-0.04c-0.47,0.29-0.86,0.23-1.19-0.04c-0.35,0.03-0.63,0.02-0.86-0.02c-0.01,0.05-0.03,0.07-0.04,0.11
					c0.16,0.37,0.26,0.78,0.22,1.27l-0.03,0.33c-0.02,0.31-0.13,0.56-0.23,0.81c0.27,0.41,0.43,0.91,0.38,1.54l-0.01,0.07
					c0.17,0.37,0.27,0.78,0.23,1.28l-0.03,0.33c0,0.07-0.05,0.12-0.06,0.19c0.11,0.25,0.19,0.51,0.23,0.77
					c0.25,0.19,0.51,0.51,0.86-0.05c0.4,0.54,0.93,0.28,1.5,0.03c0.53,0.23,1.18-0.38,1.8,0.04c0.32,0,0.66-0.05,1,0.02
					c0.37-0.24,0.74-0.39,1.07,0.02c0.67,0.04,1.37,0.09,2.12,0.04c0.77-0.24,1.58-0.68,2.33,0.04c0.4,0.11,0.81,0.12,1.24,0.1
					c0.42-0.02,0.86-0.06,1.3-0.06c0.42,0.3,0.9-0.11,1.35-0.02c0.42,0.37,0.89,0.31,1.38,0.07c0.87,0.69,1.88-0.02,2.85,0.05
					c1.09-1.39,1.99-0.08,3.01,0.06c1.1-0.84,1.96,1.7,3.18,0.06c1.04,0.54,2.02,2.18,3.32,0.07c1.24-1.31,2.17,1.4,3.46,0.06
					c1.22-0.45,2.35,0.37,3.59,0.07c1.16,0.69,2.44,0.17,3.71,0.07c0.65-0.23,1.29-0.34,1.93-0.33c0.6,0.37,1.25,0.29,1.89,0.41
					c0.58,0.74,1.22,0.9,1.87,0.97c0.66,0.01,1.3,0.15,2.05-0.9c0.71-0.54,1.28,0.55,1.98,0.18c0.66,0.12,1.33,0.18,2.03-0.1
					c0.69-0.22,1.38-0.21,2.05-0.14c0.73-0.64,1.48-1.29,2.05,0.22c0.7-0.13,1.32,0.81,2.09-0.19c0.58,1.44,1.36,0.46,2.08,0.27
					c0.81-1.35,1.33,0.88,2.11,0.04c0.73-0.29,1.38,0.43,2.12,0.04c1.5-0.41,2.8,1.65,4.41,0.08c1.41,0.9,3.01-0.48,4.46,0.09
					c1.5,0.05,2.98,0.28,4.51,0.08c1.53-0.32,3.04-0.32,4.53,0.09c0.75,0.02,1.5,0.22,2.24,0.33c0.75,0.11,1.51,0.12,2.3-0.24
					c0.79-0.34,1.48,0.59,2.28,0.04c0.79-0.42,1.51,0.14,2.28,0.04c0.47-0.02,0.95-0.3,1.39,0.03c0.5-0.42,0.92,0.15,1.39,0.03
					c0.45,0.19,0.94-0.11,1.39,0.05c0.45,0.24,0.94-0.09,1.4,0c0.49-0.38,0.96-0.4,1.43-0.42c0.47-0.02,0.95-0.27,1.35,0.47
					c0.48-0.13,0.9,0.3,1.43-0.43c0.47-0.09,0.9,0.3,1.35,0.48c0.47-0.16,0.96-0.56,1.41-0.37c0.46-0.02,0.9,0.32,1.35,0.42
					c0.43,0.29,0.87,0.57,1.34,0.48c0.46-0.02,0.95-0.48,1.41-0.43c0.46,0.01,0.92,0.01,1.37,0.01c0.46,0,0.92,0,1.37,0.04
					c0.79,0.01,1.6-0.19,2.38,0.05c0.79-0.02,1.56,0.24,2.37,0.04c0.81-0.24,1.55,0.33,2.33,0.32c0.82-0.43,1.54,0.3,2.36-0.23
					c0.79-0.14,1.56-0.12,2.32-0.03c0.76,0.12,1.51,0.28,2.29,0.12c1.55-0.29,2.97,0.72,4.52,0.09c1.57-1,2.9,0.88,4.42,0.09
					c0.71,0.17,1.44,0.17,2.16,0.14c0.69,0.4,1.41,0.34,2.15-0.06c0.71-0.04,1.45-0.42,2.11,0.04c0.71-0.05,1.37,0.28,2.08,0.04
					c1.77,0.36,3.53,0.34,5.26,0.1c1.62,1.2,3.4-0.28,5,0.09c1.6,0.3,3.17,0.37,4.71,0.09c1.5,0.21,3-0.08,4.39,0.08
					c0.84,0.59,1.78-0.3,2.64-0.56V266.29z"/>
				<path class="st2" d="M476.34,253.07c-0.01,0.16,0.01,0.37,0.06,0.6c0.06,0.18-0.03,2.51,0.18,1.69c0.07,0.77,0.17,1.6,0.27,2.61
					c0.18,1.72,0.39,3.81,0.63,6.13c0.12,1.16,0.25,2.38,0.37,3.63c0.2,0.51,0.34,1.65,0.4,3.87c0.11,1.6,0.24,2.99,0.41,4
					c0.13,1.52,0.35,1.8,0.42,4.03c0.09,1.93,0.27,2.66,0.41,3.95c0.16,1.5,0.31,2.97,0.45,4.37c0.13,1.47,0.31,2.4,0.4,3.95
					c0.12,1.38,0.27,2.02,0.35,3.36c0.1,1.07,0.22,1.62,0.27,2.61c0.13,0.02,0.17,0.86,0.17,1.69c0.03,0.52,0.02,1.16,0.06,0.6
					c0-0.07,0.96,0.43,1.99,0.16c0.99,0.16,1.96,0.43,1.99,0.16c0.06-0.8,0.04-0.78-0.02-0.56c-0.07,0.28,0.01-1.51-0.07-1.59
					c-0.06-0.34-0.04-1.82-0.11-2.49c0-1.39-0.04-2.52-0.14-3.22c-0.02-1.46-0.12-2.27-0.16-3.82c-0.06-1.36-0.12-2.79-0.18-4.27
					c-0.05-1.27-0.09-2.71-0.16-3.91c-0.03-1.64-0.07-3.19-0.17-4.04c0.04-2.54-0.05-3.47-0.17-4.08c-0.02-0.72-0.04-1.56-0.1-1.82
					c-0.03-0.64-0.04-1.49-0.07-2.21c-0.1,0.29,0-2.01-0.08-1.97c-0.06-0.2-0.12-0.44-0.08-1.92c-0.01-0.8-0.09-0.83-0.08-1.86
					c-0.02-0.65-0.12-0.4-0.08-1.8c0.13-2.7-0.07-1.27-0.08-2.02c-0.08-0.01-0.02-1.67-0.08-1.89c0.05-1.47-0.02-1.55-0.05-2.03
					c-0.03-0.48-0.06-0.83-0.09-1.27c0-1.53-0.12-1.33-0.11-2.54c-0.03-0.67-0.01-1.78-0.07-1.64c0-0.52-0.05-0.22-0.02-0.58
					c0.1-1.27-0.73,0.38-1.73,1.07c-1.1,1.92-2.29,2.1-3.22,1.99C477.09,252.52,476.4,252.37,476.34,253.07z"/>
				<path class="st2" d="M518.68,257.5l-0.33-0.03c-0.74-0.06-1.26-0.38-1.64-0.8c-0.01-0.01-0.03-0.01-0.05-0.02
					c-0.36,0.17-0.76,0.29-1.27,0.25c-0.71-0.06-1.21-0.36-1.6-0.76c-0.21-0.01-0.32-0.15-0.33-0.07c-0.03,0.39-0.11,1.6-0.01,0.6
					c0.03-0.07,0.09-0.28-0.02,1.67c0,0.26,0.04,0.15,0,0.99c0,0.4-0.08,1.72-0.03,1.59c-0.01,0.5-0.03,1.27-0.05,2.06
					c-0.04,0.98-0.03,1.4,0.02,1.27c0.01,0.36,0.09-0.09,0.04,1.2c0.01,0.13,0,0.55-0.01,1.06c-0.01,0.51-0.04,1.08-0.06,1.65
					c0.06-0.37,0,0.61,0.02,0.68c0.04-0.2-0.03,0.96-0.02,1.09c0.02,0.13,0.02,0.49-0.03,1.29c0.03-0.02-0.05,1.27-0.02,1.28
					c-0.12,2.15-0.06,2.07-0.03,2.4c0.14-1.01,0.04,0.89-0.01,2.18c-0.02,0.95,0.05,0.71-0.02,2.33c0.02,0.14,0.01,0.51,0.01,0.95
					c-0.01,0.44-0.02,0.95-0.02,1.38c0.06-0.13-0.01,1.43-0.01,2.14c-0.02,0.93-0.03,1.79-0.03,2.44c0.01,1.1,0,2.62-0.04,4.33
					c-0.05,1.76-0.02,2.57-0.04,3.91c0,1.05-0.1,3.31-0.03,3.33c0,0.89-0.04,2.12-0.02,2.59c-0.1,1.88-0.06,1.88-0.01,1.67
					c-0.02,0.56-0.01,0.62-0.01,0.59c0.01-0.16,0.95,0.66,1.99,0.16c1.03-0.3,2.02-0.23,1.99,0.16l0.19-2.41
					c0,0.01,0.01-0.05,0.01-0.14l0.53-6.58c0.21-2.6,0.06-0.73,0.35-4.3l0.65-7.97c0.15-1.93,0.1-1.27,0.33-4.12
					c0.16-2.02,0.02-0.23,0.2-2.42c0.11-1.4,0.09-1.1,0.17-2.13c0.1-1.19,0.03-0.32,0.12-1.41c0.08-1,0.09-1.07,0.08-1.05l0.26-3.22
					c0.08-0.95,0.06-0.72,0.08-0.97c0.08-0.99,0.02-0.23,0.12-1.55c0.12-1.51,0.09-1.08,0.11-1.39l0.17-2.11
					c0.04-0.43,0.11-1.3,0.09-1.14l0.28-3.45C520.28,257.24,519.59,257.57,518.68,257.5z"/>
				<path class="st2" d="M558.53,247.39c-0.82-0.1-1.45-0.34-1.94-0.75c-0.3,0.12-0.62,0.21-1.02,0.18c-0.54-0.04-0.95-0.24-1.3-0.5
					c-0.8,0.17-1.32-0.07-1.29-0.38c0.04-0.49-0.01-0.07-0.1,0.74c-0.12,1.15-0.14,0.87-0.28,2.08c-0.14,1.07-0.3,2.33-0.44,3.21
					c-0.15,0.99-0.33,2.32-0.57,4.14c-0.01-0.31-0.09,0.3-0.26,1.88c-0.15,1.37-0.14,0.86-0.27,1.98c-0.08,0.45-0.17,1.07-0.29,2.09
					c-0.1,0.73-0.2,1.46-0.29,2.12c-0.28,2.5-0.35,2.28-0.61,4.48c-0.07,0.41-0.18,1.19-0.3,2.06c-0.11,0.87-0.23,1.82-0.34,2.58
					c-0.1,0.7-0.23,1.69-0.34,2.56c-0.04,0.01-0.16,0.92-0.3,2.13c-0.21,1.55-0.4,2.75-0.64,4.63c-0.16,0.98-0.38,2.6-0.62,4.47
					c-0.29,2.58-0.44,3.55-0.58,4.22c-0.2,1.54-0.42,3.37-0.53,3.85c-0.09,0.3-0.27,1.75-0.46,3.38c-0.12,0.77-0.2,1.04-0.38,2.81
					c-0.17,1.51-0.24,1.92-0.29,2.14c-0.07,0.74-0.12,1.18-0.15,1.44c0.19-0.16,0.6,1.15,1.31,0.51c0.73,1.14,1.83,0.09,2.64,0.21
					c0.83-0.12,1.46-0.38,1.42,0.11c0.04-0.48-0.03,0.59,0.09-0.47c-0.01,0.44,0.19-1.5,0.23-1.36c0.11-0.71,0.14-0.23,0.37-2.13
					c0.09-0.24,0.33-2.01,0.49-2.81c0.21-1.46,0.39-2.32,0.59-3.37c0.18-0.87,0.42-2.3,0.67-3.84c0.23-1.35,0.51-3.19,0.73-4.21
					c0.18-0.56,0.49-2.59,0.78-4.46c0.25-1.36,0.62-4.05,0.81-4.62c0.19-1.54,0.33-2.37,0.46-2.99c0.12-0.62,0.23-1.01,0.35-1.68
					c0.17-1.18,0.3-1.86,0.42-2.46c0.12-0.6,0.24-1.17,0.39-2.15c0.11-0.46,0.31-2.08,0.39-2.26c0.16-1.1,0.23-1.1,0.38-2.2
					c0.13-0.72,0.24-1.33,0.36-1.99c0.12-0.65,0.24-1.34,0.37-2.22c0.26-1.64,0.47-2.75,0.67-3.84c0.16-0.62,0.43-2.64,0.58-3.37
					c0.23-1.64,0.38-2.39,0.49-2.81c0.21-1.64,0.33-2.24,0.37-2.13c0.11-0.6,0.15-0.69,0.23-1.36c0.02-0.16,0.03-0.23,0.04-0.32
					C560.09,247.19,559.43,247.49,558.53,247.39z"/>
				<path class="st2" d="M600.06,304.51c-0.02-0.62-0.03-1.38-0.06-2.26c-0.02-0.85-0.03-2.01-0.07-2.96
					c0.01-1.5-0.02-2.71-0.08-3.55c0.02-1.88-0.19-1.12-0.1-4.01c-0.09-0.71-0.1-2.57-0.11-4.36c-0.13-0.29-0.06-3.29-0.11-4.6
					c-0.04-1.6-0.07-3.24-0.12-4.72c-0.05-1.44-0.05-3.5-0.12-4.72c-0.06-1.36-0.12-2.6-0.12-4.6c-0.09-0.77-0.22-1.13-0.11-4.37
					c-0.07-0.9-0.05-2.95-0.1-4.01c-0.01-0.68-0.01-1.54-0.01-2.32c0.04-1.29-0.01-1.37-0.08-1.23c-0.1,0.56-0.12,0.16-0.1-0.81
					c-0.01-0.54,0.01-1.44,0.03-2.16c0.02-0.91-0.01-0.96-0.06-0.82c-0.07,0.28-0.03-0.57,0.01-1.44c-0.04-0.3-0.05-0.86-0.04-1.44
					c-0.02-0.13-0.06,0.14-0.01-0.51c0.01-0.08-0.02-0.14-0.02-0.2c-0.28,0.08-0.58,0.13-0.93,0.11c-0.44,0.37-1.01,0.59-1.76,0.53
					c-0.58-0.05-1.01-0.27-1.37-0.56c-0.19,0.03-0.37,0.08-0.59,0.07l-0.33-0.03c-0.09-0.01-0.15-0.05-0.23-0.07
					c-0.45,0.39-1.04,0.63-1.81,0.57c-0.57-0.05-1-0.27-1.36-0.55c-0.45,0.2-0.93,0.33-1.42,0.28c0.01,0.37,0.03,0.82,0.07,0.99
					c-0.07,1.41,0.03,1.09,0.08,1.22c0.08-0.22,0.1,0.45,0.13,1.05c0.09-0.21,0.17-0.08,0.18,0.78c0.05,0.47,0.11,0.94,0.1,2.2
					c0.14-0.49,0.11,1.04,0.17,1.65c0,1.37,0.09,1.49,0.17,1.91c0.12-0.15,0.13,1.14,0.21,1.6c0.03,0.42,0.03,1.14,0.08,1.2
					c0.01,0.58,0.03,1.11,0.08,1.23c0.08-0.21,0.09,0.42,0.09,1.16c-0.01,0.88,0.01,1.41,0.08,1.35c-0.01,0.89,0.04,1.07,0.09,1.2
					c0.01,0.6,0.1,0.4,0.14,0.68c0.08,0.66,0.13,1.75,0.22,2.22c0.08,0.66,0.17,1.35,0.22,2.4c0.07,2.41,0.33,2.66,0.44,4.74
					c0.07,2.52,0.43,1.58,0.45,4.74c0.12,1.99,0.23,3.85,0.43,4.62c0.13,1.76,0.28,2.96,0.41,4.39c0.04,2.57,0.27,2.59,0.38,4.04
					c0.14,1.03,0.23,2.49,0.34,3.57c0.09,1.23,0.2,2.01,0.28,2.98c0.09,0.88,0.15,1.65,0.21,2.27c0.12,1.25,0.19,1.96,0.19,1.96
					l5.96,0.48C600.11,306.46,600.1,305.76,600.06,304.51z"/>
				<path class="st2" d="M632.24,265.1c-0.08,0.63-0.15,1.13-0.2,1.38c-0.22,1.94-0.32,2.49-0.48,3.68
					c-0.08,0.62-0.16,1.15-0.23,1.75c-0.08,0.6-0.17,1.26-0.27,2.14c-0.09,0.76-0.12,0.72-0.24,1.77c-0.13,1.18-0.19,1.52-0.27,2.24
					c-0.09,0.66-0.16,1.24-0.25,1.87c-0.08,0.63-0.17,1.31-0.27,2.18c-0.17,1.31-0.35,2.69-0.52,4.02c-0.19,1.5-0.38,2.96-0.57,4.4
					c-0.18,1.43-0.36,2.82-0.53,4.16c-0.18,1.4-0.33,2.47-0.49,3.81c-0.11,0.69-0.31,2.48-0.43,3.36c-0.17,1.43-0.23,1.75-0.36,2.8
					c-0.05,0.12-0.24,2.02-0.27,2.13c-0.14,1.29-0.1,0.51-0.18,1.36c-0.02,0.04-0.05,0.35-0.06,0.48c-0.01,0.15,1.22,0.45,2.49,0.2
					c1.23,0.24,2.48,0.2,2.48,0.2s0.03-0.16,0.08-0.48c0.08-0.64,0.12-0.61,0.23-1.35c0.03,0.17,0.21-1.3,0.33-1.96V265.1z"/>
				<path class="st2" d="M555.7,286.52c0.04-0.54,0.05-0.64,0.03-0.33c0.05-0.59,0.13-0.85,0.24-0.92c0.03,0.9,0.34-1.06,0.49-0.68
					c0.19-0.26,0.64-1.79,0.99-1.07c0.03,0.1,0.2-1.45,0.22-0.63c0.08-0.99,0.06-0.78,0.09-1.09c0.1-1.24,0.06-0.72,0.09-1.1
					c-0.06,0.72-0.23,0.39-0.58,0.01c-0.4,0.24-0.95,0.16-1.65,0.04c-0.27-1.03-0.72-0.37-1.19-0.05c-0.38-0.66-0.91-0.05-1.43,0.11
					c-0.58,0.85-1.11,0.76-1.61-0.32c-0.57-0.07-1.19-0.02-1.86,0.4c-1.24-0.58-2.67-0.24-4.21,0.1c-1.57,0.68-3.13,0.07-4.84,0.11
					c-1.28,0.03-2.61,0.06-3.98,0.1c-1.53,2.06-2.81,0.48-4.22,0.1c-1.43-0.16-2.91-0.03-4.42,0.11c-1.53,0.38-2.93-1.08-4.57,0.11
					c-1.54,0.04-3.1,0.07-4.67,0.12c-1.45,0.04-2.92,0.07-4.38,0.11c-1.46-0.05-2.98,0.55-4.4,0.11c-1.42-0.57-2.96,0.56-4.37,0.1
					c-1.45,0.04-2.88,0.07-4.31,0.11c-1.42,0.03-2.82,0.07-4.2,0.1c-1.4,0.35-2.69-0.47-4.06,0.1c-0.61-0.57-1.26-0.66-1.96,0.05
					c-0.66,0.28-1.27-0.2-1.91,0.05c-0.61-0.22-1.29,0.58-1.85-0.07c-0.54-0.87-1.29,1.01-1.81,0.16c-0.6,0.12-1.15-0.19-1.72-0.24
					c-0.56-0.05-1.12,0-1.69,0.32c-1.1,0.08-2.1-0.32-3.12,0.08c-1.01,0.38-1.96,0.62-2.79,0.06c-0.44,0.01-0.86,0.02-1.26,0.02
					c-0.4,0.01-0.79,0.02-1.16,0.04c-0.42-0.01-0.8-0.11-1.18-0.09c-0.37,0.02-0.72,0.03-1.06,0.14c-0.3-0.36-0.6-0.31-0.89-0.25
					c-0.25-0.31-0.53-0.03-0.78,0.29c-0.5,0.59-0.81,0.13-1.04,0.02c-0.16-0.91-0.32-0.48-0.36,0.01c0.37-0.01,0.62,0.8,0.92,0.42
					c0.25,0.21,0.46,0.42,0.61,0.69c0.08,0.43,0.21-0.22,0.32-0.04c0.39,0.29,0.79-0.22,1.08,0.15c0.26,0.72,0.57,0.12,0.72,0.78
					c0.2,0.18,0.32,0.7,0.41,0.91c0.08,0.4,0.15,0.28,0.12,0.88c0.06,0.47,0.16,0.53,0.25,0.41c-0.04,0.46,0.8,0.34,0.79,0.48
					c-0.05,0.65,0.11,0.23,0.36,0.01c0.28-0.58,0.64-0.6,1.05,0.03c0.46-0.05,1,0.19,1.67,0.06c0.2,1.3,0.63-0.08,0.96,0.03
					c0.37-0.36,0.76-0.77,1.08,0.04c0.78-0.31,1.6-0.12,2.48,0.08c0.44,0.05,0.9,0.17,1.38,0.24c0.47,0.06,0.97,0.06,1.5-0.14
					c0.51-0.05,1.01,0.38,1.56,0.19c0.5,0.5,1.12-0.34,1.66-0.09c0.55,0.13,1.16-0.25,1.72,0.16c0.57,0.19,1.25-0.67,1.81-0.04
					c1.16,0.05,2.31,0.77,3.6,0.12c1.23,0.12,2.51,0.08,3.8,0.13c1.37,0.05,2.77,0.09,4.18,0.14c1.42,0.05,2.93-0.71,4.32,0.14
					c1.44,0.23,3-0.76,4.41,0.15c1.46,0.22,3.03-0.71,4.45,0.15c1.49,0.05,2.97,0.1,4.45,0.15c1.6,0.05,3.19,0.11,4.76,0.16
					c1.65-0.95,3.04,1.18,4.65,0.15c1.48,0.64,3.01,0.3,4.48,0.15c1.49-0.4,2.74,1.79,4.25,0.14c1.39-0.1,2.66,0.54,3.97,0.13
					c0.63,0.16,1.24,0.17,1.85,0.16c0.7-1.12,1.24-0.55,1.77-0.04c1.7,0.2,3.21,1.01,4.66,0.15c0.7-0.08,1.35-0.06,1.94-0.02
					c0.62-0.31,1.09,0.64,1.63,0.13c1.06-0.84,1.69,0.88,2.28,0.08c0.57-0.56,0.83-0.36,0.8,0.03c-0.29-0.44-0.41-1.25-0.4-1.58
					c-0.33,0.12-0.5-1.24-0.73-0.9C555.77,286.98,555.74,285.99,555.7,286.52z"/>
				<path class="st2" d="M632.24,283.13c-0.41,0.16-0.85,0.4-1.25,0.05c-0.66-0.2-1.36-0.19-2.11,0c-1.42-0.64-3.05-0.01-4.74,0.14
					c-0.7,0.02-1.42,0.04-2.15,0.06c-0.73,0.02-1.47,0.04-2.23,0.06c-0.69,0.32-1.37,0.51-2.01,0.06c-0.66-0.21-1.37,0.27-2.05,0.06
					c-0.59-1.18-1.34-0.48-2.04-0.28c-0.74,0.59-1.45,0.66-2.13,0.4c-0.82,1.46-1.41,0.01-2.11,0.11c-0.71,0.1-1.42,0.18-2.11,0.01
					c-1.54,1.65-2.82,0.08-4.22,0.12c-1.39,0.04-2.77,0.08-4.13,0.12c-1.35,0.04-2.68,0.08-3.96,0.11c-1.31,0.32-2.5-0.2-3.73,0.11
					c-1.1-1.1-2.28-0.69-3.42,0.1c-1.02-0.72-2.08-0.1-3.03,0.09c-0.45-0.94-1.04-0.02-1.52,0.04c-0.48,0.02-0.93,0.03-1.36,0.04
					c-0.87,0.26-1.6,0.22-2.19,0.06c-0.64,0.49-1.14,0.8-1.39,0.04c-0.04,0.01-0.08,0.03-0.12,0.06c0.55,0.92,0.49,2.15-0.11,3.04
					c-0.01,0.08,0.01,0.16,0,0.23c0.13,0.29,0.21,0.6,0.24,0.93c0.29-0.08,0.62,0.05,1.01,0.37c0.63-0.42,1.33,0.01,2.17,0.17
					c0.41,0.18,0.87,0.05,1.36-0.02c0.43,0.63,0.99-0.12,1.5,0.26c0.59-0.67,1.03,0.71,1.65,0.13c0.58,0.02,1.2-0.31,1.79,0.15
					c1.09-0.11,2.21,0.22,3.41,0.28c1.22-0.3,2.45-0.16,3.69,0.3l7.98,0.65c1.44-0.72,2.75,0.32,4.15,0.34
					c0.7,0.05,1.39,0.12,2.08,0.19c0.69,0.07,1.38,0.13,2.08,0.15c0.72-0.31,1.4-0.2,2.05,0.34c0.67,0.21,1.38-0.03,2.06,0
					c0.68-0.08,1.41-0.77,2,0.16c0.66,0.02,1.25,0.94,1.97,0.16l4.96,0.4c1.55,0.46,3.01,0.92,4.44,0.36
					c0.71-0.17,1.36-0.14,1.98-0.05c0.55,0.08,1.07,0.22,1.57,0.31V283.13z"/>
			</g>
			<g>
				<path class="st2" d="M472.67,284.19c0.4-0.01,0.82-0.01,1.26-0.02c0.82,0.56,3.22-0.83,3.18-1.19c-0.37-0.01-0.72-0.08-1.06-0.3
					c-0.44,0.01-0.86,0.02-1.26,0.02c-0.4,0.01-0.79,0.02-1.16,0.04c-0.42-0.01-0.8-0.11-1.18-0.09c-0.37,0.02-0.72,0.03-1.06,0.14
					c-0.3-0.36-0.6-0.31-0.89-0.25c-0.25-0.31-0.53-0.03-0.78,0.29c-0.5,0.59-0.81,0.13-1.04,0.02c-0.16-0.91-0.32-0.48-0.36,0.01
					c0.37-0.01,0.62,0.8,0.92,0.42c0.25,0.21,0.46,0.42,0.61,0.69c0.08,0.43,0.21-0.22,0.32-0.04c0.39,0.29,0.79-0.22,1.08,0.15
					c0.03,0.07,0.05,0.08,0.08,0.13c0.06,0.01,0.12,0.01,0.18,0.02C471.89,284.21,472.27,284.2,472.67,284.19z"/>
				<path class="st2" d="M485.05,283.78c0.56,0.65,1.24-0.15,1.85,0.07c0.65-0.25,1.25,0.23,1.91-0.05c0.7-0.71,1.35-0.62,1.96-0.05
					c1.37-0.56,2.65,0.26,4.06-0.1c1.38-0.03,2.78-0.07,4.2-0.1c1.42-0.03,2.86-0.07,4.3-0.1c1.41,0.45,7.77-1.05,7.78-1.45
					c-0.44,0.01-0.87-0.02-1.29-0.15c-1.42-0.57-2.96,0.56-4.37,0.1c-1.45,0.04-2.88,0.07-4.31,0.11c-1.42,0.03-2.82,0.07-4.2,0.1
					c-1.4,0.35-2.69-0.47-4.06,0.1c-0.61-0.57-1.26-0.66-1.96,0.05c-0.66,0.28-1.27-0.2-1.91,0.05c-0.61-0.22-1.29,0.58-1.85-0.07
					c-0.54-0.87-1.29,1.01-1.81,0.16c-0.32,0.07-0.63,0-0.93-0.07c-0.02-0.61-0.05-1.21-0.08-1.76c-0.03-1.64-0.07-3.19-0.17-4.04
					c0.04-2.54-0.05-3.47-0.17-4.08c-0.02-0.72-0.04-1.56-0.1-1.82c0-0.07-0.01-0.15-0.01-0.22c-0.37,0.02-0.73-0.01-1.06-0.27
					c-0.39,0.19-0.77,0.26-1.12,0.09c0.02,0.64,0.03,1.34,0.06,1.89c0.06,0.27,0.08,1.11,0.1,1.83c0.12,0.61,0.21,1.54,0.17,4.08
					c0.09,0.85,0.13,2.4,0.17,4.04c0.03,0.55,0.06,1.15,0.08,1.76c0.3,0.08,0.61,0.14,0.93,0.07
					C483.76,284.79,484.51,282.91,485.05,283.78z"/>
				<path class="st2" d="M513.46,256.67c0.03-0.07,0.09-0.28-0.02,1.67c0,0.02,0,0.03,0,0.04c0.42,0,0.78-0.09,1.1-0.24
					c0.01,0.01,0.03,0.02,0.05,0.03c0.38,0.42,0.91,0.74,1.64,0.8l0.33,0.03c0.91,0.07,1.6-0.26,2.06-0.78l-0.28,3.44
					c0.01-0.16-0.06,0.71-0.09,1.14l-0.16,1.93c0.32-0.04,0.59,0.48,0.94,0.08c0.33,0.18,0.73-0.38,1.03,0.2
					c0.31,0.48,0.7-0.08,1.03,0.23c0.35,0.02,0.77-0.85,1.06-0.03c0.38-0.39,0.75-0.55,1.08-0.27c0.33,0.27,0.74-0.41,1.07,0.01
					c0.41-0.61,0.7,0.09,1.07-0.01c0.37-0.17,0.7,0.26,1.07,0.07c0.44-1.05,0.75-0.41,1.07,0.05c0.64,0.94,1.58-1.7,2.16,0.06
					c0.7,0.31,1.34,1.4,2.17,0.06c1.52-0.2,3.06-0.58,4.52,0.14c1.38,1.7,3.07-0.32,4.56,0.13c1.44,1.14,3.12-0.54,4.6,0.14
					c0.95-0.15,1.9-0.14,2.84-0.07c1.41-0.07,2.03-0.84,2.1-1.35c-0.31,0.02-2.51-0.13-2.82-0.07c-1.49-0.68-3.16,1-4.6-0.14
					c-1.5-0.46-3.18,1.57-4.56-0.14c-1.46-0.71-3-0.34-4.52-0.14c-0.84,1.34-1.48,0.24-2.17-0.06c-0.58-1.77-1.52,0.88-2.16-0.07
					c-0.32-0.46-0.63-1.1-1.07-0.05c-0.37,0.18-0.7-0.24-1.07-0.07c-0.36,0.1-0.66-0.61-1.07,0c-0.32-0.41-0.73,0.26-1.07-0.01
					c-0.33-0.28-0.7-0.12-1.08,0.27c-0.29-0.83-0.7,0.05-1.06,0.03c-0.32-0.31-0.72,0.25-1.03-0.23c-0.3-0.58-0.7-0.02-1.03-0.2
					c-0.35,0.4-0.62-0.12-0.94-0.08l0.16-1.93c0.04-0.43,0.11-1.3,0.09-1.14l0.28-3.45c-0.47,0.52-1.16,0.86-2.07,0.79l-0.33-0.03
					c-0.74-0.06-1.26-0.38-1.64-0.8c-0.01-0.01-0.03-0.01-0.05-0.02c-0.36,0.17-0.76,0.29-1.27,0.25c-0.71-0.06-1.21-0.36-1.6-0.76
					c-0.21-0.01-0.32-0.15-0.33-0.07C513.44,256.46,513.36,257.67,513.46,256.67z"/>
				<path class="st2" d="M480.92,251.01c0.06-0.14,0.04,0.97,0.07,1.64c-0.01,1.21,0.11,1.01,0.11,2.54
					c0.03,0.44,0.06,0.79,0.09,1.27c0.03,0.48,0.1,0.56,0.05,2.03c0.06,0.22,0,1.88,0.08,1.88c0.02,0.75,0.22-0.68,0.09,2.01
					c-0.01,0.32-0.01,0.54-0.01,0.72c0.68-0.34,1.35-0.19,1.97,0.63c0.94,0.04,1.84,0.97,2.91,0.09c1.03-0.4,2.02,0.09,3.08,0.09
					c0.88,2.19,2.1,0.53,3.24,0.1c1.05,0.79,2.23,0.17,3.4,0.1c0.99,2.08,2.31,0.42,3.54,0.1c1.2,0.04,2.39,0.45,3.67,0.11
					c0.63-0.05,1.26-0.12,1.9-0.12c0.66-0.29,6.14-0.03,6.14-0.17c-0.08-0.06-0.17-0.14-0.24-0.26c-0.66,0.12-1.32,0.24-1.88-0.83
					c-0.6-0.5-1.24-0.52-1.9-0.24c-0.64,0.01-1.27,0.07-1.9,0.12c-1.28,0.34-2.47-0.07-3.67-0.11c-1.23,0.32-2.55,1.97-3.54-0.1
					c-1.17,0.07-2.35,0.69-3.4-0.1c-1.14,0.44-2.37,2.09-3.24-0.09c-1.06-0.01-2.05-0.49-3.08-0.09c-1.07,0.88-1.97-0.05-2.91-0.09
					c-0.62-0.81-1.29-0.96-1.97-0.63c0-0.18,0-0.4,0.01-0.72c0.13-2.7-0.07-1.27-0.08-2.02c-0.08-0.01-0.02-1.67-0.08-1.89
					c0.05-1.47-0.02-1.55-0.05-2.03c-0.03-0.48-0.06-0.83-0.09-1.27c0-1.53-0.12-1.33-0.11-2.54c-0.03-0.67-0.01-1.78-0.07-1.64
					c0-0.52-0.05-0.22-0.02-0.58c0.1-1.27-0.73,0.38-1.73,1.07c-0.13,0.23-0.26,0.43-0.4,0.62
					C480.9,250.68,480.92,250.68,480.92,251.01z"/>
				<path class="st2" d="M478.85,252c-0.27,0.04-0.53,0.03-0.77,0c-0.98,0.52-1.67,0.37-1.73,1.07c-0.01,0.13,0.02,0.29,0.05,0.45
					C477.14,253.52,478.01,253.21,478.85,252z"/>
				<path class="st2" d="M588.93,251.42c0.19,0.07,0.38,0.13,0.62,0.15c0.77,0.06,1.36-0.18,1.81-0.57
					c0.08,0.01,0.14,0.06,0.23,0.06l0.33,0.03c0.22,0.02,0.4-0.04,0.59-0.07c0.36,0.29,0.79,0.51,1.37,0.56
					c0.75,0.06,1.32-0.16,1.76-0.53c0.34,0.02,0.64-0.03,0.92-0.11c0.01,0.06,0.03,0.12,0.02,0.2c-0.05,0.64-0.01,0.37,0.01,0.51
					c-0.01,0.59,0,1.14,0.04,1.44c-0.04,0.87-0.07,1.72-0.01,1.44c0.05-0.14,0.09-0.09,0.06,0.82c-0.01,0.72-0.04,1.61-0.03,2.15
					c-0.02,0.97,0,1.36,0.1,0.81c0.07-0.14,0.12-0.06,0.08,1.23c0,0.77,0,1.64,0.01,2.32c0.04,1.07,0.02,3.11,0.1,4.01
					c-0.01,0.31-0.02,0.57-0.03,0.83c0.38,0.13,0.76,0.29,1.13,0.48c1.5,0.19,3.03-0.3,4.46,0.14c0.73,0.02,1.45,0.15,2.18,0.07
					c0.78-0.68,1.46-0.15,2.15,0.07c1.92-0.58,3.62,0.89,5.46,0.16c1.77,0.08,3.6-1.09,5.19,0.15c1.75-0.8,3.26,0.72,4.89,0.15
					c1.61-0.36,3.06,0.63,4.57,0.14c0.97,0.63,2.01-0.11,2.98-0.24c0.04-0.24,2.04-0.89,2.1-1.32c-0.34,0.02-2.63,0.27-2.96,0.06
					c-1.51,0.49-2.96-0.49-4.57-0.14c-1.63,0.57-3.14-0.95-4.89-0.15c-1.59-1.24-3.42-0.07-5.19-0.15
					c-1.84,0.73-3.54-0.75-5.46-0.16c-0.7-0.21-1.37-0.75-2.15-0.07c-0.73,0.08-1.45-0.04-2.19-0.07c-1.43-0.43-2.96,0.06-4.46-0.13
					c-0.37-0.19-0.75-0.35-1.13-0.48c0.01-0.26,0.01-0.52,0.02-0.83c-0.07-0.9-0.05-2.95-0.1-4.01c-0.01-0.68-0.01-1.54-0.01-2.32
					c0.04-1.29-0.01-1.37-0.08-1.23c-0.1,0.56-0.12,0.16-0.1-0.81c-0.01-0.54,0.01-1.44,0.03-2.16c0.02-0.91-0.01-0.96-0.06-0.82
					c-0.07,0.28-0.03-0.57,0.01-1.44c-0.04-0.3-0.05-0.86-0.04-1.44c-0.02-0.13-0.06,0.14-0.01-0.51c0.01-0.08-0.02-0.14-0.02-0.2
					c-0.28,0.08-0.58,0.13-0.93,0.11c-0.44,0.37-1.01,0.59-1.76,0.53c-0.58-0.05-1.01-0.27-1.37-0.56
					c-0.19,0.03-0.37,0.08-0.59,0.07l-0.33-0.03c-0.09-0.01-0.15-0.05-0.23-0.07c-0.45,0.39-1.04,0.63-1.81,0.57
					c-0.57-0.05-1-0.27-1.36-0.55c-0.45,0.2-0.93,0.33-1.42,0.28c0.01,0.37,0.03,0.82,0.07,0.99
					C588.94,251.07,588.94,251.26,588.93,251.42z"/>
				<path class="st2" d="M519.26,275.13c0.11-1.4,0.09-1.1,0.17-2.13c0.1-1.19,0.03-0.32,0.12-1.41c0.04-0.49,0.06-0.75,0.07-0.89
					c-0.62-0.06-1.25-0.06-1.89,0.14c-0.04,0.02-0.08,0.01-0.12,0.02l-0.09,1.17c0-0.02,0,0.06-0.08,1.05
					c-0.09,1.09-0.02,0.22-0.12,1.41c-0.08,1.03-0.06,0.74-0.17,2.13c-0.18,2.19-0.03,0.4-0.2,2.41c-0.23,2.83-0.18,2.21-0.33,4.09
					c1.53-0.04,3.05-0.07,4.55-0.11c1.64-1.19,3.04,0.27,4.57-0.11c1.51-0.14,2.99-0.27,4.42-0.11c1.41,0.38,2.69,1.97,4.22-0.1
					c1.37-0.03,2.7-0.06,3.98-0.1c1.7-0.04,3.27,0.57,4.84-0.12c1.03-0.22,2-0.43,2.91-0.38c1.43-0.07,2.06-1.09,2.12-1.51
					c-0.32,0.06-2.58,0.33-2.91,0.4c-1.57,0.68-3.13,0.07-4.84,0.11c-1.28,0.03-2.61,0.06-3.98,0.1c-1.53,2.06-2.81,0.48-4.22,0.1
					c-1.43-0.16-2.91-0.03-4.42,0.11c-1.53,0.38-2.93-1.08-4.57,0.11c-1.5,0.04-3.02,0.07-4.55,0.11c0.15-1.88,0.1-1.26,0.33-4.09
					C519.22,275.53,519.08,277.32,519.26,275.13z"/>
				<path class="st2" d="M605.17,285.3c0.69,0.16,1.4,0.08,2.12-0.01c0.71-0.09,1.29,1.35,2.11-0.11c0.68,0.26,1.39,0.19,2.13-0.4
					c0.71-0.19,1.46-0.9,2.05,0.28c0.67,0.21,1.39-0.27,2.04-0.06c0.64,0.45,1.32,0.27,2.01-0.06c0.76-0.02,1.5-0.04,2.23-0.06
					c0.73-0.02,1.45-0.04,2.15-0.06c1.69-0.14,3.33-0.78,4.74-0.14c0.36-0.09,0.7-0.14,1.04-0.14c0.04-0.31,1.94,0.46,1.99,0.15
					c0.02-0.24,0.1-1.36,0.13-1.57c-1.19-0.16-4.42,0.09-5.77,0.21c-0.7,0.02-1.42,0.04-2.15,0.06c-0.73,0.02-1.47,0.04-2.23,0.06
					c-0.69,0.32-1.37,0.51-2.01,0.06c-0.66-0.21-1.37,0.27-2.05,0.06c-0.59-1.18-1.34-0.48-2.04-0.28c-0.74,0.59-1.45,0.66-2.13,0.4
					c-0.82,1.46-1.41,0.01-2.11,0.11c-0.71,0.1-1.42,0.18-2.11,0.01c-1.54,1.65-2.82,0.08-4.22,0.12c-1.19,0.04-2.37,0.07-3.53,0.1
					c0-0.48-0.01-0.93-0.02-1.26c-0.04-1.6-0.07-3.24-0.12-4.72c-0.05-1.44-0.05-3.5-0.12-4.72c-0.01-0.28-0.08-2.38-0.09-2.65
					c-0.75,0.21-1.7,0.63-2.12,1.5c0.02,0.98,0.06,1.8,0.09,2.65c0.06,1.22,0.06,3.28,0.11,4.72c0.05,1.47,0.08,3.12,0.12,4.72
					c0.02,0.33,0.02,0.78,0.02,1.26c1.16-0.03,2.34-0.07,3.53-0.1C602.35,285.38,603.63,286.95,605.17,285.3z"/>
				<path class="st2" d="M553.45,248.31c0.4,0.03,0.72-0.06,1.02-0.18c0.49,0.41,1.12,0.66,1.93,0.75c0.9,0.11,1.56-0.2,2.02-0.68
					c-0.01,0.09-0.02,0.16-0.04,0.33c-0.08,0.67-0.13,0.76-0.23,1.35c-0.05-0.11-0.16,0.5-0.37,2.13c-0.11,0.42-0.26,1.17-0.49,2.81
					c-0.15,0.73-0.42,2.75-0.58,3.37c-0.2,1.1-0.41,2.2-0.67,3.84c-0.13,0.88-0.25,1.57-0.37,2.22c-0.1,0.54-0.2,1.07-0.3,1.64
					c0.58,0.02,1.17,0.03,1.75,0.05c0.8-0.32,1.56-0.06,2.32,0.07c0.51-0.41,0.95-0.01,1.42,0.04c0.47,0.14,0.89,0.73,1.42,0.04
					c0.5-0.25,0.93,0.25,1.43,0.04c0.45,0.31,0.99-0.54,1.42,0.04c0.47,0.06,0.92,0.43,1.41,0.27c0.49-0.21,0.94,0.15,1.44-0.19
					c0.46,0.1,0.9,0.61,1.42,0.02c0.45,0.29,0.93,0.16,1.41,0.07c0.43,0.45,0.94,0.05,1.37,0.5c0.48-0.19,0.98-0.53,1.44-0.42
					c0.48-0.12,0.92,0.33,1.38,0.37c0.46,0.09,0.94,0.02,1.42-0.28c0.46,0.06,0.89,0.49,1.39,0.13c0.49-0.26,0.92,0.08,1.39-0.05
					c0.36,0.58,0.8,0.2,1.19,0.36c0.4,0,0.81-0.05,1.24-0.37c0.38,0.26,0.78,0.39,1.18,0.41c0.4,0.02,0.81-0.07,1.23-0.25
					c0.8-0.01,1.53,0.8,2.35,0.47c0.57,0,1.15-0.26,1.72-0.35c0-0.17,1.42-0.17,1.42-0.39c0-0.19,0.71-0.59,0.7-1.11
					c-0.66,0-3.41-0.12-4.07-0.12c-0.42,0.18-0.82,0.27-1.23,0.25c-0.4-0.02-0.79-0.15-1.18-0.41c-0.43,0.32-0.84,0.37-1.24,0.37
					c-0.39-0.16-0.83,0.22-1.19-0.36c-0.47,0.13-0.91-0.21-1.4,0.05c-0.49,0.36-0.93-0.08-1.39-0.13c-0.49,0.3-0.96,0.37-1.43,0.28
					c-0.47-0.04-0.9-0.49-1.38-0.37c-0.46-0.11-0.96,0.23-1.44,0.42c-0.43-0.44-0.94-0.05-1.37-0.5c-0.48,0.1-0.96,0.23-1.41-0.07
					c-0.52,0.59-0.95,0.08-1.42-0.02c-0.5,0.34-0.95-0.02-1.44,0.19c-0.49,0.16-0.93-0.21-1.4-0.27c-0.43-0.59-0.97,0.27-1.42-0.04
					c-0.49,0.21-0.93-0.3-1.42-0.05c-0.53,0.69-0.96,0.1-1.43-0.04c-0.47-0.06-0.91-0.45-1.42-0.04c-0.77-0.13-1.52-0.39-2.32-0.07
					c-0.58-0.02-1.17-0.03-1.75-0.05c0.1-0.58,0.2-1.1,0.3-1.64c0.12-0.65,0.24-1.34,0.37-2.22c0.26-1.64,0.47-2.75,0.67-3.84
					c0.16-0.62,0.43-2.64,0.58-3.37c0.23-1.64,0.38-2.39,0.49-2.81c0.21-1.64,0.33-2.24,0.37-2.13c0.11-0.6,0.15-0.69,0.23-1.36
					c0.02-0.16,0.03-0.23,0.04-0.32c-0.46,0.49-1.12,0.79-2.02,0.68c-0.82-0.1-1.45-0.34-1.94-0.75c-0.3,0.12-0.62,0.21-1.02,0.18
					c-0.54-0.04-0.95-0.24-1.3-0.5c-0.8,0.17-1.32-0.07-1.29-0.38c0.04-0.49-0.01-0.07-0.1,0.74c-0.09,0.88-0.13,0.93-0.2,1.44
					C552.91,248.21,553.16,248.28,553.45,248.31z"/>
				<path class="st2" d="M632.24,295.56c-0.07,0-0.14,0-0.21-0.02c-0.06,0.36-0.13,0.74-0.19,1.09c-0.23,1.33-0.44,2.6-0.65,3.8
					c-0.17,0.79-0.34,1.62-0.57,3.35c-0.21,1.37-0.3,1.44-0.48,2.79c-0.12,0.52-0.33,2.32-0.36,2.12c-0.02,0.1-0.03,0.15-0.04,0.22
					c0.99,0.13,1.85,0.11,1.85,0.11s0.03-0.16,0.08-0.48c0.08-0.64,0.12-0.61,0.23-1.35c0.03,0.17,0.21-1.3,0.33-1.96V295.56z"/>
				<path class="st2" d="M600.01,302.25c-0.02-0.85-0.03-2.01-0.07-2.96c0.01-1.5-0.02-2.71-0.08-3.55
					c0.01-1.66-0.18-2.95-0.15-4.83l-1.27-0.1c0.01,0.34-0.82,2.22-0.79,2.41c-0.09,2.89,0.11,2.13,0.1,4.01
					c0.07,0.83,0.09,2.04,0.08,3.55c0.04,0.95,0.05,2.12,0.07,2.96c0.02,0.88,0.04,1.64,0.05,2.26c0,0.11,0,0.18,0.01,0.28
					l2.16,0.17c0,0-0.01-0.7-0.05-1.95C600.05,303.89,600.03,303.13,600.01,302.25z"/>
				<path class="st2" d="M517.86,290.57c-0.62-0.02-2.04,2.27-2.25,4.87l-0.53,6.58c-0.01,0.09-0.01,0.15-0.01,0.14L515,302.9
					c1.03-0.3,2.02-0.23,1.99,0.16l0.19-2.41c0,0.01,0.01-0.05,0.01-0.14l0.53-6.58c0.19-2.33,0.09-1.11,0.27-3.37
					C517.96,290.57,517.91,290.57,517.86,290.57z"/>
				<path class="st2" d="M468.5,263.41c0.36,0.31,0.73,1.01,1.27-0.09c0.46,1.08,1.17-0.22,1.8,0.06c0.64,0.02,3.46-0.94,3.41-1.46
					c-0.44-0.01-0.89-0.02-1.29-0.04c-0.63-0.27-1.33,1.03-1.8-0.05c-0.66,1.32-1.05,0.03-1.5-0.04c-0.47,0.29-0.86,0.23-1.19-0.04
					c-0.35,0.03-0.63,0.02-0.86-0.02c-0.01,0.05-0.03,0.07-0.04,0.11c0.16,0.37,0.26,0.78,0.22,1.27L468.5,263.41z"/>
				<path class="st2" d="M485.16,299.92c-0.07,0.28,0.01-1.51-0.07-1.59c-0.06-0.34-0.04-1.82-0.11-2.49c0-1.39-0.04-2.52-0.14-3.22
					c-0.02-1.23-0.09-2.02-0.14-3.16c-0.42,0.1-2.01,3.2-1.98,4.66c0.09,0.7,0.13,1.83,0.13,3.22c0.07,0.67,0.05,2.15,0.11,2.49
					c0.03,0.03,0.03,0.25,0.04,0.52c0.07-0.01,0.12,0,0.19-0.02c0.99,0.16,1.96,0.43,1.99,0.16
					C485.24,299.69,485.22,299.7,485.16,299.92z"/>
				<path class="st2" d="M557.26,280.7c-0.4,0.24-0.95,0.16-1.65,0.04c-0.22-0.85-0.57-0.55-0.94-0.24c0.14-0.91,0.28-1.72,0.38-2
					c0.19-1.54,0.33-2.37,0.46-2.99c0.12-0.62,0.23-1.01,0.35-1.68c0.16-1.1,0.28-1.77,0.4-2.35c-0.42-0.09-0.84-0.16-1.29,0.07
					c-0.2,0.14-0.4,0.18-0.59,0.17c-0.08,0.42-0.15,0.78-0.22,1.14c-0.12,0.6-0.25,1.28-0.42,2.46c-0.13,0.67-0.23,1.07-0.35,1.68
					c-0.12,0.62-0.26,1.45-0.46,2.99c-0.09,0.28-0.23,1.09-0.38,2.01c0.37-0.31,0.72-0.6,0.94,0.24c0.71,0.12,1.25,0.2,1.65-0.04
					c0.34,0.38,0.52,0.7,0.58-0.02c-0.03,0.38,0.01-0.14-0.09,1.1c-0.02,0.32-0.01,0.11-0.09,1.1c-0.02-0.81-0.19,0.73-0.22,0.63
					c-0.36-0.73-0.81,0.8-0.99,1.07c-0.15-0.38-0.45,1.58-0.48,0.69c-0.11,0.08-0.19,0.33-0.24,0.92c-0.01,0.08-0.01,0.19-0.03,0.33
					c0.04-0.53,0.08,0.46,0.21,1.3c0.16-0.24,0.29,0.38,0.48,0.71c0.87-0.33,1.44,0.97,1.97,0.24c0.28-0.28,0.49-0.37,0.62-0.34
					c-0.16-0.43-0.23-0.96-0.22-1.21c-0.33,0.12-0.5-1.24-0.73-0.9c-0.13-0.84-0.16-1.82-0.21-1.3c0.01-0.14,0.02-0.25,0.03-0.33
					c0.05-0.59,0.13-0.85,0.24-0.92c0.03,0.9,0.34-1.06,0.49-0.68c0.19-0.26,0.64-1.79,0.99-1.07c0.03,0.1,0.2-1.45,0.22-0.63
					c0.08-0.99,0.06-0.78,0.09-1.09c0.1-1.24,0.06-0.72,0.09-1.1C557.78,281.41,557.6,281.08,557.26,280.7z"/>
				<path class="st2" d="M551.82,291.69c-0.32,0.3-0.62,0.1-0.93-0.06c-0.09,0.57-0.19,1.14-0.28,1.64
					c-0.25,1.55-0.49,2.97-0.67,3.84c-0.2,1.06-0.38,1.92-0.59,3.38c-0.16,0.8-0.39,2.56-0.49,2.8c-0.23,1.9-0.26,1.42-0.37,2.13
					c-0.01-0.04-0.03,0.07-0.06,0.25c0.16-0.03,0.31-0.05,0.45-0.03c0.83-0.12,1.46-0.38,1.42,0.11c0.04-0.48-0.03,0.59,0.09-0.47
					c-0.01,0.44,0.19-1.5,0.23-1.36c0.11-0.71,0.14-0.23,0.37-2.13c0.09-0.24,0.33-2.01,0.49-2.81c0.21-1.46,0.39-2.32,0.59-3.37
					c0.18-0.87,0.67-3.81,0.92-5.36c0.01-0.07-0.23,1.35-0.22,1.27C552.49,291.42,552.18,291.4,551.82,291.69z"/>
			</g>
		</g>
		<path class="st4" d="M523.45,91.42c-0.14-1.73,2.3-1.33,2.29-3.02c0.35-0.11,0.68-0.19,1.02-0.32c-0.04-1.19,1.03-1.22,1.45-1.84
			c0.34-0.5,0.53-1.67,1.18-2.07c1.45-0.89,3.49-0.67,5.25-1.48c4.21-1.94,6.54-0.78,10.26,1.24c4.21,2.28,8.36,1.43,12.93,2.59
			c2.5,0.63,3.6,0.9,5.87,0.89c1.94,0,4.24,0.43,5.66,1.6c4.76,3.91-3.19,4.07-5.95,4.53c-2.43,0.41-3.71-0.06-5.92-0.18
			c-2.2-0.13-4.36,0.58-6.65,0.66c-2.47,0.08-4.58-0.92-6.99-0.71c-1.85,0.16-3.75,1.21-5.57,1.66c-4.09,1.02-8.97,0.99-12.94-0.18
			c-1.83-0.54-5.1-0.77-6.32-2c0.37-0.64,0.9-0.68,1.64-0.65L523.45,91.42z"/>
		<path class="st4" d="M314.58,127.64c-0.14-1.73,2.3-1.33,2.29-3.02c0.35-0.11,0.68-0.19,1.02-0.32c-0.03-1.19,1.03-1.22,1.45-1.84
			c0.34-0.5,0.53-1.67,1.18-2.07c1.45-0.89,3.49-0.67,5.25-1.47c4.21-1.93,6.54-0.78,10.26,1.24c4.21,2.28,8.36,1.43,12.93,2.59
			c2.5,0.63,3.6,0.9,5.87,0.89c1.94,0,4.24,0.43,5.66,1.6c4.76,3.91-3.19,4.07-5.95,4.53c-2.43,0.41-3.71-0.06-5.92-0.18
			c-2.2-0.13-4.36,0.58-6.65,0.65c-2.47,0.08-4.58-0.92-6.99-0.71c-1.85,0.15-3.75,1.21-5.57,1.66c-4.09,1.03-8.97,0.99-12.94-0.18
			c-1.82-0.54-5.1-0.77-6.32-2c0.37-0.64,0.9-0.68,1.64-0.65L314.58,127.64z"/>
		<path class="st4" d="M186.17,35.52c-0.14-1.73,2.3-1.33,2.29-3.02c0.35-0.11,0.68-0.19,1.02-0.32c-0.03-1.19,1.03-1.22,1.45-1.84
			c0.34-0.5,0.53-1.67,1.18-2.07c1.45-0.89,3.49-0.67,5.25-1.48c4.21-1.93,6.54-0.78,10.26,1.24c4.21,2.28,8.36,1.43,12.94,2.59
			c2.5,0.63,3.6,0.9,5.87,0.89c1.94,0,4.24,0.43,5.66,1.6c4.76,3.91-3.19,4.07-5.95,4.53c-2.43,0.41-3.71-0.06-5.92-0.18
			c-2.2-0.13-4.37,0.58-6.65,0.66c-2.47,0.08-4.58-0.92-7-0.71c-1.85,0.16-3.74,1.21-5.57,1.66c-4.09,1.02-8.97,0.99-12.94-0.18
			c-1.82-0.54-5.1-0.77-6.32-2c0.37-0.64,0.9-0.68,1.64-0.65L186.17,35.52z"/>
		<path class="st4" d="M331.63,46.85c-0.26-2.44,4.25-1.87,4.23-4.26c0.65-0.15,1.26-0.27,1.89-0.45c-0.06-1.68,1.91-1.71,2.69-2.59
			c0.62-0.7,0.98-2.35,2.19-2.91c2.69-1.25,6.47-0.94,9.72-2.08c7.79-2.72,12.12-1.09,19.01,1.74c7.8,3.21,15.49,2.01,23.97,3.65
			c4.63,0.89,6.67,1.26,10.88,1.25c3.59-0.01,7.85,0.61,10.48,2.25c8.82,5.51-5.91,5.72-11.03,6.38c-4.5,0.58-6.87-0.08-10.96-0.26
			c-4.08-0.18-8.09,0.82-12.32,0.92c-4.57,0.11-8.48-1.29-12.96-1.01c-3.42,0.22-6.94,1.7-10.32,2.34
			c-7.57,1.44-16.62,1.4-23.98-0.26c-3.38-0.76-9.45-1.09-11.71-2.82c0.68-0.91,1.67-0.95,3.03-0.91L331.63,46.85z"/>
		<path class="st4" d="M28.47,86.7c-0.23-2.44,3.7-1.87,3.68-4.26c0.57-0.15,1.1-0.27,1.65-0.45c-0.06-1.68,1.67-1.71,2.34-2.59
			c0.54-0.7,0.85-2.35,1.91-2.91c2.34-1.25,5.64-0.94,8.46-2.08c6.79-2.73,10.55-1.09,16.55,1.74c6.79,3.21,13.48,2.01,20.86,3.64
			c4.03,0.89,5.81,1.26,9.47,1.26c3.13-0.01,6.83,0.6,9.12,2.25c7.67,5.51-5.14,5.72-9.6,6.38c-3.92,0.58-5.98-0.08-9.54-0.26
			c-3.55-0.18-7.04,0.82-10.72,0.92c-3.98,0.11-7.38-1.29-11.28-1.01c-2.98,0.22-6.04,1.7-8.98,2.34
			c-6.59,1.44-14.46,1.4-20.87-0.26c-2.94-0.76-8.23-1.08-10.19-2.82c0.59-0.91,1.46-0.95,2.64-0.91L28.47,86.7z"/>
	</g>
</g>
</svg>
