<?xml version="1.0" encoding="utf-8"?>
<!-- Generator: Adobe Illustrator 23.0.4, SVG Export Plug-In . SVG Version: 6.00 Build 0)  -->
<svg version="1.1" id="Layer_1" xmlns="http://www.w3.org/2000/svg" xmlns:xlink="http://www.w3.org/1999/xlink" x="0px" y="0px"
	 viewBox="0 0 125.18 143.48" style="enable-background:new 0 0 125.18 143.48;" xml:space="preserve">
<style type="text/css">
	.st0{fill:#FFFFFF;}
	.st1{fill:#E2E2E2;}
	.st2{fill:#2B303D;}
</style>
<g>
	<g>
		<path class="st0" d="M108.44,98.96c-4.41-4.46-7.13-9.96-9.17-15.37c-1.09-2.89-2.2-6.76-3.19-10.65
			c-1.03-4.03,0.16-8.37,3.22-11.19c0.02-0.02,0.05-0.04,0.07-0.06c2.66-2.41,5.92-4.09,8.57-6.51c3.31-3.03,5.7-7.88,2.63-12.07
			c-0.95-1.3-2.31-2.26-3.81-2.83c-4-1.51-8.21-0.45-11.99,1.13c-1.27,0.53-2.54,1.15-3.67,1.93c-0.44-4.4-0.87-8.82-1.27-13.24
			C88.2,13.02,75.01-0.01,59.33,0h0C43.66-0.01,30.32,13.01,28.22,30.13c-0.51,4.43-1.06,8.86-1.63,13.28
			c-1.16-0.82-2.47-1.46-3.77-2.01c-3.79-1.58-7.99-2.63-11.99-1.13c-1.5,0.57-2.86,1.53-3.81,2.83c-3.07,4.19-0.68,9.04,2.63,12.07
			c2.65,2.42,5.91,4.1,8.57,6.51c0.23,0.21,0.45,0.43,0.67,0.65c2.62,2.69,3.57,6.59,2.78,10.26c-2.08,9.69-4.78,19.92-7.63,25.09
			C10.48,104,6.18,110.52,0,115.1c3.66-1.52,6.92,0.97,8.8,3.77c1.9,2.84,3.37,6.3,6.39,7.85c5.41,2.73,12.68-1.48,18.56,0.19
			c7.11,2.06,9.58,10.86,15.66,14.55c4.66,2.86,11,2.64,15.59-0.43c4.55-3.06,7.09-8.89,12.35-10.97c4.12-1.6,9.12-0.32,13.18-2.01
			c4.56-1.87,6.72-7.31,11.35-9.11c5.03-1.96,11.72,1.3,16.78-0.76c4.45-1.83,5.84-7.3,6.52-12.25
			C119.43,106.79,112.92,103.46,108.44,98.96z"/>
		<path class="st1" d="M125,105.96c-0.48,0.07-0.96,0.1-1.45,0.11c-2.72,1.56-6.5,1.47-9.75-0.13c-1.73-0.85-3.34-2.1-5.14-2.54
			c-1.79-0.43-3.87,0.41-3.76,2.16c0.1,1.51,1.67,3.49,0.51,4.31c-0.44,0.31-1.1,0.21-1.68,0.06c-6.85-1.81-10.91-8.92-16.09-13.65
			c-0.61-0.56-1.38-1.13-2.15-1.01c-0.35,0.06-0.65,0.26-0.9,0.48c-2.15,1.85-2.11,5.3-1.06,8.13c1.06,2.85,2.96,5.43,4.13,8.29
			c1.18,2.89,1.43,6.4-0.59,8.47c-2.83,2.89-8.34,1.37-11.24-1.75c-2.87-3.11-3.91-7.3-5.16-11.24c-1.25-3.91-2.81-7.73-4.64-11.39
			c-0.32-0.63-0.68-1.3-1.32-1.62c-1.57-0.78-3.15,1.12-3.6,2.78c-1.17,4.3-0.08,8.82,1.24,13.05c1.34,4.29,2.91,8.65,2.63,13.07
			c-0.28,4.51-2.95,9.08-7.33,10.35c-4.07,1.18-8.53-0.8-11.1-4.06c-2.52-3.22-3.41-7.47-3.76-11.67
			c-0.6-7.02,0.07-14.21-0.43-21.25c-0.09-1.24-0.23-2.51-0.89-3.52c-0.66-1.01-1.98-1.66-3.2-1.2c-1.48,0.56-2.08,2.33-2.46,3.84
			c-1.28,5.17-2.54,10.39-3.69,15.64c-0.26,1.17-0.54,2.41-1.36,3.37c-0.82,0.96-2.36,1.47-3.21,0.73
			c-0.41-0.36-0.57-0.93-0.68-1.48c-2.06-9.95,5.35-21.09,3.25-30.6c-0.04-0.18-0.08-0.37-0.2-0.51c-0.57-0.7-1.76,0.37-2.24,1.27
			c-3.43,6.39-6.95,12.93-10.37,19.69c-0.97,1.92-3.03,4.35-4.68,3.42c-0.91-0.52-0.94-1.84-0.73-2.98
			c0.48-2.56,1.46-4.99,2.42-7.43c-0.1,0.19-0.19,0.38-0.29,0.56c-3.55,6.3-7.84,12.8-14.01,17.39c0.01,0,0.02,0,0.03,0
			c3.63-1.47,6.87,1,8.75,3.79c1.9,2.84,3.37,6.3,6.39,7.85c5.41,2.73,12.68-1.48,18.56,0.19c7.11,2.06,9.58,10.86,15.66,14.55
			c4.66,2.86,11,2.64,15.59-0.43c4.55-3.06,7.09-8.89,12.35-10.97c4.12-1.6,9.12-0.32,13.18-2.01c4.56-1.87,6.72-7.31,11.35-9.11
			c5.03-1.96,11.72,1.3,16.78-0.76c4.44-1.83,5.83-7.28,6.51-12.22C125.11,105.96,125.05,105.96,125,105.96z"/>
		<path class="st1" d="M96.08,72.94c-1.03-4.03,0.16-8.37,3.22-11.19c0.02-0.02,0.05-0.04,0.07-0.06c2.66-2.41,5.92-4.09,8.57-6.51
			c3.3-3.02,5.68-7.85,2.66-12.02c-1.82,4.02-5.48,7.33-9.73,10.07c-5.82,3.76-7.31,11.12-4.7,20.08c0,0,0,0,0,0.01
			C96.15,73.18,96.11,73.06,96.08,72.94z"/>
		<path class="st1" d="M21.34,74.08C21.34,74.08,21.35,74.08,21.34,74.08c2.07-8.64,1.94-15.22-7.1-21.22
			c-4.89-3.24-7.18-5.2-8.47-7.03c-0.76,3.43,1.27,6.96,3.88,9.34c2.65,2.42,5.91,4.1,8.57,6.51c0.23,0.21,0.45,0.43,0.67,0.65
			c2.62,2.69,3.57,6.59,2.78,10.26C21.56,73.09,21.45,73.59,21.34,74.08z"/>
	</g>
	<g>
		<circle id="XMLID_45_" class="st2" cx="49.06" cy="27.87" r="6.65"/>
		<path id="XMLID_46_" class="st2" d="M78.36,29.67c0,3.21-2.84,5.81-6.35,5.81c-3.51,0-6.35-2.6-6.35-5.81
			c0-3.21,2.84-5.81,6.35-5.81C75.52,23.85,78.36,26.46,78.36,29.67z"/>
		<path class="st2" d="M52.6,46.09c0.8,1.38,2.34,2.19,3.9,2.49c1.56,0.3,3.17,0.14,4.75,0c1.67-0.15,3.38-0.31,4.91-1.01
			c1.53-0.69,2.87-2.04,3.08-3.71c0.21-1.67-0.77-3.32-2.14-4.29c-1.37-0.98-3.06-1.38-4.72-1.6c-2.62-0.34-5.45-0.21-7.66,1.25
			C52.52,40.68,51.28,43.8,52.6,46.09z"/>
	</g>
</g>
</svg>
