<svg xmlns="http://www.w3.org/2000/svg" viewBox="0 0 335.23 639.24"><defs><style>.cls-1{isolation:isolate;}.cls-2{fill:#100505;}.cls-3{fill:#382443;}.cls-25,.cls-4{fill:none;}.cls-5{fill:#1d1d16;}.cls-6{fill:#ffd100;}.cls-21,.cls-7{fill:#fff;}.cls-8{fill:#30130c;}.cls-9{fill:#f9bb8d;}.cls-10{fill:#623185;}.cls-11{fill:#cbcbd4;}.cls-11,.cls-12,.cls-16{mix-blend-mode:multiply;}.cls-12{fill:#b9c4d2;}.cls-13,.cls-18{fill:#a1c4d7;}.cls-13,.cls-21{opacity:0.3;}.cls-13,.cls-18,.cls-21{mix-blend-mode:soft-light;}.cls-14{fill:#190018;}.cls-15{fill:#5f4390;}.cls-16{fill:#84858a;}.cls-17{fill:#0c0c01;}.cls-18{opacity:0.5;}.cls-19{fill:#fab200;}.cls-20{fill:#cd8b00;}.cls-22{fill:#2f0d01;}.cls-23{fill:#45170d;}.cls-24{fill:#ee714f;}.cls-25{stroke:#c8926a;stroke-linecap:round;stroke-linejoin:round;stroke-width:2.81px;}.cls-26{fill:#f5a998;}</style></defs><title>player</title><g class="cls-1"><g id="Capa_1" data-name="Capa 1"><path class="cls-2" d="M183,435.7c18,24,47.1,32.79,16.12,79-25.08,1.95-47.49,9.62-94.39-1.64-31.54-7.58-71.84-31.21-71.13-49.22C43.59,435.24,175,432.7,183,435.7Z"/><polygon class="cls-3" points="193.54 560.12 172.5 560.12 172.5 419.47 206.38 419.47 193.54 560.12"/><polygon class="cls-4" points="204.93 435.29 172.5 435.29 172.5 450.68 203.52 450.68 204.93 435.29"/><polygon class="cls-4" points="199.24 497.7 172.5 497.7 172.5 513.09 197.84 513.09 199.24 497.7"/><polygon class="cls-4" points="196.39 528.91 172.5 528.91 172.5 544.3 195 544.3 196.39 528.91"/><polygon class="cls-4" points="202.09 466.5 172.5 466.5 172.5 481.88 200.67 481.88 202.09 466.5"/><polygon points="206.38 419.47 172.5 419.47 172.5 435.29 204.93 435.29 206.38 419.47"/><polygon points="203.52 450.68 172.5 450.68 172.5 466.5 202.09 466.5 203.52 450.68"/><polygon points="200.67 481.88 172.5 481.88 172.5 497.7 199.24 497.7 200.67 481.88"/><polygon points="197.84 513.09 172.5 513.09 172.5 528.91 196.39 528.91 197.84 513.09"/><polygon points="172.5 544.3 172.5 560.12 193.54 560.12 195 544.3 172.5 544.3"/><polygon points="194.94 584.33 170.86 584.33 163.44 553.52 199.88 553.52 194.94 584.33"/><polygon class="cls-5" points="168.75 575.6 170.86 584.33 194.94 584.33 196.34 575.6 168.75 575.6"/><path d="M194.94,584.33H170.86s-6.9,15.9-1.78,32.33c1.17,0,2.66,22.58,2.66,22.58h6.08l1.54-19.51s.76-6.54,8.2,0c8.47,7.45,16.43,19.51,22.33,19.51h29.76c10.15,0,14.13-24.64,2.84-30.29-11.56-5.78-16.93,2.83-16.93,2.83a8,8,0,0,1,10.77,1.46c3.25,3.49.61,11.21-8.72,11.21C210.66,624.45,194.94,584.33,194.94,584.33Z"/><path d="M230.61,613.45a3,3,0,1,1-3.05-3A3,3,0,0,1,230.61,613.45Z"/><path class="cls-6" d="M191.34,573.9h-5.45a2.31,2.31,0,0,0-2.52,2l.54,8.52a2.31,2.31,0,0,0,2.51,2h4.05a2.31,2.31,0,0,0,2.52-2l.87-8.52A2.31,2.31,0,0,0,191.34,573.9Zm.13,9.31a1.55,1.55,0,0,1-1.64,1.43h-2.65a1.55,1.55,0,0,1-1.64-1.43l-.36-6a1.56,1.56,0,0,1,1.66-1.44h3.56a1.56,1.56,0,0,1,1.65,1.44Z"/><path class="cls-3" d="M191.39,583.57a1.34,1.34,0,0,0,.52-1l.58-6a1.57,1.57,0,0,0-1.65-1.45h-3.56a1.58,1.58,0,0,0-1.56,1.09,1.66,1.66,0,0,1,1.12-.4h3.56a1.56,1.56,0,0,1,1.65,1.44l-.58,6A1.11,1.11,0,0,1,191.39,583.57Z"/><path class="cls-3" d="M190.91,585.8h-4a2.31,2.31,0,0,1-2.52-2l-.54-8.51a1.78,1.78,0,0,1,.12-.6,1.85,1.85,0,0,0-.56,1.27l.54,8.52a2.31,2.31,0,0,0,2.51,2h4.05a2.51,2.51,0,0,0,2.4-1.45A2.77,2.77,0,0,1,190.91,585.8Z"/><path class="cls-6" d="M189.4,580.37a.79.79,0,0,1-.82.77h-5a.78.78,0,0,1-.8-.77h0a.79.79,0,0,1,.8-.77h5a.81.81,0,0,1,.82.77Z"/><path class="cls-3" d="M188.58,580.6h-5a.8.8,0,0,1-.75-.49.8.8,0,0,0,0,.26.78.78,0,0,0,.8.77h5a.79.79,0,0,0,.82-.77.62.62,0,0,0-.06-.26A.8.8,0,0,1,188.58,580.6Z"/><path class="cls-7" d="M188.57,579.94c0,.1-.12.19-.27.19h-4.48c-.14,0-.26-.09-.26-.19h0a.24.24,0,0,1,.26-.2h4.48c.15,0,.27.09.27.2Z"/><polygon class="cls-3" points="109.02 560.12 130.06 560.12 130.06 419.47 96.19 419.47 109.02 560.12"/><polygon class="cls-4" points="97.63 435.29 130.06 435.29 130.06 450.68 99.04 450.68 97.63 435.29"/><polygon class="cls-4" points="103.33 497.7 130.06 497.7 130.06 513.09 104.73 513.09 103.33 497.7"/><polygon class="cls-4" points="106.17 528.91 130.06 528.91 130.06 544.3 107.57 544.3 106.17 528.91"/><polygon class="cls-4" points="100.48 466.5 130.06 466.5 130.06 481.88 101.88 481.88 100.48 466.5"/><polygon points="96.19 419.47 130.06 419.47 130.06 435.29 97.63 435.29 96.19 419.47"/><polygon points="99.04 450.68 130.06 450.68 130.06 466.5 100.48 466.5 99.04 450.68"/><polygon points="101.88 481.88 130.06 481.88 130.06 497.7 103.33 497.7 101.88 481.88"/><polygon points="104.73 513.09 130.06 513.09 130.06 528.91 106.17 528.91 104.73 513.09"/><polygon points="130.06 544.3 130.06 560.12 109.02 560.12 107.57 544.3 130.06 544.3"/><polygon points="107.61 584.33 131.71 584.33 139.12 553.52 102.68 553.52 107.61 584.33"/><polygon class="cls-5" points="133.8 575.6 131.71 584.33 107.61 584.33 106.22 575.6 133.8 575.6"/><path d="M107.61,584.33h24.1s6.9,15.9,1.77,32.33c-1.15,0-2.65,22.58-2.65,22.58h-6.08l-1.54-19.51s-.77-6.54-8.22,0c-8.46,7.45-16.42,19.51-22.32,19.51H62.92c-10.15,0-14.14-24.64-2.84-30.29C71.64,603.17,77,611.78,77,611.78a8,8,0,0,0-10.78,1.46c-3.24,3.49-.6,11.21,8.73,11.21C91.91,624.45,107.61,584.33,107.61,584.33Z"/><path d="M72,613.45a3,3,0,1,0,3-3A3,3,0,0,0,72,613.45Z"/><path class="cls-6" d="M108.71,575.92l.86,8.52a2.32,2.32,0,0,0,2.52,2h4a2.32,2.32,0,0,0,2.52-2l.53-8.52a2.3,2.3,0,0,0-2.51-2h-5.45A2.31,2.31,0,0,0,108.71,575.92Zm1.81,1.25a1.55,1.55,0,0,1,1.65-1.44h3.57a1.55,1.55,0,0,1,1.64,1.44l-.35,6a1.56,1.56,0,0,1-1.65,1.43h-2.64a1.56,1.56,0,0,1-1.65-1.43Z"/><path class="cls-3" d="M111.17,583.57a1.35,1.35,0,0,1-.53-1l-.57-6a1.57,1.57,0,0,1,1.65-1.45h3.58a1.59,1.59,0,0,1,1.55,1.09,1.69,1.69,0,0,0-1.11-.4h-3.57a1.55,1.55,0,0,0-1.65,1.44l.57,6A1.11,1.11,0,0,0,111.17,583.57Z"/><path class="cls-3" d="M111.65,585.8h4a2.31,2.31,0,0,0,2.51-2l.54-8.51a1.78,1.78,0,0,0-.12-.6,1.81,1.81,0,0,1,.56,1.27l-.53,8.52a2.32,2.32,0,0,1-2.52,2h-4A2.48,2.48,0,0,1,109.7,585,2.75,2.75,0,0,0,111.65,585.8Z"/><path class="cls-6" d="M113.17,580.37a.79.79,0,0,0,.81.77h5a.79.79,0,0,0,.81-.77h0a.8.8,0,0,0-.81-.77h-5a.8.8,0,0,0-.81.77Z"/><path class="cls-3" d="M114,580.6h5a.82.82,0,0,0,.76-.49.8.8,0,0,1,0,.26.79.79,0,0,1-.81.77h-5a.79.79,0,0,1-.81-.77.8.8,0,0,1,0-.26A.82.82,0,0,0,114,580.6Z"/><path class="cls-7" d="M114,579.94c0,.1.12.19.26.19h4.48c.14,0,.27-.09.27-.19h0c0-.11-.13-.2-.27-.2h-4.48a.24.24,0,0,0-.26.2Z"/><path class="cls-8" d="M276.12,299c-32.86,40.48-86.16,46.74-127.36,46.74S60.83,340.49,27.53,301c.29-44.71,22.91-143.19,123.55-143.19C247.73,157.82,283.49,240.29,276.12,299Z"/><path class="cls-9" d="M306,273.57c8.79-6.18,18.44-3.94,25.11,5.55,6.79,9.67,4.83,19.83-3.27,25.52-10.08,7.08-27.49,11.19-34.58,1.08C286.47,296.06,295.93,280.64,306,273.57Z"/><path class="cls-10" d="M303.49,258.77c18,24,5,67-26,113.22-25.08,1.94-61-6.26-61-6.26s-40.08-29.44-44-40C266.54,306.75,295.48,255.78,303.49,258.77Z"/><path class="cls-11" d="M285.07,339.91c-10.33,8.83-23.62,15.54-37.52,12a48.59,48.59,0,0,1-22.07-12.68c-5.13-5.07-9.9-10.58-16-14.58a94,94,0,0,1-8.57-6.17,287.44,287.44,0,0,1-28.4,7.25c3.9,10.54,44,40,44,40s35.89,8.2,61,6.26c13.38-20,23.4-39.33,29-56.82A119.86,119.86,0,0,1,285.07,339.91Z"/><path class="cls-9" d="M13.85,399c-8,7.17-8,17.07-.27,25.73s18.21,9.18,25.59,2.57C48.35,419,56.29,403,48.05,393.82,40.18,385,23,390.74,13.85,399Z"/><path class="cls-10" d="M0,393.14c19.29,23,64.1,20,116.16.33,7.58-24,7.71-60.81,7.71-60.81s-10.24-20.54-19.63-26.74C65,315.47-1.1,384.68,0,393.14Z"/><path class="cls-11" d="M89.62,333.81c-8.17,4.75-18.51,13.21-24.54,20.57-5.84,7.13-12.46,18-17.16,25.84-8.05,13.44-25.86,18-41.63,18.73,21.7,16.37,62.78,12.35,109.88-5.48,7.58-24,7.71-60.81,7.71-60.81a139.18,139.18,0,0,0-7.68-13.19C102,322.1,101.59,326.85,89.62,333.81Z"/><path class="cls-10" d="M267.49,487.85s-33,29.9-84,27c-65.62-3.76-76-70-149.93-51,0-44.72,58-172.93,124.94-172.93C222.51,290.94,267.49,487.85,267.49,487.85Z"/><path class="cls-12" d="M242.65,494.87c-18.39,2.75-37.11,3.11-54.59-4-15.89-6.51-25.42-19.19-34.36-33.16-5.18-8.08-10.66-17-18.9-22.29-5.11-3.31-11.42-4.88-16.12-8.79-10.24-8.48-9.45-28.39-8.28-40.18,1.67-16.69,9.12-30.25,24.28-38.19,16.71-8.76,35.7-12.44,50.34-25.1a48.1,48.1,0,0,0,9.7-11.38c-11.14-12.79-23.28-20.8-36.18-20.8-67,0-124.94,128.21-124.94,172.93,74-19,84.31,47.21,149.93,51a124.14,124.14,0,0,0,80.29-24C256.31,493.13,248,494.08,242.65,494.87Z"/><path class="cls-12" d="M142,488c-10.7-13.41-23.78-23.34-37-34-10.48-8.47-19.79-18.14-23.71-31.4C76.27,405.67,77,388,84.74,372c7.89-16.22,18.53-30.91,34.66-39.64,15.78-8.54,32.71-14.52,48.27-23.59q7.35-4.29,14.54-8.9c-7.54-5.67-15.45-8.94-23.67-8.94-67,0-124.94,128.21-124.94,172.93,65.22-16.76,81,32.75,128.83,47.25C154.62,504.53,148.37,496,142,488Z"/><path class="cls-9" d="M247.73,262.78c0,39-37.75,63-97.18,63-60.4,0-97.19-27-97.19-63,0-44.72,33.63-94.72,96.85-94.72C210.59,168.06,247.73,218.06,247.73,262.78Z"/><path class="cls-9" d="M263.24,241.21A14.62,14.62,0,1,1,248.62,227,14.41,14.41,0,0,1,263.24,241.21Z"/><path class="cls-9" d="M65,244.21A14.63,14.63,0,1,1,50.33,230,14.42,14.42,0,0,1,65,244.21Z"/><path class="cls-13" d="M190.53,326.25c-11.7,14.45-32.22,18.82-46.52,29.42-10.92,8.09-13.78,30.29-11.78,44.05,2.21,15.27,11,25.31,21.53,35.39C165.92,446.79,170.67,463.57,186,473c14.44,8.88,75.21,24.66,69-7.32-3.31-17-13.06-32.87-17.85-49.69-5.58-19.64-11.44-38.46-18.7-57.56a140.21,140.21,0,0,0-16.68-30.71Z"/><path class="cls-13" d="M219,321.74c11.21,6.85,21.44,15.18,35.22,16.52,11.34,1.1,23.68-.57,31.51-9,8.05-8.67,13.74-22.31,15-33.77.7-6.41,1.17-13,1.5-19.47.46-8.88,0-11.17-7.31-5.06-5.52,4.63-10.32,10.49-15.91,14.83-6.71,5.2-14.56,8.29-21.61,12.93-10.94,7.17-24.37,11.18-34.64,18.53Z"/><path class="cls-13" d="M85.38,319.34c-10.69,3.68-21.56,13.15-29.8,21-7.18,6.83-15.68,14.57-21.94,22.5-4.21,5.31-7.25,11.69-12.14,16.33-4.32,4.12-13.72,7.25-6.58,12.34,11.85,8.43,22-10.82,27.57-18.18,7.5-10,15.94-22.8,24.91-30.94,4.2-3.83,9.42-5.88,14-9,5.66-3.77,6.56-8.7,10.69-12.57Z"/><path class="cls-8" d="M69.13,231.36c4.87,12.36-7,18.62-4,28.73C56.46,259,62,236.23,56.51,231.32c1.22-6.66,18.74-34.83,18.74-34.83s100.07-6.21,95.84,2.87C160.59,221.87,69.13,228.66,69.13,231.36Z"/><path class="cls-8" d="M233,220.67c-4.88,12.38,8.62,17.62,5.62,27.74,8.62-1.12,3-17.43,8.43-22.34-1.23-6.66-18.74-34.82-18.74-34.82s-86.91,0-82.69,9.11C156.13,222.88,233,218,233,220.67Z"/><path class="cls-14" d="M266.38,159.19c.5,14.71-46.22,52.32-115.51,54.49s-126.29-20.32-126.79-35c0-.75-.19-6.64-.19-6.64A1118.68,1118.68,0,0,1,149,160.46c66.08-2.08,117.07-9.08,117.07-9.08S266.36,158.52,266.38,159.19Z"/><path class="cls-15" d="M266.12,152c.51,14.7-46.2,52.31-115.5,54.49s-126.28-20.34-126.79-35,55.67-16,125-18.19S265.62,137.27,266.12,152Z"/><path class="cls-16" d="M217,147.92a53.91,53.91,0,0,1,8.34,5.69,1.39,1.39,0,0,1,.07,2c-.95,1.09,5.45,5.37,5.73,7.24.5,3.26-2.13,5.79-4.88,7.31-4.37,2.39-10.65.69-15.43,1.95-1.63.43-4.43,2-1.85,2.91l1.32.47c1.22.64,1.72,2.26,2.89,3a1.42,1.42,0,0,1,.78,1.2c-.49,5.41-8.18,7.94-12.59,9.38a195.51,195.51,0,0,1-28.72,7.08c-23.31,3.91-47.37,3.07-70.84.94C85,195.57,68,193.73,52.66,186.44c-10-4.77-20.15-11.73-23.44-21.95-3.59,1.91-5.49,4.19-5.39,6.93.51,14.7,57.52,37.22,126.79,35s116-39.79,115.5-54.49C265.81,142.87,247.43,144.69,217,147.92Z"/><path class="cls-15" d="M94.68,163.78c-.11-3.39-10.52-23.79-1.56-45.62C97.93,106.4,133.46,104.85,139,92c13.64-32-15.38-41.39-16.13-58-.7-15.92,59.56-41.37,61.87-31.92,2.13,8.69-20.08,23.64-16,28.09s31.09,34.23,32.55,47.5-19.21,39-15.22,50c6.15,17,17.33,28.91,17.46,32.75a182.33,182.33,0,0,1-54.12,10.27A183.11,183.11,0,0,1,94.68,163.78Z"/><path class="cls-16" d="M201.26,77.64c-1.46-13.27-28.44-43.06-32.55-47.5s18.11-19.4,16-28.09a2.17,2.17,0,0,0-.36-.75c-1.3,2.94-4,5.22-6.62,7.14-4.87,3.6-18.31,12-16.59,19.37a1.49,1.49,0,0,1-1.78,1.81c-7.83-1.37-2.18,3.7,1.2,4.46a11.34,11.34,0,0,1,4.65,1.78c1.63.87,2.76,3.48,3.4,5,3,7.17,7.92,12.28,11.77,18.92,2.39,4.1,4.36,8.83,1.46,13.17-2.25,3.36-8.07,4.39-11.65,5.61-5.61,1.91-3.59,4.27,1.2,5a56.9,56.9,0,0,1,7.48,1.36c3,.91,5,3.49,4.22,6.38-.6,2.2-3.28,4-4.63,5.67-3.35,4.28-3.4,7.53-4.52,12.29a14,14,0,0,1-3.12,6.5c-2.25,2.38-7.21,4.41-1.6,7.54a1.4,1.4,0,0,1,.09,2.46c-3.88,2.42-8.68,2.21-12.64,4.29,4.48,1.95,13.19,5.7,7.67,9.11C158,143,148.11,141.69,141,141.73c-4.67,0-13.46.25-8.94,6.89a42.14,42.14,0,0,0,9.28,9.14C147,162.09,153.36,165.64,159,170a181.46,181.46,0,0,0,44.53-9.67c-.13-3.84-11.31-15.75-17.46-32.75C182.05,116.61,202.71,90.91,201.26,77.64Z"/><path class="cls-17" d="M94.68,163.78c-2.21-.65-6.88-8.63-3.67-9.64-3.69-2.26-3.12-10-1.26-11.61,13.82,7.17,87.94,3.65,101.59-3.18,1.4,0,6.95.6,4.28,6.27,2.63,7.41,10.29,5.5,7.88,14.73a182.33,182.33,0,0,1-54.12,10.27A183.11,183.11,0,0,1,94.68,163.78Z"/><path d="M101.57,165.54c-2.34-2.25-3.92-4.6-3.69-7.86a1.48,1.48,0,0,1,1.44-1.47c3.28-.29,6.59-.26,9.88-.37C104,154.7,97.94,154,96.3,149a6.57,6.57,0,0,1,0-4.53,25.31,25.31,0,0,1-6.54-2c-1.86,1.58-2.43,9.35,1.26,11.61-3.21,1,1.46,9,3.67,9.64,0,0,2.58.8,7,1.86A1.47,1.47,0,0,1,101.57,165.54Z"/><path d="M195.62,145.62c2.67-5.67-2.88-6.32-4.28-6.27-6.44,3.23-26.35,5.71-47,6.68,5.2,7.86,27.93-1.36,35.79,4a1.42,1.42,0,0,1,.1,2.46c-3.05,2.18-6.64,2.82-10.12,3.85,2.49.17,5,.13,7.51.23a1.5,1.5,0,0,1,1.54,1.38c.22,5.77-4.45,9-10,10.84a177.5,177.5,0,0,0,34.4-8.47C205.91,151.12,198.25,153,195.62,145.62Z"/><path class="cls-18" d="M36.39,166.75c2.92,4.91,22.57,18.8,41.11,21.54s67.92,4.05,80.36,3.66S187,185.33,192,184.7s12.45-1.34,12.82-4.69-.39-8.08-.4-9.5,19.43-1.57,19.75-6.81a14,14,0,0,0-3.34-9.88,12.9,12.9,0,0,0-3.57-2.7l-10.46.34s3.65,4.59,1.72,6.55-3.63,10.16-37.89,14.07-71.87-3-78.49-7.09-3.52-7.49-3.52-7.49S33.47,161.84,36.39,166.75Z"/><path class="cls-18" d="M124.78,143c-.79-5.68,18.82-6.59,23.18-6.93s9.76.76,7.33-4.4c-.69-1.49-5-1.53-3-4.19.78-1.07,5.12-.28,6.34-.77,5.65-2.27.36-3.85,2.17-8.63,1.24-3.27,4.73-4.18,5.86-8.07s.51-7.35,2.85-10.89c2-3,6.67-4.86,3.84-8.45-1.5-1.9-9.66-5.23-12.08-6.52-3.36-1.77-7.38-3-11.08-4.3,3.89-.47,10.55-1.28,13.22-3.71.58-.54-.54-2.26.32-3s2.93-1,4-1.3c2-.66,6.35-.64,7.89-2.12,9.21-8.8-19.9-7-22.65-8,2.7-3.62,12.7-2.08,17.19-3.48.79-3.59-4.28-7.72-4.39-12.09-2.68,0-5.9.7-8-.77,7.53-7.68-4.3-6.54-9.22-12.11-6.21-7,.35-8.27,7-8.83,0-6.83,12.43-12.55,11.84-17.83-3.61-.54-9,2.64-12.24,4.11-4.79,2.19-8.51,5.89-13.16,8.41-4.38,2.36-8.72,3.64-12.32,7.15-3.79,3.67-3.37,6.81-2.88,11.9,3.46,1.21,8-.25,11.38.54-2.75,1.57-7.4,2-7.7,5.52,2.91,1,4.82,2.77,7.44,4.17,2.27,1.2,5.83,1.51,7.76,3-1.24,1.65-3.52,1.78-5,3,3.49,4.35,1.29,15.48,9,15.5.85,3.38-3.2,5.28-4,8.24-1,3.69-1.07,7.67-2.2,11.41-1.4,4.71-4.09,5.65-.67,9.52,2.58,2.93,6.78,5.62,11,4.87-11.33,1.15-21.87-3.32-33.06,1.66-4.6,2-8.9,5.78-13.29,8.26-1.74,1-4.9,1.79-4.71,4.64.24,3.67,4.94,1.1,4.46,4.92-3.69.86-7.32,1.62-9.84,5-1.16,1.56-3.8,7.32-3.56,9.25.72,6,15.59,2.42,20.11,4.62Z"/><path class="cls-19" d="M148.94,144.61l-18.28.58c-2.09.07-3.69,2.4-3.61,5.23l.69,19.76c.1,2.82,1.87,5,3.94,5l18.29-.57c2.08-.07,3.69-2.4,3.59-5.23l-.68-19.75C152.78,146.79,151,144.54,148.94,144.61Zm.44,21.76c.08,1.93-1,3.54-2.45,3.59l-12.52.39c-1.43,0-2.64-1.5-2.7-3.42l-.47-13.53c-.07-1.93,1-3.53,2.46-3.58l12.52-.4c1.42,0,2.63,1.49,2.7,3.42Z"/><path class="cls-20" d="M150,172.59a85.45,85.45,0,0,1-9.2.37c-2.2,0-5.56.84-7.66-.1-4.92-2.2-4.92-10.28-4.85-14.63,0-2.82-.28-6.36.71-9.07a17.69,17.69,0,0,1,2.17-4l-.55,0c-2.09.07-3.69,2.4-3.61,5.23l.69,19.76c.1,2.82,1.87,5,3.94,5l18.29-.57a3.83,3.83,0,0,0,3.25-2.9A10.3,10.3,0,0,1,150,172.59Z"/><path class="cls-20" d="M141.08,148.91c-.62.28-1.27.52-1.92.74l7.06-.23c1.42,0,2.63,1.49,2.7,3.42l.46,13.53a4.06,4.06,0,0,1-.68,2.51c2.35-1.28,1.63-4.73,1.68-7.46,0-2.39.39-4.77.35-7.16,0-1.79.6-4.61-1.09-5.56C147.64,147.57,143.78,147.68,141.08,148.91Z"/><path class="cls-21" d="M51.14,233.6c-2.14,1.45-5.33,1.06-7.76,2.49a14.23,14.23,0,0,0-4.79,4.26c-2.87,4.61-.74,9,3.56,11.18,3.7,1.93,7.75,1.7,10.73,4.83s3,6.92,3.74,11c2.19,12,7.41,25.93,17.5,33,21.25,14.85,47.76,21.52,56.49,22.49,25.49,2.86,41.93,1.74,75-9.23,7-2.33,25.56-13.27,29.48-19.43,10.78-16.92,9.46-30,10-36.06.21-2.39-.74-5.2,1.76-6.7,1.88-1.13,6.64,1,8.64.39,6.52-2.05,6.05-11.43,3.91-16.93-.84-2.16-6.62-6.21-9.7-4.88-2.37,1.05-1.83,4.34-2.67,6.65-1.67,4.54-.12,9.24-4,12.71-1.45,1.32-3.27,2.51-5.48,2.27-3.09-.34-2.75-3.17-3-5.82-.35-3.72-1.64-7.78-2.67-11.38-.81-2.76-1.73-6.56-4.32-8.11s-7.28-.68-10.3-.68c-4.52,0-8.95-.25-13.44-.25-10.64,0-21,.22-31.5-1.45-4-.64-7.95-1.26-11.94-2.24-2.32-.57-4.36-3.43-6.81-3.06-4.84.71-10.28,4.2-15.23,4.76a114.09,114.09,0,0,0-15,3c-3.66.92-6.69,3.22-10.25,4.44s-7.59.9-11.25,1.49c-6.51,1-13.15.42-19.74,1.07-6.42.63-6,4.59-8.18,9.79-2.72,6.55-1.71,12.91-7.56,18-2.19,1.91-4.73,3-6.5.45a21.23,21.23,0,0,1-2.76-8.5c-.41-4.15.56-8.1.51-12.2,0-1.73,0-3.36-1.18-4.81-.7-.85-2.27-1.51-2.07-2.23Z"/><path class="cls-21" d="M82.1,296c19.27,13,43.33,18.83,51.24,19.68,23.15,2.5,38.06,1.52,68-8.09,6.31-2,23.21-11.62,26.77-17,9.77-14.81-.23-40-.46-42.34a55.74,55.74,0,0,0-2.43-9.95c-.72-2.42-1.56-5.75-3.91-7.09s-6.61-.6-9.34-.6c-4.11,0-8.14-.23-12.21-.23-9.65,0-19.08.2-28.58-1.26-3.69-.56-7.22-1.09-10.83-2-2.11-.51-4-3-6.19-2.68-4.37.62-9.33,3.68-13.81,4.16a110.34,110.34,0,0,0-13.61,2.62c-3.32.81-6.06,2.82-9.3,3.9s-6.89.77-10.21,1.29c-5.9.91-11.93.37-17.9.94-5.82.55-5.47,4-7.43,8.56-2.47,5.75-1.54,11.3-6.86,15.77C73.08,263.35,72.94,289.79,82.1,296Z"/><path class="cls-22" d="M194.8,283c9.25,14.24-16.83,33.83-43.35,33.83-26.93,0-49.12-19.11-43.35-33.83,8.36-21.3,23.61-6.43,43.35-6.43C171.64,276.54,181.55,262.59,194.8,283Z"/><path class="cls-23" d="M176.19,277.45c-1.8-1.47-3.65-2.89-5.57-4.27-5.41,1.38-11.56,3.36-19.17,3.36a57.11,57.11,0,0,1-13.56-1.9c-12.79,7.4-19.2,13.16-22.49,28.92,8.1,7.55,21.37,13.24,36,13.24,15.48,0,30.79-6.67,39-15.06C191.57,292,183.35,283.31,176.19,277.45Z"/><path class="cls-24" d="M184.49,306.72a60.54,60.54,0,0,1-33,10.08,56.19,56.19,0,0,1-30.51-8.89c-10.43-6.88,10.11-13.76,29.85-13.76C171,294.15,194.52,299.84,184.49,306.72Z"/><path class="cls-7" d="M187,281.85s-3.24.57-8.31,1.2c-.71.09-2.46-3.35-2.46-3.35s-1.43,3.83-2.3,3.91a208.33,208.33,0,0,1-21.41,1.26c-10.1,0-21.26-1.69-28.73-3.06-.41-.08-1-3.62-1-3.62s-1.66,3.11-2.3,3c-3.34-.66-5.37-1.15-5.37-1.15s-2.47-5.43.44-7c8.75-4.81,21,3.55,35.83,3.55,15.14,0,24.5-7.85,33.83-3.18C188.39,274.92,187,281.85,187,281.85Z"/><path class="cls-25" d="M157.68,260.65s1.74,4.92-5.74,4.92-5.74-6.93-5.74-6.93"/><path class="cls-26" d="M212.58,257.47c0,4.22-7.3,7.62-16.3,7.62s-16.3-3.4-16.3-7.62,7.3-7.62,16.3-7.62S212.58,253.26,212.58,257.47Z"/><path class="cls-26" d="M122.07,261.28c0,4.2-7.3,7.62-16.3,7.62s-16.29-3.42-16.29-7.62,7.29-7.63,16.29-7.63S122.07,257.07,122.07,261.28Z"/><path class="cls-8" d="M193.05,239.32a6.54,6.54,0,1,1-6.53-6.53A6.54,6.54,0,0,1,193.05,239.32Z"/><path class="cls-8" d="M120.4,239.32a6.54,6.54,0,1,1-6.54-6.53A6.54,6.54,0,0,1,120.4,239.32Z"/><path class="cls-7" d="M119.36,237.35a2.5,2.5,0,1,1-2.5-2.5A2.5,2.5,0,0,1,119.36,237.35Z"/><path class="cls-7" d="M191.51,236.82a2.5,2.5,0,1,1-2.5-2.5A2.5,2.5,0,0,1,191.51,236.82Z"/></g></g></svg>