<svg xmlns="http://www.w3.org/2000/svg" viewBox="0 0 230.73 498.91"><defs><style>.cls-1{isolation:isolate;}.cls-2{fill:#fff;}.cls-3{fill:#f8b894;}.cls-4{fill:#e73a3a;}.cls-5{fill:#ed674d;}.cls-6{fill:#bc322e;}.cls-7{fill:#683c11;}.cls-8{fill:#512e07;}.cls-9{fill:#e5251d;}.cls-10{fill:#df8f72;}.cls-11{fill:#d0ebfc;}.cls-12{fill:#259cc6;}.cls-13{fill:#6c8a99;mix-blend-mode:multiply;}.cls-14{fill:#df8f6f;}.cls-15{fill:#f1896e;}.cls-16{fill:#491d0e;}.cls-17{fill:#d84b58;}.cls-18{fill:#412401;}.cls-19{fill:#ffde00;}.cls-20{fill:#ca2317;}.cls-21{fill:#af2112;}.cls-22{fill:none;stroke:#fff;stroke-miterlimit:10;stroke-width:1.5px;}.cls-23{fill:#fdc400;}</style></defs><title>player</title><g class="cls-1"><g id="Capa_1" data-name="Capa 1"><rect class="cls-2" x="52.39" y="494.43" width="59.55" height="4.48"/><polygon class="cls-3" points="85.07 476.34 109.56 476.34 109.56 391.59 78.79 391.59 85.07 476.34"/><polygon class="cls-2" points="83.72 458.04 85.07 476.34 109.56 476.34 109.56 458.04 83.72 458.04"/><path d="M62.39,402.63s23.9,20.42,47.75,9c2.42-10.89,4.43-34.6,4.43-34.6L69.23,333.68Z"/><path class="cls-4" d="M52.39,494.43c-4.45-9.43,16.4-25.17,32.68-25.17,8.15,0,24.49,4.83,24.49,4.83s5.27,12.41,2.38,20.34Z"/><path class="cls-5" d="M73.33,483.74c8.16-6.89,9.44-13.06,7.87-12.81-10.46,1.69-21.61,8.65-26.33,15.62C56.15,490.26,69.4,487.06,73.33,483.74Z"/><path class="cls-6" d="M109.56,474.09s-7.17-2.12-14.37-3.55c.2,6.91-7.34,14.36-12.9,17.14-7.14,3.58-22.2,6.7-30.17,1.67a7.18,7.18,0,0,0,.27,5.08h59.55C114.83,486.5,109.56,474.09,109.56,474.09Z"/><rect class="cls-2" x="117.21" y="494.43" width="59.55" height="4.48"/><polygon class="cls-3" points="144.07 476.34 119.59 476.34 119.59 391.59 150.36 391.59 144.07 476.34"/><polygon class="cls-2" points="145.44 458.04 144.07 476.34 119.59 476.34 119.59 458.04 145.44 458.04"/><path d="M167.18,402.63s-24.09,20.42-48.14,9c-2.44-10.89-4.47-34.6-4.47-34.6L159,334.92Z"/><path class="cls-4" d="M176.76,494.43c4.45-9.43-16.4-25.17-32.69-25.17-8.14,0-24.48,4.83-24.48,4.83s-5.27,12.41-2.38,20.34Z"/><path class="cls-5" d="M155.82,483.74c-8.16-6.89-9.44-13.06-7.87-12.81,10.46,1.69,21.61,8.65,26.33,15.62C173,490.26,159.75,487.06,155.82,483.74Z"/><path class="cls-6" d="M119.59,474.09s7.16-2.12,14.37-3.55c-.2,6.91,7.34,14.36,12.9,17.14,7.14,3.58,22.2,6.7,30.16,1.67a7.12,7.12,0,0,1-.26,5.08H117.21C114.32,486.5,119.59,474.09,119.59,474.09Z"/><path class="cls-7" d="M45.29,196.51,30,193.77s-14.44-22.43-19.07-50.46S95.55,118.62,88,150,45.29,196.51,45.29,196.51Z"/><path class="cls-7" d="M45.29,196.51,30,193.77s-13.7,40.1-10.61,47.57,27-2.72,33-9S45.29,196.51,45.29,196.51Z"/><path class="cls-8" d="M45.29,196.51H31S21.18,234.57,24.26,242s15-1.65,21-8S45.29,196.51,45.29,196.51Z"/><path class="cls-7" d="M42.78,196.21l-7.68,1.11s-13.46,42.57-10.38,50.05,11.83-.71,17.81-7S42.78,196.21,42.78,196.21Z"/><path class="cls-9" d="M26.52,196.47a3.3,3.3,0,0,0,2.77,3.75l17,1.26a3.31,3.31,0,0,0,3.31-3.31h0a3.33,3.33,0,0,0-2.78-3.76l-17-1.26a3.33,3.33,0,0,0-3.3,3.32Z"/><path class="cls-7" d="M185.86,196.51l15.3-2.74s14.45-22.43,19.08-50.46S135.6,118.62,143.16,150,185.86,196.51,185.86,196.51Z"/><path class="cls-7" d="M185.86,196.51l15.3-2.74s13.71,40.1,10.63,47.57-27-2.72-33-9S185.86,196.51,185.86,196.51Z"/><path class="cls-8" d="M185.86,196.51h14.3S210,234.57,206.89,242s-15-1.65-21-8S185.86,196.51,185.86,196.51Z"/><path class="cls-7" d="M188.37,196.21l7.69,1.11s13.45,42.57,10.37,50.05-11.83-.71-17.81-7S188.37,196.21,188.37,196.21Z"/><path d="M159,334.92c0,20.91,5.87,63.69-43,63.69-45.84,0-46.73-44-46.73-64.93s31.19-5.28,48.41-5.28S159,314,159,334.92Z"/><path class="cls-3" d="M177.69,353.53c0,7.15,6.36,8.3,6.68,13.17.65,10.14-8.35,12.11-1.21,16.81s18-12.89,19.33-22.46c1.62-11.65-2.69-20.3-11.25-20.3S177.69,343.87,177.69,353.53Z"/><path class="cls-3" d="M155.2,218.67c5.15.59,16.32,5.06,20.6,19.92,12.13,42.07,14.45,79.73,20.6,104.64L181.07,346l-21.68-92Z"/><path class="cls-3" d="M54.35,353.53c0,7.15-6.35,8.3-6.67,13.17-.66,10.14,8.35,12.11,1.2,16.81s-18-12.89-19.33-22.46c-1.62-11.65,2.69-20.3,11.25-20.3S54.35,343.87,54.35,353.53Z"/><path class="cls-3" d="M76.84,218.67c-5.15.59-16.31,5.06-20.6,19.92-12.13,42.07-14.46,79.73-20.59,104.64L51,346l21.7-92Z"/><path class="cls-9" d="M56.24,334.92l16.42-73.76,4.18-42.49c-5.15.59-16.31,5.06-20.6,19.92-9.78,33.91-17.32,62.75-21.48,86.55C38,334.92,47.91,336.8,56.24,334.92Z"/><path class="cls-9" d="M176.8,334.92l-16.41-73.76-5.19-42.49c4.78-.84,17.32,5.06,21.6,19.92,9.77,33.91,17.31,62.75,21.49,86.55C195,334.92,185.13,336.8,176.8,334.92Z"/><path class="cls-2" d="M172,320.82c-.75,2.25,2.69,14.1,2.69,14.1,10.19,1.88,22.28,0,26.29-9.78-1.55-7.29-4-14.68-5.65-15-.9-.19-3,3.18-12.13,7.11C175.8,320.44,172.37,319.8,172,320.82Z"/><path class="cls-2" d="M59.69,320.82c.75,2.25-2.69,14.1-2.69,14.1-10.2,1.88-22.29,0-26.3-9.78,1.56-7.29,4-14.68,5.66-15,.9-.19,3,3.18,12.12,7.11C55.92,320.44,59.35,319.8,59.69,320.82Z"/><path class="cls-2" d="M159.49,261.15l-4.61,15,8.64,58.78s-15.8,8.28-45,8.31c-27.72,0-53.86-9.55-53.86-9.55l13.85-57.54-4.9-20.08,4.5-37.39s9-9.62,37.68-9.62c19.77,0,38.07,9.62,38.07,9.62Z"/><path class="cls-3" d="M135.26,210.86c-3.45,12.74-38,13.67-38.86-.07,3.68-6.77,0-29.82,0-29.82h38.86S128.13,205.54,135.26,210.86Z"/><path class="cls-10" d="M135.26,201.54V182.48H96.4v19.06s5.43,9,18.31,9A28.68,28.68,0,0,0,135.26,201.54Z"/><path class="cls-3" d="M211.07,124.52c0,44.47-52.34,80.52-96.44,80.52s-96.44-36-96.44-80.52S61.37,44,114.63,44,211.07,80.05,211.07,124.52Z"/><path class="cls-2" d="M87.4,124.79a13.93,13.93,0,1,1-13.93-13.92A13.93,13.93,0,0,1,87.4,124.79Z"/><path class="cls-11" d="M62.24,124.79a13.93,13.93,0,0,1,12.57-13.86c-.43,0-.88-.06-1.34-.06a13.93,13.93,0,1,0,0,27.85,11.66,11.66,0,0,0,1.34-.07A13.92,13.92,0,0,1,62.24,124.79Z"/><path class="cls-12" d="M72.18,126.9a6.29,6.29,0,1,0,6.28-6.29A6.28,6.28,0,0,0,72.18,126.9Z"/><path class="cls-13" d="M76.25,126.9a2.22,2.22,0,1,0,2.21-2.21A2.21,2.21,0,0,0,76.25,126.9Z"/><path class="cls-2" d="M77.25,124.79A1.72,1.72,0,1,0,79,123.08,1.72,1.72,0,0,0,77.25,124.79Z"/><path class="cls-2" d="M79.39,122.16a.92.92,0,1,0,.91-.91A.92.92,0,0,0,79.39,122.16Z"/><path class="cls-2" d="M140,124.79a13.93,13.93,0,1,0,13.93-13.92A13.92,13.92,0,0,0,140,124.79Z"/><path class="cls-11" d="M165.14,124.79a13.93,13.93,0,0,0-12.58-13.86c.45,0,.89-.06,1.36-.06a13.93,13.93,0,0,1,0,27.85,12.14,12.14,0,0,1-1.36-.07A13.92,13.92,0,0,0,165.14,124.79Z"/><path class="cls-12" d="M155.2,126.9a6.28,6.28,0,1,1-6.28-6.29A6.28,6.28,0,0,1,155.2,126.9Z"/><path class="cls-13" d="M151.13,126.9a2.21,2.21,0,1,1-2.21-2.21A2.21,2.21,0,0,1,151.13,126.9Z"/><path class="cls-2" d="M150.13,124.79a1.71,1.71,0,1,1-1.71-1.71A1.71,1.71,0,0,1,150.13,124.79Z"/><path class="cls-2" d="M148,122.16a.91.91,0,1,1-.91-.91A.91.91,0,0,1,148,122.16Z"/><path class="cls-3" d="M230.73,126.86c0,11.64-11.18,18.4-24.37,18.4s-10.18-35.82,1.07-42.69C215.86,97.42,230.73,105.8,230.73,126.86Z"/><path class="cls-14" d="M219.65,124.85a105.14,105.14,0,0,1-.38,12.31c3.55-3.67,5.85-8.63,5.85-12.31,0-11.4-8.9-16.3-14.65-14.33C215.14,111.92,219.65,116.74,219.65,124.85Z"/><path class="cls-3" d="M0,126.86c0,11.64,11.16,18.4,24.34,18.4s10.2-35.82-1.05-42.69C14.86,97.42,0,105.8,0,126.86Z"/><path class="cls-14" d="M11.07,124.85a103.29,103.29,0,0,0,.39,12.31c-3.56-3.67-5.85-8.63-5.85-12.31,0-11.4,8.89-16.3,14.65-14.33C15.58,111.92,11.07,116.74,11.07,124.85Z"/><path class="cls-14" d="M115.8,136.22c3,0,5.66,1.91,7.35,4.85-.47-6.83-3.58-12.1-7.35-12.1s-6.88,5.27-7.36,12.1C110.12,138.13,112.79,136.22,115.8,136.22Z"/><path class="cls-15" d="M178.3,147.45c0,3.89-8.58,7-19.16,7s-19.15-3.15-19.15-7,8.57-7,19.15-7S178.3,143.57,178.3,147.45Z"/><path class="cls-15" d="M135.42,161.51s-9,19.46-19.6,19.46-18.71-19.46-18.71-19.46a38.88,38.88,0,0,1,19.16-5.62A38.87,38.87,0,0,1,135.42,161.51Z"/><path class="cls-15" d="M91.33,147.45c0,3.89-8.57,7-19.15,7S53,151.34,53,147.45s8.58-7,19.15-7S91.33,143.57,91.33,147.45Z"/><path class="cls-16" d="M136.52,159.44c0,9.51-9.28,17.21-20.72,17.21S95.08,169,95.08,159.44Z"/><path class="cls-17" d="M102.49,172.64a23.33,23.33,0,0,0,13.31,4,23.08,23.08,0,0,0,14.27-4.73c.53-.41-9.51-5.92-13.8-2.28C111.89,166,101.76,172.12,102.49,172.64Z"/><path class="cls-2" d="M133.06,165.48c.93-.82,1.19-3.9,1.19-6H97.35c0,2.14-.09,5.42,1.19,6S132.14,166.29,133.06,165.48Z"/><path class="cls-14" d="M115.8,185.53a19.94,19.94,0,0,1-8.85-1.86c1.43,2.25,4.85,3.85,8.85,3.85s7.41-1.6,8.85-3.85A20,20,0,0,1,115.8,185.53Z"/><path class="cls-18" d="M84.75,100.88c-1.26-1.64-9.08-1.25-12.57-.57C61.26,102.4,58.09,109,58.09,109s6.33-4.44,13.26-5.08c7.66-.71,11.45,2.14,12.42,1.37S86,102.52,84.75,100.88Z"/><path class="cls-18" d="M143.23,100.88c1.25-1.64,9.08-1.25,12.56-.57,10.93,2.09,14.09,8.64,14.09,8.64s-6.32-4.44-13.25-5.08c-7.67-.71-11.46,2.14-12.42,1.37S142,102.52,143.23,100.88Z"/><path class="cls-7" d="M204.51,121.25s-16.17,6.59-36.67-9S134.27,66.7,93,66.7C96.11,94.42,26.15,117,26.15,117S20.26,97.14,9.75,103.9C8.13,48.21,46,25.33,79.39,28.92c55-41.2,138.41,7.88,139.88,73.91C207.55,98.07,204.51,121.25,204.51,121.25Z"/><path class="cls-9" d="M204.64,196.47a3.31,3.31,0,0,1-2.78,3.75l-17,1.26a3.32,3.32,0,0,1-3.3-3.31h0a3.33,3.33,0,0,1,2.78-3.76l17-1.26a3.35,3.35,0,0,1,3.3,3.32Z"/><path class="cls-9" d="M161.06,261.15l-4.77,15,8.93,58.78s-16.34,8.28-46.57,8.31c-28.68,0-55.72-9.55-55.72-9.55l14.32-57.54-5.07-20.08,4.66-37.39s14.74-9.19,19.54-8C91,239,115.82,282.34,115.82,282.34S135,239.39,136.89,212c2.65-3.82,18.31,6.68,18.31,6.68Z"/><path class="cls-19" d="M119.59,296.56a3.39,3.39,0,1,1-3.39-3.39A3.39,3.39,0,0,1,119.59,296.56Z"/><path class="cls-19" d="M119.59,315.73a3.39,3.39,0,1,1-3.39-3.38A3.4,3.4,0,0,1,119.59,315.73Z"/><path class="cls-19" d="M119.59,334.92a3.39,3.39,0,1,1-3.39-3.39A3.39,3.39,0,0,1,119.59,334.92Z"/><path class="cls-9" d="M217.8,89.31c-2.87,5.33-203.21,12-208.11,10.41S7.57,88.3,9.69,84,207.54,64.39,212.24,65.47,220.66,84,217.8,89.31Z"/><path class="cls-20" d="M196.4,32C188.49,27.74,155.62,1.29,107,0,55.61-1.31,13.71,43.49,9.69,49s-2.12,39.3,0,35S207.54,64.39,212.24,65.47,204.31,36.18,196.4,32Z"/><path class="cls-21" d="M169.88,58.52s17.65,7-62.93,12c-20.94,1.31-88.76,1.5-88.76,1.5l11-5.74-11-1.53,23.59-8.65S20.86,60,7.9,55.59a103.31,103.31,0,0,0-.5,14.59C7.63,78.76,8.64,86.13,9.69,84c2.13-4.32,197.85-19.57,202.55-18.49,1.36.32,1.27-2,.27-5.53-.19-.66-29.28,2.92-29.28,2.92s27.42-8.4,26.65-10.25a94.33,94.33,0,0,0-6.39-12.51C191.36,54.52,169.88,58.52,169.88,58.52Z"/><path class="cls-22" d="M120.69,29.7l5.13-6.57c2.21-2.26,5.71,2,7.08,0a4.32,4.32,0,0,0-1.08-6c-1.19-.84-2.26.7-3.94-.51s-.65-2.69-1.84-3.53a4.36,4.36,0,0,0-6,1.08c-1.35,2,2.75,3.25,1.1,6-1.44,2.41-1.82,3-4.11,6.75"/><path class="cls-22" d="M96.05,28.94c-2.79-3.1-3.59-4-5.34-6-2.13-2.42,1.66-4.43,0-6.11a4.34,4.34,0,0,0-6.12,0c-1,1.05.27,2.31-1.17,3.81s-2.76.17-3.79,1.21a4.32,4.32,0,0,0,0,6.11c1.7,1.67,4.39-3.11,7-1.29l6,5.35A9.14,9.14,0,0,1,96.05,28.94Z"/><path class="cls-22" d="M99.15,47.52,94.1,54c-2.21,2.25-5.72-2-7.08,0a4.33,4.33,0,0,0,1.08,6c1.19.83,2.26-.71,3.94.51s.65,2.69,1.85,3.52a4.31,4.31,0,0,0,6-1.08c1.37-1.95-2.73-3.25-1.07-6,1.38-2.31,1.19-2.47,3.4-6.06"/><path class="cls-22" d="M113.6,48.69c2.56,2.84,3.65,4.58,5.25,6.41,2.14,2.42-1.66,4.43,0,6.11a4.33,4.33,0,0,0,6.12,0c1-1-.27-2.31,1.18-3.81s2.75-.17,3.77-1.21a4.31,4.31,0,0,0,0-6.12c-1.69-1.67-4.37,3.13-6.95,1.3L117,46.07"/><path class="cls-22" d="M123.72,35.51c-.57-6.33-8.48-10.79-17.65-9.95s-16.13,6.64-15.55,13C91,43.33,95.6,47,101.81,48.2c.14,1.43.54,4.44,1.48,4.35l1.47-.13,0-3.31.57,3.27,2.5-.24,0-3.31.56,3.27,2.5-.23,0-3.32.57,3.27,1.42-.14c1.06-.09.9-2.82.73-4.31C119.88,45.23,124.18,40.53,123.72,35.51Zm-27,4.18c-2.84.26-2.55-1.73-2-3A5.43,5.43,0,0,1,99.79,33c2.85-.26,3.56,1.14,3.73,2.91S99.56,39.44,96.73,39.69Zm12.48,2a.67.67,0,0,1-.84-.34c-.71-1.37-1.43-1.31-1.92.22a.7.7,0,0,1-.56.46.69.69,0,0,1-.24,0,.64.64,0,0,1-.43-.8c1.22-4,2.77-4.05,4.33-.35A.64.64,0,0,1,109.21,41.66Zm8.58-3.89c-2.84.26-7.21-.75-7.37-2.53s.3-3.28,3.13-3.54a5.39,5.39,0,0,1,5.69,2.73C120,35.6,120.62,37.51,117.79,37.77Z"/><path d="M94.24,97.91l5.72-.22s-6.2,14.72-5.72,16.32c1.68,5.66,3,16.62-1,24.46-6.15,12.05-26.65,13.91-37,8.64-1-.52-33.08,1.15-33.08,1.15l-1.21-3s28.83-3.13,28.4-4.4c-1.88-5.6,1.23-13.13,5.47-21.45,4.85-9.5,20.61-12.36,30-11.08C88.37,108.68,94.24,97.91,94.24,97.91Z"/><path class="cls-14" d="M207.35,140c0,2,1.31,3.6,2.93,3.6s2.94-1.61,2.94-3.6-1.31-3.6-2.94-3.6S207.35,138,207.35,140Z"/><path class="cls-23" d="M218.37,143.15a5.89,5.89,0,0,1,1.85,4.3,6,6,0,1,1-7.82-5.71c.23-.89-1-5.31-4.18-4.28a11.65,11.65,0,1,0,15.27,2.95A31.75,31.75,0,0,1,218.37,143.15Z"/></g></g></svg>