<svg xmlns="http://www.w3.org/2000/svg" viewBox="0 0 300.93 478.23"><defs><style>.cls-1{isolation:isolate;}.cls-2{fill:#d0bf97;}.cls-3{fill:#f3ddad;}.cls-4{fill:#e4b58b;}.cls-5{fill:#e8d4a6;}.cls-6{fill:#d6c49a;}.cls-11,.cls-7{fill:#ece0d4;}.cls-10,.cls-14,.cls-16,.cls-7{mix-blend-mode:multiply;}.cls-8{fill:#bdae8a;}.cls-9{fill:#dac692;}.cls-12{fill:#e5cba2;}.cls-13{fill:#e5d4ab;}.cls-14{fill:#d7c4ba;}.cls-15,.cls-17{fill:#fff;}.cls-15{opacity:0.3;mix-blend-mode:soft-light;}.cls-16{fill:none;stroke:#c8926a;stroke-linecap:round;stroke-linejoin:round;stroke-width:2.81px;}.cls-18{fill:#ed8366;opacity:0.5;}.cls-19{fill:#30130c;}.cls-20{fill:#e1cda2;}</style></defs><title>player</title><g class="cls-1"><g id="Capa_1" data-name="Capa 1"><path class="cls-2" d="M54.09,298.19s-5.47-39.87,0-90.07c-6.62-.32-21.47,12.37-21.47,12.37S26.47,276.83,34,291.42C43.46,300.5,54.09,298.19,54.09,298.19Z"/><path class="cls-3" d="M261.58,226.9s.65-35.56-10.82-79.13c6.53-.94,22.81,8.72,22.81,8.72s12.87,48.89,7.11,62.44A25,25,0,0,1,261.58,226.9Z"/><path class="cls-3" d="M215.9,364.88s.65-35.58-10.82-79.14c6.53-.95,22.81,8.71,22.81,8.71s12.86,48.89,7.11,62.45A25.06,25.06,0,0,1,215.9,364.88Z"/><path class="cls-4" d="M299.53,115.92c3.34-7,.59-13.6-7-17.21s-14.69-1-17.76,5.4c-3.84,8-4.67,20.9,3.38,24.74C285.86,132.52,295.7,123.94,299.53,115.92Z"/><path class="cls-5" d="M289,128.23c-2.85-13-17.73-11.41-17.73-11.41s-27.66,39-48.36,43.08c-10.8,2.11-39.54,48.47-30.13,54.64C235.56,214.87,270.18,173.23,289,128.23Z"/><path class="cls-3" d="M241.72,149.43c-6.29,5.22-12.84,9.3-18.81,10.47-10.8,2.11-39.54,48.47-30.13,54.64,31.94.25,59.34-22.92,79-53.4A45,45,0,0,0,241.72,149.43Z"/><path class="cls-6" d="M239.8,163.63c-.89-3.44-1.85-7-2.94-10.45-4.74,3.36-9.51,5.85-14,6.72-10.8,2.11-39.54,48.47-30.13,54.64,19.15.16,36.66-8.13,51.85-21.34C244.88,183.23,242.17,172.84,239.8,163.63Z"/><path class="cls-7" d="M267.31,158.06c-4.77,5.6-9.62,11.14-14.82,16.38-20.21,20.35-31.24,15.72-31.24,15.72a28.74,28.74,0,0,0,.65,18c24.57-11.19,45.07-35.73,59.49-63.59C275.82,147.75,271.33,153.34,267.31,158.06Z"/><path class="cls-7" d="M204.59,181.06a1.38,1.38,0,0,1,.41,0c8.09,1.18,14.34-9.3,21.6-11.94,10.1-3.69,17.76-11.55,23.51-20.61,4.82-7.58,9.49-10.41,11-18.76-9.94,11.77-25.41,27.66-38.22,30.17-4.66.92-12.65,10.07-19.49,20.67C203.82,180.71,204.21,180.89,204.59,181.06Z"/><path class="cls-5" d="M126.72,457.3,136,307.19H81.66l27.23,143.43c-.53,0-6-.76-3.69,5,.38.93-3.09,1.25-3,2.25a6.58,6.58,0,0,0,1.21,3.32,34.13,34.13,0,0,1-13.25,2.26c-9.32,0-22.19,14.79-12,14.79H123.7c7,0,4.15-15.77,3-20.93Z"/><path class="cls-8" d="M105.2,455.61c.33.8-2.14,1.15-2.82,1.85,5.83-1.49,11.06-3.92,15.56-9.22a66.6,66.6,0,0,0,10.43-17.63L136,307.19H81.66l27.23,143.43C108.36,450.66,102.89,449.86,105.2,455.61Z"/><path class="cls-9" d="M118.75,411.34a129.27,129.27,0,0,0,12.54-28L136,307.19H81.66l23.24,122.4A148,148,0,0,0,118.75,411.34Z"/><path class="cls-3" d="M133.31,350.87,136,307.19H81.66l15.1,79.55A203.35,203.35,0,0,0,133.31,350.87Z"/><g class="cls-10"><path class="cls-11" d="M133.7,344.58a32.68,32.68,0,0,0-6.81,7.2c-3.31,5.3-3.41,10.78-3.19,16.87.24,6.7,5.75,16.25-.26,21.63-1.28,1.13-3.35,1.69-4.42,3-2.16,2.71,2.43,5.34,3.89,6.67,2.24,2.07,1.62,6.28,1.38,8.87-.56,6-2.26,11.62-2,17.68.29,6.82-.85,14.12-.15,20.84.42,4.05,1.77,7.09-1.09,10.38,0,.06-4.5,1.87-3.09,2.95a9.49,9.49,0,0,1,2.61,2.56c3.46,5.92-6.86,12.32-11,13.82-1.21.44-2.42.82-3.63,1.16H123.7c7,0,4.15-15.77,3-20.93Z"/></g><path class="cls-5" d="M211.34,463.44a38.9,38.9,0,0,1-10.64-1.33c1.3-4-1.48-2.33-4.41-5.25-1.18-1.19,2.07-5.5-2.93-6.5l27-143.17H165.5l9.29,150.11h0c-1.13,5.16-4,20.93,3,20.93h45.56C233.52,478.23,220.67,463.44,211.34,463.44Z"/><path class="cls-8" d="M191.7,440.71l3.09,2.05,25.56-135.57H165.5L172.91,427C179,432.5,186.29,437.13,191.7,440.71Z"/><path class="cls-3" d="M191.86,398.32A61.27,61.27,0,0,0,202,404.76l18.4-97.57H165.5l3.55,57.38C174.54,377,181.58,390.16,191.86,398.32Z"/><path class="cls-6" d="M209.8,363.12l10.55-55.93H165.5l2.61,42.24C179.42,358,195,362.61,209.8,363.12Z"/><g class="cls-10"><path class="cls-11" d="M184.38,456.29c-1.93-.65-4.09-1.87-2.84-4a14.94,14.94,0,0,1,3.35-3.48c2.33-2.09-.26-5.21-1.23-7.55-.72-1.76,1.1-5.23,1-6.9-.37-4.12-1.09-8.18-1.54-12.29-.91-8.11,1.72-17.16-1.41-24.79a1.47,1.47,0,0,1,1.05-1.84c1.05-.16,6.88-.36,4.34-2.57a46.83,46.83,0,0,1-3.93-3.49c-2.78-3.05-3.72-6.48-4.27-10.52-.72-5.28-6.6-43.36-11.82-46.72l7.75,125.15c-1.13,5.16-4,20.93,3,20.93h22.05C187.5,474.91,177.82,468.81,184.38,456.29Z"/></g><path class="cls-3" d="M206.44,160.49c-29.45,38.38-21.09,24.31-58,24.32s-31.87,10-61.7-27.39C3.49,127.16,48.74,0,148.3,0,248.57,0,289,116.76,206.44,160.49Z"/><path class="cls-4" d="M1.41,243.25c-3.35,7-.62,13.59,6.94,17.23s14.69,1.09,17.79-5.36c3.84-8,4.71-20.88-3.33-24.75C15.14,226.68,5.27,235.24,1.41,243.25Z"/><path class="cls-5" d="M12,231C14.8,244,29.68,242.42,29.68,242.42s27.76-38.95,48.48-42.95c10.8-2.09,39.67-48.37,30.28-54.56C65.66,144.46,30.93,186,12,231Z"/><path class="cls-3" d="M57.71,165.09C38.38,181.34,22.68,205.6,12,231,14.8,244,29.68,242.42,29.68,242.42s18.59-26.07,36.7-37.74A112.1,112.1,0,0,0,57.71,165.09Z"/><path class="cls-8" d="M54.81,204.28c-2.81-2.54-13-11.93-20.21-13.92A206.45,206.45,0,0,0,12,231C14.8,244,29.68,242.42,29.68,242.42S44.21,222,60.08,209.26C58.06,207.21,56.15,205.47,54.81,204.28Z"/><path class="cls-6" d="M26.28,202.9A215.76,215.76,0,0,0,12,231C14.8,244,29.68,242.42,29.68,242.42s3.45-4.83,8.8-11.26C35.51,221.4,30.09,212.32,26.28,202.9Z"/><path class="cls-7" d="M82.58,169.14c-5.46,1.31-33.22,32-50,54.72-.42.57-15,0-15,0s12.2,3.83,11.47,4.88a100.53,100.53,0,0,0-7.8,12.56,21.71,21.71,0,0,0,8.49,1.08s27.76-38.95,48.48-42.95c3.63-.7,9.32-6.42,14.9-13.92C89.79,187.53,86.75,168.13,82.58,169.14Z"/><path class="cls-9" d="M146.26,344.39c-135.74,0-89.36-148.55-53.11-190,18.84-21.51,40.69-24.51,63.58-24.51,16.52,0,31.77,1.14,45.3,20.6C240.94,206.48,278.07,344.39,146.26,344.39Z"/><path class="cls-3" d="M99.28,292.33c23,12.31,47.55,22.63,73.14,28.35,12.94,2.88,25.63,4.45,38.9,3.27,1-.08,1.89-.17,2.83-.27,46-40.63,17.48-130.59-12.12-173.16-13.53-19.46-28.78-20.6-45.3-20.6-22.89,0-44.74,3-63.58,24.51C75.32,174.79,55.06,221.09,55.2,262.86A254.36,254.36,0,0,0,99.28,292.33Z"/><path class="cls-6" d="M80.78,325.28c22,0,43.92-13.19,59.7-27.4,16.4-14.76,29.47-32.71,40-52,13.37-24.58,23.18-50.67,32.68-76.91A179.47,179.47,0,0,0,202,150.52c-13.53-19.46-28.78-20.6-45.3-20.6-22.89,0-44.74,3-63.58,24.51C64.93,186.67,30.59,283.82,80.78,325.28Z"/><path class="cls-12" d="M121.71,277.1c20.4-15.52,37.55-35.41,51.94-56.5a456,456,0,0,0,34.41-60.72c-2-3.31-4-6.46-6-9.36-13.53-19.46-28.78-20.6-45.3-20.6-22.89,0-44.74,3-63.58,24.51C68.7,182.36,39.65,259,65,306,84.8,298.12,104.77,290,121.71,277.1Z"/><path class="cls-8" d="M90.51,162.36c7.65,23.34,21.83,43.06,36.66,62.31a388.77,388.77,0,0,0,27.23,31.79c7.9,8.24,15.34,17.6,24.19,24.86,11.87,9.73,25.17,11.37,40.1,11.13,4.54-.07,9.81.51,15.05.69C248.37,248,225.53,184.32,202,150.52c-13.53-19.46-28.78-20.6-45.3-20.6-22.89,0-44.74,3-63.58,24.51-1.21,1.39-2.44,2.91-3.68,4.54C89.81,160.1,90.14,161.23,90.51,162.36Z"/><path class="cls-3" d="M81.06,272.81c9.48-4.58,19.23-8.87,27.81-15.06,20.33-14.69,29.15-37.19,38.77-59.44,9.39-21.75,13.88-44.94,17.79-68.18-2.86-.16-5.75-.21-8.7-.21-22.89,0-44.74,3-63.58,24.51-20.84,23.81-45,83-36,129.06C65.35,280.64,73.16,276.63,81.06,272.81Z"/><path class="cls-6" d="M125.5,200.31c6.94,11.07,15,20.62,25.87,28,8.63,5.9,17.68,11.22,26.6,16.68,18.58,11.38,38.81,20.49,60,25.71,3.19-42-16.15-91.71-36-120.2-13.53-19.46-28.78-20.6-45.3-20.6-19.82,0-38.85,2.27-55.82,16.83C108.39,164.92,115,183.65,125.5,200.31Z"/><path class="cls-3" d="M121.56,205.91c15.61,12.35,34.4,20.28,53.71,24.82a194.06,194.06,0,0,0,60.74,4.4c-5.45-32-19.58-63.91-34-84.61-13.53-19.46-28.78-20.6-45.3-20.6-22.89,0-44.74,3-63.58,24.51a98.39,98.39,0,0,0-8.31,11.14C96.26,179.66,107.25,194.58,121.56,205.91Z"/><path class="cls-6" d="M83.09,231.45c8.41-2.67,17-5.18,25-9.07,15.77-7.7,30.65-19.22,43.39-31.21,11.93-11.26,18.51-24.73,26.46-38.78,3.08-5.44,6.18-10.86,9.13-16.37-9.5-5.59-19.64-6.1-30.33-6.1-22.89,0-44.74,3-63.58,24.51-14.38,16.42-30.33,49.69-35.9,83.86C66.34,237.81,74.44,234.19,83.09,231.45Z"/><path class="cls-13" d="M104.47,175.53a1.35,1.35,0,0,1,1.27.09l.36.2a13.24,13.24,0,0,0,1.88.1,1.38,1.38,0,0,1,1.41,1.7c13.44,7.19,28.16,11.68,43,15.24,16.21,3.88,32.65,7.65,49.07,10.51q13.78,2.38,27.66,3.55c-6.94-21.76-16.91-41.85-27-56.4-13.53-19.46-28.78-20.6-45.3-20.6-22.89,0-44.74,3-63.58,24.51a97.51,97.51,0,0,0-7.67,10.17C91.36,169.12,98.27,174.13,104.47,175.53Z"/><path class="cls-3" d="M176.7,163.86c7.51-5.7,14.75-11.71,21.83-17.88-12.65-15.07-26.69-16.06-41.8-16.06-22.89,0-44.74,3-63.58,24.51C82.23,166.91,70.4,189.09,62.89,214,104.37,210.82,144.29,188.45,176.7,163.86Z"/><path class="cls-7" d="M74.54,301.93c-2.39-7.22-5.66-14.95-6.91-22.48a21,21,0,0,1,3.17-15.27c.58-1,6.59-10.92,5.12-11.17a6.91,6.91,0,0,1-3.57-1.25A1.48,1.48,0,0,1,72,250.3c.81-3.28,3.14-8.61,5.83-10.73,1.28-1,7.89-5.12,3.48-7.34-.84-.43-2.27-.92-2.78-1.81-1.56-2.82.6-6.78.91-9.7C79.9,216,86.3,215.56,81,210c-4.1-4.36,7.76-15,5.9-20.88-2-6.46-3-12.49-6.31-16.55C56.3,214.68,37.44,292.14,82.7,326.8,80.32,318.4,77.3,310.23,74.54,301.93Z"/><path class="cls-7" d="M224.9,195c-5.88,7.5,7.06,28.17,7.73,36.29,2.44,29.25-9.46,56.95-11.85,85.67C246.5,286.43,240.52,236.11,224.9,195Z"/><path class="cls-14" d="M125,172.22a122.3,122.3,0,0,0,43.62,3.35c14.17-1.57,25.92-8.06,33.16-20.61l.09-.16c-13.32-18.28-28.26-19.41-44.41-19.41-22.05,0-46-.37-64.34,19C102.27,160.34,114.52,169.37,125,172.22Z"/><path class="cls-7" d="M149.29,334.36c-21.86,0-39-3.86-52.18-10.5,11.13,12.63,27.94,20.53,52.29,20.53,24.6,0,41.63-7.94,52.91-20.73C188.9,330.44,171.5,334.36,149.29,334.36Z"/><path class="cls-4" d="M245.92,101.76c0,39-37.74,63-97.17,63-60.4,0-97.19-27-97.19-63,0-44.71,33.62-94.71,96.84-94.71C208.78,7.05,245.92,57.05,245.92,101.76Z"/><path class="cls-15" d="M72.32,139.31c15.86,20.5,47.76,21.52,56.48,22.49,25.5,2.86,41.93,1.74,75-9.25,6.95-2.31,25.56-13.25,29.48-19.41C244,116.22,241,102.47,240,96.46c-3.3-18.24-9.77-28.94-12.37-30.49s-7.37-4-10.38-4c-4.52,0-7.86-3.72-12.35-3.72-10.63,0-9.68-7.83-20.15-9.49-4.05-.65-13.6-7.76-17.59-8.75-2.32-.57-8.25-6.49-10-2.5-2,4.47-17.79,8.2-22.73,8.75s-9.29,5.27-14.12,6.49c-3.66.92-10.61,1.53-14.17,2.76S94,59.7,90.34,60.29c-6.52,1-12.6,10.84-19.18,11.49C64.74,72.41,48,107.88,72.32,139.31Z"/><path class="cls-15" d="M80.53,140.48C99,153,122.08,158.54,129.67,159.36c22.18,2.39,36.48,1.46,65.22-7.75,6.05-2,22.24-11.14,25.66-16.3,9.37-14.2-.23-38.37-.44-40.59a53.63,53.63,0,0,0-2.33-9.55c-.69-2.31-1.5-5.51-3.76-6.8s-5.76-4-8.39-4H194c-9.25,0-15.34-4.3-24.43-5.69-3.53-.54-6.84-4-10.31-4.8-2-.47-7.21-3.65-9.34-3.35-4.2.6-12.95,6-17.25,6.47s-9.57,2.88-13.78,3.89c-3.18.78-7.33,3.46-10.42,4.5a49.47,49.47,0,0,1-8.63,1.85c-5.67.88-10.33,2.15-16,2.69s-8.16,6.59-10,11c-2.36,5.51,5.18,12.48.08,16.76C71.88,109.22,71.76,134.57,80.53,140.48Z"/><path class="cls-16" d="M155.88,99.64s1.74,4.92-5.75,4.92-5.73-6.92-5.73-6.92"/><path class="cls-17" d="M173.53,114.94s.19,23.22-21.91,23c-24.21-.22-24.39-23-24.39-23Z"/><path class="cls-18" d="M210.77,96.46c0,4.2-7.29,7.62-16.29,7.62s-16.3-3.42-16.3-7.62,7.3-7.63,16.3-7.63S210.77,92.25,210.77,96.46Z"/><path class="cls-18" d="M120.27,100.26c0,4.21-7.29,7.62-16.3,7.62s-16.3-3.41-16.3-7.62S95,92.64,104,92.64,120.27,96.06,120.27,100.26Z"/><path class="cls-19" d="M191.24,78.31a6.53,6.53,0,1,1-6.53-6.53A6.53,6.53,0,0,1,191.24,78.31Z"/><path class="cls-19" d="M118.59,78.31a6.54,6.54,0,1,1-6.53-6.53A6.53,6.53,0,0,1,118.59,78.31Z"/><path class="cls-17" d="M117.55,76.34a2.5,2.5,0,1,1-2.5-2.5A2.5,2.5,0,0,1,117.55,76.34Z"/><path class="cls-17" d="M189.71,75.81a2.5,2.5,0,1,1-2.49-2.5A2.51,2.51,0,0,1,189.71,75.81Z"/><path class="cls-19" d="M198.33,61.23c-1.61-2.42-5-3.44-7.69-4.26-3-.91-5.66-1-8.14.94a1.59,1.59,0,0,0,.32,2.49c2,1.2,4.1,1.34,6.3,2.09s4.46,2.75,7,2.6C197.93,65,199.46,63,198.33,61.23Z"/><path class="cls-19" d="M96.42,61.23c1.61-2.42,5-3.44,7.68-4.26,3-.91,5.66-1,8.15.94a1.6,1.6,0,0,1-.32,2.49c-2,1.2-4.11,1.34-6.31,2.09s-4.46,2.75-7,2.6C96.81,65,95.28,63,96.42,61.23Z"/><path class="cls-2" d="M87.67,18.44s53.61.9,120.26,7.54c6.4.78-6-22.42-23.22-20.32-51-5.66-56.09-2.09-69.66-.38S87.67,18.44,87.67,18.44Z"/><path class="cls-20" d="M205.56,17.3S165.5,28.16,100.8,10.8C94.61,9,68.57,25.79,71.14,32.47c114,30.66,153.13-1.76,153.13-1.76Z"/><path class="cls-20" d="M114.71,51.08S184,45.64,247.21,67.79c6,2.26-8.86-31.63-20.11-35-111.37-39.07-130,3.55-130,3.55Z"/><path class="cls-3" d="M201.9,13.09c-4,5-35.45,23.89-123.91,19.39-6.43-.44-22.38,22-18.43,28C177.45,66,222.31,38.93,227.1,32.75S205.89,8.09,201.9,13.09Z"/><path class="cls-2" d="M212.32,168.46s-54.6-.89-122.48-7.5c-6.52-.77,6.15,22.32,23.65,20.24,52,5.64,57.12,2.08,70.94.37S212.32,168.46,212.32,168.46Z"/><path class="cls-20" d="M92.25,169.6s40.81-10.8,106.7,6.49c6.31,1.8,29-15.93,26.35-22.58C109.23,123,73.21,156.25,73.21,156.25Z"/><path class="cls-20" d="M184.79,136S111.33,141.29,47,119.24c-6.15-2.25,11.91,31.59,23.38,35,113.41,38.91,132.43-3.53,132.43-3.53Z"/><path class="cls-3" d="M96,173.8c4.07-5,36.1-23.78,126.19-19.3,6.55.43,22.79-21.94,18.77-27.89C120.89,121.16,75.2,148.07,70.33,154.22S91.91,178.78,96,173.8Z"/></g></g></svg>