<svg xmlns="http://www.w3.org/2000/svg" viewBox="0 0 364.34 509.77"><defs><style>.cls-1{isolation:isolate;}.cls-2{fill:#141f3a;}.cls-3{fill:#c13a2a;}.cls-4{fill:#0b1226;}.cls-11,.cls-19,.cls-21,.cls-5,.cls-8{mix-blend-mode:multiply;}.cls-6,.cls-8{fill:#cbaeab;}.cls-7{fill:#fff;}.cls-9{fill:#080800;}.cls-10{fill:#a1d2d9;}.cls-11{fill:#d7c4ba;}.cls-12{fill:#101a31;}.cls-13{fill:#191e1f;}.cls-14{fill:#1c2d4f;}.cls-15{fill:#e4f4fe;opacity:0.3;}.cls-15,.cls-23{mix-blend-mode:soft-light;}.cls-16{fill:#2f0d01;}.cls-17{fill:#45170d;}.cls-18{fill:#ee714f;}.cls-19{fill:none;stroke:#a5bdca;stroke-linecap:round;stroke-linejoin:round;stroke-width:2.81px;}.cls-20{fill:#8e8471;opacity:0.5;}.cls-21{fill:#af9190;}.cls-22{fill:#f39200;}.cls-23{fill:#a6b8c2;opacity:0.2;}</style></defs><title>player</title><g class="cls-1"><g id="Capa_1" data-name="Capa 1"><path class="cls-2" d="M0,86.38l19.17-3L135,205.4s-21.35-1.7-58.32-18.71C29.22,164.88,0,86.38,0,86.38Z"/><path class="cls-2" d="M351.78,86.38l-21.92-3-113,122.06s21.34-1.7,58.31-18.71C322.55,164.88,351.78,86.38,351.78,86.38Z"/><path class="cls-2" d="M5.34,393.25l16.83,20.69L130.1,263.57S140,187,105.84,209.09C17.13,266.55,5.34,393.25,5.34,393.25Z"/><path class="cls-2" d="M364.34,400.45l-16.76,13.49L230.48,263.57s-4.87-80.89,29.29-58.77C348.48,262.26,364.34,400.45,364.34,400.45Z"/><path class="cls-3" d="M329.86,83.34l-67.8-10.7L210.37,182.05s21.35-1.71,58.32-18.71C316.11,141.53,329.86,83.34,329.86,83.34Z"/><path class="cls-3" d="M19.17,83.34,87,72.64l51.69,109.41s-21.35-1.71-58.33-18.71C32.92,141.53,19.17,83.34,19.17,83.34Z"/><path class="cls-3" d="M319.35,291.46c-35.19-73.67-75.2-107.35-75.2-107.35l-59.27,7.3-59.27-7.3s-40,33.68-75.21,107.35C18.74,357.72,22.17,413.94,22.17,413.94s58.58,43,162.71,43,162.7-43,162.7-43S351,357.72,319.35,291.46Z"/><path class="cls-4" d="M265.05,300c0,5.11-1.2,9.26,5.14,9.26S288,305.1,288,300s-5.14-9.24-11.48-9.24S265.05,294.88,265.05,300Z"/><path class="cls-4" d="M106.41,300c0,5.11-5.15,9.26-11.5,9.26s-11.5-4.15-11.5-9.26,5.15-9.24,11.5-9.24S106.41,294.88,106.41,300Z"/><path class="cls-2" d="M161.65,488.84l9.28-150.11H116.59l27.23,143.43c-.52,0-6-.76-3.68,5,.37.93-3.1,1.25-3,2.25a6.37,6.37,0,0,0,1.21,3.32A34.13,34.13,0,0,1,125.09,495c-9.33,0-22.18,14.79-12,14.79h45.57c7,0,4.14-15.77,3-20.93Z"/><path d="M165.3,464.92h-29l7.56,17.24c-.52,0-6-.76-3.68,5,.37.93-3.1,1.25-3,2.25a6.37,6.37,0,0,0,1.21,3.32A34.13,34.13,0,0,1,125.09,495c-9.33,0-22.18,14.79-12,14.79h45.57c7,0,4.14-15.77,3-20.93Z"/><g class="cls-5"><path class="cls-6" d="M168.62,376.12a32.58,32.58,0,0,0-6.79,7.2c-3.32,5.3-3.42,10.78-3.2,16.88.24,6.7,5.75,16.25-.27,21.62-1.27,1.14-3.34,1.69-4.41,3-2.16,2.72,2.42,5.34,3.89,6.68,2.24,2.06,1.61,6.27,1.37,8.86-.56,6-2.25,11.62-2,17.68.29,6.82-.85,14.13-.15,20.84.42,4.05,1.77,7.1-1.1,10.38,0,.06-4.5,1.88-3.08,3a9.39,9.39,0,0,1,2.61,2.57c3.46,5.91-6.86,12.31-11,13.81-1.21.44-2.42.82-3.63,1.16h17.77c7,0,4.14-15.77,3-20.93Z"/></g><path class="cls-2" d="M203.46,488.84l-9.3-150.11h54.36L221.28,482.16c.53,0,6-.76,3.68,5-.37.93,3.11,1.25,3,2.25a6.55,6.55,0,0,1-1.21,3.32A34.11,34.11,0,0,0,240,495c9.34,0,22.19,14.79,12,14.79H206.48c-7,0-4.14-15.77-3-20.93Z"/><path d="M199.8,464.92h29l-7.56,17.24c.53,0,6-.76,3.68,5-.37.93,3.11,1.25,3,2.25a6.55,6.55,0,0,1-1.21,3.32A34.11,34.11,0,0,0,240,495c9.34,0,22.19,14.79,12,14.79H206.48c-7,0-4.14-15.77-3-20.93Z"/><g class="cls-5"><path class="cls-6" d="M196.49,376.12a32.82,32.82,0,0,1,6.79,7.2c3.32,5.3,3.42,10.78,3.19,16.88-.24,6.7-5.74,16.25.27,21.62,1.28,1.14,3.35,1.69,4.42,3,2.16,2.72-2.43,5.34-3.9,6.68-2.23,2.06-1.61,6.27-1.37,8.86.57,6,2.25,11.62,2,17.68-.29,6.82.86,14.13.15,20.84-.42,4.05-1.76,7.1,1.09,10.38,0,.06,4.5,1.88,3.09,3a9.26,9.26,0,0,0-2.61,2.57c-3.46,5.91,6.86,12.31,11,13.81,1.2.44,2.41.82,3.63,1.16H206.48c-7,0-4.14-15.77-3-20.93Z"/></g><path class="cls-7" d="M181.51,372.71c-135.75,0-89.68-145.33-53.43-186.74,18.83-21.51,40.69-24.51,63.59-24.51,16.51,0,31.76,1.14,45.3,20.61C275.87,238,313.32,372.71,181.51,372.71Z"/><path class="cls-2" d="M90.13,293.75c-.08,43.43,21.73,82.18,91.06,82.18s91.81-38,92.09-82.18Z"/><path d="M270.47,318.23c2.31,0,5.78-7.62,2.29-11,3.74-4.5,2.63-14,.52-13.49,0,0-61.13-3-91.49-3s-91.66,3-91.66,3C88,295,88.75,299.49,89.31,305c-2.75,2.51,1.16,12.73,3.44,13.24,0,0,45.81,6.5,90.92,6.5C226.18,324.73,268.09,318.23,270.47,318.23Z"/><path class="cls-8" d="M186.12,369c-21.86,0-31.39-.89-31.39-.89s5.25,7.86,29.6,7.86c24.6,0,34.88-7.86,34.88-7.86S208.32,369,186.12,369Z"/><path class="cls-9" d="M133.69,309.25s-10.29,1.11-22.49,1.11a45.4,45.4,0,0,1-21.09-5.24,134.84,134.84,0,0,0,22.1,1.84A99.39,99.39,0,0,1,133.69,309.25Z"/><path class="cls-9" d="M214.22,319.35s-19.78,1.7-32,1.7-38.13-2.62-38.13-2.62,26.94-.79,39.13-.79S214.22,319.35,214.22,319.35Z"/><path class="cls-9" d="M251.79,304.07s-19.77,1.69-32,1.69-38.12-2.62-38.12-2.62,26.93-.77,39.13-.77S251.79,304.07,251.79,304.07Z"/><path class="cls-9" d="M272.76,307.24s2.46,6.14-7.66,6.14c-12.19,0-38.12-2.63-38.12-2.63s27-1.45,39.13-.77C272,310.3,272.76,307.24,272.76,307.24Z"/><path class="cls-10" d="M335.78,137c4.24-6.5,2.37-13.4-4.65-18s-14.42-3-18.32,3c-4.85,7.46-7.37,20.12.11,25C320.06,151.69,330.94,144.48,335.78,137Z"/><path class="cls-7" d="M316.5,158.81s4.85-6.59,7.24-10.7c-1-12.23-15.87-10.67-15.87-10.67s-2,2.87-4.63,7.08C308,150.33,316.5,158.81,316.5,158.81Z"/><path class="cls-2" d="M320,155c-1.11-13.31-16.07-13.63-16.07-13.63s-32.54,35.05-53.59,36.36c-11,.67-45.56,42.87-37,50.22C255.67,233.83,295.45,197.1,320,155Z"/><path class="cls-11" d="M294.59,181.68c-5.45,4.93-11,9.79-16.83,14.29-22.71,17.51-33,11.49-33,11.49a28.74,28.74,0,0,0-1.7,17.88c25.82-7.86,49.37-29.5,67.31-55.23C304.39,172.57,299.21,177.53,294.59,181.68Z"/><path class="cls-11" d="M229.4,196.24a2.06,2.06,0,0,1,.42,0c7.85,2.25,15.44-7.33,23-9,10.51-2.33,19.13-9.12,26-17.34,5.77-6.88,10.77-9.08,13.38-17.15-11.39,10.35-28.82,24.08-41.84,24.89-4.74.3-13.87,8.32-22,17.94C228.69,195.8,229.05,196,229.4,196.24Z"/><path class="cls-10" d="M31.63,137c-4.23-6.5-2.38-13.4,4.66-18s14.42-3,18.32,3c4.84,7.46,7.37,20.12-.12,25C47.36,151.69,36.48,144.48,31.63,137Z"/><path class="cls-7" d="M50.92,158.81s-4.85-6.59-7.25-10.7c1-12.23,15.87-10.67,15.87-10.67s2,2.87,4.63,7.08C59.42,150.33,50.92,158.81,50.92,158.81Z"/><path class="cls-12" d="M47.4,155c1.1-13.31,16.07-13.63,16.07-13.63s32.54,35.05,53.6,36.36c11,.67,45.55,42.87,37,50.22C111.75,233.83,72,197.1,47.4,155Z"/><path class="cls-11" d="M72.82,181.68c5.45,4.93,11,9.79,16.83,14.29,22.71,17.51,33,11.49,33,11.49a28.7,28.7,0,0,1,1.71,17.88c-25.83-7.86-49.37-29.5-67.32-55.23C63,172.57,68.21,177.53,72.82,181.68Z"/><path class="cls-11" d="M138,196.24a2.06,2.06,0,0,0-.42,0c-7.85,2.25-15.43-7.33-23-9-10.5-2.33-19.12-9.12-26-17.34-5.77-6.88-10.78-9.08-13.39-17.15,11.39,10.35,28.82,24.08,41.85,24.89,4.73.3,13.87,8.32,22,17.94C138.72,195.8,138.37,196,138,196.24Z"/><path class="cls-13" d="M264.5,169.38c-44.28,20.29-120.77,19.12-149.21,1.49C61.91,148.72,63.91,92.17,83.45,53.23,99,22.33,132,0,183.67,0,229.41,0,262,13.24,280.85,48.73,297.2,79.53,299.11,142.69,264.5,169.38Z"/><path class="cls-12" d="M191.67,161.46c-22.9,0-44.76,3-63.59,24.51-16.89,19.29-44.67,64.73-44.67,114.21,0,0,12.66-11.91,48.63,1.94,36.48,14,44.27-15.73,49.66-33.42C195.68,222.78,191.67,161.46,191.67,161.46Z"/><path class="cls-11" d="M156.14,297c-7-4.09-13.22-9.77-20.61-13.1-6.47-2.91-13.59-3.89-18.6-9.4-8.56-9.4-11.81-24.27-9-36.58,2-8.87,6.49-18.08,6.15-27.33a20.43,20.43,0,0,0-.72-4.53c-14.75,23.24-29.92,57.57-29.92,94.14,0,0,12.66-11.91,48.63,1.94,15.65,6,26,4,33.17-1.73A30.68,30.68,0,0,1,156.14,297Z"/><path class="cls-2" d="M179.79,161.46c22.9,0,44.74,3,63.58,24.51C260.26,205.26,288,250.7,288,300.18c0,0-12.65-11.91-48.62,1.94-36.47,14-53.82-17.23-57.12-35.43C175.35,228.52,179.79,161.46,179.79,161.46Z"/><path class="cls-11" d="M260,209.09a25.71,25.71,0,0,0-.88,2.74c-2.46,10,.83,19.27,2.14,29.19,1.91,14.43,6.93,30.31-6.14,40.74-11.45,9.15-28.7,9.64-42.43,7-7.91-1.52-16.67-4.45-21.93-11-3.23-4-5.72-8.47-8.73-12.58.08.49.16,1,.25,1.49,3.3,18.2,20.65,49.46,57.12,35.43,36-13.85,48.62-1.94,48.62-1.94C288,265.15,274.13,232.23,260,209.09Z"/><path class="cls-7" d="M191,212.49s-53.27-13.44-62.9-26.52c18.83-21.51,40.69-24.51,63.59-24.51,16.51,0,40.5,0,54,19.48C243.46,187.68,191,212.49,191,212.49Z"/><path class="cls-14" d="M191,212.49l15.18-27.57s-33-101.37-10.08-101.37c16.52,0,50.63,57.4,64.17,69.24C299.15,186.79,191,212.49,191,212.49Z"/><path class="cls-14" d="M191,212.49,175.7,184.92s33-101.37,10.08-101.37c-16.52,0-55,66.08-68.58,77.91C78.3,195.47,191,212.49,191,212.49Z"/><path class="cls-10" d="M280.85,133.31c0,39-37.74,63-97.18,63-60.38,0-97.19-27-97.19-63,0-44.72,33.63-94.72,96.85-94.72C243.71,38.59,280.85,88.59,280.85,133.31Z"/><path class="cls-10" d="M301.45,79.47c0,7.85-2,48.53-19.7,46.5-8-.92-14.61-6.36-14.61-14.24s11-7,14.61-14.22C288.91,83,301.45,71.6,301.45,79.47Z"/><path class="cls-10" d="M61.75,79.47c0,7.85,2,48.53,19.7,46.5,8-.92,14.62-6.36,14.62-14.24s-11-7-14.62-14.22C74.3,83,61.75,71.6,61.75,79.47Z"/><path class="cls-15" d="M76.75,98.2c-3.82-4.64-12-20.65-13.12-18.93-2.85,4.61,7.34,40.56,11.63,42.79C79,124,88,122.94,88,122.94s1,10.88,1.74,14.93c2.2,12,7.43,25.94,17.51,33,21.24,14.85,47.75,21.52,56.48,22.5,25.5,2.85,41.93,1.73,75-9.26,7-2.3,25.55-13.25,29.48-19.41,10.78-16.92,9.45-30,10-36.06a36.48,36.48,0,0,1,1.75-6.7s6.64,1,8.64.39c6.52-2,9.63-16.3,7.48-21.8-.83-2.16,3.09-18.8,0-17.45-2.35,1-15.1,21.78-15.93,24.09-1.67,4.54-3.64,6.83-7.47,10.28-1.46,1.32-4.72,1.53-5-1.13-.35-3.71-1.64-7.76-2.68-11.36-.8-2.77-9.26-33.09-41.3-33.09-23.27,0-40.54,24.8-40.54,24.8S168.38,66.57,132,69.85,99.94,119,96.35,121.44c-2.06,1.42-4.08-3-5.73-6.7C86.48,105.39,78.53,100.36,76.75,98.2Z"/><path class="cls-15" d="M114,172.25c19.28,13,43.34,18.83,51.25,19.69,23.14,2.49,38.05,1.52,68-8.09,6.31-2,23.2-11.62,26.76-17,9.78-14.81-.23-40-.45-42.34a56.4,56.4,0,0,0-2.43-10c-.73-2.42,3.21-24.7-24.74-31.9s-50.49,26.41-50.49,26.41-24-29.85-52.2-26.41S112.26,133.51,106.93,138C105,139.64,104.82,166.08,114,172.25Z"/><path class="cls-16" d="M227.92,153.5c9.25,14.25-16.83,33.83-43.34,33.83-26.94,0-49.13-19.11-43.36-33.83,8.36-21.3,23.62-6.42,43.36-6.42C204.76,147.08,214.67,133.12,227.92,153.5Z"/><path class="cls-17" d="M209.32,148q-2.7-2.21-5.57-4.27c-5.42,1.39-11.57,3.37-19.17,3.37A57.54,57.54,0,0,1,171,145.17c-12.79,7.4-19.2,13.16-22.49,28.92,8.1,7.55,21.36,13.24,36.05,13.24,15.47,0,30.79-6.67,39-15.06C224.69,162.53,216.47,153.84,209.32,148Z"/><path class="cls-18" d="M217.6,177.24a60.27,60.27,0,0,1-33,10.09,56.24,56.24,0,0,1-30.51-8.88c-10.43-6.89,10.1-13.77,29.85-13.77C204.1,164.68,227.65,170.38,217.6,177.24Z"/><path class="cls-7" d="M215.81,154.47c-1.4,3.18-3.2,4.08-4.59-.85a7.61,7.61,0,0,0-1.83-3.38s-1.42,3.81-2.29,3.9a205.57,205.57,0,0,1-21.42,1.26c-10.09,0-21.26-1.69-28.73-3.06-.41-.08-1-3.62-1-3.62s-1,2.25-1.63,3.58c-1.3,2.8-2.78,4-3.75,1.69-1.2-2.81-3.47-7.87-1.84-10.47,8.74-4.81,21,3.56,35.83,3.56,15.14,0,24.5-7.86,33.82-3.18C219.33,147.05,217.21,151.29,215.81,154.47Z"/><path class="cls-19" d="M190.8,131.18s1.75,4.92-5.74,4.92-5.73-6.92-5.73-6.92"/><path class="cls-20" d="M245.71,128c0,4.2-7.3,7.62-16.31,7.62s-16.29-3.42-16.29-7.62,7.3-7.62,16.29-7.62S245.71,123.79,245.71,128Z"/><path class="cls-20" d="M155.2,131.81c0,4.2-7.3,7.61-16.3,7.61s-16.3-3.41-16.3-7.61,7.3-7.62,16.3-7.62S155.2,127.6,155.2,131.81Z"/><path class="cls-13" d="M226.17,109.85a6.53,6.53,0,1,1-6.53-6.53A6.53,6.53,0,0,1,226.17,109.85Z"/><path class="cls-13" d="M153.52,109.85a6.54,6.54,0,1,1-6.53-6.53A6.53,6.53,0,0,1,153.52,109.85Z"/><path class="cls-7" d="M152.48,107.88a2.5,2.5,0,1,1-2.5-2.49A2.5,2.5,0,0,1,152.48,107.88Z"/><path class="cls-7" d="M224.63,107.35a2.5,2.5,0,1,1-2.49-2.5A2.49,2.49,0,0,1,224.63,107.35Z"/><path class="cls-13" d="M190.75,33.28c-53.93,0-96.7,23-107.34,66.89,4.47,3.48,10.47,10.17,10.22,15.89a2,2,0,0,0,3.93,0c.06-2.29-7-31.33,25-45.84,37.49-17,37.58,15.69,61.07,17.66S202,57.72,234.56,70.22s33.33,35.32,33.53,42.34c.08,3.24,5,4.1,5.77.78,1.14-7,5.57-12.83,9.05-18.5C278.11,68.91,244.67,33.28,190.75,33.28Z"/><path class="cls-13" d="M233.25,92.77c-1.61-2.42-5-3.44-7.68-4.26-3-.91-5.66-1.05-8.15.94a1.61,1.61,0,0,0,.32,2.5c2,1.19,4.11,1.33,6.31,2.08s4.45,2.75,7,2.61C232.86,96.54,234.39,94.5,233.25,92.77Z"/><path class="cls-13" d="M131.34,92.77c1.61-2.42,5-3.44,7.69-4.26,3-.91,5.66-1.05,8.15.94a1.6,1.6,0,0,1-.33,2.5c-2,1.19-4.1,1.33-6.3,2.08s-4.45,2.75-7,2.61C131.73,96.54,130.21,94.5,131.34,92.77Z"/><path class="cls-21" d="M197.25,254.4a5.95,5.95,0,1,1-5.94-6A5.94,5.94,0,0,1,197.25,254.4Z"/><path class="cls-22" d="M195.71,253.62a5.95,5.95,0,1,1-5.94-5.94A5.93,5.93,0,0,1,195.71,253.62Z"/><path class="cls-21" d="M188.85,253.4a1.75,1.75,0,1,1-1.75-1.74A1.75,1.75,0,0,1,188.85,253.4Z"/><path class="cls-21" d="M193.78,253.4a1.74,1.74,0,1,1-1.74-1.74A1.74,1.74,0,0,1,193.78,253.4Z"/><path class="cls-21" d="M197.28,225.73a5.95,5.95,0,1,1-5.94-5.94A5.93,5.93,0,0,1,197.28,225.73Z"/><path class="cls-22" d="M195.75,225A5.95,5.95,0,1,1,189.8,219,6,6,0,0,1,195.75,225Z"/><path class="cls-21" d="M188.88,224.73a1.75,1.75,0,1,1-1.74-1.74A1.74,1.74,0,0,1,188.88,224.73Z"/><path class="cls-21" d="M193.82,224.73a1.75,1.75,0,1,1-1.75-1.74A1.74,1.74,0,0,1,193.82,224.73Z"/><path class="cls-23" d="M198.29,218.27c1.86,2.44,1.49,6,1.5,9a12.38,12.38,0,0,1-.28,4.2c-.44,1.15-2.45,2.29-2.64,3.36-.79,4.37,8.07,8.95,9.28,13.81,1.72,6.91-3.68,8.13-6.74,13.11s2.46,13.72,6.75,16.4c14.28,8.91,30.13,8.48,43.84-2.91,9.92-8.23,5.49-30.6,4.37-41.7-1.27-12.5-2.53-18.21,5.4-28.75,4.53-6,10.91-8.83,16.87-13a196.9,196.9,0,0,0,19.46-16.3c4.36-4.08,7.84-8.75,11.92-13.14,3.31-3.55,6.4-10.5.85-13.87-4.82-2.93-10.44,6.41-13.5,9.84-4.28,4.81-8.78,10.65-13.47,14.73-9.71,8.42-20.71,14.46-31.89,20.59-10.23,5.63-19.65,11.14-30.71,14.18-6.82,1.89-13.5,5.18-20.64,6.73Z"/><path class="cls-23" d="M177.68,266.63c-3.24,5.61-5.57,12.63-9.38,18-1.57,2.22-4.35,6.2-7.11,6.76-3.09.62-5.74-2.76-7.9-4.44A50.58,50.58,0,0,0,136,277.89c-6.25-2-13.59-6.13-17.3-11.63-10.25-15.26-.46-35.66.83-52.19.64-8.13-2-10.06-9-12.29-5.7-1.83-12.63-5.59-18-8.7-6.09-3.54-10.76-9.24-16.1-13.87-5.64-4.89-11.19-9.21-15.1-16-2.36-4.07-8.1-12-2-16.1,3.59-2.46,9.67,6.48,12.66,9.2,4.3,3.88,9.25,8.2,12.73,12.81,4.47,5.92,10.31,8.63,16,13.24,9.14,7.38,19.64,13.53,30.11,18.91,3.11,1.59,6.06,2.11,9.46,3.17,3.59,1.11,6.62,3.31,10.29,4.31,6.69,1.84,14.35,2.55,20.72,5.36,3.48,1.52,3.38,3.08,3.37,7.12,0,3.33-.24,6.46-.37,9.74-.33,8-.14,15.68,1.78,23.23.57,2.26,1.25,4.2,1.6,6.38Z"/><path class="cls-23" d="M204.29,378c2.39,5.33,6.8,7.55,7.12,14.25.33,6.94-1.85,11.61-3,18-1.53,8.28,4.87,7.43,8,13,3,5.33-6.1,8.82-7.62,12.84-2,5.4-.41,12.78,1.14,18,1.48,5,2.16,14.25,10.14,9.38,3.78-2.3,4.19-12.09,4.78-16.13.94-6.42.3-13.47,1.57-19.87,1.42-7.21,3.71-14.67,5.65-21.75,2.1-7.62,3.67-15.48,6.08-23.14A60.71,60.71,0,0,0,241,363c0-6.56,3.66-10.72,8.24-15.37,5.88-5.94,11.43-16.1,11.94-24.3-3.31-.4-7.23,1.77-10.83,1.82-4,0-7.9.19-11.88.45-10.16.69-20.09,2.17-30.48,2.17-10.94,0-21.65-.8-32.58,0-5.09.36-10.08.65-15.09,1.13s-10.44.89-15.2-.46c-5.16-1.45-9.5-2.86-15-2.92-4.29-.05-8.58,1.34-12.83.75-5.51-.76-10.91-3.44-16.8-2.56-2.32,6.73,3.06,14.3,7.07,19.44s9.71,9.72,14.69,14.13c2.36,2.08,4.41,3.17,5.54,6.18s1,6.69,1.12,9.74c.54,10.56,2.94,20.33,5.16,30.66,2,9.27,6.11,18.28,6.09,27.83,0,6.53.25,12.73,2.34,18.64,1.19,3.39,1.88,15.59,7.41,10.51,3.26-3,4.5-12.54,4.49-16.87,0-3.19.38-6.43-.75-9.39-1.21-3.19-3.59-5-3.74-8.6-.2-4.46,2.47-3.44,4.41-6.75,1.47-2.53,1-6.48,1.21-9.36.23-4,.82-8.24.29-12.29-.5-3.72-1.47-6.38-.29-10.23.71-2.35,3.09-5.26,3.28-7.56.22-2.8-1.4-3.57-3.75-5.45-3.27-2.65-10.89-11.62-3.66-14,3.51-1.14,5.58,1.91,8.25,3,2.4,1,5.91,1,8.62,1.12,8.41.44,16.82-1.5,25.41-1.5,4.14,0,8.29-.35,12.36-.37s8,1.53,12.07,1.87c6.45.54,8,3.72,3.11,8.61-3.81,3.83-8.48,4.05-12.47,5.26Z"/></g></g></svg>