<svg xmlns="http://www.w3.org/2000/svg" viewBox="0 0 230.73 551.52"><defs><style>.cls-1{isolation:isolate;}.cls-10,.cls-2{fill:#fff;}.cls-3{fill:#96552d;}.cls-4{fill:#e94e1b;}.cls-5{fill:#95c11f;}.cls-6{fill:#99b2a4;mix-blend-mode:overlay;}.cls-18,.cls-6{opacity:0.5;}.cls-7{fill:#a5b7b4;}.cls-17,.cls-23,.cls-7{mix-blend-mode:multiply;}.cls-8{fill:#f9c6bd;}.cls-10,.cls-8{mix-blend-mode:soft-light;}.cls-9{fill:#db430e;}.cls-10{opacity:0.2;}.cls-11,.cls-14{fill:#30130c;}.cls-12{fill:#512e07;}.cls-13{fill:#683c11;}.cls-14{opacity:0.26;}.cls-15{fill:#d0ebfc;}.cls-16{fill:#95a63a;}.cls-17{fill:#6c8a99;}.cls-18{fill:#ed8366;}.cls-19{fill:#491d0e;}.cls-20{fill:#d84b58;}.cls-21{fill:#412401;}.cls-22{fill:#903421;}.cls-23{fill:#d4aca9;}.cls-24{fill:#6a2613;}.cls-25{fill:#859836;}.cls-26{fill:#5f6f26;}.cls-27{fill:#a7b938;}.cls-28{fill:#658138;}.cls-29{fill:#a6a32f;}</style></defs><title>player</title><g class="cls-1"><g id="Capa_1" data-name="Capa 1"><rect class="cls-2" x="52.4" y="547.04" width="59.54" height="4.48"/><polygon class="cls-3" points="85.08 528.95 109.57 528.95 109.57 444.2 78.8 444.2 85.08 528.95"/><polygon class="cls-2" points="83.73 510.65 85.08 528.95 109.57 528.95 109.57 510.65 83.73 510.65"/><polygon class="cls-4" points="82.18 501.81 109.89 501.81 114.58 429.65 71.69 408.2 82.18 501.81"/><polygon points="81.27 493.78 82.18 501.81 109.89 501.81 110.06 499.3 81.27 493.78"/><polygon points="74.56 433.86 112.69 458.8 114.58 429.65 71.69 408.2 74.56 433.86"/><polygon points="77.25 457.94 111.45 477.98 111.99 469.49 75.38 441.23 77.25 457.94"/><polygon points="80.39 486.01 110.35 494.64 110.76 488.37 78.56 469.49 80.39 486.01"/><path class="cls-5" d="M52.4,547c-4.46-9.44,16.39-25.17,32.68-25.17,8.13,0,24.49,4.83,24.49,4.83s5.26,12.41,2.37,20.34Z"/><path class="cls-6" d="M73.33,536.35c8.16-6.89,9.44-13.06,7.88-12.81-10.47,1.69-21.61,8.65-26.34,15.62C56.15,542.87,69.4,539.67,73.33,536.35Z"/><path class="cls-7" d="M109.57,526.7s-7.17-2.12-14.37-3.55c.19,6.91-7.34,14.36-12.91,17.14-7.14,3.58-22.2,6.7-30.16,1.67A7.12,7.12,0,0,0,52.4,547h59.54C114.83,539.11,109.57,526.7,109.57,526.7Z"/><rect class="cls-2" x="122.59" y="547.04" width="59.55" height="4.48"/><polygon class="cls-3" points="149.45 528.95 124.97 528.95 124.97 444.2 155.74 444.2 149.45 528.95"/><polygon class="cls-2" points="150.82 510.65 149.45 528.95 124.97 528.95 124.97 510.65 150.82 510.65"/><polygon class="cls-4" points="152.36 501.81 124.64 501.81 119.95 429.65 162.85 408.2 152.36 501.81"/><polygon points="153.26 493.78 152.36 501.81 124.64 501.81 124.48 499.3 153.26 493.78"/><polygon points="159.98 433.86 121.84 458.8 119.95 429.65 162.85 408.2 159.98 433.86"/><polygon points="157.28 457.94 123.09 477.98 122.55 469.49 159.15 441.23 157.28 457.94"/><polygon points="154.13 486.01 124.18 494.64 123.77 488.37 155.98 469.49 154.13 486.01"/><path class="cls-5" d="M182.14,547c4.46-9.44-16.4-25.17-32.69-25.17-8.13,0-24.48,4.83-24.48,4.83s-5.26,12.41-2.38,20.34Z"/><path class="cls-6" d="M161.2,536.35c-8.16-6.89-9.43-13.06-7.88-12.81,10.47,1.69,21.62,8.65,26.34,15.62C178.38,542.87,165.14,539.67,161.2,536.35Z"/><path class="cls-7" d="M125,526.7s7.16-2.12,14.37-3.55c-.2,6.91,7.33,14.36,12.89,17.14,7.15,3.58,22.22,6.7,30.17,1.67a7.12,7.12,0,0,1-.26,5.08H122.59C119.71,539.11,125,526.7,125,526.7Z"/><path class="cls-4" d="M111.18,265.42c0,4.28-4.63,120.75,3.7,157.34,1.64,7.18,23.17,3.8,24.43,4.33,10.9,4.6,40.85-11.87,44.87-65.1,4-53.49-10.66-89-29.8-98.74C140.74,256.3,111.18,260.3,111.18,265.42Z"/><path class="cls-4" d="M139.75,257.5c0,6.91-10.19,12.52-22.77,12.52S94.2,264.41,94.2,257.5,104.4,245,117,245,139.75,250.58,139.75,257.5Z"/><path class="cls-8" d="M117,249.06c7.52,0,14.27,1.52,18.82,3.93-2.46-4.64-10-8-18.82-8s-16.37,3.38-18.82,8C102.72,250.58,109.45,249.06,117,249.06Z"/><path class="cls-4" d="M111.53,263.32c0,5.12-6.45,9.27-14.43,9.27s-14.43-4.15-14.43-9.27,6.46-9.27,14.43-9.27S111.53,258.2,111.53,263.32Z"/><path class="cls-4" d="M122.13,265.42c0,4.28,4.64,120.75-3.71,157.34-1.64,7.18-23.16,3.8-24.43,4.33-10.9,4.6-40.85-11.87-44.86-65.1-4-53.49,10.65-89,29.8-98.74C92.57,256.3,122.13,260.3,122.13,265.42Z"/><path class="cls-8" d="M96.71,257.81a23.35,23.35,0,0,1,13.12,3.63c-1.72-4.27-6.94-7.39-13.12-7.39s-11.41,3.12-13.12,7.39A23.3,23.3,0,0,1,96.71,257.81Z"/><path class="cls-4" d="M106.45,283.78c0,5.12-6,9.27-13.35,9.27s-13.34-4.15-13.34-9.27,6-9.27,13.34-9.27S106.45,278.66,106.45,283.78Z"/><path class="cls-4" d="M113.3,424.08c0,5.12-6,9.27-13.34,9.27s-13.34-4.15-13.34-9.27,6-9.27,13.34-9.27S113.3,419,113.3,424.08Z"/><path class="cls-8" d="M92,279.09a35,35,0,0,1,9.19,1.22s-3.09-5.8-9.19-5.8c-12.33,0-15.65,19-15.65,19S81.21,279.09,92,279.09Z"/><path class="cls-4" d="M111.59,283.78a9.25,9.25,0,1,1-9.24-9.27A9.25,9.25,0,0,1,111.59,283.78Z"/><path class="cls-8" d="M101.57,279.09a17.51,17.51,0,0,1,6.38,1.22s-2.14-5.8-6.38-5.8c-8.53,0-10.83,19-10.83,19S94.12,279.09,101.57,279.09Z"/><path class="cls-4" d="M136.39,285.17c0,5.12-6.09,9.28-13.61,9.28s-13.59-4.16-13.59-9.28,6.09-9.27,13.59-9.27S136.39,280.05,136.39,285.17Z"/><path class="cls-8" d="M84.83,265.7c5.23-.65,10,.24,13.24,2.08-1.9-4.06-7.28-7.23-13.4-5.82-12.38,2.83-20.32,16.24-20.32,16.24S75.46,266.87,84.83,265.7Z"/><path class="cls-9" d="M86.13,417.61c-3.18-7.1-8-21.23-8-21.23a143.19,143.19,0,0,0,4.6,20.81c2.7,9.15,8.83,15.86,15,15.86a7,7,0,0,0,2.23-.37C94.61,431.31,90.37,427,86.13,417.61Z"/><path class="cls-4" d="M124.82,427c0,5.11-4.5,9.27-10.07,9.27s-10.07-4.16-10.07-9.27,4.51-9.27,10.07-9.27S124.82,421.88,124.82,427Z"/><path class="cls-9" d="M104.32,420.53c-2.41-7.09-6.06-21.22-6.06-21.22a187.88,187.88,0,0,0,3.46,20.81c2,9.14,6.68,15.85,11.34,15.85a4,4,0,0,0,1.69-.37C110.71,434.23,107.51,430,104.32,420.53Z"/><path class="cls-9" d="M64.29,406.32c-3.19-7.1-8-21.23-8-21.23a145.52,145.52,0,0,0,4.59,20.81c2.7,9.14,9.32,16.86,15.49,16.86C74.06,421.27,68.53,415.75,64.29,406.32Z"/><path class="cls-9" d="M73.48,344.87c-.9-13.4-.08-36.23-.08-36.23s-4.35,13.82-3.12,35.05a255.54,255.54,0,0,0,6.08,40.51S74.53,360.8,73.48,344.87Z"/><path class="cls-9" d="M91.14,335.54c-.62-8.3-.11-22.45-.11-22.45s-2.87,8.54-2,21.7a149,149,0,0,0,4.1,25.13S91.86,345.41,91.14,335.54Z"/><path class="cls-9" d="M58.58,323.21A24.69,24.69,0,0,0,56.11,331c.52-6.73,1.35-13.5,1.35-13.5a31.85,31.85,0,0,0-1.28,3.66c.55-5.59,1.08-9.92,1.08-9.92a55.83,55.83,0,0,0-2.9,10.3c.33-3.1.6-5.29.6-5.29s-3.34,7.35-3.62,19.8a149.9,149.9,0,0,0,1.76,24.32s0-2.88,0-6.89c.59,8.33,1.51,14.39,1.51,14.39s0-5.59.12-12.62c.43,3.85.85,6.38.85,6.38s0-11.49.11-20.61a136,136,0,0,0,1.38,14s.61-9.41.44-16.38A137.33,137.33,0,0,1,58.58,323.21Z"/><path class="cls-10" d="M69.72,313.69a47.44,47.44,0,0,0-2.86,12.1c.58-10.44,1.56-20.94,1.56-20.94a57.11,57.11,0,0,0-1.49,5.66c.65-8.67,1.27-15.39,1.27-15.39a109,109,0,0,0-3.37,16c.37-4.82.68-8.21.68-8.21s-3.88,11.41-4.2,30.75a308.77,308.77,0,0,0,2.06,37.75s0-4.48,0-10.69c.68,12.93,1.75,22.35,1.75,22.35s.06-8.69.14-19.6c.51,6,1,9.88,1,9.88s0-17.82.12-32c.4,11.81,1.61,21.78,1.61,21.78s.72-14.61.52-25.43C68.33,328.61,69.72,313.69,69.72,313.69Z"/><path class="cls-10" d="M89.54,315.08s-3,4.28-4.56,12.1c.94-10.44,2.47-20.94,2.47-20.94a41.85,41.85,0,0,0-2.34,5.65c1-8.65,2-15.37,2-15.37a77.16,77.16,0,0,0-5.36,16c.6-4.83,1.09-8.21,1.09-8.21S76.67,315.7,76.15,335c-.5,18.77,3.27,37.76,3.27,37.76s0-4.47,0-10.7c1.09,12.94,2.78,22.36,2.78,22.36s.08-8.68.23-19.61c.8,6,1.57,9.89,1.57,9.89s0-17.82.2-32a178.08,178.08,0,0,0,2.56,21.78s1.13-14.61.81-25.43C87.34,330,89.54,315.08,89.54,315.08Z"/><path class="cls-4" d="M121.76,263.32c0,5.12,6.47,9.27,14.44,9.27s14.44-4.15,14.44-9.27-6.46-9.27-14.44-9.27S121.76,258.2,121.76,263.32Z"/><path class="cls-8" d="M136.6,257.81a23.3,23.3,0,0,0-13.12,3.63c1.71-4.27,6.94-7.39,13.12-7.39s11.41,3.12,13.11,7.39A23.26,23.26,0,0,0,136.6,257.81Z"/><path class="cls-4" d="M126.86,283.78c0,5.12,6,9.27,13.34,9.27s13.34-4.15,13.34-9.27-6-9.27-13.34-9.27S126.86,278.66,126.86,283.78Z"/><path class="cls-4" d="M120,424.08c0,5.12,6,9.27,13.35,9.27s13.33-4.15,13.33-9.27-6-9.27-13.33-9.27S120,419,120,424.08Z"/><path class="cls-8" d="M141.33,279.09a35.11,35.11,0,0,0-9.21,1.22s3.09-5.8,9.21-5.8c12.32,0,15.63,19,15.63,19S152.08,279.09,141.33,279.09Z"/><path class="cls-4" d="M121.7,283.78a9.25,9.25,0,1,0,9.25-9.27A9.26,9.26,0,0,0,121.7,283.78Z"/><path class="cls-8" d="M131.73,279.09a17.58,17.58,0,0,0-6.38,1.22s2.15-5.8,6.38-5.8c8.53,0,10.83,19,10.83,19S139.19,279.09,131.73,279.09Z"/><path class="cls-4" d="M96.93,285.17c0,5.12,6.08,9.28,13.58,9.28s13.6-4.16,13.6-9.28-6.08-9.27-13.6-9.27S96.93,280.05,96.93,285.17Z"/><path class="cls-8" d="M148.48,265.7c-5.23-.65-10,.24-13.25,2.08,1.9-4.06,7.29-7.23,13.41-5.82C161,264.79,169,278.2,169,278.2S157.85,266.87,148.48,265.7Z"/><path class="cls-9" d="M147.17,417.61c3.18-7.1,8-21.23,8-21.23a145.52,145.52,0,0,1-4.59,20.81c-2.7,9.15-8.83,15.86-15,15.86a7,7,0,0,1-2.23-.37C138.7,431.31,142.93,427,147.17,417.61Z"/><path class="cls-4" d="M108.48,427c0,5.11,4.51,9.27,10.07,9.27s10.07-4.16,10.07-9.27-4.5-9.27-10.07-9.27S108.48,421.88,108.48,427Z"/><path class="cls-9" d="M129,420.53c2.4-7.09,6.05-21.22,6.05-21.22a186.67,186.67,0,0,1-3.47,20.81c-2,9.14-6.67,15.85-11.33,15.85a4,4,0,0,1-1.7-.37C122.6,434.23,125.79,430,129,420.53Z"/><path class="cls-9" d="M169,406.32c3.19-7.1,8-21.23,8-21.23a146.51,146.51,0,0,1-4.6,20.81c-2.71,9.14-9.32,16.86-15.49,16.86C159.24,421.27,164.77,415.75,169,406.32Z"/><path class="cls-9" d="M159.83,344.87c.89-13.4.07-36.23.07-36.23s4.35,13.82,3.13,35.05a254.89,254.89,0,0,1-6.09,40.51S158.76,360.8,159.83,344.87Z"/><path class="cls-9" d="M142.18,335.54c.61-8.3.09-22.45.09-22.45s2.87,8.54,2,21.7a149,149,0,0,1-4.1,25.13S141.45,345.41,142.18,335.54Z"/><path class="cls-9" d="M174.73,323.21a24.87,24.87,0,0,1,2.46,7.79c-.5-6.73-1.33-13.5-1.33-13.5a32.42,32.42,0,0,1,1.26,3.66c-.55-5.59-1.08-9.92-1.08-9.92a56.84,56.84,0,0,1,2.9,10.3c-.33-3.1-.59-5.29-.59-5.29s3.34,7.35,3.62,19.8a151.21,151.21,0,0,1-1.76,24.32s0-2.88,0-6.89c-.57,8.33-1.49,14.39-1.49,14.39s-.05-5.59-.13-12.62c-.43,3.85-.85,6.38-.85,6.38s0-11.49-.1-20.61a134.23,134.23,0,0,1-1.39,14s-.61-9.41-.44-16.38A135.75,135.75,0,0,0,174.73,323.21Z"/><path class="cls-10" d="M164.14,312.78A47.48,47.48,0,0,1,167,324.87c-.6-10.45-1.56-20.94-1.56-20.94a58,58,0,0,1,1.47,5.66c-.63-8.67-1.25-15.39-1.25-15.39a109.43,109.43,0,0,1,3.37,16c-.38-4.81-.69-8.2-.69-8.2s3.88,11.4,4.21,30.74a308.59,308.59,0,0,1-2.06,37.75s0-4.46,0-10.68c-.68,12.93-1.74,22.35-1.74,22.35s-.05-8.69-.16-19.61c-.5,6-1,9.89-1,9.89s0-17.82-.13-32c-.38,11.81-1.61,21.77-1.61,21.77s-.71-14.6-.51-25.41C165.52,327.69,164.14,312.78,164.14,312.78Z"/><path class="cls-10" d="M144.33,314.17s3,4.27,4.55,12.09c-.93-10.44-2.47-20.95-2.47-20.95a43.77,43.77,0,0,1,2.35,5.67c-1-8.67-2-15.39-2-15.39a76,76,0,0,1,5.37,16c-.6-4.81-1.09-8.21-1.09-8.21s6.17,11.41,6.68,30.74c.51,18.77-3.26,37.75-3.26,37.75s0-4.46,0-10.68c-1.08,12.93-2.78,22.35-2.78,22.35s-.08-8.68-.24-19.61c-.79,6-1.55,9.89-1.55,9.89s0-17.82-.2-32a175.77,175.77,0,0,1-2.56,21.78s-1.14-14.61-.82-25.43C146.53,329.08,144.33,314.17,144.33,314.17Z"/><path class="cls-10" d="M127.4,320.46a33.47,33.47,0,0,0-4.6,9.32c-.2-1.06-.41-2.07-.63-3.06.71-8.18,1.62-14.94,1.62-14.94a46,46,0,0,0-3,6.49c.89-9.28,1.87-16.53,1.87-16.53l-4.27,11.35-3.43-15.52s1,15.3.66,16a66.88,66.88,0,0,0-4.94-11.84s1,7.25,1.88,16.53a47.49,47.49,0,0,0-3-6.49s.9,6.76,1.63,14.94c-.24,1-.45,2-.64,3.06a33.31,33.31,0,0,0-4.61-9.32s2.18,16.09,1.18,25.5c-1.18,11.18-.53,26.68-.53,26.68a123.23,123.23,0,0,0,4-15c.2,1.36.42,2.69.65,4-.64,11.63-1.31,22.36-1.31,22.36s1.38-3.87,2.94-9.9c-.52,11.41-1,20.48-1,20.48s1.87-5.69,3.85-14.41A45.92,45.92,0,0,0,117,390.26l.59,6.12s-.51-14.34.07-16.24c2,8.72,3.85,14.41,3.85,14.41s-.46-9.07-1-20.48c1.57,6,3,9.9,3,9.9s-.68-10.73-1.31-22.36c.23-1.3.44-2.63.64-4a127.82,127.82,0,0,0,4,15s.66-15.5-.53-26.68C125.22,336.55,127.4,320.46,127.4,320.46Z"/><path class="cls-8" d="M116.65,277c-8.87.4-11,24.48-11,24.48s1.69-15.75,11-19.95c9.27,4.2,11,19.95,11,19.95S126.86,278.2,116.65,277Z"/><path class="cls-11" d="M45.29,249.12,30,246.38S15.54,224,10.92,195.92,95.55,171.23,88,202.65,45.29,249.12,45.29,249.12Z"/><path class="cls-11" d="M45.29,249.12,30,246.38S16.28,286.48,19.37,294s27-2.72,33-9S45.29,249.12,45.29,249.12Z"/><path class="cls-12" d="M45.29,249.12H31s-9.82,38.06-6.73,45.53,15-1.65,21-8S45.29,249.12,45.29,249.12Z"/><path class="cls-11" d="M42.78,248.82l-7.69,1.1S21.65,292.5,24.73,300s11.83-.71,17.81-7S42.78,248.82,42.78,248.82Z"/><path class="cls-4" d="M26.52,249.08a3.31,3.31,0,0,0,2.78,3.75l17,1.26a3.31,3.31,0,0,0,3.3-3.31h0A3.34,3.34,0,0,0,46.78,247l-17-1.25a3.34,3.34,0,0,0-3.3,3.32Z"/><path class="cls-11" d="M185.87,249.12l15.3-2.74s14.45-22.42,19.08-50.46-84.64-24.69-77.09,6.73S185.87,249.12,185.87,249.12Z"/><path class="cls-13" d="M185.87,249.12l15.3-2.74s13.71,40.1,10.63,47.57-27-2.72-33-9S185.87,249.12,185.87,249.12Z"/><path class="cls-12" d="M185.87,249.12h14.29s9.81,38.06,6.73,45.53-15-1.65-21-8S185.87,249.12,185.87,249.12Z"/><path class="cls-11" d="M188.37,248.82l7.69,1.1S209.51,292.5,206.43,300s-11.82-.71-17.81-7S188.37,248.82,188.37,248.82Z"/><path class="cls-3" d="M54.35,406.14c0,7.15-6.35,8.3-6.67,13.17C47,429.46,56,431.42,48.89,436.12s-18-12.89-19.33-22.45c-1.62-11.66,2.69-20.31,11.25-20.31S54.35,396.48,54.35,406.14Z"/><path class="cls-3" d="M46.3,321.71s-4.51,49.22-10.66,74.13L51,398.63l12.69-88.9Z"/><path d="M60.31,359l6.62-48.53s7.78-10.22,9.91-21.29c4.37-22.62-5.15-20.85-5.15-20.85-5.15.58-16.09,7.21-20.37,22.06-6.06,21-6.67,41.67-9.53,59.43C44.67,356.18,55.6,359.92,60.31,359Z"/><path class="cls-3" d="M178.09,406.14c0,7.15,6.35,8.3,6.67,13.17.65,10.15-8.35,12.11-1.2,16.81s18-12.89,19.32-22.45c1.62-11.66-2.69-20.31-11.25-20.31S178.09,396.48,178.09,406.14Z"/><path class="cls-3" d="M186.14,321.71s4.52,49.22,10.65,74.13l-15.32,2.79-12.69-88.9Z"/><path d="M172.14,359l-6.64-48.53s-7.76-10.22-9.91-21.29c-4.36-22.62,5.16-20.85,5.16-20.85,5.15.58,16.09,7.21,20.38,22.06,6,21,6.66,41.67,9.53,59.43C187.77,356.18,176.84,359.92,172.14,359Z"/><path class="cls-3" d="M135.25,263.47c-3.43,12.74-38,13.68-38.85-.07,3.69-6.78,0-29.82,0-29.82h38.85S128.14,258.15,135.25,263.47Z"/><path class="cls-14" d="M135.25,254.15V235.09H96.4v19.06s5.44,9,18.32,9A28.61,28.61,0,0,0,135.25,254.15Z"/><path class="cls-3" d="M211.07,177.13c0,44.47-52.34,80.52-96.44,80.52s-96.43-36-96.43-80.52,43.17-80.52,96.43-80.52S211.07,132.66,211.07,177.13Z"/><path class="cls-2" d="M87.4,177.4a13.93,13.93,0,1,1-13.92-13.92A13.93,13.93,0,0,1,87.4,177.4Z"/><path class="cls-15" d="M62.24,177.4a13.93,13.93,0,0,1,12.58-13.86c-.44,0-.89-.06-1.34-.06a13.93,13.93,0,1,0,0,27.85,11.9,11.9,0,0,0,1.34-.07A13.93,13.93,0,0,1,62.24,177.4Z"/><path class="cls-16" d="M72.19,179.51a6.28,6.28,0,1,0,6.28-6.29A6.27,6.27,0,0,0,72.19,179.51Z"/><path class="cls-17" d="M76.26,179.51a2.21,2.21,0,1,0,2.21-2.21A2.21,2.21,0,0,0,76.26,179.51Z"/><path class="cls-2" d="M77.26,177.41a1.71,1.71,0,1,0,1.7-1.72A1.7,1.7,0,0,0,77.26,177.41Z"/><path class="cls-2" d="M79.4,174.77a.9.9,0,0,0,.9.92.92.92,0,1,0-.9-.92Z"/><path class="cls-2" d="M140,177.4a13.93,13.93,0,1,0,13.93-13.92A13.93,13.93,0,0,0,140,177.4Z"/><path class="cls-15" d="M165.15,177.4a13.93,13.93,0,0,0-12.58-13.86c.45,0,.89-.06,1.35-.06a13.93,13.93,0,0,1,0,27.85,12.08,12.08,0,0,1-1.35-.07A13.93,13.93,0,0,0,165.15,177.4Z"/><path class="cls-16" d="M155.21,179.51a6.29,6.29,0,1,1-6.28-6.29A6.27,6.27,0,0,1,155.21,179.51Z"/><path class="cls-17" d="M151.14,179.51a2.22,2.22,0,1,1-2.21-2.21A2.21,2.21,0,0,1,151.14,179.51Z"/><path class="cls-2" d="M150.14,177.41a1.72,1.72,0,1,1-1.71-1.72A1.71,1.71,0,0,1,150.14,177.41Z"/><path class="cls-2" d="M148,174.77a.91.91,0,0,1-.91.92.92.92,0,1,1,.91-.92Z"/><path class="cls-3" d="M230.73,179.47c0,11.64-11.17,18.39-24.36,18.39s-10.18-35.8,1.07-42.68C215.86,150,230.73,158.42,230.73,179.47Z"/><path class="cls-14" d="M219.66,177.46a107.33,107.33,0,0,1-.38,12.31c3.54-3.67,5.84-8.63,5.85-12.31,0-11.4-8.9-16.3-14.65-14.33C215.15,164.53,219.66,169.35,219.66,177.46Z"/><path class="cls-3" d="M0,179.47c0,11.64,11.16,18.39,24.35,18.39s10.19-35.8-1.05-42.68C14.87,150,0,158.42,0,179.47Z"/><path class="cls-14" d="M11.08,177.46a105.08,105.08,0,0,0,.38,12.31c-3.55-3.67-5.85-8.63-5.85-12.31,0-11.4,8.9-16.3,14.65-14.33C15.59,164.53,11.08,169.35,11.08,177.46Z"/><path class="cls-14" d="M115.8,188.83c3,0,5.67,1.91,7.36,4.85-.48-6.83-3.59-12.11-7.36-12.11s-6.87,5.28-7.35,12.11C110.13,190.74,112.8,188.83,115.8,188.83Z"/><path class="cls-18" d="M178.3,200.06c0,3.89-8.58,7-19.15,7S140,204,140,200.06s8.58-7,19.16-7S178.3,196.18,178.3,200.06Z"/><path class="cls-14" d="M135.42,214.12s-9,19.46-19.59,19.46-18.71-19.46-18.71-19.46a38.87,38.87,0,0,1,19.15-5.62A38.82,38.82,0,0,1,135.42,214.12Z"/><path class="cls-18" d="M91.34,200.06c0,3.89-8.57,7-19.15,7S53,204,53,200.06s8.58-7,19.16-7S91.34,196.18,91.34,200.06Z"/><path class="cls-19" d="M136.52,212.06c0,9.5-9.28,17.2-20.72,17.2s-20.72-7.7-20.72-17.2Z"/><path class="cls-20" d="M102.49,225.25a23.38,23.38,0,0,0,13.31,4,23.08,23.08,0,0,0,14.27-4.73c.53-.41-9.51-5.91-13.8-2.28C111.9,218.62,101.76,224.74,102.49,225.25Z"/><path class="cls-2" d="M133.07,218.09c.92-.82,1.18-3.9,1.18-6H97.35c0,2.13-.09,5.41,1.19,6S132.14,218.9,133.07,218.09Z"/><path class="cls-14" d="M115.8,238.14a19.94,19.94,0,0,1-8.85-1.86c1.43,2.26,4.85,3.86,8.85,3.86s7.42-1.6,8.86-3.86A20,20,0,0,1,115.8,238.14Z"/><path class="cls-21" d="M84.75,153.49c-1.25-1.64-9.08-1.25-12.56-.57-10.93,2.09-14.08,8.65-14.08,8.65s6.31-4.45,13.24-5.09c7.67-.71,11.45,2.14,12.43,1.37S86,155.13,84.75,153.49Z"/><path class="cls-21" d="M143.24,153.49c1.25-1.64,9.08-1.25,12.57-.57,10.91,2.09,14.07,8.65,14.07,8.65s-6.32-4.45-13.24-5.09c-7.67-.71-11.45,2.14-12.43,1.37S142,155.13,143.24,153.49Z"/><path class="cls-11" d="M204.51,173.86s-16.17,6.59-36.67-9S134.27,119.31,93,119.31c3.1,27.71-66.86,50.33-66.86,50.33s-5.89-19.89-16.4-13.13C8.14,100.82,46,77.94,79.4,81.53c54.94-41.2,138.4,7.88,139.88,73.91C207.56,150.68,204.51,173.86,204.51,173.86Z"/><path class="cls-4" d="M204.65,249.08a3.31,3.31,0,0,1-2.78,3.75l-17,1.26a3.31,3.31,0,0,1-3.3-3.31h0a3.35,3.35,0,0,1,2.78-3.77l17-1.25a3.35,3.35,0,0,1,3.31,3.32Z"/><path class="cls-22" d="M81.5,375.55c.65-1.8,1.72-3.08,2.36-2.84l10,3.63c.65.24.65,1.89,0,3.7l-3.12,8.61a51.89,51.89,0,0,0,19.24,6.4v-7.17c0-1.91.57-3.47,1.26-3.47H121.9c.7,0,1.26,1.56,1.26,3.47v7a51.2,51.2,0,0,0,15.33-4.93l-3.7-7.29c-.85-1.72-1-3.36-.41-3.67l9.58-4.67c.63-.31,1.81.84,2.65,2.57l3.1,5.66c8.7-7.53,10.73-20.9,6.11-25.91-4.71-5.21-12.24-3.55-17.93.87a39.15,39.15,0,0,1-6.63,4.32c-.28,5-.8,11.47-1.67,12.73-1.47,2.1-8.5,4.71-9.81,2.61-.67-1.07-.66-6.51-.49-11.66a30.7,30.7,0,0,1-4.18.17c.17,5.11.16,10.44-.49,11.49-1.31,2.1-8.34-.51-9.81-2.61-.8-1.15-1.3-6.65-1.6-11.41a38.12,38.12,0,0,1-9.46-5.64c-5.69-4.42-13.22-6.08-17.93-.87-4.2,4.55-2.9,16,3.93,23.77Z"/><path class="cls-23" d="M103.21,363.11a38.12,38.12,0,0,1-9.46-5.64c-5.69-4.42-13.22-6.08-17.93-.87-2,2.19-2.76,6-2.23,10.24a9.62,9.62,0,0,1,2.23-5.22c4.71-5.21,12.24-3.55,17.93.87a38.15,38.15,0,0,0,9.86,5.81C103.45,366.64,103.32,364.83,103.21,363.11Z"/><path class="cls-23" d="M155.82,356.6c-4.71-5.21-12.24-3.55-17.93.87a39.15,39.15,0,0,1-6.63,4.32c-.09,1.67-.22,3.48-.36,5.21a38.25,38.25,0,0,0,7-4.51c5.69-4.42,13.22-6.08,17.93-.87a9.63,9.63,0,0,1,2.24,5.22C158.6,362.61,157.85,358.79,155.82,356.6Z"/><path class="cls-24" d="M147.42,378.31l2.29,4.2c8.7-7.53,10.73-20.9,6.11-25.91a9.51,9.51,0,0,0-3.95-2.67,7.91,7.91,0,0,1,.83.81C156.89,359.28,155.14,371.31,147.42,378.31Z"/><path class="cls-24" d="M110,390.14a48.09,48.09,0,0,1-17.59-6l-1.65,4.54a51.89,51.89,0,0,0,19.24,6.4Z"/><path class="cls-24" d="M136.32,385.65a47.4,47.4,0,0,1-13.16,4.26v4.93a51.2,51.2,0,0,0,15.33-4.93Z"/><path class="cls-24" d="M81.5,375.55l.06-.14c-5.4-7.05-6.27-16.71-2.62-20.67a10.4,10.4,0,0,1,.82-.81,9.55,9.55,0,0,0-3.94,2.67c-4.2,4.55-2.9,16,3.93,23.77Z"/><path class="cls-22" d="M123,347.15l-3.5-4.52a1.36,1.36,0,0,0-1-.67h-.43a1.39,1.39,0,0,0-.68.28,1.61,1.61,0,0,0-.35.39l-3.5,4.52a1.46,1.46,0,0,0,.26,2,1.43,1.43,0,0,0,2-.26h4.94a1.44,1.44,0,1,0,2.27-1.77Z"/><path class="cls-24" d="M123,347.15a1.55,1.55,0,0,1-.24.27,1.45,1.45,0,0,1-2-.26H115.8a1.44,1.44,0,0,1-2,.26,1.66,1.66,0,0,1-.26-.27h0a1.46,1.46,0,0,0,.26,2,1.43,1.43,0,0,0,2-.26h4.94a1.44,1.44,0,1,0,2.27-1.77Z"/><path class="cls-22" d="M107.53,335l-8.37-8.22a3.16,3.16,0,0,0-.84-.73,3.89,3.89,0,0,0-1.62-.51l-.16,0a1.51,1.51,0,0,0-.37,0,1.38,1.38,0,0,0-.35,0l-.16,0A3.85,3.85,0,0,0,94,326a3,3,0,0,0-.83.73L84.82,335a2.22,2.22,0,0,0,.6,3.68,4.22,4.22,0,0,0,4.86-.46l5.89-5.78,5.89,5.78a4.22,4.22,0,0,0,4.86.46A2.23,2.23,0,0,0,107.53,335Z"/><path class="cls-24" d="M107.53,335a3,3,0,0,1-.61.47,4.25,4.25,0,0,1-4.86-.46l-5.89-5.78L90.28,335a4.25,4.25,0,0,1-4.86.46,3.2,3.2,0,0,1-.6-.47h0a2.22,2.22,0,0,0,.6,3.68,4.22,4.22,0,0,0,4.86-.46l5.89-5.78,5.89,5.78a4.22,4.22,0,0,0,4.86.46,2.23,2.23,0,0,0,.61-3.68Z"/><path class="cls-22" d="M152.3,335l-8.38-8.22a3,3,0,0,0-.84-.73,3.85,3.85,0,0,0-1.63-.51l-.14,0a1.61,1.61,0,0,0-.38,0,1.36,1.36,0,0,0-.35,0l-.16,0a3.85,3.85,0,0,0-1.63.51,3,3,0,0,0-.83.73L129.58,335a2.23,2.23,0,0,0,.61,3.68,4.21,4.21,0,0,0,4.85-.46l5.89-5.78,5.9,5.78a4.22,4.22,0,0,0,4.86.46A2.24,2.24,0,0,0,152.3,335Z"/><path class="cls-24" d="M152.29,335a3.2,3.2,0,0,1-.6.47,4.25,4.25,0,0,1-4.86-.46l-5.9-5.78L135,335a4.24,4.24,0,0,1-4.85.46,3.28,3.28,0,0,1-.61-.47h0a2.23,2.23,0,0,0,.61,3.68,4.21,4.21,0,0,0,4.85-.46l5.89-5.78,5.9,5.78a4.22,4.22,0,0,0,4.86.46,2.24,2.24,0,0,0,.61-3.68Z"/><path class="cls-4" d="M217.8,132.18c0,3.34-46.27,6-103.35,6s-103.36-2.71-103.36-6,46.27-6,103.36-6S217.8,128.85,217.8,132.18Z"/><path class="cls-4" d="M217.8,132.18c-3-34.14-22.26-56.68-46-63.84C151,62.07,106,65.68,106,70.29c0,2-1.84,30.27-2,61.89Z"/><path class="cls-4" d="M149.5,63.15c0,6.24-15.53,11.28-34.69,11.28s-34.69-5-34.69-11.28,15.53-11.27,34.69-11.27S149.5,56.92,149.5,63.15Z"/><path class="cls-8" d="M114.81,55.55c11.46,0,21.73,1.38,28.67,3.55-3.75-4.18-15.17-7.22-28.67-7.22s-24.93,3-28.68,7.22C93.08,56.93,103.34,55.55,114.81,55.55Z"/><path class="cls-4" d="M106.52,68.41c0,4.61-9.84,8.35-22,8.35s-22-3.74-22-8.35,9.85-8.36,22-8.36S106.52,63.79,106.52,68.41Z"/><path class="cls-4" d="M124.6,132.18c-.11-31.62-1.94-59.92-1.94-61.89,0-4.61-45-8.22-65.81-2-23.76,7.16-43,29.7-46,63.84Z"/><path class="cls-8" d="M83.93,63.44c8,0,15.14,1.27,20,3.27-2.61-3.85-10.57-6.66-20-6.66s-17.38,2.81-20,6.66C68.78,64.71,75.93,63.44,83.93,63.44Z"/><path class="cls-4" d="M98.76,86.84c0,4.61-9.1,8.34-20.32,8.34s-20.32-3.73-20.32-8.34,9.09-8.35,20.32-8.35S98.76,82.22,98.76,86.84Z"/><path class="cls-8" d="M76.73,82.61a88,88,0,0,1,14,1.1s-4.72-5.22-14-5.22C58,78.49,52.9,95.59,52.9,95.59A28.32,28.32,0,0,1,76.73,82.61Z"/><path class="cls-4" d="M106.61,86.84c0,4.61-6.3,8.34-14.08,8.34s-14.09-3.73-14.09-8.34,6.3-8.35,14.09-8.35S106.61,82.22,106.61,86.84Z"/><path class="cls-8" d="M91.34,82.61a43,43,0,0,1,9.72,1.1,12.07,12.07,0,0,0-9.72-5.22c-13,0-16.51,17.1-16.51,17.1S80,82.61,91.34,82.61Z"/><path class="cls-4" d="M144.37,88.09c0,4.61-9.27,8.34-20.71,8.34S103,92.7,103,88.09s9.26-8.35,20.71-8.35S144.37,83.48,144.37,88.09Z"/><path class="cls-8" d="M65.82,70.55C73.8,70,81,70.76,86,72.42c-2.9-3.65-11.1-6.51-20.43-5.25A58.74,58.74,0,0,0,34.63,81.81S51.56,71.6,65.82,70.55Z"/><path class="cls-9" d="M43.38,132.18H48c-.25-11,.47-23,.47-23S43.77,118,43.38,132.18Z"/><path class="cls-9" d="M75.29,132.18a153,153,0,0,1,0-18.94s-4.19,7.43-3.12,18.94Z"/><path class="cls-9" d="M14.93,132.18h9.45a95,95,0,0,1,1.46-9.83,17.15,17.15,0,0,0-3.75,7c.77-6.06,2-12.15,2-12.15a22.12,22.12,0,0,0-1.93,3.29c.84-5,1.64-8.93,1.64-8.93a37.1,37.1,0,0,0-4.41,9.27c.49-2.79.9-4.75.9-4.75S15.77,122,14.93,132.18Z"/><path class="cls-10" d="M41,132.18a174.13,174.13,0,0,1,1.84-18.39,29.68,29.68,0,0,0-4.36,10.88c.89-9.4,2.36-18.86,2.36-18.86a37.52,37.52,0,0,0-2.24,5.1c1-7.8,1.92-13.86,1.92-13.86a66,66,0,0,0-5.14,14.4c.56-4.34,1-7.39,1-7.39S30.48,114.33,30,131.75c0,.15,0,.29,0,.43Z"/><path class="cls-10" d="M52.68,132.18H70.14A118.14,118.14,0,0,1,73,115a26.33,26.33,0,0,0-7,10.9c1.43-9.41,3.77-18.87,3.77-18.87a34.6,34.6,0,0,0-3.57,5.1c1.55-7.81,3-13.85,3-13.85a54.48,54.48,0,0,0-8.17,14.39c.92-4.33,1.67-7.39,1.67-7.39S53.71,115.27,52.68,132.18Z"/><path class="cls-4" d="M122.1,68.41c0,4.61,9.84,8.35,22,8.35s22-3.74,22-8.35-9.85-8.36-22-8.36S122.1,63.79,122.1,68.41Z"/><path class="cls-8" d="M144.7,63.44c-8,0-15.14,1.27-20,3.27,2.62-3.85,10.57-6.66,20-6.66s17.37,2.81,20,6.66C159.85,64.71,152.69,63.44,144.7,63.44Z"/><path class="cls-4" d="M129.86,86.84c0,4.61,9.11,8.34,20.32,8.34s20.33-3.73,20.33-8.34-9.11-8.35-20.33-8.35S129.86,82.22,129.86,86.84Z"/><path class="cls-8" d="M151.89,82.61a88,88,0,0,0-14,1.1s4.72-5.22,14-5.22c18.78,0,23.83,17.1,23.83,17.1A28.32,28.32,0,0,0,151.89,82.61Z"/><path class="cls-4" d="M122,86.84c0,4.61,6.31,8.34,14.09,8.34s14.08-3.73,14.08-8.34-6.31-8.35-14.08-8.35S122,82.22,122,86.84Z"/><path class="cls-8" d="M137.28,82.61a42.86,42.86,0,0,0-9.71,1.1,12,12,0,0,1,9.71-5.22c13,0,16.51,17.1,16.51,17.1S148.65,82.61,137.28,82.61Z"/><path class="cls-4" d="M84.25,88.09c0,4.61,9.28,8.34,20.72,8.34s20.71-3.73,20.71-8.34S116.4,79.74,105,79.74,84.25,83.48,84.25,88.09Z"/><path class="cls-8" d="M162.79,70.55c-8-.58-15.19.21-20.17,1.87,2.89-3.65,11.1-6.51,20.42-5.25a58.69,58.69,0,0,1,31,14.64S177.07,71.6,162.79,70.55Z"/><path class="cls-9" d="M180.67,132.18h4.58c-.38-14.15-5-23-5-23S180.92,121.16,180.67,132.18Z"/><path class="cls-9" d="M153.33,132.18h3.14c1.08-11.51-3.11-18.94-3.11-18.94A153.9,153.9,0,0,1,153.33,132.18Z"/><path class="cls-9" d="M204.25,132.18h9.45c-.85-10.15-5.4-16.09-5.4-16.09s.41,2,.9,4.75a36.46,36.46,0,0,0-4.42-9.27s.82,3.9,1.66,8.93a22.6,22.6,0,0,0-1.94-3.29s1.27,6.09,2,12.15a17.29,17.29,0,0,0-3.75-7A92,92,0,0,1,204.25,132.18Z"/><path class="cls-10" d="M188.52,132.18h11c0-.41,0-.84,0-1.26-.49-17.42-6.41-27.69-6.41-27.69s.48,3,1.05,7.39A66,66,0,0,0,189,96.22s.94,6,1.93,13.85a38.33,38.33,0,0,0-2.25-5.09s1.47,9.45,2.36,18.86A30,30,0,0,0,186.66,113,170.84,170.84,0,0,1,188.52,132.18Z"/><path class="cls-10" d="M176.87,132.18h0c-.79-17.41-10.19-27.69-10.19-27.69s.75,3,1.67,7.39a54.32,54.32,0,0,0-8.18-14.39s1.51,6,3.05,13.85a34.4,34.4,0,0,0-3.56-5.1s2.33,9.45,3.75,18.87a26.23,26.23,0,0,0-6.92-10.9,115.59,115.59,0,0,1,2.89,18Z"/><path class="cls-10" d="M128.76,132.18a104.47,104.47,0,0,1,1.92-12.3,29.41,29.41,0,0,0-7,8.38c-.29-.95-.61-1.86-1-2.74,1.09-7.38,2.47-13.46,2.47-13.46a36.79,36.79,0,0,0-4.59,5.84c1.35-8.36,2.82-14.88,2.82-14.88l-6.5,10.22-5.21-14s1.51,13.79,1,14.43A52.2,52.2,0,0,0,105.19,103s1.49,6.52,2.84,14.88a38.62,38.62,0,0,0-4.58-5.84s1.37,6.08,2.45,13.46c-.33.88-.65,1.79-1,2.74a29.59,29.59,0,0,0-7-8.38,107,107,0,0,1,1.92,12.3Z"/><path class="cls-8" d="M114.31,80.7c-13.52.38-16.68,22.06-16.68,22.06s2.57-14.19,16.68-18c14.12,3.78,16.68,18,16.68,18S129.86,81.81,114.31,80.7Z"/><path class="cls-25" d="M119,24.79c4.37-.86,9.07-8,9.77-12.08.65-3.77-3-8.34-7.2-6.56-4.42,1.89.1,5.73,3,6,6,.51,12.68-5.44,11.81-11.67-.08-.56-.93-.61-1.17-.15-1.52,2.8-2,5.88-4.46,8.1a8.58,8.58,0,0,1-3.82,2q-5.23,1.38-2.39-1.14,1.08-2.53,2.58.21a4.67,4.67,0,0,1,.34,3.34c-.79,5.14-5.44,8.13-8.7,11.52a.29.29,0,0,0,.27.48Z"/><path class="cls-25" d="M104.32,59.23s-2.71-15.82,2.54-24.34C120.88,12.13,142.48,22,146,24.38s6.7,10.27,2.95,12.73-19.54-14.89-29.4,4.08c-3.57,6.87,2.29,21.94,2.29,21.94l2.93-4.63s-1.23,2.39,2.93,4.5a28,28,0,0,0,7.69,2.63s-2.69,2.13-1.85,4.8,4.57,4.9,4.57,4.9-4.13-.43-6.85,1.78-4.18,6.75-4.18,6.75-2.38-3.5-8.61-4.3-14.91,2.34-14.91,2.34,2.46-4-2.43-7.39-13-4.26-13-4.26a32.88,32.88,0,0,0,4.34-4.77c2-2.71-1-8.63-1-8.63s1.51,6.57,6,5.45,4.16-5.93,4.16-5.93Z"/><path class="cls-26" d="M146.26,25.36s-4.78-2.59-3.47,4.05c.05.33-6.16-2.71-15.87.26,13.11-.88,16.39,1.79,16.56,2.22,1.29,3.28,3.64,4.47,5.08,4,1.62-.53.51-4.4.51-4.4s-1.32,3.45-3.4.38c-.86-1.28-2.43-4.18-1.73-5.37A2.81,2.81,0,0,1,146.26,25.36Z"/><path class="cls-27" d="M148.2,28.66c.45,1.43.11,2.76-.77,3s-2-.74-2.42-2.17-.11-2.76.76-3S147.74,27.23,148.2,28.66Z"/><path class="cls-28" d="M111.75,64.56c-.34,5.16-4.11,11-7.15,15.22.62-.78,1.63-1.45,2.35-2.18s1.4-2.06,2.22-2.45c-.31,1-.8,3.34-1.82,3.94,1.86-1.15,5.84-1.24,8-1a30,30,0,0,1,7.52,2.15c-.6-.94-1.77-1.63-2.35-2.61,2.58.38,4.24,2.74,6.33,3.92-.4-4.54-6.58-8.48-9.35-11.92-2.05-2.54-3-5.46-4.37-8.29Z"/><path class="cls-28" d="M135.09,74.23c-2.57-.64-5.56-.68-8.06-1.68-2.67-1.06-5.32-3.22-7.53-4.35a28.63,28.63,0,0,0,7-.35c1.85-.32,4.14-.35,5.86-.85-.8.46-1.69.57-2.47,1.07a4,4,0,0,0,2.21.13,6.09,6.09,0,0,0-1.42.66,19.37,19.37,0,0,1,3.61,4.44,15.89,15.89,0,0,1-2.12-.77c0,.63,1.29,1.2,1.88,1.52Z"/><path class="cls-28" d="M95.06,63.45a8.2,8.2,0,0,0,4.73-.16c1.77-.48,2.08-1.56,2.77-3.06,1.07.88,1,2.22,2.57,3a11.23,11.23,0,0,0,4.67.66,10.7,10.7,0,0,1-4.62.81,47.81,47.81,0,0,0-5.48.88c-2.87.38-6.46,1.54-8.53,3.61a17.36,17.36,0,0,1,3.31-4.21Z"/><path class="cls-28" d="M93,69.48c1.07-.42,2-1.3,3.26-1.6a48.61,48.61,0,0,1,5.12-.77,25.87,25.87,0,0,0,7.7-1.78c-.81,2-1.68,3.89-2.57,5.81-.79,1.7-1.08,3.8-1.92,5.38a25.22,25.22,0,0,0-.3-4.08c-.25.7-1.06,1.13-1.32,1.73.61-1.25,1-1.76-.54-1.82-1,0-2.09.38-3.13.42-2.7.09-4.11-2-6.52-2.69a2.42,2.42,0,0,1,.12-.35Z"/><path class="cls-29" d="M112.86,53.66c.08-1.7.68-3.32.84-5C114.89,36.18,123.89,26,139,27.35c1.63.15,1.55.43,2.3-.57s.35-1.77,1.5-2.63c-5.64-2.77-14.6-3.15-20.55-1.28a22.43,22.43,0,0,0-14.35,13.66,39.23,39.23,0,0,0-2.26,11.09c-.18,2.9-2.41,7.78.66,10.15-.41-2.68.59-5.65.8-8.34.14,1-.06,2,.49,2.83-.51-.79,3-6.85,3.63-8C113.13,47,112.41,50.65,112.86,53.66Z"/><path class="cls-25" d="M142.05,47.22c-3.78-1.72-7,2.81-4.74,6.12s6.21-.26,4-3.06c-2.7-3.39-10.29-1.73-13.33.11-4,2.42-8.16,9.11-6.21,13.85.25.61,1.3,1,1.64.21,1.77-4.15,1.37-8.06,5.44-11.13a10.62,10.62,0,0,1,7-2.11c.84,0,2.19.59,2.91.41,1,.43,1.2-.2.56-1.92a4.21,4.21,0,0,1,2.75-2c.2-.07.29-.39.06-.49Z"/><path class="cls-25" d="M89.22,31.2c.4,2.36,1,5,.15,7.33a5.55,5.55,0,0,1-2.5,3.18c-1.65.69-8-2.36-3.41-4,3.82-1.35,8.52,6,9.79,8.11,2.64,4.45,7.22,16.1,13.72,15.67a.88.88,0,0,0,.44-1.63c-4.24-2.86-6.63-6.26-9.31-10.59-2.37-3.83-4.25-7.87-8-10.63-2.31-1.71-8.21-4.77-9.69-.56-1.7,4.86,3.25,7.79,7.14,5.55s6.5-9.9,2.22-12.87c-.31-.22-.63.14-.58.44Z"/><path class="cls-25" d="M122,63.86c-.94-4.78-2-11.06-.07-15.72a6.42,6.42,0,0,1,2.7-3.43c1.73-1,7.82-1.47,6.71,2.45q-3.31,4.11-6-1.85a6.51,6.51,0,0,1,1-3.5c.62-1.14,1.65-2.05,2.35-3.16a.81.81,0,0,0-1.1-1.1c-4.09,2.32-5.5,10.18-.57,12.33,3.59,1.57,7.75-1.86,5.31-5.54-2.9-4.37-9.71-1.5-11.64,2.22-2.71,5.22-1.17,12.21.21,17.59.17.7,1.2.4,1.06-.29Z"/><path class="cls-25" d="M104.45,57.39A74.42,74.42,0,0,1,99.15,45a23.29,23.29,0,0,1-1.07-8.12,16.25,16.25,0,0,1,1.77-6.32c2.23-2,3.42-2,3.56-.14.74,1.49-.09,2.19-2.51,2.09a6.53,6.53,0,0,1-1.31-2.38,16.22,16.22,0,0,1-.73-3c-.25-1.38-.16-3-.76-4.28-.18-.39-.69-.21-.82.11-1,2.6.58,8.9,2.83,10.6,2.87,2.17,5.73-.79,4.65-3.9-1.78-5.17-5.68-1.12-6.88,2-3.58,9.17,1.59,18.36,5.83,26.28.26.49,1,.05.74-.44Z"/><path class="cls-25" d="M139.92,33.6c2.57,2.43,3.65,6,6.47,8.21a17,17,0,0,0,8,3.3c3.39.38,9-2.3,6.44-6.58-2.27-3.81-7.08-1.13-8.08,2.12-1.8,5.87,3.09,11.22,8.5,12.71.43.12.82-.47.45-.78-2.56-2.17-6.07-3.74-7.23-7.15-.68-2,.38-8.68,4-6.33.27,2.87-.68,4.22-2.84,4a9.31,9.31,0,0,1-2.11-.27A14.35,14.35,0,0,1,146.25,39c-2.08-2.11-3.14-4.57-5.89-5.91-.35-.17-.75.27-.44.56Z"/></g></g></svg>