<svg xmlns="http://www.w3.org/2000/svg" viewBox="0 0 460.55 524.55"><defs><style>.cls-1{isolation:isolate;}.cls-2{fill:#e5251d;}.cls-3,.cls-8{fill:#cbaeab;}.cls-14,.cls-17,.cls-21,.cls-26,.cls-29,.cls-3,.cls-34,.cls-36,.cls-39,.cls-41,.cls-43,.cls-5,.cls-6,.cls-7{mix-blend-mode:multiply;}.cls-4{fill:#96552d;}.cls-5{fill:#ddc9c3;}.cls-6{fill:#d7c4ba;}.cls-13,.cls-9{fill:#fff;}.cls-9{opacity:0.2;}.cls-30,.cls-31,.cls-35,.cls-9{mix-blend-mode:soft-light;}.cls-10{fill:#2f0d01;}.cls-11{fill:#45170d;}.cls-12{fill:#ee714f;}.cls-14,.cls-19,.cls-37{fill:none;}.cls-14{stroke:#c8926a;stroke-width:2.81px;}.cls-14,.cls-19{stroke-linecap:round;stroke-linejoin:round;}.cls-15{fill:#ed8366;}.cls-15,.cls-35{opacity:0.5;}.cls-16{fill:#30130c;}.cls-17{fill:#af9190;}.cls-18{fill:#d6111f;}.cls-19{stroke:#f7daa2;stroke-width:2.88px;}.cls-20{fill:#e74310;}.cls-21{fill:#ead9d6;}.cls-22{fill:#c31b0d;}.cls-23{fill:#5d1401;}.cls-24{fill:#2f0a01;}.cls-25{fill:#ccc;}.cls-26{fill:#c6c6c6;}.cls-27{fill:#fdfdfd;}.cls-28{fill:#95c11f;}.cls-29{fill:#c7cec9;}.cls-30,.cls-35{fill:#a88775;}.cls-31{fill:#fce1d6;}.cls-32{fill:#641140;}.cls-33{fill:#f07e2d;}.cls-34{fill:#d2b8af;}.cls-36{fill:#e1c4bb;}.cls-38{fill:#352e35;}.cls-39{fill:#d3c4c1;}.cls-40{fill:#f39200;}.cls-41{fill:#d3d5d8;}.cls-42{fill:#aa7cb5;}.cls-43{fill:#cecdd1;}.cls-44{fill:#45babd;}.cls-45{fill:#223a8f;}.cls-46{fill:#9db41f;}</style></defs><title>player</title><g class="cls-1"><g id="Capa_1" data-name="Capa 1"><path class="cls-2" d="M167.63,317.68s-17.06,59.45-42.91,70.44C89,403.29,58,381.9,35.5,381.9c-13.69,0-26.24,16.26-26.24,16.26s10.5-11.84,24.75-10,60.23,31,94.06,16.79c37.05-15.6,51.15-60.73,51.15-60.73Z"/><path class="cls-3" d="M167.63,317.68s-11.49,40-29.92,60.47c-.42,1.08-.81,2.18-1.15,3.33,1.37.64,2.72,1.57,2.8,3.2.11,2.79-3.54,6.36-2.32,8.87a1.53,1.53,0,0,1-.54,2.05,65.34,65.34,0,0,1-47.13,9.16c-11.08-2.16-22.51-7.12-33.95-9,20.48,8.25,49.43,19,72.65,9.19,37.05-15.6,51.15-60.73,51.15-60.73Z"/><polygon class="cls-2" points="24.56 372.52 19.68 388.12 37.74 391.88 0 402.75 24.56 372.52"/><path class="cls-4" d="M360.17,162.24c3.34-7,.58-13.6-7-17.2s-14.69-1.07-17.77,5.4c-3.83,8-4.66,20.89,3.39,24.74C346.49,178.84,356.34,170.26,360.17,162.24Z"/><path class="cls-5" d="M336.15,151c.3,2.22,3.36,5.6,5.13,7.08,3.66,3.05,10.67,3.49,14.78.77a12.17,12.17,0,0,0,4.95-7.56,15.08,15.08,0,0,0-7-6.27c-7.69-3.68-14.67-1.07-17.77,5.4l-.15.36A1.13,1.13,0,0,1,336.15,151Z"/><path class="cls-2" d="M349.63,174.55c-2.84-13-17.73-11.41-17.73-11.41s-27.65,39-48.36,43.08c-10.79,2.12-39.54,48.48-30.13,54.65C296.18,261.2,330.81,219.56,349.63,174.55Z"/><path class="cls-6" d="M327.94,204.39c-4.76,5.6-9.63,11.14-14.81,16.37-20.22,20.35-31.26,15.73-31.26,15.73a28.75,28.75,0,0,0,.66,17.95c24.57-11.18,45.07-35.72,59.49-63.59C336.45,194.07,332,199.66,327.94,204.39Z"/><path class="cls-6" d="M265.23,227.37c.13,0,.26,0,.41,0,8.07,1.2,14.34-9.29,21.59-11.92,10.11-3.69,17.76-11.56,23.5-20.61,4.83-7.58,9.5-10.42,11-18.76-9.93,11.75-25.41,27.65-38.22,30.16-4.66.92-12.65,10.07-19.49,20.68C264.45,227,264.83,227.22,265.23,227.37Z"/><path class="cls-2" d="M187.35,503.62l9.28-150.1H142.29l27.23,143.42c-.52.05-6-.75-3.68,5,.37.94-3.1,1.26-3,2.25a6.62,6.62,0,0,0,1.21,3.33,34.2,34.2,0,0,1-13.25,2.25c-9.33,0-22.18,14.79-12,14.79h45.58c7,0,4.15-15.77,3-20.93Z"/><g class="cls-7"><path class="cls-8" d="M194.32,390.91a32.78,32.78,0,0,0-6.79,7.19c-3.32,5.31-3.41,10.79-3.2,16.88.24,6.7,5.75,16.25-.26,21.62-1.28,1.14-3.35,1.69-4.42,3-2.16,2.71,2.44,5.33,3.88,6.68,2.25,2.06,1.64,6.26,1.39,8.85-.57,6-2.26,11.62-2,17.7.3,6.8-.84,14.11-.14,20.83.42,4,1.76,7.1-1.09,10.38,0,0-4.5,1.87-3.09,2.95a9.22,9.22,0,0,1,2.61,2.56c3.46,5.9-6.86,12.32-11,13.82-1.21.43-2.42.81-3.63,1.15h17.77c7,0,4.15-15.77,3-20.93Z"/></g><path class="cls-2" d="M272,509.76a38.32,38.32,0,0,1-10.63-1.33c1.3-4-1.5-2.32-4.4-5.24-1.2-1.19,2-5.5-2.95-6.5l27-143.17H226.13l9.28,150.1h0c-1.12,5.16-4,20.93,3,20.93H284C294.16,524.55,281.3,509.76,272,509.76Z"/><g class="cls-7"><path class="cls-8" d="M245,502.62c-1.93-.65-4.1-1.87-2.84-4a15.56,15.56,0,0,1,3.35-3.48c2.33-2.08-.25-5.2-1.22-7.55-.73-1.75,1.09-5.22.95-6.9-.37-4.11-1.08-8.18-1.54-12.28-.91-8.11,1.71-17.17-1.41-24.8a1.5,1.5,0,0,1,1-1.85c1.06-.13,6.88-.34,4.35-2.56a46.65,46.65,0,0,1-3.94-3.48c-2.78-3.06-3.71-6.48-4.26-10.53-.72-5.29-6.6-43.35-11.82-46.71l7.74,125.14c-1.12,5.16-4,20.93,3,20.93h22C248.13,521.24,238.46,515.15,245,502.62Z"/></g><path class="cls-2" d="M306.55,189.41c-32.86,42.26-57.78,41.57-99,41.58S172,242,138.71,200.84C45.83,167.51,98.84,22.68,209.94,22.64,321.83,22.61,353.71,127.44,306.55,189.41Z"/><path class="cls-4" d="M62.05,289.58c-3.36,7-.62,13.59,6.94,17.22s14.68,1.1,17.78-5.36c3.85-8,4.71-20.88-3.32-24.75C75.77,273,65.89,281.56,62.05,289.58Z"/><path class="cls-2" d="M72.63,277.28c2.8,13.06,17.68,11.46,17.68,11.46s27.77-38.94,48.48-43c10.81-2.08,39.68-48.36,30.29-54.56C126.29,190.79,91.56,232.34,72.63,277.28Z"/><path class="cls-6" d="M143.2,215.46c-7.11,1.72-52.18,53.37-61.39,72.21a22.09,22.09,0,0,0,8.5,1.07s27.77-38.94,48.48-43c3.64-.7,9.32-6.41,14.9-13.92C150.42,233.85,147.39,214.46,143.2,215.46Z"/><path class="cls-2" d="M206.89,390.71c-135.74,0-89.36-148.55-53.1-189.95,18.83-21.52,40.68-24.51,63.58-24.51,16.52,0,31.76,1.13,45.3,20.6C301.57,252.8,338.7,390.71,206.89,390.71Z"/><path class="cls-6" d="M135.18,348.25c-2.41-7.21-5.66-14.95-6.92-22.48a21,21,0,0,1,3.16-15.27c.6-1,6.61-10.91,5.14-11.16a6.88,6.88,0,0,1-3.58-1.25,1.5,1.5,0,0,1-.38-1.47c.82-3.28,3.14-8.59,5.83-10.73,1.27-1,7.9-5.12,3.48-7.34-.83-.42-2.27-.91-2.77-1.8-1.57-2.82.59-6.79.9-9.7.49-4.75,6.89-5.17,1.58-10.79-4.11-4.34,7.75-15,5.89-20.87-2.06-6.45-3-12.48-6.3-16.55C116.94,261,98.07,338.47,143.35,373.12,141,364.73,137.93,356.55,135.18,348.25Z"/><path class="cls-6" d="M285.54,241.28c-5.89,7.5,7,28.17,7.72,36.29,2.44,29.25-9.45,56.95-11.86,85.68C307.13,332.75,301.16,282.43,285.54,241.28Z"/><path class="cls-6" d="M185.66,218.55a122.3,122.3,0,0,0,43.62,3.35c14.18-1.57,25.92-8.07,33.16-20.62a1.29,1.29,0,0,1,.09-.16c-13.31-18.28-28.25-19.4-44.41-19.4-22.05,0-43.12,2.82-61.46,22.23C165.77,209.86,175.16,215.7,185.66,218.55Z"/><path class="cls-3" d="M209.93,380.69c-21.87,0-39-3.86-52.19-10.51,11.14,12.64,27.94,20.53,52.29,20.53,24.6,0,41.63-7.93,52.91-20.73C249.53,376.76,232.13,380.69,209.93,380.69Z"/><path class="cls-4" d="M306.55,148.09c0,39-37.74,63-97.18,63-60.39,0-97.17-27-97.17-63,0-44.71,33.61-94.71,96.83-94.71C269.41,53.38,306.55,103.38,306.55,148.09Z"/><path class="cls-4" d="M322.07,126.52a14.63,14.63,0,1,1-14.61-14.23A14.42,14.42,0,0,1,322.07,126.52Z"/><path class="cls-4" d="M123.78,129.52a14.63,14.63,0,1,1-14.63-14.23A14.44,14.44,0,0,1,123.78,129.52Z"/><path class="cls-9" d="M104.31,118.1c-1.76,1-5.83,5.83-6.91,7.57-2.85,4.6-.72,8.94,3.56,11.17,3.71,1.93,7.77,1.71,10.75,4.84s3,6.92,3.73,11c2.2,12,7.42,25.93,17.51,33,21.24,14.86,47.75,21.52,56.48,22.49,25.5,2.87,41.93,1.74,75-9.23,7-2.32,25.56-13.27,29.48-19.43,10.79-16.91,9.46-30,10-36.05.21-2.39-.75-5.21,1.75-6.7,1.88-1.13,6.64,1,8.64.39,6.52-2,6.06-11.43,3.92-16.93-.84-2.17-5.4-5.16-8.48-3.81-2.36,1-3.06,3.26-3.89,5.57-1.67,4.54-3.64,6.83-7.47,10.29-1.46,1.31-4.72,1.52-5-1.12-.34-3.72-1.64-7.78-2.68-11.38-.79-2.77.12-5.88-2.48-7.43s-7.36-4-10.38-4c-4.52,0-7.86-3.72-12.35-3.72-10.64,0-9.69-7.84-20.14-9.5-4.06-.65-13.6-7.76-17.6-8.74-2.32-.58-8.24-6.5-10-2.51C215.8,88.34,200,92.07,195,92.61s-9.29,5.28-14.12,6.5c-3.66.93-10.6,1.53-14.17,2.75S154.62,106,151,106.61c-6.51,1-12.59,10.84-19.17,11.49-6.42.63-6.16,15.64-9.74,18.12-2,1.43-4.08-2.95-5.74-6.7C112.2,120.17,106.72,116.68,104.31,118.1Z"/><path class="cls-9" d="M140.93,181.28c19.27,13,43.33,18.83,51.25,19.69,23.14,2.49,38,1.52,68-8.09,6.3-2,23.19-11.62,26.76-17,9.77-14.8-.24-40-.45-42.33a55.36,55.36,0,0,0-2.44-9.95c-.72-2.42-1.57-5.75-3.92-7.09s-6-4.21-8.75-4.21H259.24c-9.65,0-16-4.47-25.49-5.93-3.68-.56-7.12-4.14-10.75-5-2.1-.51-7.52-3.83-9.74-3.51-4.38.63-13.51,6.27-18,6.75s-10,3-14.36,4.06c-3.32.81-7.63,3.61-10.87,4.68a49.08,49.08,0,0,1-9,1.94c-5.91.91-10.77,2.24-16.75,2.81s-8.51,6.87-10.46,11.42c-2.47,5.74,5.39,13,.08,17.48C131.91,148.66,131.78,175.11,140.93,181.28Z"/><path class="cls-10" d="M253.63,168.29c9.24,14.24-16.84,33.82-43.35,33.82-26.94,0-49.13-19.1-43.36-33.82,8.37-21.3,23.62-6.43,43.36-6.43C230.46,161.86,240.38,147.9,253.63,168.29Z"/><path class="cls-11" d="M235,162.76c-1.8-1.47-3.66-2.89-5.56-4.26-5.43,1.38-11.56,3.36-19.18,3.36a57.62,57.62,0,0,1-13.56-1.9c-12.8,7.39-19.2,13.16-22.49,28.92,8.1,7.54,21.36,13.23,36.05,13.23,15.48,0,30.79-6.67,39-15.06C250.4,177.32,242.17,168.62,235,162.76Z"/><path class="cls-12" d="M243.31,192a60.48,60.48,0,0,1-33,10.08,56.07,56.07,0,0,1-30.5-8.88c-10.44-6.88,10.11-13.77,29.84-13.77C229.8,179.46,253.36,185.16,243.31,192Z"/><path class="cls-13" d="M245.88,167.17s-3.25.56-8.33,1.2c-.71.09-2.45-3.35-2.45-3.35s-1.43,3.82-2.3,3.9a205.4,205.4,0,0,1-21.42,1.26c-10.09,0-21.25-1.68-28.73-3.06-.41-.07-1-3.62-1-3.62s-1.66,3.12-2.31,3c-3.34-.66-5.38-1.15-5.38-1.15s-2.45-5.44.46-7c8.74-4.81,21,3.56,35.83,3.56,15.14,0,24.5-7.85,33.81-3.18C247.21,160.24,245.88,167.17,245.88,167.17Z"/><path class="cls-14" d="M216.51,146s1.74,4.92-5.75,4.92S205,144,205,144"/><path class="cls-15" d="M271.41,142.79c0,4.21-7.31,7.62-16.31,7.62s-16.29-3.41-16.29-7.62,7.31-7.62,16.29-7.62S271.41,138.58,271.41,142.79Z"/><path class="cls-15" d="M180.9,146.59c0,4.21-7.3,7.62-16.3,7.62s-16.29-3.41-16.29-7.62S155.6,139,164.6,139,180.9,142.38,180.9,146.59Z"/><path class="cls-16" d="M251.87,124.63a6.53,6.53,0,1,1-6.52-6.53A6.52,6.52,0,0,1,251.87,124.63Z"/><path class="cls-16" d="M179.22,124.63a6.53,6.53,0,1,1-6.53-6.53A6.53,6.53,0,0,1,179.22,124.63Z"/><path class="cls-13" d="M178.18,122.67a2.5,2.5,0,1,1-2.5-2.5A2.5,2.5,0,0,1,178.18,122.67Z"/><path class="cls-13" d="M250.34,122.13a2.5,2.5,0,1,1-2.49-2.5A2.5,2.5,0,0,1,250.34,122.13Z"/><path class="cls-16" d="M216.45,48.07c-53.93,0-96.65,23.3-107.3,67.22,4.48,3.48,10.43,9.83,10.17,15.56a2,2,0,0,0,4,0c0-2.29-1.48-15.42,3.48-14.55a2,2,0,0,0,2.49-1.41,26.61,26.61,0,0,1,1.52-5.78,4.77,4.77,0,0,1,.53,0c7.75,1.48,10.75-2.26,12.36-4.65,4,1.14,6.57-1.11,8-4.1,3.15,2.08,7.07-.23,9.79-3.78,4.14,4,10,2.77,13-1.9,5.27,3.51,11.36.62,13.72-5.61,4,1.8,8.11,1.16,10.48-1.78,5.36,4.57,13.84.09,17.14-7.21,3.8,1.31,7.66,0,10.78-2.76,1.82,5.1,5.58,8.89,10.94,8,2.51,4.43,7.22,7,11.77,6a12.11,12.11,0,0,0,14.58,7.15c3.9,7.42,15.31,8.9,23.62,5.89a19.93,19.93,0,0,0,3.86,6.74c4.77,5,2.28,9.28,2.47,16.29.08,3.24,5,4.1,5.77.79A22.26,22.26,0,0,1,310.73,112C305.94,86.05,270.37,48.07,216.45,48.07Z"/><path class="cls-2" d="M274.48,44.88C315.16,41.38,294.86,0,294.86,0s56.84,47,8.48,68.6C297.22,71,266.08,43.38,274.48,44.88Z"/><path class="cls-3" d="M276.6,44.63c6.85,2.47,15.64,3.61,22,0,8.85-5,8.85-15.26,4.71-23.51a62,62,0,0,0-4-6.63C301.3,26.45,299.16,41.78,276.6,44.63Z"/><path class="cls-2" d="M152.69,44.88C112,41.38,134,0,134,0s-56.85,47-8.5,68.6C131.66,71,161.1,43.38,152.69,44.88Z"/><path class="cls-3" d="M131.89,48.18c6.47,1.45,15.34,1.26,20.72-3.3C112.07,41.31,134,0,134,0s-.91.75-2.39,2.1c-4.49,5.77-7.9,12.15-9,19.36C121.48,29.82,121.39,45.85,131.89,48.18Z"/><path class="cls-16" d="M259,107.57c-1.62-2.43-5-3.46-7.69-4.28-3-.91-5.66-1.05-8.14.95a1.57,1.57,0,0,0,.33,2.48c2,1.2,4.1,1.35,6.29,2.09s4.46,2.75,7,2.61C258.56,111.32,260.09,109.27,259,107.57Z"/><path class="cls-16" d="M157.05,107.57c1.61-2.43,5-3.46,7.68-4.28,3-.91,5.67-1.05,8.15.95a1.59,1.59,0,0,1-.32,2.48c-2,1.2-4.11,1.35-6.31,2.09s-4.45,2.75-7,2.61C157.44,111.32,155.9,109.27,157.05,107.57Z"/><path class="cls-17" d="M216.19,241.11a10,10,0,1,1-10-10A10,10,0,0,1,216.19,241.11Z"/><ellipse class="cls-18" cx="203.57" cy="239.8" rx="10.03" ry="10.02" transform="translate(-36.61 442.91) rotate(-89.89)"/><path class="cls-17" d="M202,239.43a2.94,2.94,0,1,1-2.94-2.94A2.93,2.93,0,0,1,202,239.43Z"/><path class="cls-17" d="M210.34,239.43a2.94,2.94,0,1,1-2.94-2.94A2.93,2.93,0,0,1,210.34,239.43Z"/><path class="cls-17" d="M216.19,273.46a10,10,0,1,1-10-10A10,10,0,0,1,216.19,273.46Z"/><path class="cls-18" d="M213.59,272.15a10,10,0,1,1-10-10A10,10,0,0,1,213.59,272.15Z"/><path class="cls-17" d="M202,271.77a2.94,2.94,0,1,1-2.94-2.94A2.93,2.93,0,0,1,202,271.77Z"/><path class="cls-17" d="M210.34,271.77a2.94,2.94,0,1,1-2.94-2.94A2.93,2.93,0,0,1,210.34,271.77Z"/><path class="cls-19" d="M332.55,227.67s-.73-1.37-8.06-15-7-40,22.08-55.67c27.81-15,51.31-1.42,58.64,12.2,3.39,6.33,8.28,15.39,8.28,15.39"/><path class="cls-20" d="M331,226.8c-1.25,20.68,3.08,42.87,11.57,58.65,15.28,28.4,46.51,25.34,78,8.41s48.33-46.63,35.91-69.71c-8.5-15.77-24.63-31.61-42.6-42Z"/><path class="cls-21" d="M341.1,221.36c1.1,19.43,6.86,40.85,15.35,56.62,15.29,28.4,40.31,28.69,64.09,15.88s34.45-39.16,22-62.24c-8.49-15.77-23.18-32.38-38.81-44Z"/><path class="cls-21" d="M361.44,210.41a377.75,377.75,0,0,0,23,52.52c15.28,28.4,27.78,35.42,36.12,30.93s6.5-24.11-5.94-47.19a375.5,375.5,0,0,0-31.18-48.09Z"/><path class="cls-22" d="M413.85,182.2c3.18,5.93-12.76,20.7-35.65,33s-44,17.5-47.19,11.58,12.77-20.71,35.65-33S410.67,176.28,413.85,182.2Z"/><path class="cls-23" d="M407.75,184.31c2.61,4.87-11.3,17.44-31.07,28.08s-37.93,15.34-40.54,10.48,11.28-17.44,31.06-28.09S405.13,179.44,407.75,184.31Z"/><path class="cls-24" d="M362.9,258.58a137.75,137.75,0,0,1,1.2-14s6.37,3,12.36,6.71l3.85-2.08c-5.47-5.85-20.74-13-20.74-13s-2.4,16.69-.52,24.48Z"/><path class="cls-24" d="M409.25,233.62c.22-7,1.22-14,1.22-14a135.33,135.33,0,0,1,12.35,6.71l3.86-2.08c-5.48-5.85-20.73-13-20.73-13s-2.41,16.69-.53,24.48Z"/><path class="cls-24" d="M413.42,242.12l5.53,7.77-11.87,6.39-3.44-8.9-17.15,9.23,5.54,7.77-11.87,6.38-3.44-8.89L364,268.74c7.65,14.24,26.1,19.51,43,13.09l-5.83-8.2,11.86-6.4,3.65,9.42c14.83-10.53,20.69-28.95,13-43.25Z"/><path class="cls-25" d="M384.72,203.66c-.06.53-2,.33-1.91-.2l2.77-26.55a1,1,0,0,1,1.05-.85h0a1,1,0,0,1,.85,1.05Z"/><path class="cls-26" d="M385.58,176.91l-2.77,26.55c0,.25.38.41.82.48C383.63,203.94,383.31,201.87,385.58,176.91Z"/><path class="cls-27" d="M384.66,201.57a.26.26,0,0,1-.3.24h0a.26.26,0,0,1-.23-.3l2.44-23.46a.26.26,0,0,1,.3-.24h0a.27.27,0,0,1,.24.3Z"/><path class="cls-28" d="M397.15,174.32A10.28,10.28,0,1,1,388,163,10.28,10.28,0,0,1,397.15,174.32Z"/><path class="cls-29" d="M387.2,180.33A10.27,10.27,0,0,1,378.05,169a7.52,7.52,0,0,1,.24-1.34,10.27,10.27,0,1,0,18.62,8A10.27,10.27,0,0,1,387.2,180.33Z"/><path class="cls-29" d="M386.93,182.05c-5.95-.62-10.37-5.46-10.05-10.92a9.36,9.36,0,0,0-.17,1.06,10.27,10.27,0,0,0,17.56,8.25A11.73,11.73,0,0,1,386.93,182.05Z"/><path class="cls-30" d="M396,171.71c-.43,4.11-4.5,7.07-9.1,6.59s-8-4.21-7.53-8.34,4.49-7.07,9.09-6.58S396.4,167.58,396,171.71Z"/><path class="cls-30" d="M394.23,170.56c-.3,3-3.47,5.07-7,4.7s-6.23-3.08-5.93-6.06,3.46-5.07,7.05-4.7S394.55,167.59,394.23,170.56Z"/><path class="cls-31" d="M394.78,171.78a1.77,1.77,0,0,1-1.64-1.25,6.71,6.71,0,0,0-7.43-4.15,1.78,1.78,0,0,1-1.93-.71h0c-.3-.62.36-1.55,1.48-1.75a9.2,9.2,0,0,1,10.2,5.69c.43,1.07,0,2.11-.68,2.17Z"/><path class="cls-25" d="M371.33,212.87c.25.47-1.44,1.38-1.7.91L357,190.29a1,1,0,0,1,.39-1.31h0a.93.93,0,0,1,1.28.39Z"/><path class="cls-26" d="M357,190.29l12.64,23.49c.13.22.56.14.95-.06C370.58,213.72,369.16,212.19,357,190.29Z"/><path class="cls-27" d="M370.11,211.18a.27.27,0,0,1-.11.36h0a.27.27,0,0,1-.37-.11l-11.19-20.77a.28.28,0,0,1,.12-.37h0a.27.27,0,0,1,.37.12Z"/><path class="cls-32" d="M365.1,181.63a10.28,10.28,0,1,1-13.92-4.18A10.28,10.28,0,0,1,365.1,181.63Z"/><path class="cls-29" d="M360.26,192.19A10.28,10.28,0,0,1,346.34,188a12.84,12.84,0,0,1-.57-1.26,10.27,10.27,0,1,0,19.89-3.88A10.29,10.29,0,0,1,360.26,192.19Z"/><path class="cls-29" d="M361,193.77c-5.29,2.83-11.66,1.32-14.47-3.37.14.32.28.65.45,1a10.27,10.27,0,0,0,19.16-3.06A11.69,11.69,0,0,1,361,193.77Z"/><path class="cls-30" d="M362.65,180.12c2,3.65.26,8.38-3.81,10.58s-9,1-10.92-2.64-.26-8.39,3.81-10.57S360.68,176.48,362.65,180.12Z"/><path class="cls-30" d="M360.57,180.15c1.42,2.63,0,6.15-3.19,7.86s-6.88,1-8.3-1.67,0-6.15,3.18-7.86S359.15,177.53,360.57,180.15Z"/><path class="cls-31" d="M361.71,180.88a1.79,1.79,0,0,1-2.06-.14,6.73,6.73,0,0,0-8.48.76,1.78,1.78,0,0,1-2,.49h0c-.6-.34-.56-1.47.25-2.28a9.24,9.24,0,0,1,11.64-1c.94.64,1.16,1.74.65,2.2Z"/><path class="cls-33" d="M407.89,180.64c.7.73,1,1.62.75,2s-4.51,4.24-5.21,3.5,2.36-5.85,2.66-6.19S407.18,179.89,407.89,180.64Z"/><path class="cls-34" d="M404.49,184.87a.15.15,0,0,1-.19-.12c-.31-.78.7-1.48.95-2a7.87,7.87,0,0,0,.62-2.46c-.76,1.2-3.06,5.22-2.44,5.87.32.34,1.38-.28,2.45-1.11A2.85,2.85,0,0,0,404.49,184.87Z"/><path class="cls-35" d="M407.51,180.94c-.64-.67-1-.79-1.35-.59a5,5,0,0,1-.25,1.45,5.51,5.51,0,0,1-.64,1.56c-.15.27-.72.73-.7,1.15.55-.06,2.66-2.35,3.85-2.35A3.9,3.9,0,0,0,407.51,180.94Z"/><path class="cls-33" d="M410.36,188.9c.19-1,0-1.93-.45-2.07s-6.12-1.07-6.3-.06,5.2,3.58,5.63,3.72S410.18,189.91,410.36,188.9Z"/><path class="cls-34" d="M405.19,187.23a.17.17,0,0,0-.09.21c.17.82,1.4.85,1.93,1.18a7.83,7.83,0,0,1,1.85,1.71c-1.3-.59-5.42-2.68-5.27-3.56.09-.46,1.32-.52,2.68-.42A2.94,2.94,0,0,1,405.19,187.23Z"/><path class="cls-35" d="M409.87,188.86c-.16.9-.39,1.2-.79,1.23a5.81,5.81,0,0,0-1-1.08,5.35,5.35,0,0,0-1.38-.94c-.28-.15-1-.22-1.23-.58.5-.25,3.52.5,4.51-.15A3.71,3.71,0,0,1,409.87,188.86Z"/><path class="cls-33" d="M410.07,184.36c.37,1.26.34,2.39-.08,2.51s-6,.77-6.42-.49,4.63-3.94,5.05-4.07S409.68,183.1,410.07,184.36Z"/><path class="cls-36" d="M405.15,186.56a.18.18,0,0,1,.05-.29c.12-.06.25-.1.38-.15s.74-.44.42-.45-.53,0-.79,0a.19.19,0,0,1-.1-.33c.26-.19.62-.27.84-.51a1.19,1.19,0,0,0-.49-.09c-.18,0-.22-.31-.06-.36a4.33,4.33,0,0,0,2-1.48c-1.59.89-4.11,2.53-3.84,3.45.38,1.26,6,.62,6.42.49S405.9,187.32,405.15,186.56Z"/><path class="cls-35" d="M410,186.5c-.63.35-.93,0-2,0-.42,0-2.13.57-2.31-.07.48-.28.87-.62.58-1-.11-.16-.83.13-.56-.08.67-.55.17-.83.17-.83a7.7,7.7,0,0,0,1-.73,6.21,6.21,0,0,1,1.52-1.2.58.58,0,0,1,.66.43c.07.29-.89.46-1,.68a7.69,7.69,0,0,1,1.2-.28,1.5,1.5,0,0,1,.09.52c-.58.45-1.31.81-1.85,1.28.65-.07,1.23-.66,1.91-.73,0,0,0,.11.07.15s.06,0,.12,0a1.4,1.4,0,0,1-.33.39,1.17,1.17,0,0,0,.52-.07c0,.06.18.66.21.7Z"/><path class="cls-33" d="M383.74,188.17c-.19,1,0,1.93.45,2.07s6.11,1.07,6.29.07-5.2-3.58-5.63-3.72S383.91,187.16,383.74,188.17Z"/><path class="cls-34" d="M388.9,189.84c.09,0,.12-.1.1-.21-.17-.82-1.4-.84-1.93-1.17a7.71,7.71,0,0,1-1.86-1.72c1.31.59,5.44,2.67,5.27,3.57-.09.46-1.3.5-2.67.43A2.85,2.85,0,0,1,388.9,189.84Z"/><path class="cls-35" d="M384.23,188.22c.16-.9.39-1.22.79-1.24a5.52,5.52,0,0,0,1,1.09,5.58,5.58,0,0,0,1.39.94c.28.15,1,.21,1.22.58-.49.25-3.51-.5-4.5.15A3.54,3.54,0,0,1,384.23,188.22Z"/><path class="cls-33" d="M386.21,196.44c-.71-.74-1-1.63-.74-2s4.5-4.24,5.2-3.51-2.37,5.86-2.66,6.21S386.91,197.19,386.21,196.44Z"/><path class="cls-34" d="M389.61,192.2a.17.17,0,0,1,.19.13c.31.78-.71,1.47-1,2a7.74,7.74,0,0,0-.61,2.45c.76-1.2,3.07-5.22,2.44-5.88-.31-.32-1.38.3-2.46,1.12A2.8,2.8,0,0,0,389.61,192.2Z"/><path class="cls-35" d="M386.59,196.13c.63.67,1,.79,1.35.59a5.08,5.08,0,0,1,.26-1.45,5.14,5.14,0,0,1,.62-1.55c.17-.28.73-.73.72-1.16-.56.07-2.67,2.35-3.85,2.35A3.85,3.85,0,0,0,386.59,196.13Z"/><path class="cls-33" d="M384,192.48c.38,1.26,1,2.18,1.45,2.05s5.47-2.67,5.09-3.94-6-.75-6.45-.62S383.59,191.22,384,192.48Z"/><path class="cls-36" d="M389.28,191.62a.18.18,0,0,0-.21-.22l-.39.1s-.87,0-.6-.16.47-.26.67-.4a.18.18,0,0,0-.09-.33,6.51,6.51,0,0,1-1,0,1.21,1.21,0,0,1,.36-.35c.15-.1,0-.38-.14-.32a4.37,4.37,0,0,1-2.49-.15c1.82-.12,4.83-.13,5.1.77.38,1.27-4.67,3.82-5.09,3.94S389.06,192.66,389.28,191.62Z"/><path class="cls-35" d="M385.16,194.24c.73-.05.82-.47,1.71-1.06.33-.23,2.07-.7,1.88-1.34-.55,0-1.08,0-1.05-.52,0-.19.76-.35.43-.38-.86-.08-.61-.59-.61-.59a7.68,7.68,0,0,1-1.23-.06,6.22,6.22,0,0,0-1.93-.17.59.59,0,0,0-.32.74c.1.27,1-.11,1.21,0a6.15,6.15,0,0,0-1.15.43,2.14,2.14,0,0,0,.2.47c.74.07,1.55,0,2.26.06-.57.31-1.4.11-2,.44,0,0,0,.12,0,.16s-.06,0-.07.08a1.24,1.24,0,0,0,.48.16,1.17,1.17,0,0,1-.46.23c0,.06.19.64.2.69Z"/><path class="cls-33" d="M404.36,186.07c1,3.3-1.55,7-5.68,8.2s-8.24-.44-9.23-3.74,1.55-7,5.66-8.19S403.37,182.78,404.36,186.07Z"/><path class="cls-37" d="M396.62,188.24a15.62,15.62,0,0,1-1.19,6.42,9.41,9.41,0,0,0,3.25-.39,8.68,8.68,0,0,0,1.12-.42A8.49,8.49,0,0,0,396.62,188.24Z"/><path class="cls-37" d="M392.3,183.73a7.08,7.08,0,0,0-3,4.63,15.08,15.08,0,0,0,7.33-.12A15.83,15.83,0,0,1,392.3,183.73Z"/><path class="cls-37" d="M396.62,188.24a27.09,27.09,0,0,1-7.11,2.46,5.61,5.61,0,0,0,3.14,3.29A11.42,11.42,0,0,0,396.62,188.24Z"/><path class="cls-37" d="M396.62,188.24a17.55,17.55,0,0,1,5.79,3.9,6.86,6.86,0,0,0,2-3.52A14.61,14.61,0,0,0,396.62,188.24Z"/><path class="cls-37" d="M396.62,188.24a26.66,26.66,0,0,1,7.72-2.24,5.41,5.41,0,0,0-2.34-2.93A13,13,0,0,0,396.62,188.24Z"/><path class="cls-37" d="M396.62,188.24a17.42,17.42,0,0,1,2.7-6.17,9.11,9.11,0,0,0-4.21.27l-.17.06A8.2,8.2,0,0,0,396.62,188.24Z"/><path class="cls-38" d="M394.94,182.4a9.62,9.62,0,0,0-2.64,1.33,15.83,15.83,0,0,0,4.32,4.51A8.2,8.2,0,0,1,394.94,182.4Z"/><path class="cls-38" d="M396.62,188.24a13,13,0,0,1,5.38-5.17,7.37,7.37,0,0,0-2.68-1A17.42,17.42,0,0,0,396.62,188.24Z"/><path class="cls-38" d="M396.62,188.24a14.61,14.61,0,0,1,7.83.38,5.13,5.13,0,0,0-.09-2.55.19.19,0,0,1,0-.07A26.66,26.66,0,0,0,396.62,188.24Z"/><path class="cls-38" d="M399.8,193.85a9,9,0,0,0,2.61-1.71,17.55,17.55,0,0,0-5.79-3.9A8.49,8.49,0,0,1,399.8,193.85Z"/><path class="cls-38" d="M392.65,194a7.78,7.78,0,0,0,2.78.67,15.62,15.62,0,0,0,1.19-6.42A11.42,11.42,0,0,1,392.65,194Z"/><path class="cls-38" d="M396.62,188.24a15.08,15.08,0,0,1-7.33.12,5,5,0,0,0,.16,2.17.85.85,0,0,0,.06.17A27.09,27.09,0,0,0,396.62,188.24Z"/><path class="cls-39" d="M398.86,192.15c-4.12,1.23-8.26-.44-9.25-3.74a5,5,0,0,1-.16-.81,5.13,5.13,0,0,0,0,2.93c1,3.3,5.12,5,9.23,3.74,3.79-1.13,6.23-4.32,5.85-7.39A8.18,8.18,0,0,1,398.86,192.15Z"/><path class="cls-39" d="M399.1,193.18c-4.34,1.31-8.66-.16-9.8-3.29a6,6,0,0,0,.15.64c1,3.3,5.12,5,9.23,3.74a8.52,8.52,0,0,0,5.17-4A10.28,10.28,0,0,1,399.1,193.18Z"/><path class="cls-30" d="M402.88,185c.72,2.4-1.42,5.16-4.76,6.16s-6.65-.13-7.37-2.53,1.41-5.17,4.76-6.17S402.16,182.54,402.88,185Z"/><path class="cls-30" d="M401.38,184.79c.52,1.74-1.17,3.77-3.79,4.55s-5.16,0-5.67-1.72,1.17-3.77,3.79-4.55S400.87,183.05,401.38,184.79Z"/><path class="cls-31" d="M402.06,185.32a1.39,1.39,0,0,1-1.45-.25,5.67,5.67,0,0,0-6.27-.25,1.56,1.56,0,0,1-1.53.14h0c-.36-.27-.13-1,.61-1.38,2.84-1.62,6.47-1.48,8.59.35.56.46.51,1.17.05,1.39Z"/><path class="cls-33" d="M370.23,189.42c1,.31,1.71.92,1.63,1.37S370,196.7,369,196.4s-.79-6.26-.71-6.71S369.25,189.13,370.23,189.42Z"/><path class="cls-34" d="M369.35,194.79c-.07.06-.15,0-.24,0-.65-.53-.11-1.63-.16-2.26a7.68,7.68,0,0,0-.67-2.44c-.08,1.43-.12,6,.74,6.32.46.14,1.07-.93,1.6-2.17A2.76,2.76,0,0,0,369.35,194.79Z"/><path class="cls-35" d="M370.05,189.88c-.89-.27-1.26-.2-1.47.15a7.29,7.29,0,0,1,.71,3.05c0,.32-.28,1-.06,1.35.45-.32,1.17-3.35,2.21-3.93A3.66,3.66,0,0,0,370.05,189.88Z"/><path class="cls-33" d="M376.44,195.42c-.33-1-1-1.67-1.41-1.57s-5.85,2.05-5.51,3,6.27.56,6.72.46S376.78,196.39,376.44,195.42Z"/><path class="cls-34" d="M371.11,196.49a.18.18,0,0,0,0,.24c.54.62,1.62.05,2.26.08a7.85,7.85,0,0,1,2.45.57c-1.42.13-6,.34-6.33-.5-.15-.46.89-1.11,2.1-1.69A2.74,2.74,0,0,1,371.11,196.49Z"/><path class="cls-35" d="M376,195.62c.3.87.24,1.25-.09,1.47a5.52,5.52,0,0,0-1.41-.45,5.91,5.91,0,0,0-1.67-.15c-.32,0-1,.31-1.36.11.33-.47,3.31-1.29,3.86-2.35A3.57,3.57,0,0,1,376,195.62Z"/><path class="cls-33" d="M374,191.61c.95.91,1.47,1.91,1.17,2.22s-4.9,3.63-5.84,2.72,2.11-5.72,2.4-6S373,190.7,374,191.61Z"/><path class="cls-36" d="M370.75,195.93a.17.17,0,0,1-.1-.27,2.66,2.66,0,0,1,.26-.31s.43-.76.14-.61-.44.3-.67.41a.19.19,0,0,1-.26-.23,4.89,4.89,0,0,0,.49-.86,1.28,1.28,0,0,0-.47.15c-.16.09-.35-.14-.23-.26a4.6,4.6,0,0,0,1-2.29c-1,1.55-2.35,4.23-1.66,4.89.94.91,5.53-2.4,5.84-2.72S371.77,196.23,370.75,195.93Z"/><path class="cls-35" d="M375,193.48c-.37.62-.79.5-1.73,1-.37.2-1.57,1.54-2.06,1.07.3-.48.46-1,0-1.17-.17-.08-.65.51-.54.2.34-.8-.23-.8-.23-.8a7.9,7.9,0,0,0,.51-1.13,6.3,6.3,0,0,1,.74-1.79.58.58,0,0,1,.8.05c.19.22-.56.84-.55,1.08a5,5,0,0,1,.91-.82,1.71,1.71,0,0,1,.32.39c-.27.7-.74,1.37-1,2,.56-.37.76-1.18,1.32-1.57,0,0,.1.07.13.1s0-.07.12,0a1.16,1.16,0,0,1-.09.49,1,1,0,0,0,.41-.3c.06,0,.48.47.54.5Z"/><path class="cls-33" d="M352.87,207.83c.34,1,1,1.68,1.41,1.58s5.86-2,5.51-3-6.28-.57-6.72-.48S352.53,206.87,352.87,207.83Z"/><path class="cls-34" d="M358.2,206.76a.17.17,0,0,0,0-.23c-.56-.63-1.63-.05-2.26-.08a7.54,7.54,0,0,1-2.47-.59c1.43-.13,6.05-.32,6.34.53.16.44-.88,1.1-2.11,1.68A2.69,2.69,0,0,1,358.2,206.76Z"/><path class="cls-35" d="M353.32,207.65c-.3-.88-.24-1.26.09-1.48a5.94,5.94,0,0,0,1.41.45,5.87,5.87,0,0,0,1.67.14c.32,0,1-.3,1.35-.1-.3.47-3.31,1.28-3.85,2.34A3.7,3.7,0,0,1,353.32,207.65Z"/><path class="cls-33" d="M359.09,213.83c-1-.29-1.72-.91-1.63-1.36s1.85-5.91,2.82-5.61.8,6.26.72,6.71S360.05,214.13,359.09,213.83Z"/><path class="cls-34" d="M360,208.47a.18.18,0,0,1,.24,0c.64.53.1,1.63.16,2.25a7.38,7.38,0,0,0,.68,2.44c.06-1.42.1-6-.76-6.31-.45-.14-1.06.93-1.6,2.18A2.92,2.92,0,0,0,360,208.47Z"/><path class="cls-35" d="M359.27,213.38c.87.27,1.25.2,1.46-.14a6.1,6.1,0,0,1-.5-1.39,5.7,5.7,0,0,1-.2-1.67c0-.32.27-1,.05-1.36-.46.33-1.17,3.35-2.2,3.94A3.93,3.93,0,0,0,359.27,213.38Z"/><path class="cls-33" d="M355.19,211.48c.94.91,1.95,1.39,2.26,1.08s3.45-5,2.5-5.93-5.62,2.31-5.94,2.63S354.24,210.56,355.19,211.48Z"/><path class="cls-36" d="M359.4,208.12a.19.19,0,0,0-.29-.09c-.12.09-.2.18-.3.27s-.74.46-.59.17.27-.45.38-.69-.1-.31-.24-.24a7.31,7.31,0,0,1-.84.52,1,1,0,0,1,.13-.49c.08-.16-.16-.33-.28-.2a4.41,4.41,0,0,1-2.25,1.09c1.53-1,4.15-2.48,4.83-1.83.95.92-2.2,5.62-2.5,5.93S359.71,209.14,359.4,208.12Z"/><path class="cls-35" d="M357.09,212.42c.61-.39.48-.8,1-1.75.19-.37,1.49-1.63,1-2.09-.46.31-1,.48-1.17,0-.08-.17.5-.67.19-.53-.8.35-.82-.22-.82-.22a8.31,8.31,0,0,1-1.1.55,6.58,6.58,0,0,0-1.78.8.6.6,0,0,0,.09.8c.23.19.81-.58,1.06-.59a5.79,5.79,0,0,0-.79.94,3,3,0,0,0,.4.32c.69-.31,1.34-.79,2-1.06-.37.55-1.17.78-1.53,1.36,0,.05.07.09.1.13s-.07,0,0,.12a1.13,1.13,0,0,0,.48-.11.89.89,0,0,1-.28.42c0,.05.49.47.52.52Z"/><path class="cls-33" d="M370.26,195.69a4.71,4.71,0,0,1,.12,6.66l-4.87,5.05a4.94,4.94,0,0,1-1.74,1.15h0a4.74,4.74,0,0,1-2.21.26,4.62,4.62,0,0,1-2.71-1.29,2.13,2.13,0,0,0-.22-.21,4.79,4.79,0,0,1-.79-5.18,5.22,5.22,0,0,1,.88-1.28l4.87-5a4.75,4.75,0,0,1,3.41-1.43A4.67,4.67,0,0,1,370.26,195.69Z"/><path class="cls-38" d="M360,199.51c2.58,2.71,2.46,6.47,1.53,9.3a4.62,4.62,0,0,1-2.71-1.29,2.13,2.13,0,0,0-.22-.21,9,9,0,0,0-.79-5.18,5.22,5.22,0,0,1,.88-1.28Z"/><path class="cls-38" d="M367.85,205l-2.34,2.42a4.94,4.94,0,0,1-1.74,1.15c.72-2.12,1.92-7.38-2.29-10.55l1.86-1.93A8.21,8.21,0,0,1,367.85,205Z"/><path class="cls-38" d="M370.26,195.69a4.71,4.71,0,0,1,.12,6.66l-.66.68c.49-2.51.49-6.21-2.72-8.66A4.67,4.67,0,0,1,370.26,195.69Z"/><path class="cls-39" d="M369.16,200.23l-5.81,6a6.12,6.12,0,0,1-3.7,1.88,4.7,4.7,0,0,0,5.86-.73l4.87-5.05a4.71,4.71,0,0,0,.53-5.88A6.23,6.23,0,0,1,369.16,200.23Z"/><path class="cls-30" d="M368.35,195.63a2.74,2.74,0,0,1,.33,3.83l-6.13,6.34a2.72,2.72,0,0,1-3.83-.2h0a2.74,2.74,0,0,1-.34-3.82l6.13-6.34a2.74,2.74,0,0,1,3.84.19Z"/><path class="cls-30" d="M367,196.42a1.91,1.91,0,0,1-.07,2.69l-4.83,5a1.9,1.9,0,0,1-2.68.16h0a1.88,1.88,0,0,1,.07-2.68l4.83-5a1.9,1.9,0,0,1,2.68-.17Z"/><path class="cls-30" d="M365.66,197.13c.35.35.18,1.1-.39,1.68l-3.57,3.71c-.56.59-1.32.78-1.67.44h0c-.36-.35-.2-1.1.38-1.68l3.57-3.72c.57-.58,1.31-.78,1.68-.43Z"/><path class="cls-40" d="M369.32,203c.44.91.49,1.86.1,2.11s-5.6,2.66-6,1.73,4.06-4.83,4.45-5.08S368.88,202.1,369.32,203Z"/><path class="cls-41" d="M364.78,206a.17.17,0,0,1-.15-.18c-.05-.83,1.13-1.18,1.55-1.64a8.06,8.06,0,0,0,1.34-2.15c-1.11.91-4.53,4-4.14,4.83.2.42,1.4.15,2.69-.3A2.86,2.86,0,0,0,364.78,206Z"/><path class="cls-35" d="M368.86,203.2c-.4-.84-.71-1.06-1.1-1a5.35,5.35,0,0,1-.69,1.32A5.72,5.72,0,0,1,366,204.8c-.24.22-.92.48-1.06.88.57.11,3.26-1.41,4.4-1A3.59,3.59,0,0,0,368.86,203.2Z"/><path class="cls-40" d="M369.12,211.65c.49-.91.58-1.84.21-2.11s-5.48-2.9-6-2,3.85,5,4.21,5.26S368.64,212.55,369.12,211.65Z"/><path class="cls-41" d="M364.72,208.47c-.09,0-.14.07-.16.17-.09.83,1.08,1.23,1.48,1.71a8.19,8.19,0,0,1,1.25,2.21c-1.08-.95-4.35-4.22-3.93-5,.23-.42,1.42-.09,2.67.41A2.86,2.86,0,0,1,364.72,208.47Z"/><path class="cls-35" d="M368.68,211.46c-.44.8-.76,1-1.15.92a5,5,0,0,0-.63-1.34,5.71,5.71,0,0,0-1-1.32c-.23-.22-.9-.51-1-.93.56-.08,3.2,1.56,4.33,1.25A3.78,3.78,0,0,1,368.68,211.46Z"/><path class="cls-40" d="M370.23,207.24c0,1.32-.4,2.38-.84,2.36s-6-1.13-5.95-2.45,5.62-2.32,6.06-2.32S370.27,205.92,370.23,207.24Z"/><path class="cls-41" d="M364.89,207.82a.19.19,0,0,1,.14-.27h.39s.86-.2.56-.31-.52-.13-.77-.21a.19.19,0,0,1,0-.35,4.6,4.6,0,0,0,1-.22,1.18,1.18,0,0,0-.44-.25.18.18,0,0,1,0-.35,4.39,4.39,0,0,0,2.37-.79c-1.79.35-4.69,1.14-4.71,2.09,0,1.32,5.52,2.44,5.95,2.45S365.37,208.77,364.89,207.82Z"/><path class="cls-35" d="M369.55,209.26c-.71.15-.9-.24-1.92-.58-.39-.13-2.19-.11-2.17-.79.54-.1,1-.32.87-.79-.06-.17-.82-.11-.52-.24.8-.31.44-.73.44-.73a6.1,6.1,0,0,0,1.16-.4,6.74,6.74,0,0,1,1.82-.66.59.59,0,0,1,.5.63c0,.28-1,.15-1.16.32a6,6,0,0,1,1.22.11,1.49,1.49,0,0,1-.06.51c-.71.26-1.51.38-2.17.66.64.14,1.39-.25,2.06-.11,0,0,0,.11,0,.16s.07,0,.09.07a1.81,1.81,0,0,1-.42.28,1.28,1.28,0,0,0,.51.09c0,.06,0,.67,0,.73Z"/><path class="cls-40" d="M344,202.75c-.49.92-.57,1.86-.2,2.12s5.47,2.9,6,2-3.84-5-4.21-5.26S344.49,201.86,344,202.75Z"/><path class="cls-41" d="M348.42,205.94a.15.15,0,0,0,.15-.17c.09-.83-1.07-1.23-1.46-1.71a7.83,7.83,0,0,1-1.25-2.21c1.05,1,4.33,4.22,3.92,5-.22.41-1.42.09-2.67-.41A2.9,2.9,0,0,1,348.42,205.94Z"/><path class="cls-35" d="M344.46,203c.44-.8.76-1,1.15-.93a5.51,5.51,0,0,0,.62,1.35,6,6,0,0,0,1,1.32c.23.22.9.52,1,.92-.54.09-3.18-1.55-4.33-1.24A4,4,0,0,1,344.46,203Z"/><path class="cls-40" d="M343.83,211.38c-.45-.92-.49-1.87-.11-2.12s5.6-2.64,6-1.72-4.06,4.83-4.44,5.08S344.27,212.31,343.83,211.38Z"/><path class="cls-41" d="M348.36,208.4c.1,0,.15.08.15.19.06.82-1.11,1.17-1.54,1.64a7.47,7.47,0,0,0-1.34,2.14c1.1-.91,4.52-4,4.13-4.83-.19-.42-1.4-.15-2.68.29A2.7,2.7,0,0,0,348.36,208.4Z"/><path class="cls-35" d="M344.28,211.21c.4.83.71,1,1.1,1a5.65,5.65,0,0,1,.69-1.31,5.56,5.56,0,0,1,1.08-1.28c.25-.21.92-.47,1-.88-.55-.11-3.25,1.42-4.38,1.05A3.63,3.63,0,0,0,344.28,211.21Z"/><path class="cls-40" d="M342.91,206.93c0,1.31.31,2.39.74,2.4s6-.87,6.06-2.19-5.52-2.57-5.95-2.58S343,205.61,342.91,206.93Z"/><path class="cls-41" d="M348.24,207.75a.18.18,0,0,0-.13-.27,3,3,0,0,0-.41,0s-.85-.24-.52-.34.51-.09.77-.17a.18.18,0,0,0,0-.34,6.08,6.08,0,0,1-.95-.27,1.22,1.22,0,0,1,.44-.23.19.19,0,0,0,0-.36,4.11,4.11,0,0,1-2.33-.9c1.76.45,4.63,1.36,4.62,2.31,0,1.32-5.62,2.2-6.06,2.19S347.7,208.67,348.24,207.75Z"/><path class="cls-35" d="M343.51,209c.7.18.91-.2,1.94-.49.4-.11,2.2,0,2.2-.69-.53-.13-1-.37-.83-.82.08-.18.83-.09.53-.22-.8-.35-.39-.75-.39-.75a7.25,7.25,0,0,1-1.17-.44,6.36,6.36,0,0,0-1.78-.76.59.59,0,0,0-.53.61c0,.29,1,.19,1.14.38a5.4,5.4,0,0,0-1.21.05,1.25,1.25,0,0,0,0,.51c.68.29,1.48.45,2.13.75-.65.12-1.37-.31-2-.19,0,0,0,.11,0,.16s-.06,0-.09.06a1.14,1.14,0,0,0,.4.29,1,1,0,0,1-.51.08c0,.05,0,.67,0,.73Z"/><path class="cls-40" d="M364.74,207.29a4.73,4.73,0,0,1-4.82,4.62l-7-.16a4.66,4.66,0,0,1-2-.5h0a4.58,4.58,0,0,1-1.7-1.44,4.78,4.78,0,0,1-.89-2.88,1.46,1.46,0,0,1,0-.3,4.63,4.63,0,0,1,1.43-3,4.66,4.66,0,0,1,3.36-1.31l7,.15A4.79,4.79,0,0,1,363.5,204,4.72,4.72,0,0,1,364.74,207.29Z"/><path class="cls-41" d="M360.66,209.56l-8.37-.18a6.25,6.25,0,0,1-3.9-1.44,4.72,4.72,0,0,0,4.52,3.81l7,.16a4.73,4.73,0,0,0,4.69-3.61A6.21,6.21,0,0,1,360.66,209.56Z"/><path class="cls-30" d="M363.48,205.85a2.76,2.76,0,0,1-2.59,2.85l-8.81-.21a2.72,2.72,0,0,1-2.45-3h0a2.7,2.7,0,0,1,2.57-2.83l8.84.19a2.73,2.73,0,0,1,2.44,2.95Z"/><path class="cls-30" d="M362,205.36a1.9,1.9,0,0,1-2,1.77L353,207a1.93,1.93,0,0,1-2-1.87h0a1.92,1.92,0,0,1,2-1.76l6.95.16a1.9,1.9,0,0,1,1.95,1.85Z"/><path class="cls-30" d="M360.55,204.89c0,.49-.68.88-1.49.86l-5.16-.11c-.81,0-1.45-.43-1.44-.94h0c0-.49.67-.88,1.48-.86l5.16.11c.82,0,1.46.44,1.45.94Z"/><path class="cls-25" d="M363.44,218.29c.44.29-.61,1.89-1.05,1.6l-22.33-14.62a1,1,0,0,1-.27-1.33h0a1,1,0,0,1,1.33-.27Z"/><path class="cls-26" d="M340.06,205.27l22.33,14.62c.2.14.55-.14.8-.51C363.19,219.38,361.22,218.72,340.06,205.27Z"/><path class="cls-27" d="M361.56,217.38a.27.27,0,0,1,.07.38h0a.29.29,0,0,1-.37.08l-19.73-12.93a.26.26,0,0,1-.08-.37h0a.26.26,0,0,1,.37-.08Z"/><path class="cls-33" d="M343.05,193.8a10.28,10.28,0,1,1-14.22,3A10.27,10.27,0,0,1,343.05,193.8Z"/><path class="cls-37" d="M337.05,202.55a28.27,28.27,0,0,1,5.84,8.54A10.31,10.31,0,0,0,346,208a12.22,12.22,0,0,0,.76-1.37A16.73,16.73,0,0,0,337.05,202.55Z"/><path class="cls-37" d="M327.3,200.67a10.36,10.36,0,0,0,1.88,7.86,16.66,16.66,0,0,0,7.87-6A28.8,28.8,0,0,1,327.3,200.67Z"/><path class="cls-37" d="M337.05,202.55a28.86,28.86,0,0,1-5,8.59,10.22,10.22,0,0,0,7.08,1.39A16.76,16.76,0,0,0,337.05,202.55Z"/><path class="cls-37" d="M337.05,202.55a28.12,28.12,0,0,1,10.65,0,10.46,10.46,0,0,0-1.69-5.79A16.62,16.62,0,0,0,337.05,202.55Z"/><path class="cls-37" d="M337.05,202.55a28,28,0,0,1,5.9-8.81,10.28,10.28,0,0,0-5.81-1.61A16.79,16.79,0,0,0,337.05,202.55Z"/><path class="cls-37" d="M337.05,202.55a28.58,28.58,0,0,1-3.95-9.47,10.33,10.33,0,0,0-4.27,3.68,1.07,1.07,0,0,1-.13.21A16.84,16.84,0,0,0,337.05,202.55Z"/><path class="cls-38" d="M328.7,197a10.39,10.39,0,0,0-1.4,3.7,28.8,28.8,0,0,0,9.75,1.88A16.84,16.84,0,0,1,328.7,197Z"/><path class="cls-38" d="M337.05,202.55a16.79,16.79,0,0,1,.09-10.42,10.09,10.09,0,0,0-4,1A28.58,28.58,0,0,0,337.05,202.55Z"/><path class="cls-38" d="M337.05,202.55a16.62,16.62,0,0,1,9-5.81,10.36,10.36,0,0,0-3-2.94l-.1-.06A28,28,0,0,0,337.05,202.55Z"/><path class="cls-38" d="M346.79,206.65a10.24,10.24,0,0,0,.91-4.12,28.12,28.12,0,0,0-10.65,0A16.73,16.73,0,0,1,346.79,206.65Z"/><path class="cls-38" d="M339.14,212.53a10.54,10.54,0,0,0,3.75-1.44,28.27,28.27,0,0,0-5.84-8.54A16.76,16.76,0,0,1,339.14,212.53Z"/><path class="cls-38" d="M337.05,202.55a16.66,16.66,0,0,1-7.87,6A10.49,10.49,0,0,0,331.8,211l.26.14A28.86,28.86,0,0,0,337.05,202.55Z"/><path class="cls-39" d="M343.84,205.39a10.27,10.27,0,0,1-14.22,3,10.81,10.81,0,0,1-1.09-.83,10.27,10.27,0,1,0,15.63-12.89A10.28,10.28,0,0,1,343.84,205.39Z"/><path class="cls-39" d="M345.25,206.41c-3.29,5-9.61,6.72-14.32,3.94a9.84,9.84,0,0,0,.87.65,10.28,10.28,0,0,0,15.38-11.83A11.68,11.68,0,0,1,345.25,206.41Z"/><path class="cls-30" d="M340.19,193.65c3.46,2.27,4.22,7.24,1.7,11.1s-7.4,5.16-10.87,2.9-4.21-7.26-1.7-11.11S336.73,191.38,340.19,193.65Z"/><path class="cls-30" d="M338.38,194.66c2.5,1.63,2.92,5.41.95,8.42s-5.6,4.13-8.1,2.5-2.92-5.41-.94-8.42S335.88,193,338.38,194.66Z"/><path class="cls-31" d="M339.71,194.75a1.75,1.75,0,0,1-1.86.87,6.7,6.7,0,0,0-7.09,4.71c-.24.74-.83,1.41-1.52,1.39h0c-.7,0-1.2-1-.86-2.12a9.21,9.21,0,0,1,9.72-6.47c1.14.12,1.87,1,1.61,1.62Z"/><path class="cls-25" d="M385.44,203.22c.21.49-1.58,1.2-1.77.71l-9.94-24.77a1,1,0,0,1,.52-1.26h0a1,1,0,0,1,1.26.55Z"/><path class="cls-26" d="M373.73,179.16l9.94,24.77c.09.23.52.19.95,0C384.62,204,383.37,202.29,373.73,179.16Z"/><path class="cls-27" d="M384.42,201.39a.27.27,0,0,1-.16.35h0a.27.27,0,0,1-.35-.15l-8.78-21.89a.26.26,0,0,1,.15-.35h0a.26.26,0,0,1,.35.15Z"/><path class="cls-33" d="M382.74,171.47a10.27,10.27,0,1,1-13.36-5.71A10.28,10.28,0,0,1,382.74,171.47Z"/><path class="cls-37" d="M372.81,175.21a28.55,28.55,0,0,1-.08,10.35,10.3,10.3,0,0,0,4.3-.73,10.89,10.89,0,0,0,1.41-.7A16.67,16.67,0,0,0,372.81,175.21Z"/><path class="cls-37" d="M365.89,168.08a10.26,10.26,0,0,0-2.95,7.53,16.81,16.81,0,0,0,9.87-.4A28.75,28.75,0,0,1,365.89,168.08Z"/><path class="cls-37" d="M372.81,175.21a28.92,28.92,0,0,1-9,4.18,10.29,10.29,0,0,0,5,5.19A16.73,16.73,0,0,0,372.81,175.21Z"/><path class="cls-37" d="M372.81,175.21a28.08,28.08,0,0,1,8.74,6.07,10.31,10.31,0,0,0,1.93-5.72A16.74,16.74,0,0,0,372.81,175.21Z"/><path class="cls-37" d="M372.81,175.21a28.15,28.15,0,0,1,9.88-3.86,10.14,10.14,0,0,0-3.84-4.63A16.7,16.7,0,0,0,372.81,175.21Z"/><path class="cls-37" d="M372.81,175.21a28.47,28.47,0,0,1,2.18-10,10.27,10.27,0,0,0-5.61.58l-.22.1A16.75,16.75,0,0,0,372.81,175.21Z"/><path class="cls-38" d="M369.16,165.86a10.34,10.34,0,0,0-3.27,2.22,28.75,28.75,0,0,0,6.92,7.13A16.75,16.75,0,0,1,369.16,165.86Z"/><path class="cls-38" d="M372.81,175.21a16.7,16.7,0,0,1,6-8.49,10.14,10.14,0,0,0-3.86-1.54A28.47,28.47,0,0,0,372.81,175.21Z"/><path class="cls-38" d="M372.81,175.21a16.74,16.74,0,0,1,10.67.35,10.16,10.16,0,0,0-.74-4.09l-.05-.12A28.15,28.15,0,0,0,372.81,175.21Z"/><path class="cls-38" d="M378.44,184.13a10,10,0,0,0,3.11-2.85,28.08,28.08,0,0,0-8.74-6.07A16.67,16.67,0,0,1,378.44,184.13Z"/><path class="cls-38" d="M368.81,184.58a10.68,10.68,0,0,0,3.92,1,28.55,28.55,0,0,0,.08-10.35A16.73,16.73,0,0,1,368.81,184.58Z"/><path class="cls-38" d="M372.81,175.21a16.81,16.81,0,0,1-9.87.4,10.39,10.39,0,0,0,.73,3.51l.12.27A28.92,28.92,0,0,0,372.81,175.21Z"/><path class="cls-39" d="M376.75,181.42a10.25,10.25,0,0,1-13.34-5.7,9.17,9.17,0,0,1-.44-1.31,10.27,10.27,0,1,0,20.2-1.63A10.28,10.28,0,0,1,376.75,181.42Z"/><path class="cls-39" d="M377.33,183.07c-5.57,2.23-11.73,0-14-5,.11.35.22.68.35,1a10.27,10.27,0,0,0,19.38-.9A11.6,11.6,0,0,1,377.33,183.07Z"/><path class="cls-30" d="M380.48,169.7c1.54,3.85-.68,8.36-5,10.08s-9,0-10.55-3.85.68-8.35,5-10.08S378.94,165.85,380.48,169.7Z"/><path class="cls-30" d="M378.41,169.49c1.11,2.78-.69,6.11-4,7.45s-7,.18-8.07-2.58.7-6.1,4-7.46S377.31,166.72,378.41,169.49Z"/><path class="cls-31" d="M379.46,170.34a1.77,1.77,0,0,1-2-.36,6.72,6.72,0,0,0-8.5-.21,1.8,1.8,0,0,1-2.05.29h0c-.55-.42-.4-1.54.51-2.24a9.21,9.21,0,0,1,11.68.26c.86.75,1,1.88.39,2.26Z"/><path class="cls-42" d="M354.87,219.78c.15,1-.09,1.93-.53,2.05s-6.14.85-6.29-.16,5.32-3.39,5.77-3.51S354.73,218.76,354.87,219.78Z"/><path class="cls-43" d="M349.65,221.27a.18.18,0,0,1-.09-.22c.2-.81,1.43-.79,2-1.1a7.84,7.84,0,0,0,1.92-1.65c-1.32.55-5.53,2.48-5.4,3.37.07.47,1.3.56,2.66.52A2.93,2.93,0,0,0,349.65,221.27Z"/><path class="cls-35" d="M354.39,219.81c-.14-.91-.36-1.22-.76-1.27a5,5,0,0,1-1.05,1.05,5.91,5.91,0,0,1-1.41.9c-.3.13-1,.18-1.26.52.5.28,3.53-.37,4.51.32A3.93,3.93,0,0,0,354.39,219.81Z"/><path class="cls-42" d="M352.1,228c.74-.72,1.1-1.6.82-2s-4.35-4.4-5.08-3.69,2.16,5.92,2.44,6.28S351.38,228.67,352.1,228Z"/><path class="cls-43" d="M348.86,223.6a.17.17,0,0,0-.2.11c-.33.77.65,1.5.89,2.09a7.49,7.49,0,0,1,.52,2.47c-.72-1.24-2.88-5.33-2.23-6,.34-.33,1.37.34,2.42,1.2A2.9,2.9,0,0,1,348.86,223.6Z"/><path class="cls-35" d="M351.74,227.63c-.66.64-1,.76-1.37.55a5.55,5.55,0,0,0-.2-1.47,6,6,0,0,0-.58-1.57c-.15-.28-.69-.76-.67-1.18.55.09,2.58,2.45,3.76,2.49A4.15,4.15,0,0,1,351.74,227.63Z"/><path class="cls-42" d="M354.49,224.08c-.41,1.25-1.1,2.14-1.52,2s-5.36-2.88-5-4.12,6.07-.55,6.48-.4S354.9,222.83,354.49,224.08Z"/><path class="cls-43" d="M349.21,223a.18.18,0,0,1,.21-.21l.39.1s.88.07.61-.13-.46-.27-.66-.43a.18.18,0,0,1,.09-.32,6.77,6.77,0,0,0,1,.07,1.26,1.26,0,0,0-.36-.37c-.13-.1,0-.37.16-.32a4.32,4.32,0,0,0,2.49,0c-1.8-.19-4.82-.31-5.13.6-.41,1.24,4.54,4,5,4.12S349.39,224.08,349.21,223Z"/><path class="cls-35" d="M353.22,225.8c-.71-.08-.78-.49-1.65-1.13-.34-.25-2.06-.76-1.83-1.4.54.06,1.06,0,1.05-.49,0-.19-.74-.36-.41-.39.86,0,.63-.57.63-.57a7.5,7.5,0,0,0,1.23,0,6.85,6.85,0,0,1,1.95-.1.6.6,0,0,1,.29.75c-.12.27-1-.14-1.23,0a5.8,5.8,0,0,1,1.14.47,1.89,1.89,0,0,1-.2.46c-.76,0-1.56-.08-2.27,0,.57.32,1.39.16,2,.5,0,0,0,.11,0,.16s.07,0,.08.09a1.89,1.89,0,0,1-.48.15,1.24,1.24,0,0,0,.44.23c0,.06-.22.64-.22.69Z"/><path class="cls-42" d="M330.82,211.94c-.73.72-1.11,1.6-.83,2s4.37,4.41,5.09,3.68-2.16-5.92-2.43-6.28S331.54,211.23,330.82,211.94Z"/><path class="cls-43" d="M334.06,216.3a.16.16,0,0,0,.2-.12c.34-.77-.65-1.49-.89-2.07a8.17,8.17,0,0,1-.53-2.48c.73,1.23,2.88,5.33,2.24,6-.32.33-1.37-.33-2.42-1.19A2.78,2.78,0,0,1,334.06,216.3Z"/><path class="cls-35" d="M331.19,212.26c.65-.63,1-.75,1.36-.54a5.53,5.53,0,0,0,.2,1.46,5.76,5.76,0,0,0,.58,1.58c.15.28.71.75.67,1.17-.56-.08-2.58-2.44-3.76-2.47A3.64,3.64,0,0,1,331.19,212.26Z"/><path class="cls-42" d="M328,220.11c-.14-1,.1-1.92.54-2.05s6.14-.84,6.3.17-5.34,3.39-5.78,3.51S328.2,221.13,328,220.11Z"/><path class="cls-43" d="M333.27,218.63a.18.18,0,0,1,.1.22c-.21.81-1.44.79-2,1.11a7.2,7.2,0,0,0-1.92,1.64c1.33-.54,5.53-2.48,5.41-3.37-.08-.47-1.31-.57-2.67-.52A2.93,2.93,0,0,0,333.27,218.63Z"/><path class="cls-35" d="M328.53,220.09c.14.9.37,1.22.76,1.26a4.88,4.88,0,0,1,1-1,5.08,5.08,0,0,1,1.41-.91c.29-.13,1-.18,1.25-.52-.48-.28-3.52.37-4.49-.32A3.72,3.72,0,0,0,328.53,220.09Z"/><path class="cls-42" d="M328.51,215.59c-.41,1.25-.42,2.37,0,2.51s6,1,6.43-.26-4.49-4.11-4.91-4.25S328.94,214.35,328.51,215.59Z"/><path class="cls-43" d="M333.34,218a.19.19,0,0,0,0-.3c-.12-.06-.24-.09-.37-.14s-.72-.49-.4-.48.52.07.78.07a.19.19,0,0,0,.12-.33c-.25-.2-.61-.29-.84-.54a1.35,1.35,0,0,1,.5-.09.18.18,0,0,0,.08-.34,4.42,4.42,0,0,1-2-1.56c1.56,1,4,2.69,3.72,3.59-.42,1.25-6,.41-6.43.26S332.55,218.68,333.34,218Z"/><path class="cls-35" d="M328.48,217.71c.61.39.91.1,2,.13.41,0,2.09.64,2.31,0-.47-.28-.85-.66-.55-1,.13-.15.82.16.56-.06-.64-.57-.14-.83-.14-.83a7.15,7.15,0,0,1-1-.77,6.67,6.67,0,0,0-1.48-1.25.58.58,0,0,0-.69.41c-.07.28.88.49,1,.71a6.47,6.47,0,0,0-1.18-.32,1.89,1.89,0,0,0-.12.51c.58.48,1.29.86,1.81,1.35-.65-.09-1.22-.71-1.89-.81,0,0,0,.11-.07.15s-.05,0-.12,0a1.62,1.62,0,0,0,.32.41,1.22,1.22,0,0,1-.51-.08c0,.05-.22.63-.25.68Z"/><path class="cls-42" d="M348.85,222.17c-1.11,3.26-5.31,4.78-9.37,3.4s-6.48-5.14-5.37-8.4,5.29-4.77,9.36-3.39S349.94,218.91,348.85,222.17Z"/><path class="cls-43" d="M340.84,223.94c-4.07-1.38-6.47-5.13-5.37-8.39a5.25,5.25,0,0,1,.33-.77,5.2,5.2,0,0,0-1.69,2.39c-1.11,3.26,1.3,7,5.37,8.4,3.75,1.26,7.58.09,9-2.64A8.16,8.16,0,0,1,340.84,223.94Z"/><path class="cls-43" d="M340.44,224.92c-4.29-1.45-7-5.15-6.08-8.34a3.37,3.37,0,0,0-.25.59c-1.11,3.26,1.3,7,5.37,8.4a8.58,8.58,0,0,0,6.53-.28A10.26,10.26,0,0,1,340.44,224.92Z"/><path class="cls-30" d="M348.29,220.39c-.8,2.38-4.14,3.4-7.45,2.27s-5.35-3.94-4.54-6.34,4.14-3.38,7.45-2.25S349.1,218,348.29,220.39Z"/><path class="cls-30" d="M347.16,219.4c-.59,1.71-3.14,2.39-5.72,1.52s-4.22-3-3.64-4.7,3.14-2.39,5.73-1.51S347.74,217.69,347.16,219.4Z"/><path class="cls-31" d="M347.4,220.23a1.39,1.39,0,0,1-1-1.06,5.65,5.65,0,0,0-5-3.82,1.54,1.54,0,0,1-1.33-.78h0c-.15-.41.44-.84,1.29-.77,3.26.32,6.13,2.54,6.82,5.26.18.71-.26,1.26-.78,1.17Z"/><path class="cls-44" d="M366.07,204.33c.93.43,1.56,1.12,1.42,1.56s-2.65,5.61-3.58,5.17.08-6.3.22-6.73S365.14,203.89,366.07,204.33Z"/><path class="cls-43" d="M364.45,209.51a.17.17,0,0,1-.23,0c-.57-.61.12-1.63.16-2.25a7.91,7.91,0,0,0-.34-2.51c-.27,1.41-.94,6-.13,6.36.43.2,1.19-.77,1.89-1.93A2.85,2.85,0,0,0,364.45,209.51Z"/><path class="cls-35" d="M365.82,204.75c-.83-.39-1.21-.38-1.47-.07a5.76,5.76,0,0,1,.3,1.45,5.63,5.63,0,0,1,0,1.69c-.05.3-.41.94-.25,1.33.5-.26,1.62-3.15,2.73-3.6A3.81,3.81,0,0,0,365.82,204.75Z"/><path class="cls-44" d="M371.39,211.12c-.2-1-.73-1.8-1.18-1.76s-6.08,1.23-5.88,2.24,6.14,1.43,6.61,1.4S371.59,212.11,371.39,211.12Z"/><path class="cls-43" d="M366,211.44a.17.17,0,0,0,0,.24c.45.7,1.61.27,2.22.39a7.27,7.27,0,0,1,2.35.92c-1.42-.08-6-.51-6.2-1.39-.09-.46,1-1,2.33-1.37A2.86,2.86,0,0,1,366,211.44Z"/><path class="cls-35" d="M370.92,211.25c.17.9.06,1.27-.3,1.44a5.41,5.41,0,0,0-1.33-.63,5.85,5.85,0,0,0-1.63-.38c-.32,0-1,.17-1.36-.07.38-.44,3.46-.84,4.14-1.8A3.63,3.63,0,0,1,370.92,211.25Z"/><path class="cls-44" d="M369.45,207c.81,1,1.2,2.09.84,2.36s-5.35,2.92-6.14,1.89,2.86-5.37,3.21-5.65S368.64,206,369.45,207Z"/><path class="cls-43" d="M365.69,210.84a.18.18,0,0,1-.07-.29,1.94,1.94,0,0,1,.31-.26s.53-.7.22-.59-.48.24-.73.32-.29-.14-.21-.27.47-.47.59-.79a1.35,1.35,0,0,0-.49.09.18.18,0,0,1-.17-.31,4.32,4.32,0,0,0,1.32-2.11c-1.16,1.41-2.9,3.87-2.31,4.62.79,1,5.8-1.62,6.14-1.89S366.66,211.26,365.69,210.84Z"/><path class="cls-35" d="M370.2,209c-.46.56-.85.39-1.85.76-.39.15-1.76,1.31-2.18.78.35-.43.59-.9.17-1.16-.16-.1-.72.43-.55.13.44-.75-.13-.83-.13-.83a6.8,6.8,0,0,0,.65-1.05,7,7,0,0,1,1-1.68.62.62,0,0,1,.8.17c.16.24-.67.75-.7,1a5.64,5.64,0,0,1,1-.69,1.52,1.52,0,0,1,.28.43c-.38.64-.92,1.25-1.26,1.88.58-.29.91-1.07,1.52-1.39,0,0,.07.09.11.12s0-.06.11,0a1.12,1.12,0,0,1-.14.48,1,1,0,0,0,.45-.24l.46.57Z"/><path class="cls-44" d="M346.34,220.16c.2,1,.72,1.79,1.19,1.76s6.07-1.23,5.86-2.24-6.14-1.43-6.59-1.39S346.14,219.17,346.34,220.16Z"/><path class="cls-43" d="M351.76,219.84a.17.17,0,0,0,0-.24c-.47-.69-1.6-.27-2.22-.39a7.41,7.41,0,0,1-2.36-.92c1.43.08,6,.51,6.2,1.39.1.47-1,1-2.32,1.38A2.79,2.79,0,0,1,351.76,219.84Z"/><path class="cls-35" d="M346.81,220c-.18-.9-.07-1.27.29-1.44a5.29,5.29,0,0,0,1.34.63,5.23,5.23,0,0,0,1.63.38c.31,0,1-.17,1.35.08-.37.43-3.46.83-4.14,1.8A3.75,3.75,0,0,1,346.81,220Z"/><path class="cls-44" d="M351.67,227c-.93-.43-1.57-1.14-1.44-1.57s2.66-5.6,3.57-5.17-.06,6.31-.2,6.74S352.59,227.39,351.67,227Z"/><path class="cls-43" d="M353.28,221.77c.08-.05.15,0,.23,0,.57.61-.12,1.62-.15,2.25a7.07,7.07,0,0,0,.33,2.5c.27-1.39.94-6,.11-6.35-.41-.21-1.17.77-1.88,1.94A3,3,0,0,0,353.28,221.77Z"/><path class="cls-35" d="M351.91,226.53c.83.39,1.21.37,1.46.06a5.92,5.92,0,0,1-.29-1.45,5.83,5.83,0,0,1,0-1.67c0-.31.41-.95.25-1.33-.5.26-1.62,3.15-2.73,3.58A3.58,3.58,0,0,0,351.91,226.53Z"/><path class="cls-44" d="M348.12,224.09c.83,1,1.76,1.66,2.1,1.39s4.11-4.5,3.3-5.52-5.9,1.5-6.24,1.76S347.32,223.05,348.12,224.09Z"/><path class="cls-43" d="M352.76,221.35a.19.19,0,0,0-.28-.13l-.32.23s-.8.35-.62.08.33-.41.48-.63-.06-.32-.2-.27a6.56,6.56,0,0,1-.91.39,1.12,1.12,0,0,1,.2-.45c.1-.15-.11-.36-.24-.25a4.36,4.36,0,0,1-2.39.77c1.66-.77,4.45-1.88,5-1.13.81,1-2.95,5.25-3.3,5.52S352.93,222.4,352.76,221.35Z"/><path class="cls-35" d="M349.88,225.29c.67-.31.58-.73,1.2-1.61.22-.34,1.69-1.4,1.26-1.93-.49.24-1,.36-1.16-.11-.06-.17.58-.59.25-.5-.81.24-.77-.33-.77-.33a7.15,7.15,0,0,1-1.18.39,6.55,6.55,0,0,0-1.85.56.6.6,0,0,0,0,.8c.2.21.89-.48,1.13-.44a7.19,7.19,0,0,0-.91.81,1.45,1.45,0,0,0,.36.38c.72-.22,1.43-.6,2.13-.78-.44.51-1.27.63-1.71,1.15,0,0,.06.09.09.15s-.08,0,0,.1a1.35,1.35,0,0,0,.49,0,1,1,0,0,1-.35.37c0,.06.44.53.46.59Z"/><path class="cls-44" d="M364.77,210.68c2.12,2.71,1.09,7-2.28,9.7s-7.85,2.6-10-.1-1.1-7,2.28-9.7S362.65,208,364.77,210.68Z"/><path class="cls-43" d="M361.87,218.34c-3.39,2.65-7.84,2.61-10-.09a6,6,0,0,1-.47-.69,5.38,5.38,0,0,0,1.08,2.72c2.12,2.7,6.58,2.75,10,.1,3.1-2.43,4.21-6.3,2.73-9A8.14,8.14,0,0,1,361.87,218.34Z"/><path class="cls-43" d="M362.48,219.22c-3.59,2.8-8.12,3-10.32.52a3.62,3.62,0,0,0,.36.54c2.12,2.7,6.58,2.75,10,.1a8.59,8.59,0,0,0,3.33-5.62A10.39,10.39,0,0,1,362.48,219.22Z"/><path class="cls-30" d="M363,210.17c1.55,2,.57,5.32-2.18,7.48S354.56,220,353,218s-.58-5.32,2.18-7.48S361.43,208.19,363,210.17Z"/><path class="cls-30" d="M361.53,210.58c1.12,1.4.28,3.93-1.87,5.61s-4.8,1.89-5.91.48-.28-3.94,1.87-5.63S360.41,209.15,361.53,210.58Z"/><path class="cls-31" d="M362.36,210.82a1.44,1.44,0,0,1-1.46.3,5.62,5.62,0,0,0-5.91,2,1.58,1.58,0,0,1-1.38.69h0c-.43-.11-.46-.84.06-1.5,2.05-2.55,5.47-3.74,8.13-2.83.69.24.91.9.56,1.29Z"/><path class="cls-44" d="M390.91,185.45c.93.43,1.57,1.13,1.43,1.56s-2.65,5.62-3.57,5.18.06-6.31.21-6.74S390,185,390.91,185.45Z"/><path class="cls-43" d="M389.29,190.64a.18.18,0,0,1-.23,0c-.56-.61.13-1.62.16-2.25a7.52,7.52,0,0,0-.33-2.5c-.27,1.39-.93,6-.12,6.35.42.2,1.16-.78,1.88-1.94A3,3,0,0,0,389.29,190.64Z"/><path class="cls-35" d="M390.67,185.88c-.83-.4-1.22-.38-1.48-.07a5.21,5.21,0,0,1,.31,1.46,5.84,5.84,0,0,1,0,1.67c-.06.31-.41.95-.24,1.33.49-.26,1.61-3.16,2.72-3.59A3.57,3.57,0,0,0,390.67,185.88Z"/><path class="cls-44" d="M396.24,192.24c-.2-1-.73-1.79-1.19-1.76s-6.07,1.23-5.87,2.24,6.15,1.43,6.6,1.4S396.44,193.25,396.24,192.24Z"/><path class="cls-43" d="M390.83,192.57a.16.16,0,0,0,0,.24c.45.7,1.6.27,2.22.39a7.51,7.51,0,0,1,2.36.92c-1.43-.08-6-.52-6.21-1.4-.09-.46,1-.95,2.32-1.37A2.76,2.76,0,0,1,390.83,192.57Z"/><path class="cls-35" d="M395.78,192.38c.17.89.06,1.27-.3,1.44a5.69,5.69,0,0,0-1.34-.64,5.5,5.5,0,0,0-1.63-.37c-.32,0-1,.17-1.36-.08.38-.43,3.46-.83,4.15-1.79A3.68,3.68,0,0,1,395.78,192.38Z"/><path class="cls-44" d="M394.3,188.13c.81,1,1.19,2.09.85,2.36s-5.35,2.92-6.16,1.89,2.88-5.38,3.22-5.64S393.49,187.08,394.3,188.13Z"/><path class="cls-43" d="M390.54,192a.17.17,0,0,1-.06-.29l.28-.26s.54-.7.23-.59-.48.24-.72.33a.19.19,0,0,1-.21-.27c.17-.27.48-.48.6-.79a1.31,1.31,0,0,0-.5.08c-.16.07-.32-.18-.18-.29a4.4,4.4,0,0,0,1.32-2.12c-1.15,1.41-2.89,3.86-2.31,4.62.81,1,5.82-1.62,6.16-1.89S391.5,192.39,390.54,192Z"/><path class="cls-35" d="M395.05,190.12c-.46.56-.85.39-1.85.77-.38.15-1.76,1.31-2.19.77.36-.43.59-.9.19-1.15-.17-.11-.72.42-.56.13.42-.75-.13-.84-.13-.84a7.41,7.41,0,0,0,.65-1,6.31,6.31,0,0,1,1-1.68.59.59,0,0,1,.79.17c.16.24-.67.75-.7,1a7.23,7.23,0,0,1,1-.69,1.3,1.3,0,0,1,.27.43c-.38.65-.92,1.25-1.25,1.89.59-.3.9-1.08,1.52-1.39,0,0,.07.08.1.12s.05-.07.12,0a1.27,1.27,0,0,1-.14.49,1.33,1.33,0,0,0,.45-.25s.41.53.46.57Z"/><path class="cls-44" d="M371.18,201.3c.21,1,.74,1.78,1.19,1.75s6.07-1.23,5.87-2.23-6.14-1.44-6.6-1.4S371,200.29,371.18,201.3Z"/><path class="cls-43" d="M376.61,201a.21.21,0,0,0,0-.25c-.47-.69-1.62-.26-2.23-.39a7.44,7.44,0,0,1-2.36-.91c1.42.07,6,.51,6.2,1.4.09.45-1,1-2.33,1.36A2.88,2.88,0,0,1,376.61,201Z"/><path class="cls-35" d="M371.66,201.16c-.18-.91-.08-1.28.29-1.45a5.19,5.19,0,0,0,1.34.65,5.91,5.91,0,0,0,1.63.37c.32,0,1-.18,1.35.08-.37.43-3.45.82-4.14,1.79A3.87,3.87,0,0,1,371.66,201.16Z"/><path class="cls-44" d="M376.51,208.08c-.93-.43-1.55-1.13-1.43-1.56s2.66-5.61,3.58-5.18-.08,6.31-.22,6.74S377.45,208.52,376.51,208.08Z"/><path class="cls-43" d="M378.13,202.9a.17.17,0,0,1,.23,0c.56.62-.12,1.63-.16,2.25a7.85,7.85,0,0,0,.33,2.51c.27-1.4.94-6,.13-6.36-.42-.2-1.17.78-1.88,1.93A3,3,0,0,0,378.13,202.9Z"/><path class="cls-35" d="M376.75,207.66c.83.38,1.23.37,1.48.06a7.33,7.33,0,0,1-.28-3.13c.05-.31.41-.94.24-1.33-.49.27-1.62,3.16-2.73,3.6A4.15,4.15,0,0,0,376.75,207.66Z"/><path class="cls-44" d="M373,205.22c.82,1,1.76,1.66,2.1,1.39s4.11-4.5,3.29-5.53-5.88,1.5-6.24,1.78S372.17,204.19,373,205.22Z"/><path class="cls-43" d="M377.6,202.47a.18.18,0,0,0-.27-.13,2.62,2.62,0,0,0-.32.23s-.81.36-.62.08.34-.41.48-.63-.07-.31-.21-.27a4.93,4.93,0,0,1-.91.4,1.65,1.65,0,0,1,.2-.46c.11-.14-.1-.36-.25-.25a4.32,4.32,0,0,1-2.37.78c1.66-.78,4.45-1.89,5-1.14.82,1-2.95,5.25-3.29,5.53S377.79,203.53,377.6,202.47Z"/><path class="cls-35" d="M374.73,206.42c.66-.31.59-.74,1.19-1.62.24-.33,1.69-1.39,1.26-1.93-.49.25-1,.37-1.15-.1-.06-.19.58-.6.26-.5-.83.24-.78-.33-.78-.33a6.89,6.89,0,0,1-1.17.38,6.55,6.55,0,0,0-1.86.56.59.59,0,0,0,0,.81c.19.2.88-.47,1.14-.45a6.16,6.16,0,0,0-.92.82,1.19,1.19,0,0,0,.36.38c.71-.22,1.43-.6,2.13-.77-.45.49-1.27.62-1.72,1.13,0,0,.06.1.09.15s-.07,0,0,.11a1.47,1.47,0,0,0,.51,0,1.16,1.16,0,0,1-.35.38s.41.53.44.58Z"/><path class="cls-44" d="M389.61,191.8c2.12,2.71,1.1,7-2.29,9.7s-7.83,2.6-9.95-.1-1.1-7.05,2.28-9.69S387.48,189.11,389.61,191.8Z"/><path class="cls-43" d="M386.71,199.48c-3.38,2.64-7.84,2.6-10-.11a5.1,5.1,0,0,1-.45-.69,5.22,5.22,0,0,0,1.07,2.72c2.12,2.7,6.58,2.76,9.95.1,3.12-2.43,4.23-6.29,2.75-9A8.2,8.2,0,0,1,386.71,199.48Z"/><path class="cls-43" d="M387.31,200.35c-3.57,2.79-8.11,3-10.31.51a4.27,4.27,0,0,0,.37.54c2.12,2.7,6.58,2.76,9.95.1a8.56,8.56,0,0,0,3.35-5.61A10.43,10.43,0,0,1,387.31,200.35Z"/><path class="cls-30" d="M387.82,191.3c1.55,2,.58,5.32-2.17,7.47s-6.24,2.32-7.79.34-.58-5.33,2.18-7.49S386.28,189.31,387.82,191.3Z"/><path class="cls-30" d="M386.37,191.7c1.11,1.42.28,3.94-1.86,5.62s-4.8,1.9-5.91.48-.28-4,1.87-5.64S385.25,190.27,386.37,191.7Z"/><path class="cls-31" d="M387.2,191.94a1.36,1.36,0,0,1-1.44.3,5.64,5.64,0,0,0-5.92,2.06,1.57,1.57,0,0,1-1.39.69h0c-.43-.11-.46-.84.07-1.51,2.05-2.54,5.47-3.74,8.13-2.82.68.23.89.9.55,1.28Z"/><path class="cls-45" d="M381.93,200.93c.73.7,1.13,1.58.85,1.94s-4.26,4.5-5,3.8,2-6,2.31-6.34S381.17,200.23,381.93,200.93Z"/><path class="cls-43" d="M378.77,205.36c-.1,0-.16,0-.21-.12-.34-.76.62-1.5.85-2.09a7.64,7.64,0,0,0,.47-2.48c-.7,1.25-2.76,5.38-2.11,6,.35.32,1.36-.37,2.4-1.26A3,3,0,0,0,378.77,205.36Z"/><path class="cls-35" d="M381.55,201.27c-.66-.64-1-.74-1.36-.53a5.48,5.48,0,0,1-.18,1.47,5.35,5.35,0,0,1-.55,1.59c-.14.28-.68.77-.65,1.2.57-.1,2.54-2.51,3.72-2.57A3.83,3.83,0,0,0,381.55,201.27Z"/><path class="cls-45" d="M384.86,209.05c.12-1-.13-1.93-.57-2s-6.16-.72-6.28.29,5.39,3.28,5.82,3.39S384.73,210.07,384.86,209.05Z"/><path class="cls-43" d="M379.61,207.67a.17.17,0,0,0-.09.22c.22.81,1.45.77,2,1.06a7.75,7.75,0,0,1,2,1.61c-1.35-.51-5.59-2.37-5.47-3.26.06-.46,1.28-.58,2.63-.57A2.89,2.89,0,0,1,379.61,207.67Z"/><path class="cls-35" d="M384.38,209c-.12.92-.34,1.23-.74,1.28a5.43,5.43,0,0,0-1.07-1,5.27,5.27,0,0,0-1.43-.87c-.29-.12-1-.15-1.26-.5.48-.29,3.54.3,4.49-.4A3.6,3.6,0,0,1,384.38,209Z"/><path class="cls-45" d="M384.3,204.53c.45,1.24.48,2.36.07,2.52s-6,1.1-6.44-.14,4.41-4.2,4.82-4.35S383.86,203.29,384.3,204.53Z"/><path class="cls-43" d="M379.52,207a.19.19,0,0,1,0-.3l.38-.16s.71-.5.38-.48-.51.07-.78.08a.19.19,0,0,1-.12-.32,6.66,6.66,0,0,0,.82-.57,1.32,1.32,0,0,0-.49-.07c-.19,0-.26-.28-.09-.34a4.41,4.41,0,0,0,1.93-1.61c-1.55,1-4,2.78-3.65,3.67.45,1.24,6,.29,6.44.14S380.31,207.72,379.52,207Z"/><path class="cls-35" d="M384.39,206.66c-.6.4-.93.1-2,.15-.41,0-2.08.69-2.31.06.47-.29.84-.67.53-1-.12-.15-.81.17-.57-.05.64-.57.15-.83.15-.83a8.33,8.33,0,0,0,.93-.79,6.72,6.72,0,0,1,1.47-1.29.59.59,0,0,1,.7.4c.08.28-.88.51-1,.73a5.7,5.7,0,0,1,1.17-.33,1.27,1.27,0,0,1,.13.49c-.56.49-1.26.9-1.78,1.4.64-.11,1.2-.75,1.87-.85a.31.31,0,0,1,.07.14c.06,0,.06,0,.12,0a1.31,1.31,0,0,1-.3.41,1.4,1.4,0,0,0,.51-.09s.22.63.26.67Z"/><path class="cls-45" d="M358.23,209.83c-.13,1,.14,1.93.58,2s6.15.73,6.29-.3-5.4-3.27-5.85-3.38S358.36,208.81,358.23,209.83Z"/><path class="cls-43" d="M363.49,211.21a.17.17,0,0,0,.08-.22c-.21-.81-1.44-.76-2-1.07a7.58,7.58,0,0,1-2-1.6c1.34.5,5.58,2.37,5.48,3.25-.07.47-1.29.59-2.65.58A2.77,2.77,0,0,1,363.49,211.21Z"/><path class="cls-35" d="M358.72,209.85c.12-.91.34-1.23.73-1.27a6,6,0,0,0,1.07,1,5.71,5.71,0,0,0,1.43.87c.3.12,1,.15,1.28.51-.5.27-3.55-.31-4.51.39A3.8,3.8,0,0,1,358.72,209.85Z"/><path class="cls-45" d="M361.16,218c-.73-.7-1.12-1.58-.85-1.93s4.26-4.51,5-3.81-2,6-2.31,6.34S361.92,218.65,361.16,218Z"/><path class="cls-43" d="M364.32,213.52a.18.18,0,0,1,.22.11c.34.76-.64,1.52-.85,2.1a7.19,7.19,0,0,0-.47,2.48c.68-1.25,2.76-5.38,2.09-6-.33-.32-1.36.37-2.38,1.26A3,3,0,0,0,364.32,213.52Z"/><path class="cls-35" d="M361.54,217.61c.67.64,1,.73,1.38.52a5.53,5.53,0,0,1,.16-1.47,5.7,5.7,0,0,1,.55-1.58c.14-.28.68-.78.65-1.2-.57.09-2.53,2.5-3.72,2.57A3.85,3.85,0,0,0,361.54,217.61Z"/><path class="cls-45" d="M358.7,214.12c.46,1.24,1.15,2.12,1.57,2s5.29-3,4.85-4.22-6.06-.41-6.47-.26S358.26,212.87,358.7,214.12Z"/><path class="cls-43" d="M364,213a.19.19,0,0,0-.22-.21l-.39.11s-.87.09-.6-.11.45-.28.65-.45a.19.19,0,0,0-.12-.32,5.33,5.33,0,0,1-1,.09,1.33,1.33,0,0,1,.34-.38c.13-.1,0-.36-.17-.31a4.26,4.26,0,0,1-2.5,0c1.82-.23,4.83-.41,5.14.49.44,1.24-4.44,4.06-4.85,4.22S363.81,214,364,213Z"/><path class="cls-35" d="M360,215.81c.73-.09.79-.52,1.64-1.16.32-.25,2-.81,1.81-1.45-.54.08-1.07,0-1.07-.45,0-.2.74-.39.39-.41-.85,0-.62-.54-.62-.54a8.29,8.29,0,0,1-1.25,0,6.74,6.74,0,0,0-1.94-.06.59.59,0,0,0-.27.76c.12.26,1-.18,1.21-.07a6.65,6.65,0,0,0-1.12.49,1.65,1.65,0,0,0,.21.47c.76,0,1.56-.12,2.28-.07-.57.34-1.4.2-2,.56,0,0,0,.1,0,.15s-.07,0-.07.09a1.12,1.12,0,0,0,.49.13,1.22,1.22,0,0,1-.44.25c0,.05.23.64.23.69Z"/><path class="cls-45" d="M378.7,206.56c1.18,3.24-1.15,7-5.2,8.51s-8.25,0-9.42-3.2,1.15-7,5.19-8.5S377.53,203.33,378.7,206.56Z"/><path class="cls-43" d="M373.56,213c-4,1.46-8.28,0-9.44-3.2a4.92,4.92,0,0,1-.23-.81,5.33,5.33,0,0,0,.19,2.93c1.17,3.23,5.39,4.65,9.42,3.2,3.71-1.35,6-4.67,5.41-7.7A8.17,8.17,0,0,1,373.56,213Z"/><path class="cls-43" d="M373.86,214c-4.27,1.55-8.66.33-10-2.73a4.32,4.32,0,0,0,.19.64c1.17,3.23,5.39,4.65,9.42,3.2a8.59,8.59,0,0,0,4.93-4.29A10.41,10.41,0,0,1,373.86,214Z"/><path class="cls-30" d="M377.17,205.52c.85,2.36-1.12,5.24-4.41,6.43s-6.65.24-7.51-2.11,1.12-5.25,4.42-6.43S376.32,203.16,377.17,205.52Z"/><path class="cls-30" d="M375.65,205.45c.62,1.7-1,3.84-3.53,4.77s-5.13.3-5.76-1.41,1-3.83,3.54-4.75S375.05,203.75,375.65,205.45Z"/><path class="cls-31" d="M376.37,206a1.45,1.45,0,0,1-1.47-.17,5.68,5.68,0,0,0-6.27.1,1.56,1.56,0,0,1-1.52.23h0c-.39-.24-.19-.94.53-1.41,2.74-1.78,6.37-1.84,8.6-.15.58.45.57,1.15.13,1.4Z"/><path class="cls-46" d="M399.19,184.28c1,.25,1.74.83,1.69,1.28s-1.56,6-2.54,5.74-1.12-6.21-1.06-6.66S398.2,184,399.19,184.28Z"/><path class="cls-41" d="M398.57,189.67a.15.15,0,0,1-.23,0c-.68-.49-.19-1.61-.28-2.23a7.81,7.81,0,0,0-.78-2.41c0,1.43.18,6.05,1.06,6.27.45.13,1-1,1.48-2.25A2.89,2.89,0,0,0,398.57,189.67Z"/><path class="cls-35" d="M399,184.74c-.9-.23-1.26-.14-1.46.22a5.42,5.42,0,0,1,.56,1.37,5.16,5.16,0,0,1,.3,1.64c0,.32-.23,1,0,1.36.45-.35,1-3.4,2-4A3.61,3.61,0,0,0,399,184.74Z"/><path class="cls-46" d="M405.69,190c-.39-.94-1.05-1.61-1.5-1.5s-5.74,2.35-5.35,3.3,6.31.26,6.74.13S406.07,190.91,405.69,190Z"/><path class="cls-41" d="M400.42,191.3a.17.17,0,0,0,0,.23c.58.6,1.63,0,2.25,0a7.44,7.44,0,0,1,2.5.46c-1.41.2-6,.62-6.36-.21-.18-.43.85-1.14,2-1.78A2.89,2.89,0,0,1,400.42,191.3Z"/><path class="cls-35" d="M405.25,190.17c.34.87.3,1.24,0,1.48a5.76,5.76,0,0,0-1.44-.37,5.53,5.53,0,0,0-1.67-.07c-.32,0-1,.36-1.35.17.29-.49,3.24-1.45,3.73-2.53A3.66,3.66,0,0,1,405.25,190.17Z"/><path class="cls-46" d="M403,186.28c1,.86,1.57,1.83,1.28,2.15s-4.7,3.88-5.7,3,1.82-5.81,2.11-6.14S402,185.41,403,186.28Z"/><path class="cls-41" d="M400,190.76a.18.18,0,0,1-.12-.28,2.43,2.43,0,0,1,.24-.32s.39-.78.11-.61-.43.32-.65.45-.3-.09-.26-.23a5.56,5.56,0,0,0,.44-.88,1.58,1.58,0,0,0-.47.17c-.15.1-.35-.12-.23-.26a4.45,4.45,0,0,0,.91-2.33c-.87,1.62-2.13,4.34-1.42,5,1,.87,5.41-2.67,5.7-3S401.07,191,400,190.76Z"/><path class="cls-35" d="M404.12,188.1c-.34.63-.76.54-1.67,1.1-.35.21-1.5,1.61-2,1.16.27-.48.4-1-.05-1.16-.17-.07-.62.54-.51.22.28-.81-.29-.79-.29-.79a6.59,6.59,0,0,0,.45-1.14,7,7,0,0,1,.65-1.84.6.6,0,0,1,.81,0c.2.2-.52.86-.5,1.11a6.5,6.5,0,0,1,.87-.87,2.11,2.11,0,0,1,.36.37c-.26.7-.68,1.4-.89,2.09.51-.41.68-1.23,1.22-1.65.05,0,.09.07.13.1s0-.07.13,0a1.63,1.63,0,0,1-.06.5.91.91,0,0,0,.38-.32,6.69,6.69,0,0,1,.56.48Z"/><path class="cls-46" d="M382.76,203.53c.38.95,1.05,1.62,1.49,1.5s5.74-2.34,5.36-3.29-6.31-.27-6.75-.15S382.37,202.57,382.76,203.53Z"/><path class="cls-41" d="M388,202.18c.06-.07,0-.15,0-.23-.57-.6-1.63,0-2.26,0a7.39,7.39,0,0,1-2.48-.47c1.41-.19,6-.62,6.36.22.16.43-.84,1.13-2,1.78A3.09,3.09,0,0,1,388,202.18Z"/><path class="cls-35" d="M383.2,203.3c-.35-.85-.3-1.23,0-1.47a5.2,5.2,0,0,0,1.44.38,5.53,5.53,0,0,0,1.67.06c.32,0,1-.35,1.35-.17-.29.48-3.25,1.46-3.74,2.53A3.68,3.68,0,0,1,383.2,203.3Z"/><path class="cls-46" d="M389.26,209.21c-1-.26-1.76-.83-1.69-1.28s1.55-6,2.54-5.75,1.11,6.22,1.05,6.67S390.25,209.45,389.26,209.21Z"/><path class="cls-41" d="M389.88,203.8a.17.17,0,0,1,.23,0c.67.5.19,1.63.27,2.25a7.38,7.38,0,0,0,.8,2.4c0-1.43-.2-6-1.07-6.27-.45-.12-1,1-1.49,2.25A2.84,2.84,0,0,0,389.88,203.8Z"/><path class="cls-35" d="M389.42,208.74c.89.22,1.25.13,1.46-.22a5,5,0,0,1-.57-1.37,5.2,5.2,0,0,1-.28-1.65c0-.31.22-1,0-1.36-.43.36-1,3.41-2,4.05A3.83,3.83,0,0,0,389.42,208.74Z"/><path class="cls-46" d="M385.25,207.05c1,.86,2,1.3,2.32,1s3.19-5.18,2.2-6.05-5.51,2.58-5.8,2.92S384.26,206.18,385.25,207.05Z"/><path class="cls-41" d="M389.29,203.5a.18.18,0,0,0-.3-.08,3.63,3.63,0,0,0-.27.28s-.72.49-.59.19.25-.46.36-.71a.19.19,0,0,0-.27-.23,5,5,0,0,1-.8.57,1.23,1.23,0,0,1,.1-.49c.08-.17-.17-.34-.29-.2A4.4,4.4,0,0,1,385,204c1.48-1.08,4-2.7,4.73-2.07,1,.87-1.91,5.72-2.2,6.05S389.66,204.49,389.29,203.5Z"/><path class="cls-35" d="M387.2,207.9c.58-.43.44-.83.86-1.8.18-.38,1.4-1.7.9-2.14-.45.33-.93.53-1.16.11-.1-.17.46-.68.16-.54-.78.38-.83-.18-.83-.18a7.06,7.06,0,0,1-1.08.6,6.65,6.65,0,0,0-1.73.88.63.63,0,0,0,.13.81c.23.17.77-.62,1-.64a6.52,6.52,0,0,0-.75,1,2.16,2.16,0,0,0,.43.29c.65-.35,1.29-.86,1.94-1.16-.33.57-1.11.86-1.46,1.44,0,0,.07.08.11.12s-.06,0,0,.12a1.22,1.22,0,0,0,.49-.13.88.88,0,0,1-.27.43c.05,0,.52.45.55.5Z"/><path class="cls-46" d="M399.53,190.53a4.72,4.72,0,0,1,.44,6.66l-4.61,5.27a4.62,4.62,0,0,1-1.67,1.23h0a4.57,4.57,0,0,1-2.19.37,4.7,4.7,0,0,1-2.77-1.15l-.23-.21a4.7,4.7,0,0,1-1-5.12,4.52,4.52,0,0,1,.81-1.32l4.63-5.28a4.64,4.64,0,0,1,3.32-1.61A4.69,4.69,0,0,1,399.53,190.53Z"/><path class="cls-41" d="M398.65,195.13l-5.51,6.29a6.23,6.23,0,0,1-3.6,2.08,4.72,4.72,0,0,0,5.82-1l4.61-5.27a4.72,4.72,0,0,0,.25-5.91A6.24,6.24,0,0,1,398.65,195.13Z"/><path class="cls-30" d="M397.61,190.57a2.71,2.71,0,0,1,.52,3.8l-5.8,6.65a2.72,2.72,0,0,1-3.83,0h0a2.69,2.69,0,0,1-.52-3.79l5.8-6.64a2.72,2.72,0,0,1,3.83,0Z"/><path class="cls-30" d="M396.26,191.43a1.9,1.9,0,0,1,.07,2.69l-4.58,5.23a1.91,1.91,0,0,1-2.68.3h0A1.89,1.89,0,0,1,389,197l4.58-5.24a1.9,1.9,0,0,1,2.67-.3Z"/><path class="cls-30" d="M395,192.2c.37.33.25,1.09-.29,1.7l-3.39,3.88c-.54.61-1.27.84-1.65.52h0c-.38-.32-.25-1.09.28-1.71l3.4-3.88c.54-.6,1.27-.84,1.65-.51Z"/><path class="cls-4" d="M360.63,150.46c0,4.16-5.47,7.53-12.24,7.53s-12.23-3.37-12.23-7.53,5.47-7.54,12.23-7.54S360.63,146.3,360.63,150.46Z"/></g></g></svg>