<svg xmlns="http://www.w3.org/2000/svg" viewBox="0 0 246.31 487.69"><defs><style>.cls-1{isolation:isolate;}.cls-10,.cls-13,.cls-2{fill:#fff;}.cls-3{fill:#bbd490;}.cls-4{fill:#282e31;}.cls-5{fill:#454f56;}.cls-16,.cls-6{fill:#a9b9bc;}.cls-14,.cls-15,.cls-21,.cls-23,.cls-6,.cls-9{mix-blend-mode:multiply;}.cls-7{fill:#d0ebfc;}.cls-8{fill:#3aaa35;}.cls-9{fill:#6c8a99;}.cls-10,.cls-13{mix-blend-mode:soft-light;}.cls-11{fill:#491d0e;}.cls-12{fill:#d84b58;}.cls-13{opacity:0.3;}.cls-14,.cls-22{fill:#c6c6c6;}.cls-17,.cls-21{fill:#ededed;}.cls-18{fill:#979696;}.cls-19{fill:#8e8e8d;}.cls-20{fill:#b7b6b6;}.cls-23{fill:#dadada;}.cls-24{fill:#85b181;}.cls-25{fill:#4d5961;}</style></defs><title>player</title><g class="cls-1"><g id="Capa_1" data-name="Capa 1"><rect class="cls-2" x="59.36" y="483.21" width="59.55" height="4.48"/><polygon class="cls-3" points="92.04 465.12 116.53 465.12 116.53 380.37 85.76 380.37 92.04 465.12"/><polygon class="cls-2" points="90.69 446.82 92.04 465.12 116.53 465.12 116.53 446.82 90.69 446.82"/><path class="cls-4" d="M75.3,398.55l5.2-3.93s.79,7.59,2.21,8.13c2.17.83,8-4.37,8-4.37s3.69,6.7,5.81,6.66c1.61,0,7.11-6.1,7.11-6.1s2.24,5,4.55,4.39c1.74-.47,4.88-5.7,4.88-5.7s2.49,3.23,3.49,2.79c2.74-10.88,5-34.6,5-34.6L70.72,338.25Z"/><path class="cls-4" d="M172.19,323.7c0,20.91,6.71,63.69-49,63.69-52.26,0-53.28-44-53.28-64.93s35.55-5.27,55.19-5.27S172.19,302.79,172.19,323.7Z"/><path class="cls-3" d="M58.43,343c0,7.15-6.36,8.3-6.67,13.16C51.1,366.32,60.1,368.29,53,373S35,360.1,33.63,350.53c-1.62-11.66,2.69-20.31,11.25-20.31S58.43,333.35,58.43,343Z"/><path class="cls-3" d="M72.88,213.79c-10.34,2.35-25.63,26.46-33.35,49.37-9.89,29.37-1.88,72.33-1.88,72.33H55S53.36,301.86,57.55,287c6.2-22.05,13.34-27.71,21.35-40.74s-6-32.44-6-32.44"/><path class="cls-5" d="M72.88,213.79c-10.34,2.35-25.63,26.46-33.35,49.37-6.59,19.57-6.58,44.71-4.94,59.62.76.43,2.84-.75,2.84-.75l2.64,2.26,1.32-1.69,3.38,2.62,3-2.44L49.47,325l3-1.13a28.33,28.33,0,0,0,3.57,2.67c-.2-11-.45-28.36,2.38-38.4,6.2-22.05,13.43-25.83,21.44-38.87S72.88,213.79,72.88,213.79Z"/><path class="cls-3" d="M184.66,342.32c0,7.14,6.35,8.3,6.67,13.16.66,10.15-8.34,12.11-1.2,16.81s18-12.89,19.33-22.46c1.62-11.66-2.69-20.31-11.25-20.31S184.66,332.65,184.66,342.32Z"/><path class="cls-3" d="M170.21,213.09c12.63,6.2,25.63,26.46,33.35,49.38,9.89,29.37,1.88,72.33,1.88,72.33H188.05s1.7-30.66-2.51-48.53c-3.36-14.26-11.18-30.41-19.19-43.45s3.86-29.73,3.86-29.73"/><path class="cls-2" d="M169.23,247.65c0,5.07,3,76,3,76S155.85,332,125.62,332c-28.69,0-55.72-9.54-55.72-9.54s5.83-45.08,4-68.7c6.52-23.83-1.9-37.42-1-40,1.51-4.44,20.2-16,49.92-16,20.44,0,38.29,5.52,47.41,15.26C174.34,217.53,162.19,217.75,169.23,247.65Z"/><path class="cls-2" d="M169.23,247.65c0,5.07,3,76,3,76S155.85,332,125.62,332c-28.69,0-55.72-9.54-55.72-9.54s5.83-45.08,4-68.7c6.52-23.83-1.9-37.42-1-40,1.51-4.44,20.2-16,49.92-16,20.44,0,38.29,5.52,47.41,15.26C174.34,217.53,162.19,217.75,169.23,247.65Z"/><path class="cls-5" d="M145,335.49c1.16-.15,3.19-4.36,3.19-4.36s2,3.82,2.82,3.67,3.53-4.58,3.53-4.58,1.82,3.51,2.78,3.28,2.53-5.26,2.53-5.26,2.8,4,3.72,3.76c1.11-.33,2.11-5.42,2.11-5.42s2.63,4.89,3.57,4.55c1.38-.5,2-6.29,2-6.29l4,4.68s-4.68-74.39-4.68-79.45c-7-29.9,6-32.54,1.85-37-5.58-6-16.67-12.76-27.38-15.26L134.7,236.16Z"/><path class="cls-5" d="M98.05,334.86l12.42-98.7L99.94,197.83c-16.23,3.63-26.76,13-27.83,16.18-.86,2.55,7,17.89.44,41.72,1.81,23.61-7.85,71.91-7.85,71.91l4.14-2.05s1.58,3.53,3.08,3.89c1.13.27,3.69-2.9,3.69-2.9s1.87,4.21,2.87,4.44,4.09-3.88,4.09-3.88.89,5,1.79,5.16,3.22-3.69,3.22-3.69,2,4.74,3.17,4.95,3.66-3.34,3.66-3.34S96.78,334.65,98.05,334.86Z"/><path class="cls-3" d="M142.23,199.64c-3.45,12.74-38,13.68-38.86-.07,3.68-6.77,0-29.82,0-29.82h38.86S135.1,194.32,142.23,199.64Z"/><path class="cls-6" d="M142.23,190.31V171.26H103.37v19.05s5.43,9,18.31,9A28.68,28.68,0,0,0,142.23,190.31Z"/><path class="cls-3" d="M218,113.3c0,44.47-19.67,80.52-96.44,80.52-78.66,0-96.44-36-96.44-80.52S68.33,32.78,121.6,32.78,218,68.83,218,113.3Z"/><path class="cls-2" d="M94.37,113.57A13.93,13.93,0,1,1,80.44,99.65,13.93,13.93,0,0,1,94.37,113.57Z"/><path class="cls-7" d="M69.21,113.57A13.93,13.93,0,0,1,81.79,99.71q-.66-.06-1.35-.06a13.93,13.93,0,1,0,0,27.85,12,12,0,0,0,1.35-.07A13.93,13.93,0,0,1,69.21,113.57Z"/><path class="cls-8" d="M79.15,115.68a6.29,6.29,0,1,0,6.29-6.29A6.29,6.29,0,0,0,79.15,115.68Z"/><path class="cls-9" d="M83.22,115.68a2.22,2.22,0,1,0,2.22-2.22A2.21,2.21,0,0,0,83.22,115.68Z"/><path class="cls-2" d="M84.22,113.57a1.72,1.72,0,1,0,1.71-1.71A1.72,1.72,0,0,0,84.22,113.57Z"/><path class="cls-2" d="M86.36,110.94a.92.92,0,1,0,1.83,0,.92.92,0,0,0-1.83,0Z"/><path class="cls-2" d="M147,113.57a13.93,13.93,0,1,0,13.92-13.92A13.93,13.93,0,0,0,147,113.57Z"/><path class="cls-7" d="M172.11,113.57a13.92,13.92,0,0,0-12.58-13.86q.67-.06,1.35-.06a13.93,13.93,0,1,1,0,27.85,12.21,12.21,0,0,1-1.35-.07A13.92,13.92,0,0,0,172.11,113.57Z"/><path class="cls-8" d="M162.17,115.68a6.28,6.28,0,1,1-6.28-6.29A6.28,6.28,0,0,1,162.17,115.68Z"/><path class="cls-9" d="M158.1,115.68a2.21,2.21,0,1,1-2.21-2.22A2.2,2.2,0,0,1,158.1,115.68Z"/><path class="cls-2" d="M157.1,113.57a1.71,1.71,0,1,1-1.71-1.71A1.71,1.71,0,0,1,157.1,113.57Z"/><path class="cls-2" d="M155,110.94a.92.92,0,1,1-.91-.91A.92.92,0,0,1,155,110.94Z"/><path class="cls-3" d="M237.7,115.64c0,11.64-11.16,30.43-24.34,30.43s-10.21-47.85,1-54.72C222.83,86.19,237.7,94.58,237.7,115.64Z"/><path class="cls-6" d="M226.62,113.63a103.29,103.29,0,0,1-.39,12.31c3.56-3.68,5.86-8.62,5.86-12.31,0-11.4-8.9-16.3-14.65-14.33C222.11,100.7,226.62,105.52,226.62,113.63Z"/><path class="cls-3" d="M7,115.64c0,11.64,11.15,30.43,24.35,30.43s10.2-47.85-1.06-54.72C21.83,86.19,7,94.58,7,115.64Z"/><path class="cls-6" d="M18,113.63a105.46,105.46,0,0,0,.39,12.31c-3.56-3.68-5.85-8.62-5.85-12.31,0-11.4,8.89-16.3,14.65-14.33C22.55,100.7,18,105.52,18,113.63Z"/><path class="cls-6" d="M122.77,125c5.87,0,11.09,1.9,14.37,4.85a14.59,14.59,0,0,0-28.75,0C111.68,126.91,116.88,125,122.77,125Z"/><path class="cls-10" d="M185.26,136.24c0,3.88-8.57,7-19.15,7s-19.15-3.14-19.15-7,8.57-7,19.15-7S185.26,132.35,185.26,136.24Z"/><path class="cls-10" d="M98.31,136.24c0,3.88-8.58,7-19.16,7S60,140.12,60,136.24s8.58-7,19.15-7S98.31,132.35,98.31,136.24Z"/><path class="cls-11" d="M148.37,148.69c0,11.74-11.46,21.26-25.6,21.26s-25.6-9.52-25.6-21.26Z"/><path class="cls-12" d="M106.32,165a28.82,28.82,0,0,0,16.45,5,28.37,28.37,0,0,0,17.62-5.85c.66-.52-11.74-7.31-17-2.82C117.94,156.79,105.43,164.35,106.32,165Z"/><path class="cls-2" d="M144.1,156.13c1.14-1,1.46-4.82,1.46-7.44H100c0,2.62-.12,6.69,1.47,7.44S143,157.13,144.1,156.13Z"/><path class="cls-6" d="M122.77,175.76a17.77,17.77,0,0,1-10.64-3.3,11.69,11.69,0,0,0,21.28,0A17.77,17.77,0,0,1,122.77,175.76Z"/><path d="M91.72,85.14c-1.25-1.64-9.08-1.23-12.57-.57C68.23,86.66,64.36,96.94,65.07,97.73s6.32-4.45,13.24-5.08C86,91.94,89.77,94.79,90.74,94S93,86.79,91.72,85.14Z"/><path d="M150.2,85.14c1.25-1.64,9.08-1.23,12.56-.57,10.93,2.09,14.81,12.37,14.09,13.16s-6.32-4.45-13.24-5.08c-7.68-.71-11.46,2.14-12.44,1.37S149,86.79,150.2,85.14Z"/><path d="M121.6,14.29A39,39,0,0,0,100,0s11.42,8.14,9.33,14.44C29.6,16.5,15.17,39.61,16.73,92.68c9.74-6.28,15.51,3.64,16.3,11.37h4.36c-3.7-6.23,4.74-13.15,4.74-13.15S34.74,85.14,40,75.36,56,62,57.14,62.18s4.77-17.8,4.77-17.8S61.82,62,63,62.18c2.47.34,5.86.42,9.16.51,2.24.05,5-17.81,5-17.81s1.36,18.52,3.3,18.56c16.27.3,35.69-.38,57.42-.5,3.7,0,9.59-.1,13.5.24,2.7.24,7.52-15.79,7.52-15.79s3.72,14.68,5.14,14.83c1.85.17,3.72.34,5.59.49,1.42.11.55-8.8.55-8.8s5.16,9.15,5.89,9.18c1.24,0,2.49.07,3.74.09.82,0,1.89-5.32,1.89-5.32S184,63,184.86,63.08C202.62,64.79,211.35,79.24,206,88.3c4.12,5.47,1.53,12-1.32,16.76h7.08c.89-10.37,4.35-17.58,14.51-13.45,0-68.12-22.5-76.55-92.11-77.26-2,0,1.23-5,8.1-8.83C124.84,4.76,123.72,14.29,121.6,14.29Z"/><path class="cls-4" d="M59.36,483.21C54.91,473.77,75.76,458,92,458c8.14,0,24.49,4.82,24.49,4.82s5.27,12.41,2.38,20.35Z"/><path class="cls-13" d="M80.3,472.52c8.16-6.89,9.44-13.06,7.87-12.81-10.46,1.69-21.61,8.65-26.33,15.61C63.13,479,76.37,475.84,80.3,472.52Z"/><path class="cls-14" d="M116.53,462.86s-7.16-2.11-14.37-3.54c.2,6.9-7.33,14.36-12.9,17.15-7.14,3.56-22.2,6.7-30.16,1.67a7.11,7.11,0,0,0,.26,5.07h59.55C121.8,475.27,116.53,462.86,116.53,462.86Z"/><rect class="cls-2" x="124.18" y="483.21" width="59.55" height="4.48"/><polygon class="cls-3" points="151.05 465.12 126.56 465.12 126.56 380.37 157.33 380.37 151.05 465.12"/><polygon class="cls-2" points="152.4 446.82 151.05 465.12 126.56 465.12 126.56 446.82 152.4 446.82"/><path class="cls-4" d="M163.58,398.38l-4.1-3.57s-2,8.07-3.86,8.72c-1.59.55-4.6-3.83-4.6-3.83s-4.76,5.38-7,5.24-4.55-6-4.55-6-3.18,4.49-4.78,3.95c-.66-.21-3.24-4.88-3.24-4.88s-3.82,2.88-4.9,2.41c-2.75-10.88-5-34.6-5-34.6l50.32-16.34Z"/><path class="cls-4" d="M183.73,483.21c4.45-9.44-16.41-25.17-32.68-25.17-8.14,0-24.49,4.82-24.49,4.82s-5.27,12.41-2.38,20.35Z"/><path class="cls-13" d="M162.79,472.52c-8.16-6.89-9.44-13.06-7.87-12.81,10.45,1.69,21.61,8.65,26.34,15.61C180,479,166.72,475.84,162.79,472.52Z"/><path class="cls-14" d="M126.56,462.86s7.16-2.11,14.37-3.54c-.2,6.9,7.33,14.36,12.89,17.15C161,480,176,483.17,184,478.14a7.11,7.11,0,0,1-.26,5.07H124.18C121.29,475.27,126.56,462.86,126.56,462.86Z"/><g class="cls-15"><path class="cls-16" d="M41,82.44l6.75-2,7.77-2.18a93,93,0,0,1,10.26-2.18c3.79-.66,7.89-1.53,12.26-2.17,4.38-.48,9-1,13.79-1.5s9.75-.67,14.8-.86,10.19-.6,15.32-.31l15.31.6c5,.21,10,1,14.76,1.38a125.65,125.65,0,0,1,13.74,1.85L178,77.4a77,77,0,0,1,10.2,2.44L196,82l6.75,2-6.9-1.4c-4.4-.79-10.56-2.51-18.15-3.53l-12.21-1.78c-4.31-.77-8.94-.94-13.68-1.43s-9.66-1-14.67-1.17l-15.18-.4c-5.09-.35-10.18.1-15.19.11s-10,.12-14.69.66L78.34,76.12c-4.35.46-8.42,1.15-12.2,1.66s-7.28.83-10.32,1.6l-7.89,1.67Z"/></g><polygon class="cls-17" points="62.03 85.62 54.57 87.58 52.66 73.66 56.47 72.65 62.03 85.62"/><polygon class="cls-17" points="95.66 81.09 87.95 81.52 88.88 67.49 92.83 67.27 95.66 81.09"/><polygon class="cls-17" points="129 81.68 121.35 80.64 124.91 67.03 128.83 67.57 129 81.68"/><polygon class="cls-17" points="168.52 81.72 160.88 80.67 164.45 67.08 168.36 67.61 168.52 81.72"/><polygon class="cls-17" points="194.35 89.03 186.71 87.99 190.27 74.39 194.19 74.93 194.35 89.03"/><path class="cls-18" d="M246.25,74.55c.43,5-1.45,9.27-4.21,9.51l-3.45.3L237,66.22s2-.19,3.46-.3C243.23,65.68,245.81,69.54,246.25,74.55Z"/><path class="cls-19" d="M243.69,74.83c.57,6.52-2.63,9.31-2.63,9.31l-2.47.22L237,66.22,239.4,66S243.14,68.53,243.69,74.83Z"/><path class="cls-20" d="M242.79,74.85c.44,5-1.45,9.27-4.2,9.51s-5.35-3.63-5.78-8.64,1.44-9.28,4.2-9.5S242.36,69.83,242.79,74.85Z"/><path class="cls-21" d="M240.49,68.21a15.06,15.06,0,0,1,.89,4c.44,5-1.45,9.26-4.2,9.51a4.14,4.14,0,0,1-3.48-2c1.08,2.9,2.93,4.81,4.89,4.65,2.75-.24,4.64-4.5,4.2-9.51A13.2,13.2,0,0,0,240.49,68.21Z"/><path class="cls-22" d="M237.36,79.6c-3.36,1.47-31.51,1.43-34.7,1.17-1.53-.12-2.63-5,0-5.6,3.59-.85,30.66-3.83,33.94-4.26S240.73,78.14,237.36,79.6Z"/><path class="cls-10" d="M235.43,71.05c-5.76.69-26.51,3-31.87,3.94,5.68,2.1,14.31,0,20-.73C228.3,73.69,232.12,73.2,235.43,71.05Z"/><path class="cls-23" d="M226.89,77.57c-7.4.62-18.56,2.53-25.59-1.15-.63,1.66.24,4.27,1.36,4.35,3.19.26,31.34.3,34.7-1.17,1.75-.75,2.35-3.18,2.08-5.28C235.91,76.67,231,77.23,226.89,77.57Z"/><path class="cls-24" d="M202,78.12A5,5,0,0,1,203.53,74h-.07a4,4,0,1,0,.69,8h.08A5,5,0,0,1,202,78.12Z"/><path class="cls-18" d="M.06,72.07c-.43,5,1.45,9.27,4.2,9.51l3.46.29L9.3,63.73l-3.46-.3C3.08,63.19.5,67.06.06,72.07Z"/><path class="cls-19" d="M2.61,72.35c-.56,6.52,2.64,9.31,2.64,9.31l2.47.21L9.3,63.73l-2.39-.21S3.16,66.05,2.61,72.35Z"/><path class="cls-20" d="M3.52,72.37c-.44,5,1.44,9.27,4.2,9.5s5.34-3.62,5.78-8.63S12.05,64,9.3,63.73,4,67.36,3.52,72.37Z"/><path class="cls-21" d="M5.82,65.73a15.54,15.54,0,0,0-.9,4c-.43,5,1.45,9.26,4.21,9.5a4.15,4.15,0,0,0,3.48-2c-1.08,2.9-2.93,4.81-4.89,4.64-2.76-.23-4.64-4.49-4.2-9.5A13,13,0,0,1,5.82,65.73Z"/><path class="cls-22" d="M9,77.12c3.36,1.47,31.51,1.42,34.7,1.17,1.52-.12,2.63-5,0-5.6C40.05,71.84,13,68.86,9.7,68.43S5.59,75.66,9,77.12Z"/><path class="cls-10" d="M10.88,68.58c5.75.67,26.51,3,31.87,3.93-5.68,2.1-14.31-.06-20-.73C18,71.21,14.19,70.73,10.88,68.58Z"/><path class="cls-23" d="M19.42,75.09c7.4.63,18.56,2.52,25.59-1.15.63,1.65-.25,4.26-1.36,4.35-3.19.25-31.34.3-34.7-1.17-1.75-.76-2.36-3.18-2.08-5.27C10.39,74.2,15.36,74.74,19.42,75.09Z"/><path class="cls-24" d="M44.33,75.64a5,5,0,0,0-1.56-4.13h.08a4,4,0,1,1-.69,7.95h-.08A5,5,0,0,0,44.33,75.64Z"/><path class="cls-5" d="M173,213.79c10.35,2.35,25.46,28.22,33.17,51.13,6.59,19.57,3.48,47.5,1.84,62.41-.76.43-2.85-.75-2.85-.75l-2.63,2.26-1.31-1.69-3.39,2.63-3-2.45-1.69,2.26-3-1.13a28.33,28.33,0,0,1-3.57,2.67c.19-11,1-31.66-1.84-41.69-6.2-22.06-7-27.09-15-40.13S173,213.79,173,213.79Z"/><polygon class="cls-25" points="110.47 236.16 95.42 226.87 99.94 197.83 104.79 193.82 110.47 236.16"/><polygon class="cls-25" points="134.7 236.16 149.75 226.87 145.24 197.83 140.39 193.82 134.7 236.16"/></g></g></svg>