<svg xmlns="http://www.w3.org/2000/svg" viewBox="0 0 318.89 561.23"><defs><style>.cls-1{isolation:isolate;}.cls-2{fill:#c9e8fb;}.cls-3{fill:#d8e1e7;}.cls-14,.cls-3,.cls-7{mix-blend-mode:multiply;}.cls-4{fill:#f39200;}.cls-5{fill:#370e00;}.cls-6{fill:#3d2216;}.cls-8{fill:#d6bfbd;}.cls-9{fill:#231003;}.cls-10{fill:#2e180c;}.cls-11{fill:#331b10;}.cls-12{fill:#f9bb8d;}.cls-13{fill:#30130c;}.cls-14{fill:#b9c4d2;}.cls-15,.cls-18{fill:#fff;}.cls-15{opacity:0.3;mix-blend-mode:soft-light;}.cls-16,.cls-19{fill:none;stroke-linecap:round;stroke-linejoin:round;}.cls-16{stroke:#c8926a;stroke-width:2.81px;}.cls-17{fill:#f5a998;}.cls-19{stroke:#140000;stroke-width:3px;}.cls-20{fill:#431f1a;}</style></defs><title>player</title><g class="cls-1"><g id="Capa_1" data-name="Capa 1"><path class="cls-2" d="M318.83,259.72c-1.12,15.69-20.25,38.39-30.19,43.63-15.69,8.28-86,3.62-88.8-11.85s79.73-47.12,90.8-49.1S320.11,241.71,318.83,259.72Z"/><path class="cls-3" d="M318.83,259.72a17.37,17.37,0,0,0-1.66-9.46,84.71,84.71,0,0,1-12.44,28.63c-11.55,17-30.27,28.16-50.64,19.55a1,1,0,0,1-.08-1.78,14.54,14.54,0,0,0,4.67-3.62,22.49,22.49,0,0,0-3.11-.79,1,1,0,0,1-.33-1.84c2.38-1.25,5-2.05,7.05-3.75-2.15-.53-4.35-.87-6.48-1.49a1,1,0,0,1-.29-1.66,36.78,36.78,0,0,0,4.82-3.95c-3.22-.12-6.37.51-9.59-.35a1,1,0,0,1-.45-1.46,13.58,13.58,0,0,1,5.32-4c1.46-.71,3.23-1.37,4.35-2.55,3.12-3.25-4.15-3.05-5.69-3.08-7.3-.18-14.18,1.72-21.35,2.72-2.48.36-7.24.86-10.54,0-13.63,7.56-23.53,15.15-22.55,20.68,2.76,15.47,73.11,20.13,88.8,11.85C298.58,298.11,317.71,275.41,318.83,259.72Z"/><path class="cls-2" d="M298.31,175.09c8.32,19.58-.73,58.76-9.47,71.21C275,265.94,187.37,303.75,174.5,286.81s67-106,79.13-115.2S288.74,152.58,298.31,175.09Z"/><path class="cls-3" d="M298.31,175.09a23.52,23.52,0,0,0-7.83-10.38,115.15,115.15,0,0,1,2.66,42.17c-3.45,27.58-19.1,52.64-49,54.83a1.32,1.32,0,0,1-1.2-2.1,19.84,19.84,0,0,0,3.41-7.24,27.31,27.31,0,0,0-4.23,1,1.32,1.32,0,0,1-1.54-2c2.09-3,4.74-5.55,6.19-8.89-2.92.71-5.78,1.64-8.75,2.23a1.32,1.32,0,0,1-1.36-1.82,49.61,49.61,0,0,0,3.38-7.75c-4,1.85-7.37,4.55-11.77,5.51a1.31,1.31,0,0,1-1.46-1.49c.52-3.14,2.06-5.59,3.94-8.12,1.32-1.77,3-3.64,3.68-5.77,1.74-5.83-6.91-1.11-8.78-.2-8.91,4.29-16,10.83-24,16.46-2.78,2-8.2,5.51-12.72,6.5-11.75,17.53-19,32.79-14.41,38.84C187.37,303.75,275,265.94,288.84,246.3,297.58,233.85,306.63,194.67,298.31,175.09Z"/><path class="cls-2" d="M.06,259.72c1.12,15.69,20.27,38.39,30.21,43.63,15.68,8.28,86,3.62,88.8-11.85s-79.72-47.12-90.8-49.1S-1.21,241.71.06,259.72Z"/><path class="cls-3" d="M.06,259.72a17.46,17.46,0,0,1,1.67-9.46,84.73,84.73,0,0,0,12.45,28.63c11.55,17,30.27,28.16,50.64,19.55a1,1,0,0,0,.08-1.78A14.43,14.43,0,0,1,60.23,293a22.36,22.36,0,0,1,3.1-.79,1,1,0,0,0,.33-1.84c-2.37-1.25-5-2.05-7.06-3.75,2.17-.53,4.36-.87,6.5-1.49a1,1,0,0,0,.28-1.66,37.45,37.45,0,0,1-4.82-3.95c3.22-.12,6.38.51,9.59-.35a1,1,0,0,0,.46-1.46,13.69,13.69,0,0,0-5.33-4,14.91,14.91,0,0,1-4.35-2.55c-3.12-3.25,4.16-3.05,5.69-3.08,7.3-.18,14.19,1.72,21.35,2.72,2.49.36,7.24.86,10.54,0C110.14,278.38,120,286,119.07,291.5,116.3,307,46,311.63,30.27,303.35,20.33,298.11,1.18,275.41.06,259.72Z"/><path class="cls-2" d="M20.59,175.09c-8.32,19.58.73,58.76,9.48,71.21,13.81,19.64,101.47,57.45,114.33,40.51s-67-106-79.13-115.2S30.17,152.58,20.59,175.09Z"/><path class="cls-3" d="M20.59,175.09a23.46,23.46,0,0,1,7.84-10.38,114.72,114.72,0,0,0-2.66,42.17c3.45,27.58,19.1,52.64,49,54.83a1.32,1.32,0,0,0,1.2-2.1,19.68,19.68,0,0,1-3.41-7.24,27.7,27.7,0,0,1,4.24,1,1.33,1.33,0,0,0,1.54-2c-2.1-3-4.74-5.55-6.2-8.89,2.93.71,5.79,1.64,8.74,2.23a1.32,1.32,0,0,0,1.37-1.82,49.61,49.61,0,0,1-3.38-7.75c4,1.85,7.38,4.55,11.78,5.51a1.32,1.32,0,0,0,1.46-1.49c-.52-3.14-2.07-5.59-4-8.12-1.32-1.77-3-3.64-3.68-5.77-1.74-5.83,6.91-1.11,8.78-.2,8.91,4.29,16,10.83,24,16.46,2.78,2,8.2,5.51,12.72,6.5,11.75,17.53,19,32.79,14.41,38.84C131.54,303.75,43.88,265.94,30.07,246.3,21.32,233.85,12.27,194.67,20.59,175.09Z"/><polygon class="cls-4" points="200.15 524.59 179.1 524.59 179.1 383.94 212.98 383.94 200.15 524.59"/><polygon class="cls-5" points="212.98 383.94 179.1 383.94 179.1 399.76 211.53 399.76 212.98 383.94"/><polygon class="cls-5" points="210.13 415.15 179.1 415.15 179.1 430.97 208.68 430.97 210.13 415.15"/><polygon class="cls-5" points="207.28 446.36 179.1 446.36 179.1 462.17 205.84 462.17 207.28 446.36"/><polygon class="cls-5" points="204.43 477.56 179.1 477.56 179.1 493.38 203 493.38 204.43 477.56"/><polygon class="cls-5" points="179.1 508.77 179.1 524.59 200.15 524.59 201.59 508.77 179.1 508.77"/><path class="cls-6" d="M208.68,520.1l-35.22-3s-3.09,6.49,4.88,19c-9.47,18,.76,25.11.76,25.11h67.14c10.16,0,12.59-14.79-12-14.79-5.25,0-26.92-14-26.92-14Z"/><g class="cls-7"><path class="cls-8" d="M209.1,555.08c-7-2.38-17.27-5-22.54-10.64-2.79-3,.05-7.77,1.85-10.94-5.52-4.32-8.49-11.38-4.43-15.51l-10.52-.89s-3.09,6.49,4.88,19c-9.47,18,.76,25.11.76,25.11h67.14c3.12,0,5.49-1.39,6.59-3.32A84.34,84.34,0,0,1,209.1,555.08Z"/></g><polygon class="cls-4" points="114.43 524.59 135.47 524.59 135.47 383.94 101.6 383.94 114.43 524.59"/><polygon class="cls-5" points="101.6 383.94 135.47 383.94 135.47 399.76 103.04 399.76 101.6 383.94"/><polygon class="cls-5" points="104.45 415.15 135.47 415.15 135.47 430.97 105.89 430.97 104.45 415.15"/><polygon class="cls-5" points="107.3 446.36 135.47 446.36 135.47 462.17 108.73 462.17 107.3 446.36"/><polygon class="cls-5" points="110.14 477.56 135.47 477.56 135.47 493.38 111.58 493.38 110.14 477.56"/><polygon class="cls-5" points="135.47 508.77 135.47 524.59 114.43 524.59 112.99 508.77 135.47 508.77"/><path class="cls-6" d="M105.89,520.1l35.22-3s3.1,6.49-4.88,19c9.48,18-.76,25.11-.76,25.11H68.33c-10.15,0-12.58-14.79,12-14.79,5.25,0,26.92-14,26.92-14Z"/><g class="cls-7"><path class="cls-8" d="M105.47,555.08c7-2.38,17.27-5,22.54-10.64,2.79-3,0-7.77-1.85-10.94,5.52-4.32,8.49-11.38,4.44-15.51l10.51-.89s3.1,6.49-4.88,19c9.48,18-.76,25.11-.76,25.11H68.33a7.36,7.36,0,0,1-6.59-3.32A84.34,84.34,0,0,0,105.47,555.08Z"/></g><polygon class="cls-9" points="85.55 401.34 51.41 388.29 83.06 325.49 110.8 320.79 85.55 401.34"/><polygon class="cls-10" points="112.93 415.38 65.53 403.92 94.08 318.54 131.22 318.54 112.93 415.38"/><polygon class="cls-11" points="123.16 419.97 86.04 418.57 115.89 316.8 154.06 320.79 123.16 419.97"/><polygon class="cls-9" points="226.04 401.34 260.17 388.29 228.53 325.49 200.79 320.79 226.04 401.34"/><polygon class="cls-10" points="198.66 415.38 246.06 403.92 217.51 318.54 180.37 318.54 198.66 415.38"/><polygon class="cls-11" points="188.43 419.97 225.55 418.57 195.7 316.8 157.53 320.79 188.43 419.97"/><polygon class="cls-6" points="189.8 425.14 112.36 425.14 129.21 313.68 177.87 313.68 189.8 425.14"/><path class="cls-12" d="M254.91,316.12l-14.12,16s-39.28-78-52.94-81.93S180.25,229.57,190,224C228.63,236,254.91,316.12,254.91,316.12Z"/><path class="cls-12" d="M274.27,322.62c7.53,7.66,6.9,17.55-1.38,25.68s-18.76,8-25.71.94c-8.63-8.78-15.53-25.27-6.71-33.93C248.88,307,265.64,313.83,274.27,322.62Z"/><path class="cls-12" d="M59.62,314.43l13.06,16.91S116.88,256,130.77,253s8.91-20.11-.48-26.3C91,236.21,59.62,314.43,59.62,314.43Z"/><path class="cls-4" d="M229.55,327H83.06c-.3-.66,0-14.7,2.49-24.26A217.37,217.37,0,0,1,93.23,279c2.69-7.1,5.91-14.45,9.5-21.68a191.67,191.67,0,0,1,13.89-23.72c13.1-18.77,29.21-32.63,47-32,17.15.63,30.62,14.07,40.78,32a164,164,0,0,1,10.92,23.72c2.72,7.23,5,14.58,6.95,21.68,2.31,8.49,4.05,16.62,5.28,23.72A171.68,171.68,0,0,1,229.55,327Z"/><path class="cls-5" d="M227.51,302.71h-142A217.37,217.37,0,0,1,93.23,279h129C224.54,287.48,226.28,295.61,227.51,302.71Z"/><path class="cls-5" d="M215.28,257.31H102.73a191.67,191.67,0,0,1,13.89-23.72h87.74A164,164,0,0,1,215.28,257.31Z"/><path class="cls-12" d="M39.88,319.68c-8,7.16-8,17.07-.26,25.72,7.87,8.8,18.2,9.19,25.59,2.59,9.18-8.22,17.12-24.23,8.88-33.43C66.22,305.76,49.06,311.48,39.88,319.68Z"/><path class="cls-13" d="M155.57,244.88c-41.2,0-113.42-7.09-118.77-59.85C29.93,117.27,80.09,67.79,158,67.79c74.4,0,116.64,38.65,115.55,110.41S196.77,244.88,155.57,244.88Z"/><path class="cls-14" d="M157.29,324c-16.25-3.12-29.72-6.75-37.31-22.34-2.11-4.34-.76-5.86,2.29-8.67,5.85-5.39-1.64-11.2,1.44-16.55,1.58-2.73,3.35-4.15,3.38-7.79a31,31,0,0,1,.17-5.86c.77-4.05,3.22-5.79,6.79-6.72,0-.15-.06-.31-.11-.47a1.48,1.48,0,0,1,.69-1.69c5.63-3,11.45-2.93,17.7-2.38a54.91,54.91,0,0,0,23.08-2.73c10.51-3.89,22.92-11.51,23.49-23.87-9.38-13.42-21.07-22.79-35.32-23.32-17.75-.66-33.86,13.2-47,32a191.67,191.67,0,0,0-13.89,23.72c-3.59,7.23-6.81,14.58-9.5,21.68a217.37,217.37,0,0,0-7.68,23.72c-2.46,9.56-2.79,23.6-2.49,24.26h93.28C170,326.09,163.61,325.22,157.29,324Z"/><path class="cls-12" d="M252.76,183.5c0,39-37.75,63-97.18,63-60.39,0-97.2-27-97.2-63,0-44.71,33.64-94.71,96.85-94.71C215.62,88.79,252.76,138.79,252.76,183.5Z"/><path class="cls-12" d="M268.27,162a14.63,14.63,0,1,1-14.62-14.23A14.43,14.43,0,0,1,268.27,162Z"/><path class="cls-12" d="M70,164.94a14.62,14.62,0,1,1-14.62-14.23A14.43,14.43,0,0,1,70,164.94Z"/><path class="cls-13" d="M233.36,112s-18.38-27.7-76-27.7-77,32.94-77,32.94-17.51,28.16-18.73,34.82c5.43,4.91-.06,27.65,8.57,28.78-3-10.12,8.91-16.37,4-28.75,0-2.18,60.4-7.06,88.66-20.91C187.54,142,238,139.23,238,141.4c-4.87,12.37,8.63,17.62,5.62,27.74,8.63-1.12,3-17.43,8.44-22.34C250.88,140.15,233.36,112,233.36,112Z"/><path class="cls-15" d="M56.17,154.34c-2.15,1.44-5.34,1.06-7.76,2.48a14.61,14.61,0,0,0-4.81,4.26c-2.85,4.6-.72,8.95,3.56,11.18,3.72,1.93,7.76,1.7,10.75,4.83s3,6.93,3.74,11c2.19,12,7.42,25.94,17.5,33,21.25,14.85,47.75,21.51,56.48,22.49,25.5,2.85,41.94,1.74,75-9.25,7-2.31,25.56-13.26,29.48-19.42,10.78-16.92,9.46-30,10-36.06.22-2.38-.73-5.2,1.76-6.7,1.89-1.13,6.64,1,8.65.4,6.51-2.05,6-11.44,3.91-16.93-.84-2.17-6.63-6.22-9.71-4.88-2.36,1-1.82,4.33-2.66,6.63-1.68,4.55-.13,9.26-4,12.73a7.11,7.11,0,0,1-5.48,2.26c-3.08-.34-2.75-3.17-3-5.83-.35-3.7-1.65-7.76-2.69-11.36-.8-2.77-1.72-6.57-4.31-8.11s-7.29-.7-10.3-.7c-4.52,0-9-.24-13.45-.24-10.63,0-21,.23-31.49-1.44-4-.65-8-1.26-11.94-2.26-2.32-.56-4.37-3.41-6.82-3-4.82.72-10.28,4.2-15.23,4.76a117.31,117.31,0,0,0-15,3c-3.66.92-6.69,3.22-10.26,4.45s-7.58.89-11.25,1.48c-6.51,1-13.14.43-19.72,1.07-6.43.63-6,4.59-8.2,9.79-2.72,6.56-1.69,12.91-7.55,18-2.2,1.9-4.73,3-6.5.44a21.18,21.18,0,0,1-2.76-8.5c-.41-4.16.54-8.1.51-12.2,0-1.73,0-3.36-1.2-4.81-.68-.85-2.25-1.51-2.05-2.23Z"/><path class="cls-15" d="M87.13,216.69c19.27,13,43.33,18.83,51.24,19.69,23.14,2.51,38.06,1.52,68-8.09,6.3-2,23.19-11.61,26.76-17,9.77-14.8-.23-40-.46-42.34a55.23,55.23,0,0,0-2.43-9.94c-.73-2.43-1.57-5.75-3.92-7.1s-6.61-.6-9.35-.6c-4.1,0-8.13-.22-12.19-.22-9.65,0-19.09.19-28.59-1.26-3.68-.57-7.21-1.1-10.83-2-2.1-.5-4-3-6.19-2.67-4.37.62-9.32,3.68-13.81,4.16A109.79,109.79,0,0,0,131.8,152c-3.32.81-6.07,2.82-9.3,3.9s-6.89.78-10.22,1.29c-5.9.91-11.91.38-17.89.94-5.83.56-5.47,4-7.44,8.57-2.46,5.74-1.54,11.3-6.86,15.76C78.1,184.08,78,210.53,87.13,216.69Z"/><path class="cls-16" d="M162.71,181.39s1.73,4.91-5.75,4.91-5.74-6.92-5.74-6.92"/><path class="cls-17" d="M217.61,178.2c0,4.21-7.3,7.62-16.3,7.62S185,182.41,185,178.2s7.29-7.62,16.29-7.62S217.61,174,217.61,178.2Z"/><path class="cls-17" d="M127.09,182c0,4.21-7.28,7.63-16.29,7.63S94.5,186.21,94.5,182s7.3-7.61,16.3-7.61S127.09,177.8,127.09,182Z"/><path class="cls-13" d="M198.08,160.05a6.53,6.53,0,1,1-6.54-6.53A6.53,6.53,0,0,1,198.08,160.05Z"/><path class="cls-13" d="M125.42,160.05a6.53,6.53,0,1,1-6.53-6.53A6.53,6.53,0,0,1,125.42,160.05Z"/><path class="cls-18" d="M124.38,158.08a2.5,2.5,0,1,1-2.49-2.49A2.5,2.5,0,0,1,124.38,158.08Z"/><path class="cls-18" d="M196.54,157.55a2.5,2.5,0,1,1-2.5-2.49A2.5,2.5,0,0,1,196.54,157.55Z"/><path class="cls-18" d="M191.93,200.61c8.51,7.45,2,29-35.77,29s-43.73-22.48-35.78-29c7.17-5.88,15.11,3.13,36.31,3.13S185.53,195,191.93,200.61Z"/><path class="cls-4" d="M159.56,100.81c36.72,0,68.88,12.71,86.66,31.74-8.45-28.61-44-50.1-86.66-50.1s-78.2,21.49-86.64,50.1C90.71,113.52,122.86,100.81,159.56,100.81Z"/><path class="cls-19" d="M119.08,94.6c-9.63-.44-22.16-14.81-6.49-16,6.94,11.57-24.88,5.47-12.85-9,6.75-8.15,11.35,4.37,2.68,4.38-5.08,0-12.08-10.06-11.67-14.71.8-9,11.71-6.27,7.35-1.78C93,62.68,85.62,53.76,85.85,48.88c.43-9.22,11.39-4.65,5.09-1.29-5.26,2.79-12-4-14.38-7.93-2.78-4.65-6.4-14.85-.42-16.94"/><path class="cls-19" d="M209.43,98c5.5.71,15.82-8.82,12.95-14.81-4-8.43-12.68,4.84-2.09,7.06,13.82,2.91,20.45-28,4.72-29-7.71,7.41,7.69,12.29,13.19,5.29,5.83-7.43,4.17-17.5-6.11-18.85-2.39,3.56-.68,7.59,3.79,8,4.19.41,6.13-4,7.56-7.17,3.31-7.29-.24-13.38-8.07-14.74-4.55,7.44,5.45,6.4,8.48,0,2.78-5.91,4-14.86-3.49-17.43"/><path class="cls-13" d="M256.58,17.3A13.49,13.49,0,1,1,247.42.55,13.51,13.51,0,0,1,256.58,17.3Z"/><path class="cls-13" d="M87.77,17.46a13.5,13.5,0,1,1-16.4-9.77A13.5,13.5,0,0,1,87.77,17.46Z"/><path class="cls-20" d="M82.65,15.52c-.77,2.32-4.14,3.29-7.55,2.18s-5.56-3.91-4.8-6.23,4.13-3.28,7.55-2.16S83.4,13.21,82.65,15.52Z"/><path class="cls-20" d="M252.39,10.86c-.76,2.32-4.14,3.29-7.55,2.17s-5.56-3.89-4.8-6.21,4.14-3.29,7.55-2.18S253.15,8.55,252.39,10.86Z"/></g></g></svg>