<svg xmlns="http://www.w3.org/2000/svg" viewBox="0 0 230.72 473.45"><defs><style>.cls-1{isolation:isolate;}.cls-2{fill:#fff;}.cls-3{fill:#f8b894;}.cls-4{fill:#352e35;}.cls-5{fill:#e73a3a;}.cls-6{fill:#ed674d;}.cls-7{fill:#bc322e;}.cls-8{fill:#f6f6f6;}.cls-19,.cls-9{fill:none;}.cls-10{fill:#df8f72;}.cls-11{fill:#d0ebfc;}.cls-12{fill:#259cc6;}.cls-13{fill:#6c8a99;mix-blend-mode:multiply;}.cls-14{fill:#df8f6f;}.cls-15{fill:#f5a177;}.cls-16{fill:#491d0e;}.cls-17{fill:#d84b58;}.cls-18{fill:#683c11;}.cls-19{stroke:#000;stroke-miterlimit:10;stroke-width:0.75px;}.cls-20{fill:#423a43;}.cls-21{fill:#2a2329;}.cls-22{fill:#412401;}</style></defs><title>player</title><g class="cls-1"><g id="Capa_1" data-name="Capa 1"><rect class="cls-2" x="52.39" y="468.97" width="59.55" height="4.48"/><polygon class="cls-3" points="85.07 450.88 109.56 450.88 109.56 366.13 78.79 366.13 85.07 450.88"/><path class="cls-4" d="M80.47,427.16c-2.29,0-.81,18.3,1.69,18.3h30.65c3,0,3.24-18.3,0-18.3Z"/><path d="M55.56,377.16s27,20.43,54,9c2.74-10.89,5-34.61,5-34.61L63.75,324Z"/><path d="M165.22,309.46c0,20.91,6.71,63.69-49,63.69-52.26,0-53.28-44-53.28-64.93s35.55-5.28,55.19-5.28S165.22,288.55,165.22,309.46Z"/><path class="cls-5" d="M52.39,469c-4.45-9.44,16.4-25.17,32.68-25.17,8.14,0,24.49,4.83,24.49,4.83s5.26,12.4,2.38,20.34Z"/><path class="cls-6" d="M73.32,458.28c8.17-6.9,9.45-13.07,7.88-12.81-10.46,1.69-21.61,8.65-26.34,15.61C56.15,464.8,69.4,461.59,73.32,458.28Z"/><path class="cls-7" d="M109.56,448.63s-7.17-2.12-14.37-3.55c.19,6.9-7.33,14.36-12.9,17.14-7.14,3.57-22.2,6.7-30.17,1.66a7.21,7.21,0,0,0,.27,5.09h59.55C114.82,461,109.56,448.63,109.56,448.63Z"/><rect class="cls-2" x="117.2" y="468.97" width="59.55" height="4.48"/><polygon class="cls-3" points="144.07 450.88 119.58 450.88 119.58 366.13 150.36 366.13 144.07 450.88"/><path d="M173.58,377.16s-27,20.43-54,9c-2.74-10.89-5-34.61-5-34.61L165.4,324Z"/><path class="cls-5" d="M176.76,469c4.45-9.44-16.4-25.17-32.69-25.17-8.14,0-24.49,4.83-24.49,4.83S114.32,461,117.2,469Z"/><path class="cls-6" d="M155.81,458.28c-8.15-6.9-9.43-13.07-7.87-12.81,10.46,1.69,21.62,8.65,26.34,15.61C173,464.8,159.75,461.59,155.81,458.28Z"/><path class="cls-7" d="M119.58,448.63s7.16-2.12,14.37-3.55c-.2,6.9,7.34,14.36,12.91,17.14,7.13,3.57,22.2,6.7,30.16,1.66a7.21,7.21,0,0,1-.26,5.09H117.2C114.32,461,119.58,448.63,119.58,448.63Z"/><path class="cls-3" d="M65.91,199.55c-10.35,2.35-30.54,33.24-38.26,56.15-9.89,29.38,18.74,31.91,22.93,17C56.78,250.68,63.92,245,71.93,232s-6-32.43-6-32.43"/><path class="cls-3" d="M177.69,328.07c0,7.15,6.36,8.3,6.67,13.16.66,10.16-8.35,12.12-1.2,16.82s18-12.89,19.33-22.46c1.62-11.66-2.69-20.3-11.25-20.3S177.69,318.41,177.69,328.07Z"/><path class="cls-3" d="M163.24,198.85c12.64,6.2,25.63,26.46,33.34,49.38,9.9,29.37,1.88,72.32,1.88,72.32H181.07s1.7-30.65-2.5-48.52c-3.36-14.27-11.17-30.41-19.19-43.45s3.86-29.73,3.86-29.73"/><path class="cls-8" d="M162.26,233.41c0,5.06,3,76,3,76s-16.34,8.28-46.57,8.3c-28.69,0-55.72-9.54-55.72-9.54s5.82-45.08,4-68.7c6.52-23.83-1.9-37.42-1-40,1.5-4.45,20.19-16,49.91-16,20.45,0,38.3,5.51,47.42,15.26C167.37,203.28,155.21,203.51,162.26,233.41Z"/><path class="cls-9" d="M64.33,296.05H164.67c-.23-5.59-.51-12.44-.8-19.52H66.12C65.57,283.78,64.91,290.59,64.33,296.05Z"/><path class="cls-9" d="M67,239.52c.26,3.53.36,7.54.34,11.81h95.58c-.34-8.9-.59-15.78-.61-17.68h-94C67.94,235.53,67.5,237.48,67,239.52Z"/><path class="cls-9" d="M65.91,199.55c-.36,1.07.9,4,2,8.9h93.13c1.66-5.93,4.52-7.1,2.19-9.6a36.84,36.84,0,0,0-9.22-6.94H75.78C70,194.78,66.52,197.75,65.91,199.55Z"/><path d="M75.78,191.91H154c-9.77-5.38-23.29-8.32-38.2-8.32C98.14,183.59,84.36,187.67,75.78,191.91Z"/><path d="M68.3,233.65h94v-.24c-3.07-13-2.49-20.39-1.21-25H67.92A60.47,60.47,0,0,1,68.3,233.65Z"/><path d="M66.12,276.53h97.75c-.35-8.65-.71-17.65-1-25.2H67.29C67.24,259.31,66.75,268.19,66.12,276.53Z"/><path d="M62.93,308.22s27,9.56,55.72,9.54c30.23,0,46.57-8.3,46.57-8.3s-.22-5.44-.55-13.41H64.33C63.55,303.37,62.93,308.22,62.93,308.22Z"/><path class="cls-3" d="M135.26,185.4c-3.45,12.74-38,13.68-38.86-.07,3.68-6.78,0-29.82,0-29.82h38.86S128.13,180.07,135.26,185.4Z"/><path class="cls-10" d="M135.26,176.07V157H96.4v19s5.43,9,18.31,9A28.67,28.67,0,0,0,135.26,176.07Z"/><path class="cls-3" d="M211.06,99.05c0,44.48-19.66,80.53-96.43,80.53-78.65,0-96.44-36.05-96.44-80.53s43.17-80.51,96.44-80.51S211.06,54.59,211.06,99.05Z"/><path class="cls-2" d="M87.4,99.33A13.93,13.93,0,1,1,73.47,85.41,13.93,13.93,0,0,1,87.4,99.33Z"/><path class="cls-11" d="M62.24,99.33A13.92,13.92,0,0,1,74.81,85.47c-.43,0-.88-.06-1.34-.06a13.93,13.93,0,1,0,0,27.85,11.66,11.66,0,0,0,1.34-.07A13.92,13.92,0,0,1,62.24,99.33Z"/><path class="cls-12" d="M72.18,101.44a6.28,6.28,0,1,0,6.28-6.29A6.28,6.28,0,0,0,72.18,101.44Z"/><path class="cls-13" d="M76.25,101.44a2.22,2.22,0,1,0,2.21-2.22A2.21,2.21,0,0,0,76.25,101.44Z"/><path class="cls-2" d="M77.25,99.33A1.72,1.72,0,1,0,79,97.62,1.72,1.72,0,0,0,77.25,99.33Z"/><path class="cls-2" d="M79.39,96.7a.92.92,0,1,0,.91-.91A.92.92,0,0,0,79.39,96.7Z"/><path class="cls-2" d="M140,99.33a13.93,13.93,0,1,0,13.93-13.92A13.93,13.93,0,0,0,140,99.33Z"/><path class="cls-11" d="M165.15,99.33a13.93,13.93,0,0,0-12.58-13.86q.66-.06,1.35-.06a13.93,13.93,0,0,1,0,27.85,12,12,0,0,1-1.35-.07A13.93,13.93,0,0,0,165.15,99.33Z"/><path class="cls-12" d="M155.2,101.44a6.28,6.28,0,1,1-6.28-6.29A6.28,6.28,0,0,1,155.2,101.44Z"/><path class="cls-13" d="M151.13,101.44a2.22,2.22,0,1,1-2.21-2.22A2.2,2.2,0,0,1,151.13,101.44Z"/><path class="cls-2" d="M150.13,99.33a1.72,1.72,0,1,1-1.71-1.71A1.71,1.71,0,0,1,150.13,99.33Z"/><path class="cls-2" d="M148,96.7a.92.92,0,1,1-.92-.91A.92.92,0,0,1,148,96.7Z"/><path class="cls-3" d="M230.72,101.4c0,11.63-11.15,30.43-24.34,30.43S196.18,84,207.43,77.1C215.86,72,230.72,80.34,230.72,101.4Z"/><path class="cls-14" d="M219.65,99.39a105.14,105.14,0,0,1-.38,12.31c3.55-3.68,5.85-8.63,5.85-12.31,0-11.4-8.9-16.3-14.66-14.33C215.15,86.46,219.65,91.28,219.65,99.39Z"/><path class="cls-3" d="M0,101.4C0,113,11.16,131.83,24.34,131.83S34.54,84,23.29,77.1C14.86,72,0,80.34,0,101.4Z"/><path class="cls-14" d="M11.07,99.39a103.29,103.29,0,0,0,.39,12.31C7.91,108,5.6,103.07,5.6,99.39c0-11.4,8.9-16.3,14.66-14.33C15.59,86.46,11.07,91.28,11.07,99.39Z"/><path class="cls-14" d="M115.8,110.76c5.88,0,11.08,1.9,14.37,4.85a14.59,14.59,0,0,0-28.75,0C104.71,112.66,109.92,110.76,115.8,110.76Z"/><path class="cls-15" d="M178.29,122c0,3.88-8.57,7-19.15,7S140,125.87,140,122s8.57-7,19.15-7S178.29,118.11,178.29,122Z"/><path class="cls-15" d="M91.33,122c0,3.88-8.57,7-19.15,7S53,125.87,53,122s8.57-7,19.15-7S91.33,118.11,91.33,122Z"/><path class="cls-16" d="M141.4,134.45c0,11.74-11.46,21.25-25.6,21.25s-25.61-9.51-25.61-21.25Z"/><path class="cls-17" d="M99.35,150.73a28.79,28.79,0,0,0,16.45,5,28.47,28.47,0,0,0,17.63-5.85c.65-.51-11.75-7.3-17.06-2.81C111,142.55,98.45,150.1,99.35,150.73Z"/><path class="cls-2" d="M137.12,141.9c1.15-1,1.47-4.83,1.47-7.45H93c0,2.62-.11,6.68,1.46,7.45S136,142.89,137.12,141.9Z"/><path class="cls-14" d="M115.8,161.52a17.77,17.77,0,0,1-10.64-3.3,11.68,11.68,0,0,0,21.27,0A17.76,17.76,0,0,1,115.8,161.52Z"/><path class="cls-18" d="M204.5,95.79c-.22,12.86-9,18.88-13.1,19.82,5.21-9.67,7.25-34.22-2.34-43.7C145.17,87.67,109.85,44.76,68.58,44.76,65.47,68.87,43.7,68.62,36.68,78.91s-1.4,30.65-1.4,30.65-8.38-5.44-9.14-18c0-7.84-5.88-19.9-16.39-13.13C8.12,22.75,54.44,1.07,114.63.05c54.62-.94,103.16,11.28,104.64,77.32C207.55,72.61,204.75,82.91,204.5,95.79Z"/><path class="cls-19" d="M188,244.5l1.33-3.13c.63-1.12,2.45.17,2.78-.74a1.75,1.75,0,0,0-1-2.25c-.56-.21-.82.51-1.61.2s-.54-1-1.09-1.19a1.76,1.76,0,0,0-2.26,1.06c-.33.91,1.42,1,1.06,2.25-.32,1.09-.39,1.38-.9,3.09"/><path class="cls-19" d="M178.18,246.79c-1.42-.92-1.83-1.19-2.73-1.79-1.08-.73.19-1.92-.65-2.4a1.75,1.75,0,0,0-2.4.66c-.3.51.34.88-.06,1.61s-1.07.36-1.37.88a1.75,1.75,0,0,0,.66,2.4c.84.48,1.39-1.68,2.6-1.23l2.93,1.46A3.85,3.85,0,0,1,178.18,246.79Z"/><path class="cls-19" d="M181.36,253.78l-1.3,3.06c-.63,1.13-2.46-.16-2.79.75a1.77,1.77,0,0,0,1.06,2.26c.56.2.81-.52,1.61-.22s.53,1,1.09,1.2a1.76,1.76,0,0,0,2.25-1.07c.34-.91-1.42-1-1.05-2.25.3-1.05.21-1.1.7-2.74"/><path class="cls-19" d="M187.17,252.72c1.31.84,1.92,1.41,2.74,2,1.1.74-.18,1.92.66,2.41a1.77,1.77,0,0,0,2.4-.66c.29-.52-.34-.88.06-1.62s1.07-.37,1.37-.87a1.77,1.77,0,0,0-.66-2.41c-.84-.48-1.39,1.69-2.6,1.24l-2.9-1.44"/><path class="cls-19" d="M189.76,246.45c-.89-2.42-4.47-3.34-8-2s-5.65,4.32-4.75,6.75c.67,1.85,2.89,2.81,5.45,2.62.21.54.69,1.69,1,1.55l.57-.21-.37-1.29.57,1.22,1-.35-.37-1.3.57,1.22,1-.35-.36-1.3.56,1.23.55-.21c.41-.14.05-1.2-.17-1.77C189.28,250.69,190.48,248.38,189.76,246.45ZM179.59,251c-1.1.4-1.19-.41-1.13-1a2.25,2.25,0,0,1,1.62-2c1.09-.4,1.53.08,1.77.76S180.68,250.56,179.59,251Zm5.12-.54a.27.27,0,0,1-.37,0c-.42-.46-.7-.36-.73.29a.31.31,0,0,1-.17.25h-.1a.25.25,0,0,1-.25-.27c0-1.71.66-1.88,1.66-.59A.26.26,0,0,1,184.71,250.41Zm3-2.44c-1.08.41-2.92.47-3.16-.21s-.24-1.33.86-1.73a2.18,2.18,0,0,1,2.52.48C188.31,246.89,188.76,247.57,187.67,248Z"/><path class="cls-20" d="M62.48,433.08a4.92,4.92,0,0,1-.53-.39c-.31-.27-.71-.62-1.12-1s-.8-.7-1.11-1l-.46-.49a3.3,3.3,0,0,1-2.49.71,3.41,3.41,0,0,1-2.41-1.35l-.55-.7c-.32-.43-.8-1-1.18-1.57L51.1,425a3.54,3.54,0,0,1,1.07-4.78s-.13-.26-.31-.67-.42-.95-.65-1.49c-.51-1.07-.9-2.19-.9-2.19a3.52,3.52,0,0,1-4.25-2.35s-.38-1.29-.78-2.59-.64-2.59-.64-2.59a3.49,3.49,0,0,1,2.4-4.18s-.2-1.07-.41-2.14-.32-2.13-.32-2.13a3.52,3.52,0,0,1-3.66-3.1s-.15-1.31-.28-2.61-.22-2.61-.22-2.61a3.53,3.53,0,0,1,3-3.72s0-1.09-.09-2.16-.07-2.17-.07-2.17a3.54,3.54,0,0,1-3.26-3.48V380s0-1.28,0-2.55,0-2.55,0-2.55v-.08a3.53,3.53,0,0,1,3.35-3.39l.08-2c.06-1,.11-2,.11-2a3.59,3.59,0,0,1-3-3.7l.43-5.12a3.55,3.55,0,0,1,3.56-3.17l.24-2.31c.13-1.15.27-2.3.27-2.3a3.55,3.55,0,0,1-2.79-3.85l.68-5.09a3.57,3.57,0,0,1,3.71-3l.66-4.24a3.55,3.55,0,0,1-2.62-4l.87-5a3.57,3.57,0,0,1,3.82-2.84l.82-4.32a3.53,3.53,0,0,1-2.48-4l1-5a3.57,3.57,0,0,1,4.31-2.67l1.42.31a3.61,3.61,0,0,1,2.86,4.18l-1,4.93a3.56,3.56,0,0,1-3.85,2.73l-.81,4.3a3.58,3.58,0,0,1,2.55,4l-.86,4.94A3.55,3.55,0,0,1,51.39,335l-.65,4.23a3.53,3.53,0,0,1,2.68,3.86L52.76,348a3.55,3.55,0,0,1-3.61,3l-.28,2.29c-.11,1.14-.23,2.28-.23,2.28a3.55,3.55,0,0,1,2.87,3.73l-.4,5a3.55,3.55,0,0,1-3.44,3.2l-.12,2-.08,2A3.56,3.56,0,0,1,50.58,375v.08l0,2.43c0,1.22,0,2.44,0,2.44V380a3.57,3.57,0,0,1-3.19,3.45s0,1.06.07,2.13.07,2.14.07,2.14a3.62,3.62,0,0,1,3.45,3.18s0,1.23.19,2.44l.26,2.42a3.6,3.6,0,0,1-2.76,3.76s.16,1.05.31,2.1l.4,2.07a3.62,3.62,0,0,1,3.86,2.59s.26,1.16.58,2.3.67,2.27.67,2.27a3.59,3.59,0,0,1-2,4.18s.37,1.06.85,2.09l.63,1.41a6.46,6.46,0,0,0,.3.64,3.6,3.6,0,0,1,4.38,1.3s.61.93,1.21,1.87c.29.49.67.88.91,1.22l.43.54a3.29,3.29,0,0,1,.63,2.14,4.36,4.36,0,0,1-.92,2.37l.42.45,1,.88,1,.88a2.51,2.51,0,0,0,.48.36,4.46,4.46,0,0,1,2.2-1.28,3.29,3.29,0,0,1,2.19.27l.59.32c.36.17.8.47,1.3.67l2,.8c1.54.48,2.48,2.43,2.06,4.42l-.32,1.42a3.51,3.51,0,0,1-4.66,2.44l-2.7-1.08c-.68-.28-1.3-.66-1.8-.92l-.8-.43a3.48,3.48,0,0,1-1.75-2.2A3.32,3.32,0,0,1,62.48,433.08ZM44.12,374.93l0,2.52c0,1.25,0,2.51,0,2.51a1.38,1.38,0,0,0,.93,1.29,1.16,1.16,0,0,1,2.3,0A1.35,1.35,0,0,0,48.2,380s0-1.23,0-2.47,0-2.45,0-2.45a1,1,0,0,0-.06-.43,1.37,1.37,0,0,0-.81-.87v.06a1.13,1.13,0,0,1-1.19,1,1.12,1.12,0,0,1-1.13-1.1v-.06A1.34,1.34,0,0,0,44.12,374.93Zm8.31-58.61a1.12,1.12,0,0,1,1.32-.75,1.13,1.13,0,0,1,.94,1.2,1.36,1.36,0,0,0,1.15-1.07l1-4.94a1.36,1.36,0,0,0-1-1.61l-1.42-.3a1.35,1.35,0,0,0-1.59,1l-1,5A1.33,1.33,0,0,0,52.43,316.32Zm-3,16.13a1.16,1.16,0,0,1,2.27.38,1.35,1.35,0,0,0,1.12-1.11l.87-5a1.39,1.39,0,0,0-.69-1.44,1.15,1.15,0,0,1-1.27.64,1.17,1.17,0,0,1-1-1A1.37,1.37,0,0,0,49.64,326l-.87,5A1.34,1.34,0,0,0,49.46,332.45ZM47.1,348.6a1.11,1.11,0,0,1,1.26-.85,1.13,1.13,0,0,1,1,1.13,1.35,1.35,0,0,0,1.06-1.15l.68-5a1.38,1.38,0,0,0-.73-1.4,1.13,1.13,0,0,1-1.28.78,1.11,1.11,0,0,1-1-1.1,1.35,1.35,0,0,0-1.1,1.14l-.68,5.05A1.39,1.39,0,0,0,47.1,348.6Zm-1.61,16.58a1.17,1.17,0,0,1,2.3.16,1.35,1.35,0,0,0,1-1.21l.41-5a1.36,1.36,0,0,0-.87-1.4,1.21,1.21,0,0,1-1.12.54,1.17,1.17,0,0,1-1-.74,1.37,1.37,0,0,0-1.13,1.22l-.42,5.08A1.38,1.38,0,0,0,45.49,365.18ZM46,397.71a1.13,1.13,0,0,1,1-1.13,1.11,1.11,0,0,1,1.25.85,1.38,1.38,0,0,0,.77-1.37s-.12-1.24-.26-2.47-.2-2.49-.2-2.49a1.33,1.33,0,0,0-1-1.2,1.13,1.13,0,0,1-1.07.92,1.15,1.15,0,0,1-1.19-.78,1.35,1.35,0,0,0-.83,1.36s.06,1.3.2,2.57.27,2.56.27,2.56A1.33,1.33,0,0,0,46,397.71Zm3.54,16.08a1.11,1.11,0,0,1,.78-1.31,1.15,1.15,0,0,1,1.41.57,1.38,1.38,0,0,0,.48-1.47l-.7-2.35c-.33-1.18-.6-2.39-.6-2.39a1.35,1.35,0,0,0-1.19-1,1.12,1.12,0,0,1-.9,1.17,1.15,1.15,0,0,1-1.34-.68,1.36,1.36,0,0,0-.59,1.49s.29,1.26.63,2.52.75,2.51.75,2.51A1.31,1.31,0,0,0,49.55,413.79Zm8.17,14.86a1.1,1.1,0,0,1,.23-1.53,1.13,1.13,0,0,1,1.5,0,1.41,1.41,0,0,0-.07-1.54s-.19-.23-.45-.58-.67-.8-1-1.31c-.64-1-1.29-2-1.29-2a1.35,1.35,0,0,0-1.49-.6,1.24,1.24,0,0,1-.63,1.08,1.12,1.12,0,0,1-1.22,0,1.34,1.34,0,0,0-.22,1.68l1.45,2.24c.36.57.81,1.08,1.1,1.48s.52.66.52.66A1.31,1.31,0,0,0,57.72,428.65Zm6.68,5.74-.05,0a1.33,1.33,0,0,0,.71,1.47l.75.39a15.89,15.89,0,0,0,1.66.84l2.52,1a1.37,1.37,0,0,0,1.77-.86l.42-1.4a1.33,1.33,0,0,0-.82-1.65l-2.18-.87c-.55-.22-1-.54-1.44-.74l-.64-.35a1.47,1.47,0,0,0-1.51.17l0,0a1.13,1.13,0,0,1,.3,1.52A1.09,1.09,0,0,1,64.4,434.39Z"/><rect class="cls-4" x="49.89" y="291.52" width="16.33" height="23.32" transform="translate(-243.38 236.64) rotate(-66.71)"/><path class="cls-4" d="M117.05,280.38a44.19,44.19,0,1,1-23.11-58.07A44.18,44.18,0,0,1,117.05,280.38Z"/><path class="cls-21" d="M67.65,295.75a44.19,44.19,0,0,1-16.11-69.33,44.19,44.19,0,1,0,58.51,65.22A44.14,44.14,0,0,1,67.65,295.75Z"/><path class="cls-20" d="M109,277.77c-9.55,4.92-22.38-1-28.66-13.16s-3.63-26.05,5.92-31,22.37,1,28.64,13.16S118.5,272.85,109,277.77Z"/><path class="cls-4" d="M76.47,431.28a5.83,5.83,0,1,0,5.82,5.84A5.83,5.83,0,0,0,76.47,431.28Zm0,8.28a2.44,2.44,0,1,1,2.43-2.44A2.44,2.44,0,0,1,76.47,439.56Z"/><path class="cls-3" d="M114.5,276.53c-4.84-10.92-13.65,2.61-13.78-2.27-.41-14.56-13.36.45-12.16,10,1.46,11.67-.92,7.53,7.34,9.78C108.88,297.62,118.42,285.35,114.5,276.53Z"/><path class="cls-3" d="M33.59,280.7C50,290.06,95.9,294.08,95.9,294.08s7.29-14.6-3.81-14.58-40.58-13.65-55.1-19C23.79,255.7,26.14,276.47,33.59,280.7Z"/><path class="cls-22" d="M84.74,67.9c-1.24-1.65-9.07-1.24-12.56-.58C61.26,69.41,57.39,75.17,58.1,76s6.32-4.45,13.24-5.09C79,70.17,82.8,73,83.77,72.25S86,69.54,84.74,67.9Z"/><path class="cls-22" d="M143.23,67.9c1.25-1.65,9.07-1.24,12.56-.58,10.93,2.09,14.8,7.85,14.09,8.65s-6.32-4.45-13.25-5.09C149,70.17,145.18,73,144.2,72.25S142,69.54,143.23,67.9Z"/><path d="M156.86,74.05c-17.27-4.8-32.46,10.25-32.46,25.24s12.11,19.78,29.77,22.89c14.67,2.59,31.83.83,31.83-12.4a69.66,69.66,0,0,0,18.59-16.51l.19-2.72s-11.05,8-20.6,8.9A41,41,0,0,0,156.86,74.05Zm-2.28,39.81C144.16,112,137,109.19,137,100.33s9-17.76,19.18-14.91,17.22,12.25,17.22,21.11C173.4,114.35,163.26,115.39,154.58,113.86Z"/><path d="M46.59,99.45C37,98.53,26,90.55,26,90.55l.19,2.72a69.66,69.66,0,0,0,18.59,16.51c0,13.23,17.16,15,31.84,12.4,17.65-3.11,29.76-7.91,29.76-22.89s-15.19-30-32.45-25.24A41,41,0,0,0,46.59,99.45Zm10.79,7.08c0-8.86,7.08-18.29,17.22-21.11s19.18,6,19.18,14.91S86.62,112,76.19,113.86C67.52,115.39,57.38,114.35,57.38,106.53Z"/><path d="M126.43,101c-3.19-6.37-19.74-6.59-22.11,0s-3.84-3.55-.75-8.82,19.48-5.45,22.86,0S129.63,107.42,126.43,101Z"/></g></g></svg>