<svg xmlns="http://www.w3.org/2000/svg" viewBox="0 0 290.07 473.45"><defs><style>.cls-1{isolation:isolate;}.cls-2{fill:#9f1f0e;}.cls-18,.cls-3{fill:#fff;}.cls-4{fill:#f8b894;}.cls-5{fill:#e73a3a;}.cls-6{fill:#ed674d;}.cls-7{fill:#bc322e;}.cls-8{fill:#e5251d;}.cls-9{fill:#fdfdfd;}.cls-10{fill:#dfe0e0;}.cls-11{fill:#df8f72;}.cls-12{fill:#bfbbb6;}.cls-13{fill:#d0ebfc;}.cls-14{fill:#c02b35;}.cls-15{fill:#6c8a99;}.cls-15,.cls-17{mix-blend-mode:multiply;}.cls-16{fill:#df8f6f;}.cls-17{fill:#dadada;}.cls-18{mix-blend-mode:soft-light;}.cls-19{fill:#491d0e;}.cls-20{fill:#d84b58;}.cls-21{fill:#b82214;}</style></defs><title>player</title><g class="cls-1"><g id="Capa_1" data-name="Capa 1"><path class="cls-2" d="M136.09,458.28H73.33s7.6-211.48,77.8-238.56,137.58,11.5,137.58,11.5-50.06,129.29-91,176.2C181.87,425.51,136.09,458.28,136.09,458.28Z"/><rect class="cls-3" x="52.39" y="468.97" width="59.55" height="4.48"/><polygon class="cls-4" points="85.08 450.88 109.55 450.88 109.55 366.13 78.78 366.13 85.08 450.88"/><polygon class="cls-3" points="83.71 432.58 85.08 450.88 109.55 450.88 109.55 432.58 83.71 432.58"/><polygon points="83.71 438 109.55 441.72 114.58 351.58 63.74 324.01 83.71 438"/><path class="cls-5" d="M52.39,469c-4.45-9.44,16.4-25.17,32.69-25.17,8.14,0,24.47,4.83,24.47,4.83s5.27,12.4,2.39,20.34Z"/><path class="cls-6" d="M73.33,458.28c8.16-6.9,9.43-13.06,7.87-12.81-10.46,1.69-21.61,8.65-26.33,15.62C56.15,464.8,69.4,461.59,73.33,458.28Z"/><path class="cls-7" d="M109.55,448.63s-7.15-2.12-14.36-3.55c.2,6.9-7.34,14.36-12.9,17.14-7.14,3.58-22.2,6.7-30.17,1.66a7.21,7.21,0,0,0,.27,5.09h59.55C114.82,461,109.55,448.63,109.55,448.63Z"/><rect class="cls-3" x="117.2" y="468.97" width="59.56" height="4.48"/><polygon class="cls-4" points="144.08 450.88 119.58 450.88 119.58 366.13 150.35 366.13 144.08 450.88"/><polygon class="cls-3" points="145.43 432.58 144.08 450.88 119.58 450.88 119.58 432.58 145.43 432.58"/><polygon points="145.43 439.5 119.58 441.72 114.58 351.58 165.39 324.01 145.43 439.5"/><path class="cls-5" d="M176.76,469c4.45-9.44-16.4-25.17-32.68-25.17-8.14,0-24.5,4.83-24.5,4.83S114.32,461,117.2,469Z"/><path class="cls-6" d="M155.82,458.28c-8.16-6.9-9.44-13.06-7.88-12.81,10.46,1.69,21.62,8.65,26.34,15.62C173,464.8,159.75,461.59,155.82,458.28Z"/><path class="cls-7" d="M119.58,448.63s7.16-2.12,14.37-3.55c-.19,6.9,7.34,14.36,12.9,17.14,7.15,3.58,22.21,6.7,30.17,1.66a7.15,7.15,0,0,1-.26,5.09H117.2C114.32,461,119.58,448.63,119.58,448.63Z"/><path class="cls-2" d="M136.09,195.19s-16.25,3.66-38-16.77a61.52,61.52,0,0,1-16.76-27.81l-39.11-2.46s14.9,26,45.83,41.62c19.58,9.88,48,5.42,48,5.42"/><path class="cls-2" d="M85.58,198.42s16.24,3.67,38-16.77a61.45,61.45,0,0,0,16.75-27.82l39.11-2.44s-14.9,26-45.84,41.61c-19.57,9.87-48,5.42-48,5.42"/><path d="M165.22,309.46c0,20.91,6.71,63.69-49,63.69-52.26,0-53.28-44-53.28-64.93s35.55-5.28,55.19-5.28S165.22,288.55,165.22,309.46Z"/><path class="cls-8" d="M70.58,330.55c0,7.14-6.35,8.31-6.67,13.17-.66,10.15,8.35,12.11,1.2,16.81s-18-12.89-19.33-22.46c-1.62-11.66,2.69-20.31,11.25-20.31S70.58,320.9,70.58,330.55Z"/><path class="cls-4" d="M258.23,230.78c7,1.39,9.38-4.63,14.22-4,10.09,1.31,10.27,10.54,16.26,4.44s-9.16-20.16-18.29-23.32c-11.12-3.84-20.43-1.29-22.1,7.1S248.76,228.9,258.23,230.78Z"/><path class="cls-3" d="M163.23,198.85c12.64,6.2,92,8.2,92,8.2l-6.9,16.58s-81,18-89,5,3.84-29.73,3.84-29.73"/><path class="cls-9" d="M162.26,233.41c0,5.06,3,76,3,76s-16.35,8.28-46.58,8.3c-28.68,0-55.71-9.54-55.71-9.54s5.83-45.08,4-68.7c6.52-23.83-1.89-37.42-1-40,1.5-4.45,20.19-16,49.92-16,20.44,0,38.29,5.51,47.4,15.25C167.37,203.28,155.22,203.51,162.26,233.41Z"/><path class="cls-10" d="M115.83,183.6l-2,0V317.68c1.58.05,3.18.08,4.77.08s3.13,0,4.63-.07V183.84C120.84,183.67,118.36,183.6,115.83,183.6Z"/><path class="cls-4" d="M135.26,185.4c-3.45,12.74-38,13.67-38.86-.07,3.68-6.78,0-29.82,0-29.82h38.86S128.13,180.08,135.26,185.4Z"/><path class="cls-11" d="M135.26,176.07V157H96.4v19s5.43,9,18.31,9A28.67,28.67,0,0,0,135.26,176.07Z"/><path class="cls-4" d="M211.06,99.05c0,44.48-19.66,80.53-96.44,80.53-78.64,0-96.43-36.05-96.43-80.53s43.18-80.51,96.43-80.51S211.06,54.59,211.06,99.05Z"/><path class="cls-12" d="M201.53,110.68c0,5.89-3.78,11.34-4.78,16.77-1.07,5.79.4,12.22-2.12,17.28s-8.62,8-13,12.16c-4,3.79-6.84,9.69-12.6,12.48-4.9,2.38-11.67,1.39-18,2.92-5.34,1.29-10.65,5.41-17.13,6-5.54.54-11.7-2.38-18.14-2.38s-12.63,2.93-18.18,2.42c-6.52-.61-11.87-4.7-17.23-6-6.43-1.5-13.19-.47-18.11-2.8-5.84-2.77-8.73-8.66-12.71-12.46-4.38-4.17-10.43-7.09-12.92-12.26s-.91-11.53-1.93-17.35c-1-5.47-4.69-10.94-4.69-16.86,0-5.62,4.17-10.62,5.81-15.83S36.86,83.25,40,78.57s9.34-6.84,13.6-10.71c4.1-3.73,6.67-9.62,11.71-12.55,4.83-2.81,9.85-4.51,15.39-6.45,5.32-1.87,15.81,3,20.7,11.28s14.43,8.28,14.43,8.28,9.1-9,17.65-8.66c8.09.36,12.37-10,17.68-8.16,5.54,1.94,10.27.9,15.1,3.71,5,2.93,7.61,8.82,11.71,12.55,4.25,3.87,10.55,6.12,13.59,10.71s2.53,11,4.19,16.28S201.53,105.06,201.53,110.68Z"/><path class="cls-3" d="M87.4,99.33A13.93,13.93,0,1,1,73.46,85.41,13.93,13.93,0,0,1,87.4,99.33Z"/><path class="cls-13" d="M62.23,99.33A13.93,13.93,0,0,1,74.82,85.47c-.46,0-.89-.06-1.36-.06a13.93,13.93,0,0,0,0,27.85,12.26,12.26,0,0,0,1.36-.07A13.93,13.93,0,0,1,62.23,99.33Z"/><path class="cls-14" d="M72.18,101.44a6.28,6.28,0,1,0,6.28-6.29A6.28,6.28,0,0,0,72.18,101.44Z"/><path class="cls-15" d="M76.24,101.44a2.22,2.22,0,1,0,2.22-2.22A2.23,2.23,0,0,0,76.24,101.44Z"/><path class="cls-3" d="M77.26,99.33A1.71,1.71,0,1,0,79,97.62,1.71,1.71,0,0,0,77.26,99.33Z"/><path class="cls-3" d="M79.39,96.7a.92.92,0,1,0,.91-.91A.92.92,0,0,0,79.39,96.7Z"/><path class="cls-3" d="M140,99.33a13.93,13.93,0,1,0,13.94-13.92A13.93,13.93,0,0,0,140,99.33Z"/><path class="cls-13" d="M165.14,99.33a13.92,13.92,0,0,0-12.57-13.86q.66-.06,1.35-.06a13.93,13.93,0,0,1,0,27.85,12,12,0,0,1-1.35-.07A13.92,13.92,0,0,0,165.14,99.33Z"/><path class="cls-14" d="M155.2,101.44a6.28,6.28,0,1,1-6.28-6.29A6.28,6.28,0,0,1,155.2,101.44Z"/><path class="cls-15" d="M151.13,101.44a2.22,2.22,0,1,1-2.21-2.22A2.21,2.21,0,0,1,151.13,101.44Z"/><path class="cls-3" d="M150.13,99.33a1.72,1.72,0,1,1-1.71-1.71A1.71,1.71,0,0,1,150.13,99.33Z"/><path class="cls-3" d="M148,96.7a.92.92,0,1,1-.91-.91A.92.92,0,0,1,148,96.7Z"/><path class="cls-4" d="M230.73,101.4c0,11.63-11.16,30.43-24.35,30.43S196.18,84,207.44,77.11C215.87,72,230.73,80.34,230.73,101.4Z"/><path class="cls-16" d="M219.65,99.39a103.34,103.34,0,0,1-.39,12.31c3.56-3.68,5.86-8.63,5.86-12.31,0-11.4-8.9-16.3-14.65-14.33C215.14,86.46,219.65,91.28,219.65,99.39Z"/><path class="cls-4" d="M0,101.4C0,113,11.15,131.83,24.34,131.83S34.54,84,23.29,77.11C14.86,72,0,80.34,0,101.4Z"/><path class="cls-16" d="M11.07,99.39a105.19,105.19,0,0,0,.38,12.31C7.9,108,5.61,103.07,5.6,99.39c0-11.4,8.9-16.3,14.65-14.33C15.58,86.46,11.07,91.28,11.07,99.39Z"/><path class="cls-17" d="M115.8,110.76a11.16,11.16,0,0,1,9.1,4.85c-.58-6.83-4.43-12.11-9.1-12.11s-8.52,5.28-9.11,12.11A11.18,11.18,0,0,1,115.8,110.76Z"/><path class="cls-18" d="M178.29,122c0,3.88-8.57,7-19.15,7S140,125.87,140,122s8.58-7,19.16-7S178.29,118.11,178.29,122Z"/><path class="cls-18" d="M91.33,122c0,3.88-8.57,7-19.15,7S53,125.87,53,122s8.58-7,19.15-7S91.33,118.11,91.33,122Z"/><path class="cls-19" d="M141.4,134.45c0,11.74-11.46,21.25-25.6,21.25s-25.61-9.51-25.61-21.25Z"/><path class="cls-20" d="M99.35,150.73a28.77,28.77,0,0,0,16.45,5,28.47,28.47,0,0,0,17.62-5.84c.66-.52-11.75-7.32-17-2.82C111,142.55,98.45,150.1,99.35,150.73Z"/><path class="cls-3" d="M134.12,141.89c1.14-1,4.47-4.82,4.47-7.44H93c0,2.62,2.9,6.68,4.48,7.44.3.15-.92-5.74,1.74-5.64,7.82.31,23.3.39,31.87.12C134.54,136.27,133.85,142.12,134.12,141.89Z"/><path class="cls-17" d="M115.8,161.53a17.82,17.82,0,0,1-10.64-3.31,11.68,11.68,0,0,0,21.27,0A17.81,17.81,0,0,1,115.8,161.53Z"/><path d="M84.74,70.9c-1.25-1.64-9.07-1.24-12.56-.57C61.26,72.42,57.39,82.69,58.09,83.49s6.33-4.44,13.24-5.08C79,77.7,82.8,80.55,83.77,79.78S86,72.55,84.74,70.9Z"/><path d="M143.23,70.9c1.25-1.64,9.07-1.24,12.57-.57,10.92,2.09,14.79,12.36,14.07,13.16s-6.31-4.44-13.24-5.08c-7.67-.71-11.46,2.14-12.42,1.37S142,72.55,143.23,70.9Z"/><path d="M204.51,95.79c-.23,12.86-9,18.88-13.11,19.82,5.2-9.68,4.32-46.15-26.87-68.24C145.82,34.12,115.8,68.42,115.8,68.42S98.6,36.14,68.58,44.76,35.25,66.44,33,81c-1.88,12.32,2.23,28.61,2.23,28.61s-8.37-5.44-9.12-18c0-7.85-5.9-19.9-16.4-13.13C8.12,22.75,54.44,1.07,114.62.05c54.62-.94,103.17,11.29,104.64,77.32C207.55,72.61,204.75,82.91,204.51,95.79Z"/><path d="M122.09,306.11a3.35,3.35,0,1,1-3.35-3.34A3.34,3.34,0,0,1,122.09,306.11Z"/><path d="M122.09,280.55a3.35,3.35,0,1,1-3.35-3.36A3.36,3.36,0,0,1,122.09,280.55Z"/><path d="M122.09,255a3.35,3.35,0,1,1-3.35-3.35A3.35,3.35,0,0,1,122.09,255Z"/><path d="M122.09,229.4a3.35,3.35,0,1,1-3.35-3.36A3.34,3.34,0,0,1,122.09,229.4Z"/><path class="cls-8" d="M66.08,197.09c-10.33,2.35-16.14,30.68-23.85,53.59-9.89,29.38,6,75.81,6,75.81H68.33s-5.11-35.34-.92-50.22c6.2-22.06-3.49-31.25,4.52-44.28s-6-32.44-6-32.44Z"/><path class="cls-8" d="M281.29,214.64c-10.37-3.92-29.86-6.29-51.83-7.68-49-3.11-110.21-1.39-110.21-1.39s-16.33,242.14-17.9,244.33c-11.1,15.46-59.12-1.13-59.12-1.13S66.81,263.78,65,240.15c6.51-23.82-2.11-38.05-1.26-40.6.76-2.22,8-6.21,16.54-9.65s20.67,7.19,35.54,7.19c11.88,0,22.89-11.64,31.81-8.16,6.43,2.5,14,4.18,17.84,8.26,2.31,2.47,34.22,5,64.13,6.92C253.35,205.65,273,199.42,281.29,214.64Z"/><path class="cls-21" d="M97.49,202c7.17,1.35,14.48,3,21.76,3.56,13.74,1.07,23-6.1,29.94-16-.52-.22-1-.44-1.56-.64-8.92-3.48-19.93,8.16-31.81,8.16-14.87,0-27-10.62-35.54-7.19-1.47.59-2.85,1.2-4.11,1.82C80.81,198.61,89.81,200.56,97.49,202Z"/><path class="cls-8" d="M126.34,196.19c1.66,3.51-4.76,7-10.64,7s-11.18-3.18-10.62-7c1.59-11.09,10.53-1,10.53-1S121.09,185.1,126.34,196.19Z"/><path class="cls-8" d="M109.27,195.19s17.13,3.66,40.08-16.77A60.66,60.66,0,0,0,167,150.61l41.25-2.46s-15.71,26-48.37,41.62c-20.63,9.88-50.64,5.42-50.64,5.42"/><path class="cls-8" d="M119.58,196.17s-18,3.75-42.24-17.11a61.67,61.67,0,0,1-18.63-28.4l-43.48-2.51s16.56,26.55,51,42.5c21.76,10.08,53.38,5.52,53.38,5.52"/></g></g></svg>