<svg xmlns="http://www.w3.org/2000/svg" viewBox="0 0 313.71 570.85"><defs><style>.cls-1{isolation:isolate;}.cls-2{fill:#454f56;}.cls-3{fill:#242b2d;}.cls-15,.cls-25,.cls-32,.cls-37,.cls-39,.cls-4,.cls-42,.cls-44,.cls-46,.cls-7{mix-blend-mode:multiply;}.cls-5,.cls-7{fill:#c6c6c6;}.cls-6{fill:#e4b58b;}.cls-11,.cls-8{fill:#fff;}.cls-9{fill:#79831a;}.cls-10{fill:#929614;}.cls-10,.cls-16,.cls-38{opacity:0.5;}.cls-11{opacity:0.2;}.cls-11,.cls-33,.cls-34,.cls-38{mix-blend-mode:soft-light;}.cls-12{fill:#2f0d01;}.cls-13{fill:#45170d;}.cls-14{fill:#ee714f;}.cls-15,.cls-19,.cls-23,.cls-40{fill:none;}.cls-15{stroke:#c8926a;stroke-width:2.81px;}.cls-15,.cls-19,.cls-23{stroke-linecap:round;stroke-linejoin:round;}.cls-16{fill:#e7593e;}.cls-17{fill:#30130c;}.cls-18{fill:#8e8a0f;}.cls-19{stroke:#140000;stroke-width:3px;}.cls-20{fill:#293033;}.cls-21{fill:#706f6f;}.cls-22{fill:#8c8c8b;}.cls-23{stroke:#f7daa2;stroke-width:2.55px;}.cls-24{fill:#e74310;}.cls-25{fill:#ead9d6;}.cls-26{fill:#c31b0d;}.cls-27{fill:#5d1401;}.cls-28{fill:#2f0a01;}.cls-29{fill:#ccc;}.cls-30{fill:#fdfdfd;}.cls-31{fill:#95c11f;}.cls-32{fill:#c7cec9;}.cls-33,.cls-38{fill:#a88775;}.cls-34{fill:#fce1d6;}.cls-35{fill:#641140;}.cls-36{fill:#f07e2d;}.cls-37{fill:#d2b8af;}.cls-39{fill:#e1c4bb;}.cls-41{fill:#352e35;}.cls-42{fill:#d3c4c1;}.cls-43{fill:#f39200;}.cls-44{fill:#d3d5d8;}.cls-45{fill:#aa7cb5;}.cls-46{fill:#cecdd1;}.cls-47{fill:#45babd;}.cls-48{fill:#223a8f;}.cls-49{fill:#9db41f;}</style></defs><title>player</title><g class="cls-1"><g id="Capa_1" data-name="Capa 1"><path class="cls-2" d="M197.51,549.92l-9.28-150.11h54.34L215.34,543.23c.52,0,6-.75,3.68,5-.38.93,3.1,1.25,3,2.25a6.64,6.64,0,0,1-1.2,3.33,34.29,34.29,0,0,0,13.24,2.25c9.33,0,22.19,14.79,12,14.79H200.54c-7,0-4.15-15.78-3-20.93Z"/><path class="cls-3" d="M195.17,512.11h26.08l-5.91,31.12c.52,0,6-.75,3.68,5-.38.93,3.1,1.25,3,2.25a6.64,6.64,0,0,1-1.2,3.33,34.29,34.29,0,0,0,13.24,2.25c9.33,0,22.19,14.79,12,14.79H200.54c-7,0-4.15-15.78-3-20.93Z"/><g class="cls-4"><path class="cls-5" d="M190.54,435.32c2.54,2.14,5.06,6.32,6.8,9.08,3.31,5.29,3.41,10.78,3.2,16.87-.25,6.7-5.76,16.25.26,21.62,1.28,1.15,3.35,1.7,4.42,3,2.16,2.71-2.43,5.33-3.9,6.67-2.23,2.07-1.62,6.28-1.38,8.87.57,6,2.27,11.61,2,17.68-.29,6.82.84,14.12.15,20.84-.42,4-1.77,7.1,1.08,10.38,0,0,4.51,1.88,3.09,2.95a9.09,9.09,0,0,0-2.6,2.57c-3.47,5.9,6.85,12.31,11,13.81,1.2.43,2.41.82,3.62,1.16H200.54c-7,0-4.15-15.78-3-20.93Z"/></g><path class="cls-2" d="M112.9,556.06a38.76,38.76,0,0,0,10.63-1.33c-1.31-4,1.48-2.33,4.41-5.25,1.18-1.18-2.06-5.5,2.93-6.5l-27-143.17h54.85l-9.29,150.11h0c1.12,5.15,4,20.93-3,20.93H100.86C90.71,570.85,103.56,556.06,112.9,556.06Z"/><path class="cls-3" d="M112.9,556.06a38.76,38.76,0,0,0,10.63-1.33c-1.31-4,1.48-2.33,4.41-5.25,1.18-1.18-2.06-5.5,2.93-6.5L125,511.61h26.86l-2.37,38.31c1.12,5.15,4,20.93-3,20.93H100.86C90.71,570.85,103.56,556.06,112.9,556.06Z"/><g class="cls-4"><path class="cls-5" d="M139.86,548.92c1.92-.66,4.09-1.88,2.83-4a15.11,15.11,0,0,0-3.34-3.48c-2.33-2.09.25-5.21,1.22-7.56.73-1.74-1.1-5.22-.95-6.89.36-4.12,1.08-8.18,1.53-12.29.92-8.1-1.72-17.16,1.42-24.79a1.51,1.51,0,0,0-1.06-1.86c-1-.14-6.88-.34-4.34-2.55a46.76,46.76,0,0,0,3.94-3.49c2.77-3.05,3.72-6.47,4.27-10.53.71-5.28,6.59-43.35,11.81-46.71l-7.74,125.15c1.12,5.15,4,20.93-3,20.93h-22C136.73,567.53,146.41,561.43,139.86,548.92Z"/></g><path class="cls-6" d="M312.54,331.46c3.06,7.13,0,13.62-7.69,16.89-7.85,3.36-14.72.45-17.53-6.14-3.48-8.19-3.77-21.09,4.43-24.58C299.59,314.29,309.06,323.28,312.54,331.46Z"/><path class="cls-2" d="M302.54,318.71c-3.39,12.92-18.19,10.65-18.19,10.65s-26-40.17-46.49-45.1c-10.69-2.57-37.44-50.11-27.78-55.87C252.83,229.87,285.66,273,302.54,318.71Z"/><path class="cls-7" d="M234.82,253.77c7,2,49.72,55.67,58.07,74.89a22.11,22.11,0,0,1-8.54.7s-26-40.17-46.49-45.1c-3.6-.86-9-6.83-14.25-14.58C226.78,271.81,230.7,252.56,234.82,253.77Z"/><path class="cls-6" d="M45.84,334.54c-2.62,7.3.78,13.59,8.68,16.42s14.72-.43,17.13-7.16c3-8.37,2.55-21.27-5.85-24.28C57.78,316.65,48.85,326.17,45.84,334.54Z"/><path class="cls-2" d="M55.1,321.23c4.14,12.69,18.77,9.57,18.77,9.57s23.62-41.6,43.81-47.71c10.54-3.18,34.48-52.19,24.51-57.39C99.58,229.67,69.32,274.56,55.1,321.23Z"/><path class="cls-7" d="M119,252.47c-6.91,2.44-46.41,58.46-53.64,78.13a21.86,21.86,0,0,0,8.56.2s23.62-41.6,43.81-47.71c3.55-1.06,8.61-7.34,13.38-15.38C128,270,123,251,119,252.47Z"/><path class="cls-2" d="M178,437c135.73,0,89.35-148.55,53.1-190-18.84-21.51-40.68-24.51-63.58-24.51-16.52,0-31.76,1.13-45.31,20.6C83.29,299.1,46.16,437,178,437Z"/><polygon class="cls-8" points="172.75 298.3 273.9 231.98 81.03 231.98 172.75 298.3"/><path class="cls-9" d="M81,211.43c32.86,42.25,131.64,55.51,164.93,14.33,93.39-16,42.78-172.84-68.31-172.88C65.71,52.85,25.55,175.82,81,211.43Z"/><path class="cls-7" d="M249.69,394.55c2.4-7.22,5.66-14.95,6.91-22.48a21,21,0,0,0-3.17-15.27c-.59-1-6.59-10.92-5.12-11.17a6.88,6.88,0,0,0,3.57-1.25,1.44,1.44,0,0,0,.38-1.46c-.81-3.28-3.13-8.6-5.82-10.73-1.29-1-7.91-5.12-3.49-7.35.84-.42,2.27-.91,2.78-1.8,1.57-2.82-.59-6.78-.91-9.7-.48-4.74-6.88-5.16-1.57-10.78,4.11-4.35-7.75-15-5.89-20.87,2-6.45,3-12.5,6.3-16.56,24.27,42.17,43.13,119.63-2.14,154.29C243.91,411,246.93,402.85,249.69,394.55Z"/><path class="cls-7" d="M99.33,287.58c5.89,7.5-7.06,28.17-7.73,36.29-2.44,29.25,9.46,56.95,11.86,85.67C77.73,379.05,83.7,328.73,99.33,287.58Z"/><path class="cls-7" d="M197.46,259.37a122.07,122.07,0,0,1-43.62,3.35c-14.16-1.56-25.91-8.06-33.16-20.61l-.09-.17c13.32-18.27,28.26-19.4,44.42-19.4,22,0,43.11,2.83,61.46,22.24C217.34,250.69,208,256.52,197.46,259.37Z"/><path class="cls-7" d="M174.94,427c21.86,0,39-3.87,52.18-10.51C216,429.11,199.18,437,174.83,437c-24.6,0-41.62-7.94-52.91-20.73C135.34,423.06,152.73,427,174.94,427Z"/><path class="cls-6" d="M78.32,194.39c0,39,37.72,63,97.17,63,60.39,0,97.17-27,97.17-63,0-44.72-34.17-79.11-97.39-79.11C114.89,115.28,78.32,149.67,78.32,194.39Z"/><path class="cls-6" d="M62.79,172.82a14.63,14.63,0,1,0,14.63-14.23A14.43,14.43,0,0,0,62.79,172.82Z"/><path class="cls-6" d="M261.09,175.82a14.62,14.62,0,1,0,14.62-14.24A14.42,14.42,0,0,0,261.09,175.82Z"/><path class="cls-10" d="M251.91,230.14c-14.8,21.27-47.75,21.51-56.48,22.48-25.5,2.87-41.92,1.75-74.95-9.23-7-2.31-25.57-13.27-29.5-19.43C80.2,207,81.53,194,81,187.9c-.19-2.38,12-37.09,27.54-46.77,9-5.63,7.83-9.49,18.3-11.15,4.05-.65,11.4-5.76,15.39-6.76,2.33-.56,8.55-5.14,26.46-4.49,4.88.18,53.26,4.3,68.49,17.61C261.76,157.86,277.82,192.88,251.91,230.14Z"/><path class="cls-11" d="M243.93,227.58c-19.27,13-43.33,18.83-51.23,19.68-23.16,2.5-38.07,1.52-68-8.09-6.31-2-23.19-11.62-26.77-17-9.77-14.81.24-40,.46-42.34a55.57,55.57,0,0,1,2.44-10c.71-2.42,1.55-5.75,3.91-7.09s6-4.2,8.77-4.2h12.15c9.65,0,16-4.48,25.49-5.94,3.68-.56,7.13-4.13,10.75-5,2.1-.51,7.52-3.83,9.75-3.51,4.38.63,13.5,6.27,18,6.75s10,3,14.37,4.06c3.31.82,7.63,3.62,10.87,4.69a50.59,50.59,0,0,0,9,1.93c5.9.92,10.77,2.25,16.74,2.81s8.51,6.88,10.47,11.43c2.47,5.73-5.4,13-.08,17.46C253,195,253.09,221.4,243.93,227.58Z"/><path class="cls-12" d="M131.25,214.58c-9.25,14.24,16.82,33.83,43.34,33.83,26.94,0,49.12-19.11,43.34-33.83-8.35-21.3-23.6-6.43-43.34-6.43C154.4,208.15,144.49,194.2,131.25,214.58Z"/><path class="cls-13" d="M149.84,209.06c1.8-1.47,3.67-2.89,5.57-4.27,5.42,1.38,11.56,3.36,19.18,3.36a57.18,57.18,0,0,0,13.56-1.9c12.79,7.4,19.2,13.16,22.48,28.92-8.09,7.55-21.36,13.24-36,13.24-15.49,0-30.8-6.67-39-15.06C134.47,223.61,142.69,214.91,149.84,209.06Z"/><path class="cls-14" d="M141.55,238.32a60.47,60.47,0,0,0,33,10.09,56.13,56.13,0,0,0,30.5-8.89c10.43-6.89-10.11-13.76-29.85-13.76C155.06,225.76,131.51,231.45,141.55,238.32Z"/><path class="cls-8" d="M139,213.46s3.26.56,8.32,1.2c.72.09,2.46-3.35,2.46-3.35s1.42,3.82,2.29,3.91a208.19,208.19,0,0,0,21.42,1.26c10.09,0,21.27-1.69,28.74-3.06.42-.08,1-3.63,1-3.63s1.67,3.12,2.32,3c3.33-.66,5.36-1.15,5.36-1.15s2.47-5.44-.45-7c-8.73-4.81-21,3.55-35.82,3.55-15.14,0-24.51-7.85-33.82-3.18C137.65,206.53,139,213.46,139,213.46Z"/><path class="cls-15" d="M168.36,192.26s-1.74,4.91,5.75,4.91,5.72-6.92,5.72-6.92"/><path class="cls-16" d="M113.47,189.08c0,4.2,7.28,7.61,16.28,7.61s16.31-3.41,16.31-7.61-7.3-7.62-16.31-7.62S113.47,184.87,113.47,189.08Z"/><path class="cls-16" d="M204,192.88c0,4.21,7.29,7.62,16.29,7.62s16.3-3.41,16.3-7.62-7.29-7.62-16.3-7.62S204,188.68,204,192.88Z"/><path class="cls-17" d="M133,170.93a6.53,6.53,0,1,0,6.52-6.54A6.53,6.53,0,0,0,133,170.93Z"/><path class="cls-17" d="M205.64,170.93a6.53,6.53,0,1,0,6.53-6.54A6.54,6.54,0,0,0,205.64,170.93Z"/><path class="cls-8" d="M206.69,169a2.5,2.5,0,1,0,2.49-2.5A2.49,2.49,0,0,0,206.69,169Z"/><path class="cls-8" d="M134.53,168.43a2.5,2.5,0,1,0,2.49-2.5A2.5,2.5,0,0,0,134.53,168.43Z"/><path class="cls-17" d="M125.91,153.85c1.6-2.42,5-3.44,7.68-4.26,3-.91,5.66-1.05,8.15.94a1.6,1.6,0,0,1-.32,2.49c-2,1.2-4.11,1.34-6.31,2.09s-4.45,2.74-7,2.61C126.31,157.62,124.78,155.57,125.91,153.85Z"/><path class="cls-17" d="M227.82,153.85c-1.61-2.42-5-3.44-7.69-4.26-3-.91-5.66-1.05-8.14.94a1.61,1.61,0,0,0,.31,2.49c2,1.2,4.11,1.34,6.31,2.09s4.47,2.74,7,2.61C227.42,157.62,229,155.57,227.82,153.85Z"/><path class="cls-18" d="M96.78,127.65c0,4.5-2.81,11.46-8.24,11.64a5.19,5.19,0,0,1-5.25-3.79c-.58-2.27.72-3.44.75-6.35.08-5.6-.49-9.85,6.37-11.24,5.73-1.17,9.69,2.13,7.87,7.86"/><path class="cls-18" d="M77.29,141.89c2.68,3.23,1.25,8.86-3.38,8.17-4-.58-3.85-4.16-3.68-7.35a24.68,24.68,0,0,0,2.94-1.19"/><path class="cls-18" d="M75.41,124.65c2.49,2.4-.73,6.13-3.75,5.53-4.36-.86-2.37-4.54,0-5.91"/><path class="cls-18" d="M92.66,101.41c.25,3.5-5,5.33-6.84,2.71-2.22-3.13,2.78-7.87,5.33-5"/><path class="cls-18" d="M123,113.41c1.34,3.93-1.48,8.63-5.92,5.92-3.79-2.32-1.74-6.86,2.54-6.3"/><path class="cls-18" d="M280.82,128.4c7.5,10.15-8.07,20.93-13.21,8.33-1.2-3-1.76-9.86.17-12.45s9.23-4.68,9.67,0"/><path class="cls-18" d="M273,151.26c4.14,3.44-2.47,7-5.63,4.5a5.21,5.21,0,0,1-1.5-4.5c.54-2.09,2.75-2,3.38-4.12"/><path class="cls-18" d="M289.07,152.39c4.12,3.4-1,11.39-5.18,9.29-2.88-1.45-.38-7.77,2.18-7.79"/><path class="cls-18" d="M254.21,120.53c3,13-10.55,16.16-15.75,5.24-1.39-3-4-10-1.51-13.12,3.76-4.73,16.12-3.48,18.76,1.13"/><path class="cls-18" d="M256.83,98.41c8.47-.18-.85,12.35-4.49,3"/><path class="cls-18" d="M239.59,98c1.92,2.06-.33,4.42-3.09,4.12-3.05-.34-3.64-4-.28-3.75"/><path class="cls-18" d="M111.4,101c2,2.94-2.44,4.07-4.81,3.71-.84-1.81-.9-4.22,1.44-4.46"/><path class="cls-18" d="M145.51,108.53c.49,4.86-6.73,8.68-10.89,5.73-4.51-3.22,0-7.2,3.39-8"/><path class="cls-19" d="M224.73,94.6c9.63-.44,22.15-14.82,6.48-16-6.94,11.57,24.88,5.48,12.85-9-6.75-8.16-11.35,4.37-2.67,4.38,5.07,0,12.07-10.06,11.66-14.72-.8-9-11.73-6.27-7.36-1.78,5.15,5.27,12.47-3.66,12.25-8.54-.43-9.2-11.39-4.64-5.08-1.28,5.26,2.78,12-4,14.38-7.92,2.78-4.67,6.39-14.86.41-17"/><path class="cls-19" d="M134.37,98c-5.5.71-15.83-8.82-12.94-14.79,4-8.44,12.65,4.83,2.07,7.06-13.81,2.9-20.45-28-4.71-29,7.71,7.4-7.7,12.28-13.19,5.28-5.83-7.41-4.17-17.49,6.11-18.85,2.38,3.56.68,7.6-3.8,8-4.18.41-6.13-4-7.55-7.17-3.31-7.28.24-13.37,8.07-14.74,4.55,7.44-5.46,6.4-8.48,0C97.17,28,96,19,103.45,16.44"/><path class="cls-9" d="M87.22,17.29A13.49,13.49,0,1,0,96.38.55,13.5,13.5,0,0,0,87.22,17.29Z"/><path class="cls-9" d="M256,17.45a13.49,13.49,0,1,0,16.4-9.76A13.49,13.49,0,0,0,256,17.45Z"/><path class="cls-18" d="M261.16,15.52c.75,2.31,4.13,3.29,7.54,2.17s5.56-3.91,4.81-6.22S269.36,8.18,266,9.31,260.39,13.2,261.16,15.52Z"/><path class="cls-18" d="M91.41,10.85c.75,2.32,4.15,3.3,7.55,2.19s5.56-3.91,4.8-6.23-4.14-3.28-7.55-2.17S90.65,8.54,91.41,10.85Z"/><path class="cls-20" d="M86.56,366.67c-3.52,0-6.23-21.52-.37-21.49s177.18,1,182.47,0,2.81,21.49-.2,21.49Z"/><rect class="cls-21" x="151.91" y="342.27" width="45.22" height="29.39"/><polygon class="cls-22" points="155.5 369.33 193.55 369.33 193.55 344.61 155.5 369.33"/><path class="cls-23" d="M96.42,388.57s0-1.39-.49-15.07-12.46-33.74-41.66-32.79c-27.95.91-39.89,21.74-39.45,35.43.21,6.35.5,15.45.5,15.45"/><path class="cls-24" d="M97.21,387.2c10.16,15.28,16.72,34.19,17.22,50,.93,28.55-24.33,40.09-55.92,41.12S.79,464.15,0,441c-.51-15.86,4.81-35.15,14-51.05Z"/><path class="cls-25" d="M87.07,387.54c7.81,15.35,12.91,34.31,13.43,50.16.92,28.53-18.1,39.88-42,40.65S14.74,463.69,14,440.51c-.52-15.85,3.35-35.1,10.14-50.93Z"/><path class="cls-25" d="M66.64,388.21a335,335,0,0,1,5.77,50.39c.92,28.55-5.52,39.48-13.9,39.75S42.82,462.78,42.07,439.6a332.45,332.45,0,0,1,2.49-50.68Z"/><path class="cls-26" d="M14,389.92c.2,5.95,19,10.17,42,9.42s41.45-6.17,41.26-12.14-19-10.17-42-9.42S13.78,384,14,389.92Z"/><path class="cls-27" d="M19.59,388.81c.15,4.9,16.38,8.34,36.27,7.68s35.84-5.13,35.68-10-16.39-8.34-36.26-7.7S19.43,383.93,19.59,388.81Z"/><path class="cls-28" d="M86.94,425.71a122.5,122.5,0,0,0-7.15-10.18s-3.54,5.13-6.48,10.62l-3.87.12c1.59-6.9,10.08-19.19,10.08-19.19s9.25,11.7,11.29,18.5Z"/><path class="cls-28" d="M40.36,427.23A123.14,123.14,0,0,0,33.2,417s-3.54,5.13-6.48,10.62l-3.87.13c1.6-6.9,10.07-19.2,10.07-19.2s9.27,11.71,11.3,18.51Z"/><path class="cls-28" d="M41,435.58l-.77,8.4,11.91-.39-1.31-8.33L68,434.7l-.78,8.4,11.92-.38-1.33-8.34L90.64,434c.47,14.3-11.29,26.53-27.08,29.12l.82-8.87-11.92.38,1.39,8.83c-16-1.45-28.71-12.95-29.17-27.32Z"/><path class="cls-29" d="M45.82,393.38c.27.39,1.64-.63,1.37-1L33.26,373.29a.84.84,0,0,0-1.18-.18h0a.87.87,0,0,0-.18,1.19Z"/><path class="cls-7" d="M33.26,373.29l13.93,19.09c.13.17-.11.49-.41.73C46.78,393.11,46.1,391.38,33.26,373.29Z"/><path class="cls-30" d="M44.94,391.76a.23.23,0,0,0,.33.05h0a.23.23,0,0,0,0-.33L33,374.61a.26.26,0,0,0-.35-.06h0a.25.25,0,0,0,0,.34Z"/><path class="cls-31" d="M23.26,376.45a9.09,9.09,0,1,0,2-12.71A9.1,9.1,0,0,0,23.26,376.45Z"/><path class="cls-32" d="M33.54,376.63a9.11,9.11,0,0,0,2-12.7,9,9,0,0,0-.79-.93,9.09,9.09,0,1,1-10.7,14.38A9.07,9.07,0,0,0,33.54,376.63Z"/><path class="cls-32" d="M34.51,377.84C38.8,374.71,40,369,37.36,365a8.54,8.54,0,0,1,.59.73,9.09,9.09,0,0,1-9.77,14.13A10.36,10.36,0,0,0,34.51,377.84Z"/><path class="cls-33" d="M23,373.93c2.16,3,6.58,3.41,9.89,1s4.24-6.75,2.08-9.72-6.6-3.41-9.91-1S20.84,371,23,373.93Z"/><path class="cls-33" d="M23.82,372.28c1.55,2.14,4.91,2.34,7.48.46s3.4-5.13,1.85-7.27-4.91-2.34-7.48-.46S22.26,370.14,23.82,372.28Z"/><path class="cls-34" d="M24,373.46a1.56,1.56,0,0,0,.68-1.69,6,6,0,0,1,3.85-6.49,1.55,1.55,0,0,0,1.16-1.39h0c0-.62-1-1-1.91-.69a8.17,8.17,0,0,0-5.28,8.9c.16,1,.95,1.61,1.5,1.36Z"/><path class="cls-29" d="M60.16,394.48c0,.47,1.72.41,1.7-.06l-.77-23.61a.85.85,0,0,0-.87-.82h0a.84.84,0,0,0-.82.88Z"/><path class="cls-7" d="M61.09,370.81l.77,23.61c0,.22-.36.35-.76.38C61.1,394.8,61.51,393,61.09,370.81Z"/><path class="cls-30" d="M60.35,392.64a.24.24,0,0,0,.24.23h0a.24.24,0,0,0,.23-.25l-.66-20.87a.28.28,0,0,0-.26-.24h0a.24.24,0,0,0-.23.26Z"/><path class="cls-35" d="M51,367.79a9.09,9.09,0,1,0,8.8-9.38A9.1,9.1,0,0,0,51,367.79Z"/><path class="cls-32" d="M59.45,373.72a9.07,9.07,0,0,0,8.78-9.38,8.14,8.14,0,0,0-.13-1.21,8.78,8.78,0,0,1,1.12,4.06,9.09,9.09,0,0,1-18,1.81A9.09,9.09,0,0,0,59.45,373.72Z"/><path class="cls-32" d="M59.56,375.27c5.31-.18,9.51-4.17,9.59-9,0,.3.06.62.07.93a9.09,9.09,0,0,1-16,6.18A10.43,10.43,0,0,0,59.56,375.27Z"/><path class="cls-33" d="M52.25,365.55c.12,3.67,3.52,6.54,7.62,6.41s7.28-3.22,7.18-6.89-3.53-6.53-7.62-6.4S52.13,361.88,52.25,365.55Z"/><path class="cls-33" d="M53.85,364.66c.08,2.64,2.73,4.69,5.92,4.59s5.7-2.33,5.62-5-2.74-4.71-5.92-4.59S53.76,362,53.85,364.66Z"/><path class="cls-34" d="M53.29,365.71a1.58,1.58,0,0,0,1.52-1,5.93,5.93,0,0,1,6.83-3.2,1.54,1.54,0,0,0,1.74-.51h0c.32-.53-.21-1.38-1.19-1.63a8.16,8.16,0,0,0-9.37,4.38c-.44.91-.12,1.86.47,2Z"/><path class="cls-36" d="M17.85,386.06c-.22.88-.08,1.72.29,1.85s5.35,1.25,5.57.38-4.42-3.43-4.8-3.57S18.06,385.18,17.85,386.06Z"/><path class="cls-37" d="M22.33,387.79a.14.14,0,0,0,.1-.18c-.11-.73-1.2-.81-1.65-1.12a7.31,7.31,0,0,1-1.56-1.62c1.12.58,4.67,2.63,4.49,3.42-.1.39-1.2.38-2.38.22A2.67,2.67,0,0,1,22.33,387.79Z"/><path class="cls-38" d="M18.27,386.13c.2-.8.42-1.05.77-1.06a4.56,4.56,0,0,0,.85,1,4.63,4.63,0,0,0,1.17.9c.25.14.88.25,1.06.56-.47.2-3.08-.6-4-.08A3.47,3.47,0,0,1,18.27,386.13Z"/><path class="cls-36" d="M19.63,393.49c-.59-.69-.85-1.49-.57-1.79s4.2-3.53,4.79-2.84-2.4,5.05-2.67,5.35S20.22,394.18,19.63,393.49Z"/><path class="cls-37" d="M22.84,389.91c.09,0,.14,0,.18.12.22.71-.7,1.27-1,1.76a6.77,6.77,0,0,0-.66,2.14c.73-1,3-4.47,2.45-5.07-.28-.32-1.24.19-2.23.86A2.3,2.3,0,0,0,22.84,389.91Z"/><path class="cls-38" d="M20,393.24c.53.62.85.74,1.17.59a4.67,4.67,0,0,1,.29-1.28,5,5,0,0,1,.63-1.34c.15-.24.68-.61.69-1-.5,0-2.47,1.95-3.52,1.9A3.48,3.48,0,0,0,20,393.24Z"/><path class="cls-36" d="M17.84,389.88c.27,1.14.79,2,1.17,1.89s5-2.1,4.71-3.24-5.31-1-5.69-.87S17.57,388.75,17.84,389.88Z"/><path class="cls-39" d="M22.58,389.38a.17.17,0,0,0-.17-.21l-.35.07s-.77,0-.52-.17.41-.2.62-.32a.16.16,0,0,0-.08-.29,8.29,8.29,0,0,1-.87,0,.86.86,0,0,1,.33-.29c.13-.09.05-.34-.11-.3a3.75,3.75,0,0,1-2.19-.25c1.6,0,4.27.12,4.48.93.26,1.14-4.33,3.15-4.71,3.24S22.34,390.29,22.58,389.38Z"/><path class="cls-38" d="M18.82,391.5c.64,0,.73-.38,1.54-.87.32-.18,1.87-.5,1.74-1.08-.49,0-1-.09-.9-.51,0-.17.69-.27.39-.32-.75-.11-.5-.55-.5-.55a5.52,5.52,0,0,1-1.09-.11,5.6,5.6,0,0,0-1.7-.25.53.53,0,0,0-.31.65c.07.24.88-.06,1.07.05a7.46,7.46,0,0,0-1,.32,1.17,1.17,0,0,0,.16.44c.64.09,1.35.05,2,.16-.54.25-1.25,0-1.8.29,0,0,0,.11,0,.14s-.06,0-.08.08a1.45,1.45,0,0,0,.42.16.88.88,0,0,1-.42.18c0,.05.14.58.16.63Z"/><path class="cls-36" d="M39.69,381.09c.58.69.84,1.49.57,1.79s-4.21,3.53-4.79,2.84,2.38-5.05,2.65-5.35S39.1,380.4,39.69,381.09Z"/><path class="cls-37" d="M36.47,384.67a.13.13,0,0,1-.16-.12c-.22-.7.69-1.27.95-1.76a7,7,0,0,0,.66-2.14c-.74,1-3,4.47-2.45,5.07.28.32,1.23-.18,2.23-.86A2.59,2.59,0,0,0,36.47,384.67Z"/><path class="cls-38" d="M39.34,381.34c-.54-.62-.86-.74-1.17-.58a4.61,4.61,0,0,1-.3,1.27,5,5,0,0,1-.62,1.34c-.16.23-.68.61-.7,1,.5,0,2.48-1.95,3.52-1.89A3.36,3.36,0,0,0,39.34,381.34Z"/><path class="cls-36" d="M41.47,388.51c.21-.88.07-1.7-.31-1.84s-5.34-1.25-5.56-.37,4.42,3.42,4.8,3.56S41.26,389.4,41.47,388.51Z"/><path class="cls-37" d="M37,386.79a.17.17,0,0,0-.1.18c.12.74,1.2.81,1.66,1.13a6.8,6.8,0,0,1,1.55,1.61c-1.12-.59-4.67-2.63-4.49-3.41.1-.4,1.2-.39,2.39-.24A2.78,2.78,0,0,1,37,386.79Z"/><path class="cls-38" d="M41,388.46c-.19.78-.42,1.05-.77,1.05a5.5,5.5,0,0,0-.84-1,5,5,0,0,0-1.17-.9c-.25-.14-.89-.24-1.07-.56.46-.21,3.09.6,4,.08A3.17,3.17,0,0,1,41,388.46Z"/><path class="cls-36" d="M41.42,384.49c.28,1.13.18,2.13-.18,2.22s-5.38.38-5.65-.76,4.29-3.26,4.67-3.35S41.15,383.36,41.42,384.49Z"/><path class="cls-39" d="M37,386.19a.15.15,0,0,1,.05-.25c.12-.05.23-.07.34-.11s.68-.36.4-.39-.47,0-.71,0a.17.17,0,0,1-.06-.3,5.2,5.2,0,0,0,.77-.41,1.13,1.13,0,0,0-.43-.11c-.16,0-.19-.28,0-.31a3.81,3.81,0,0,0,1.85-1.22c-1.45.71-3.76,2.05-3.56,2.86.27,1.14,5.26.85,5.65.76S37.59,386.9,37,386.19Z"/><path class="cls-38" d="M41.29,386.37c-.58.28-.83,0-1.77-.06-.37,0-1.91.4-2-.18.43-.21.79-.51.56-.86-.1-.15-.74.07-.5-.1.62-.45.21-.73.21-.73a6.3,6.3,0,0,0,.91-.59,5.69,5.69,0,0,1,1.41-1,.53.53,0,0,1,.57.42c0,.25-.82.35-.94.55a6,6,0,0,1,1.07-.19,1.48,1.48,0,0,1,.08.46c-.55.38-1.21.66-1.71,1,.57,0,1.12-.54,1.72-.56,0,0,0,.09.05.13s.06,0,.1,0a1.15,1.15,0,0,1-.29.33.82.82,0,0,0,.44,0c0,.05.15.58.16.63Z"/><path class="cls-36" d="M23,388.65c.7,3,4.28,4.64,8,3.75s6.11-4,5.41-7-4.29-4.64-8-3.75S22.26,385.7,23,388.65Z"/><path class="cls-40" d="M29.85,386.87a13.7,13.7,0,0,0,3.77,4.38A8,8,0,0,1,31,392.4a8.51,8.51,0,0,1-1,.19A7.64,7.64,0,0,1,29.85,386.87Z"/><path class="cls-40" d="M31.17,381.49a6.32,6.32,0,0,1,4.35,2.21,13.39,13.39,0,0,1-5.67,3.17A13.91,13.91,0,0,0,31.17,381.49Z"/><path class="cls-40" d="M29.85,386.87a23.9,23.9,0,0,0,6.54-1.28,5,5,0,0,1-.93,3.92A10.19,10.19,0,0,1,29.85,386.87Z"/><path class="cls-40" d="M29.85,386.87a15.53,15.53,0,0,0-2.7,5.55A5.92,5.92,0,0,1,24,390.65,12.88,12.88,0,0,1,29.85,386.87Z"/><path class="cls-40" d="M29.85,386.87A23.47,23.47,0,0,0,23,388.59a4.7,4.7,0,0,1,.48-3.28A11.52,11.52,0,0,1,29.85,386.87Z"/><path class="cls-40" d="M29.85,386.87A15.2,15.2,0,0,0,25,383.35a8.16,8.16,0,0,1,3.36-1.66l.14,0A7.28,7.28,0,0,1,29.85,386.87Z"/><path class="cls-41" d="M28.53,381.65a8.82,8.82,0,0,1,2.64-.16,13.91,13.91,0,0,1-1.32,5.38A7.28,7.28,0,0,0,28.53,381.65Z"/><path class="cls-41" d="M29.85,386.87a11.52,11.52,0,0,0-6.41-1.56,6.17,6.17,0,0,1,1.59-2A15.2,15.2,0,0,1,29.85,386.87Z"/><path class="cls-41" d="M29.85,386.87A12.88,12.88,0,0,0,24,390.65a4.38,4.38,0,0,1-1.07-2,.13.13,0,0,1,0-.06A23.47,23.47,0,0,1,29.85,386.87Z"/><path class="cls-41" d="M29.92,392.59a7.71,7.71,0,0,1-2.77-.17,15.53,15.53,0,0,1,2.7-5.55A7.64,7.64,0,0,0,29.92,392.59Z"/><path class="cls-41" d="M35.46,389.51a7.3,7.3,0,0,1-1.84,1.74,13.7,13.7,0,0,1-3.77-4.38A10.19,10.19,0,0,0,35.46,389.51Z"/><path class="cls-41" d="M29.85,386.87a13.39,13.39,0,0,0,5.67-3.17,4.87,4.87,0,0,1,.85,1.74.89.89,0,0,1,0,.15A23.9,23.9,0,0,1,29.85,386.87Z"/><path class="cls-42" d="M29.88,390.86c3.71-.89,6.13-4,5.42-7a4.42,4.42,0,0,0-.24-.7,4.68,4.68,0,0,1,1.31,2.24c.7,3-1.72,6.07-5.41,7-3.4.81-6.68-.53-7.76-3A7.24,7.24,0,0,0,29.88,390.86Z"/><path class="cls-42" d="M30.15,391.76c3.91-.95,6.55-4,6-6.87.07.18.13.37.18.55.7,3-1.72,6.07-5.41,7a7.62,7.62,0,0,1-5.74-.77A9.18,9.18,0,0,0,30.15,391.76Z"/><path class="cls-33" d="M23.59,387.13c.53,2.16,3.39,3.33,6.4,2.61s5-3.06,4.52-5.22-3.39-3.33-6.4-2.61S23.08,385,23.59,387.13Z"/><path class="cls-33" d="M24.68,386.35c.36,1.55,2.57,2.36,4.93,1.8s4-2.29,3.57-3.84-2.58-2.37-4.93-1.8S24.3,384.79,24.68,386.35Z"/><path class="cls-34" d="M24.4,387.06a1.26,1.26,0,0,0,1-.84,5,5,0,0,1,4.68-3,1.35,1.35,0,0,0,1.23-.57h0c.17-.36-.32-.79-1.08-.79-2.89,0-5.6,1.74-6.42,4.09-.22.61.13,1.12.59,1.09Z"/><path class="cls-36" d="M50.58,376.05c-.62.66-.91,1.45-.65,1.76s4.06,3.7,4.67,3-2.17-5.14-2.43-5.45S51.2,375.38,50.58,376.05Z"/><path class="cls-37" d="M53.64,379.75c.08,0,.14,0,.19-.11.24-.69-.66-1.29-.89-1.79a7,7,0,0,1-.58-2.17c.7,1.06,2.77,4.58,2.24,5.16-.28.31-1.23-.23-2.2-.95A2.75,2.75,0,0,1,53.64,379.75Z"/><path class="cls-38" d="M50.92,376.31c.55-.6.87-.71,1.19-.54a5.45,5.45,0,0,0,.23,1.29,4.74,4.74,0,0,0,.6,1.36c.14.24.64.64.64,1-.5-.05-2.39-2-3.44-2A3.33,3.33,0,0,1,50.92,376.31Z"/><path class="cls-36" d="M48.49,383.39c-.17-.88,0-1.71.37-1.83s5.41-1,5.58-.13-4.56,3.23-4.94,3.35S48.67,384.29,48.49,383.39Z"/><path class="cls-37" d="M53.05,381.85a.17.17,0,0,1,.09.18c-.15.73-1.23.76-1.7,1.08a6.36,6.36,0,0,0-1.62,1.54c1.15-.55,4.77-2.45,4.62-3.22-.09-.41-1.17-.44-2.37-.35A2.46,2.46,0,0,0,53.05,381.85Z"/><path class="cls-38" d="M48.92,383.35c.17.8.37,1.06.73,1.07a5.61,5.61,0,0,1,.87-.95,5.67,5.67,0,0,1,1.22-.87c.24-.12.89-.19,1.08-.51-.45-.22-3.1.48-4-.09A3.23,3.23,0,0,0,48.92,383.35Z"/><path class="cls-36" d="M48.7,379.37c-.31,1.13-.27,2.12.09,2.23s5.36.59,5.69-.53-4.15-3.42-4.53-3.54S49,378.25,48.7,379.37Z"/><path class="cls-39" d="M53.08,381.26A.15.15,0,0,0,53,381a1.39,1.39,0,0,0-.32-.12s-.67-.41-.38-.42.47,0,.7,0,.18-.22.08-.29a6.49,6.49,0,0,1-.76-.44.89.89,0,0,1,.44-.1.16.16,0,0,0,0-.3,4,4,0,0,1-1.79-1.3c1.42.77,3.67,2.2,3.45,3-.33,1.12-5.31.62-5.69.53S52.43,381.93,53.08,381.26Z"/><path class="cls-38" d="M48.77,381.26c.54.3.81,0,1.75,0,.38,0,1.89.48,2.06-.09-.43-.24-.79-.54-.53-.89.1-.14.73.1.49-.07-.59-.48-.17-.74-.17-.74a6.32,6.32,0,0,1-.88-.63,5.69,5.69,0,0,0-1.37-1,.52.52,0,0,0-.59.39c-.05.25.8.4.9.59a5.85,5.85,0,0,0-1.07-.23,2.11,2.11,0,0,0-.08.45c.54.41,1.19.71,1.67,1.12-.58-.05-1.1-.58-1.7-.63,0,0,0,.09,0,.13s-.06,0-.11,0a1.08,1.08,0,0,0,.28.35,1.09,1.09,0,0,1-.44-.05s-.16.57-.19.61Z"/><path class="cls-36" d="M72.06,382.42c.16.89,0,1.71-.39,1.83s-5.39,1-5.57.13,4.57-3.23,5-3.35S71.88,381.53,72.06,382.42Z"/><path class="cls-37" d="M67.49,384c-.07,0-.1-.09-.08-.19.13-.72,1.23-.76,1.69-1.06a6.88,6.88,0,0,0,1.62-1.53c-1.14.53-4.76,2.43-4.62,3.2.08.42,1.18.45,2.37.35A2.39,2.39,0,0,0,67.49,384Z"/><path class="cls-38" d="M71.6,382.47c-.13-.81-.35-1.07-.71-1.1a4.16,4.16,0,0,1-.89,1,4.64,4.64,0,0,1-1.19.85c-.25.13-.9.21-1.1.52.46.23,3.12-.48,4,.08A2.91,2.91,0,0,0,71.6,382.47Z"/><path class="cls-36" d="M70,389.77c.62-.67.92-1.46.65-1.76s-4-3.72-4.67-3,2.17,5.14,2.44,5.44S69.35,390.43,70,389.77Z"/><path class="cls-37" d="M66.91,386.06a.16.16,0,0,0-.19.11c-.25.69.65,1.29.89,1.79a6.67,6.67,0,0,1,.56,2.17c-.69-1.06-2.77-4.58-2.23-5.16.28-.31,1.22.24,2.2.94A2.38,2.38,0,0,1,66.91,386.06Z"/><path class="cls-38" d="M69.62,389.5c-.55.6-.87.71-1.18.54a5.48,5.48,0,0,0-.25-1.28,4.51,4.51,0,0,0-.57-1.37c-.16-.25-.66-.64-.65-1,.49.06,2.39,2.05,3.43,2A3.26,3.26,0,0,1,69.62,389.5Z"/><path class="cls-36" d="M71.9,386.24c-.33,1.12-.87,1.94-1.25,1.83s-4.88-2.31-4.56-3.42,5.34-.74,5.71-.64S72.22,385.12,71.9,386.24Z"/><path class="cls-39" d="M67.19,385.54a.16.16,0,0,1,.18-.2l.34.08s.77,0,.54-.15-.42-.21-.62-.35,0-.27.08-.29a5.22,5.22,0,0,0,.88,0,1,1,0,0,0-.32-.31c-.13-.09,0-.33.12-.28a3.85,3.85,0,0,0,2.21-.16c-1.61-.1-4.28-.06-4.51.75-.32,1.11,4.18,3.31,4.56,3.42S67.39,386.45,67.19,385.54Z"/><path class="cls-38" d="M70.88,387.8c-.67,0-.74-.39-1.53-.91-.31-.21-1.86-.59-1.68-1.17.48,0,.93,0,.91-.47,0-.17-.68-.3-.39-.32.76-.09.54-.54.54-.54a6.19,6.19,0,0,0,1.08-.07,5.61,5.61,0,0,1,1.72-.17.53.53,0,0,1,.29.65c-.09.24-.89-.09-1.08,0a6.24,6.24,0,0,1,1,.36,2.3,2.3,0,0,1-.17.42c-.67.08-1.39,0-2,.09.52.26,1.25.1,1.77.37,0,0,0,.09,0,.13s.07,0,.08.08a1.19,1.19,0,0,1-.44.14.9.9,0,0,0,.41.19c0,.06-.15.59-.17.64Z"/><path class="cls-36" d="M53.34,380.86A4.17,4.17,0,0,0,56.21,386l6,1.7a4,4,0,0,0,1.84.09h0a4,4,0,0,0,1.79-.78,4.15,4.15,0,0,0,1.51-2.19,2.5,2.5,0,0,0,.07-.26,4.21,4.21,0,0,0-1.7-4.31,4.41,4.41,0,0,0-1.24-.58l-6-1.7a4.18,4.18,0,0,0-5.15,2.88Z"/><path class="cls-41" d="M62.86,379.23c-.75,3.22,1,6,3,7.79a4.15,4.15,0,0,0,1.51-2.19,2.5,2.5,0,0,0,.07-.26,8,8,0,0,1-1.7-4.31,4.41,4.41,0,0,0-1.24-.58Z"/><path class="cls-41" d="M59.31,386.89l2.88.82a4,4,0,0,0,1.84.09c-1.49-1.3-4.76-4.79-2.94-9.08l-2.29-.65A7.28,7.28,0,0,0,59.31,386.89Z"/><path class="cls-41" d="M53.34,380.86A4.17,4.17,0,0,0,56.21,386l.8.23c-1.49-1.71-3.13-4.54-1.77-7.84A4.09,4.09,0,0,0,53.34,380.86Z"/><path class="cls-42" d="M56.21,383.84l7.11,2a5.43,5.43,0,0,0,3.67-.2,4.15,4.15,0,0,1-4.8,2l-6-1.71a4.17,4.17,0,0,1-3-4.26A5.47,5.47,0,0,0,56.21,383.84Z"/><path class="cls-33" d="M54.77,380A2.42,2.42,0,0,0,56.22,383l7.52,2.14a2.41,2.41,0,0,0,2.84-1.86h0a2.41,2.41,0,0,0-1.45-3.07l-7.51-2.14A2.43,2.43,0,0,0,54.77,380Z"/><path class="cls-33" d="M56.2,379.94a1.69,1.69,0,0,0,1.26,2l5.91,1.68a1.69,1.69,0,0,0,2.13-1.06h0a1.7,1.7,0,0,0-1.25-2l-5.92-1.69a1.69,1.69,0,0,0-2.13,1.07Z"/><path class="cls-33" d="M57.5,379.91c-.12.42.35.92,1,1.12l4.39,1.25c.69.2,1.35,0,1.46-.41h0c.13-.43-.34-.94-1-1.13L59,379.49c-.69-.19-1.35,0-1.48.42Z"/><path class="cls-43" d="M57.32,386.05c.07.9.46,1.64.86,1.66s5.47-.46,5.4-1.36-5.26-1.89-5.66-1.91S57.25,385.14,57.32,386.05Z"/><path class="cls-44" d="M62.12,386.31a.13.13,0,0,0,0-.2c-.32-.67-1.38-.4-1.91-.57a6.75,6.75,0,0,1-2-1.06c1.24.22,5.25,1.08,5.31,1.87,0,.42-1,.74-2.19,1A2.59,2.59,0,0,1,62.12,386.31Z"/><path class="cls-38" d="M57.76,386c-.07-.82.05-1.13.39-1.24a4.63,4.63,0,0,0,1.12.69,5.18,5.18,0,0,0,1.39.51c.29,0,.91-.05,1.19.2-.39.35-3.13.38-3.83,1.15A3.17,3.17,0,0,1,57.76,386Z"/><path class="cls-43" d="M61.31,392.57c-.78-.47-1.27-1.16-1.1-1.53s2.9-4.67,3.69-4.18-.73,5.54-.89,5.9S62.08,393,61.31,392.57Z"/><path class="cls-44" d="M63.26,388.17a.17.17,0,0,1,.2.06c.44.6-.28,1.42-.37,2a7.59,7.59,0,0,0,0,2.23c.4-1.2,1.46-5.16.79-5.57-.37-.22-1.13.56-1.86,1.5A2.59,2.59,0,0,0,63.26,388.17Z"/><path class="cls-38" d="M61.57,392.21c.69.43,1,.46,1.28.21a6.6,6.6,0,0,1,.08-2.78c.08-.26.45-.79.35-1.15-.47.18-1.75,2.62-2.76,2.88A3.1,3.1,0,0,0,61.57,392.21Z"/><path class="cls-43" d="M58.49,389.69c.61,1,1.36,1.63,1.7,1.42s4.08-3.52,3.47-4.52-5.35.72-5.67.92S57.88,388.68,58.49,389.69Z"/><path class="cls-44" d="M62.84,387.74a.15.15,0,0,0-.22-.13,1.82,1.82,0,0,0-.31.16s-.74.23-.55,0,.35-.33.49-.51,0-.28-.16-.26a6,6,0,0,1-.85.26,1.25,1.25,0,0,1,.23-.38c.11-.12,0-.33-.18-.25a4,4,0,0,1-2.18.45c1.54-.52,4.11-1.21,4.55-.5.61,1-3.14,4.33-3.47,4.52S62.9,388.68,62.84,387.74Z"/><path class="cls-38" d="M59.91,390.92c.61-.21.59-.59,1.22-1.3.24-.27,1.63-1.05,1.31-1.57-.46.16-.93.21-1-.21,0-.17.56-.45.28-.41-.76.11-.65-.37-.65-.37a6.41,6.41,0,0,1-1.06.21,5.82,5.82,0,0,0-1.7.3.53.53,0,0,0-.11.72c.15.19.83-.34,1-.28a4.77,4.77,0,0,0-.88.62,1.23,1.23,0,0,0,.26.37c.66-.12,1.33-.38,2-.46-.45.39-1.17.42-1.63.83,0,0,.06.08.07.12s-.07,0,0,.1a1.15,1.15,0,0,0,.45,0,1.12,1.12,0,0,1-.35.3l.34.55Z"/><path class="cls-43" d="M76.57,374.59c.77.48,1.25,1.16,1.08,1.53s-2.89,4.66-3.67,4.17.72-5.53.88-5.9S75.8,374.12,76.57,374.59Z"/><path class="cls-44" d="M74.62,379a.14.14,0,0,1-.2-.06c-.44-.6.28-1.42.36-2a6.75,6.75,0,0,0,0-2.24c-.39,1.2-1.45,5.16-.78,5.57.36.23,1.13-.56,1.86-1.5A2.64,2.64,0,0,0,74.62,379Z"/><path class="cls-38" d="M76.31,374.94c-.69-.43-1-.45-1.28-.2a5.24,5.24,0,0,1,.11,1.31,5.9,5.9,0,0,1-.19,1.46c-.09.27-.46.79-.35,1.15.46-.18,1.74-2.61,2.77-2.88A3.51,3.51,0,0,0,76.31,374.94Z"/><path class="cls-43" d="M80.56,381.11c-.08-.9-.47-1.65-.86-1.67s-5.48.47-5.41,1.36,5.26,1.89,5.66,1.92S80.62,382,80.56,381.11Z"/><path class="cls-44" d="M75.75,380.84a.13.13,0,0,0,0,.2c.33.68,1.38.42,1.91.58a6.66,6.66,0,0,1,2,1.05c-1.24-.21-5.25-1.07-5.32-1.87,0-.41,1-.73,2.2-1A2.62,2.62,0,0,1,75.75,380.84Z"/><path class="cls-38" d="M80.12,381.18c.07.81-.06,1.12-.4,1.24a4.46,4.46,0,0,0-1.11-.69,4.86,4.86,0,0,0-1.39-.51c-.28-.05-.93,0-1.2-.2.38-.35,3.13-.37,3.83-1.16A3.21,3.21,0,0,1,80.12,381.18Z"/><path class="cls-43" d="M79.27,377.29c.6,1,.83,2,.5,2.17s-5,2-5.6,1,3.06-4.42,3.4-4.62S78.68,376.3,79.27,377.29Z"/><path class="cls-44" d="M75.56,380.28a.15.15,0,0,1,0-.26,3.06,3.06,0,0,1,.29-.21s.55-.55.26-.48-.45.16-.68.2a.16.16,0,0,1-.15-.25c.17-.23.46-.38.6-.63a1.17,1.17,0,0,0-.45,0c-.14,0-.25-.2-.12-.28a3.8,3.8,0,0,0,1.38-1.73c-1.16,1.12-2.94,3.11-2.5,3.82.6,1,5.28-.82,5.6-1S76.38,380.76,75.56,380.28Z"/><path class="cls-38" d="M79.73,379.12c-.47.44-.79.26-1.71.5-.36.08-1.7,1-2,.45.36-.35.61-.74.27-1-.13-.11-.67.3-.51.06.47-.62,0-.76,0-.76a6.09,6.09,0,0,0,.69-.84,5.63,5.63,0,0,1,1-1.38.52.52,0,0,1,.67.23c.12.23-.66.59-.71.8a5.49,5.49,0,0,1,1-.5,2.6,2.6,0,0,1,.2.41c-.42.53-1,1-1.31,1.53.55-.21.91-.84,1.48-1.07,0,0,.06.09.09.12s0-.05.11,0a1.38,1.38,0,0,1-.18.41,1.08,1.08,0,0,0,.41-.17c.05,0,.31.51.34.54Z"/><path class="cls-43" d="M62.73,387.28a4.17,4.17,0,0,0,5.74,1.38l5.29-3.23a4.26,4.26,0,0,0,1.33-1.27h0a4.44,4.44,0,0,0,.64-1.86,4.16,4.16,0,0,0-.59-2.59c0-.08-.09-.16-.14-.23a4.15,4.15,0,0,0-4.32-1.67,3.85,3.85,0,0,0-1.27.51l-5.3,3.23a4.17,4.17,0,0,0-1.89,2.67A4.05,4.05,0,0,0,62.73,387.28Z"/><path class="cls-44" d="M66.86,387.2l6.32-3.86a5.51,5.51,0,0,0,2.35-2.83,4.19,4.19,0,0,1-1.77,4.92l-5.29,3.23a4.16,4.16,0,0,1-5.19-.67A5.44,5.44,0,0,0,66.86,387.2Z"/><path class="cls-33" d="M63,385.61a2.43,2.43,0,0,0,3.25,1l6.65-4.08a2.41,2.41,0,0,0,.58-3.34h0a2.43,2.43,0,0,0-3.25-1l-6.65,4.07a2.41,2.41,0,0,0-.58,3.34Z"/><path class="cls-33" d="M64,384.57a1.69,1.69,0,0,0,2.35.44l5.25-3.2a1.71,1.71,0,0,0,.67-2.29h0a1.7,1.7,0,0,0-2.35-.45l-5.25,3.21a1.69,1.69,0,0,0-.67,2.29Z"/><path class="cls-33" d="M64.85,383.57c.24.38.92.38,1.53,0l3.9-2.38c.61-.37.93-1,.69-1.35h0c-.23-.38-.9-.39-1.51,0l-3.91,2.38c-.61.38-.92,1-.7,1.36Z"/><path class="cls-29" d="M68.6,395.12c-.21.41,1.32,1.18,1.53.76l10.58-21.12a.87.87,0,0,0-.38-1.15h0a.86.86,0,0,0-1.14.38Z"/><path class="cls-7" d="M80.71,374.76,70.13,395.88c-.09.19-.49.12-.84,0C69.29,395.84,70.5,394.44,80.71,374.76Z"/><path class="cls-30" d="M69.64,393.58a.26.26,0,0,0,.11.32h0a.24.24,0,0,0,.33-.1l9.35-18.67a.23.23,0,0,0-.11-.32h0a.24.24,0,0,0-.32.1Z"/><path class="cls-36" d="M73.32,367.31a9.09,9.09,0,1,0,12.2-4.06A9.08,9.08,0,0,0,73.32,367.31Z"/><path class="cls-40" d="M81.8,371.34a25.31,25.31,0,0,0-.67,9.13,9,9,0,0,1-3.76-1,8,8,0,0,1-1.19-.72A14.7,14.7,0,0,1,81.8,371.34Z"/><path class="cls-40" d="M88.44,365.56a9.23,9.23,0,0,1,2,6.86,14.91,14.91,0,0,1-8.69-1.08A25.68,25.68,0,0,0,88.44,365.56Z"/><path class="cls-40" d="M81.8,371.34a25.68,25.68,0,0,0,7.66,4.36,9.15,9.15,0,0,1-4.81,4.2A14.83,14.83,0,0,1,81.8,371.34Z"/><path class="cls-40" d="M81.8,371.34a24.89,24.89,0,0,0-8.14,4.71,9,9,0,0,1-1.28-5.18A14.79,14.79,0,0,1,81.8,371.34Z"/><path class="cls-40" d="M81.8,371.34a24.82,24.82,0,0,0-8.42-4.13,9,9,0,0,1,3.73-3.81A14.77,14.77,0,0,1,81.8,371.34Z"/><path class="cls-40" d="M81.8,371.34a25.35,25.35,0,0,0-1.18-9,9,9,0,0,1,4.9.92l.2.11A14.85,14.85,0,0,1,81.8,371.34Z"/><path class="cls-41" d="M85.72,363.36a9.18,9.18,0,0,1,2.72,2.2,25.68,25.68,0,0,1-6.64,5.78A14.85,14.85,0,0,0,85.72,363.36Z"/><path class="cls-41" d="M81.8,371.34a14.77,14.77,0,0,0-4.69-7.94,9.09,9.09,0,0,1,3.51-1.07A25.35,25.35,0,0,1,81.8,371.34Z"/><path class="cls-41" d="M81.8,371.34a14.79,14.79,0,0,0-9.42-.47,8.82,8.82,0,0,1,.94-3.56s0-.06.06-.1A24.82,24.82,0,0,1,81.8,371.34Z"/><path class="cls-41" d="M76.18,378.79a8.55,8.55,0,0,1-2.52-2.74,24.89,24.89,0,0,1,8.14-4.71A14.7,14.7,0,0,0,76.18,378.79Z"/><path class="cls-41" d="M84.65,379.9a9.14,9.14,0,0,1-3.52.57,25.31,25.31,0,0,1,.67-9.13A14.83,14.83,0,0,0,84.65,379.9Z"/><path class="cls-41" d="M81.8,371.34a14.91,14.91,0,0,0,8.69,1.08,9,9,0,0,1-.92,3c0,.08-.07.15-.11.24A25.68,25.68,0,0,1,81.8,371.34Z"/><path class="cls-42" d="M77.87,376.53a9.1,9.1,0,0,0,12.2-4.06,8.53,8.53,0,0,0,.47-1.12,9.09,9.09,0,1,1-17.69-2.92A9.12,9.12,0,0,0,77.87,376.53Z"/><path class="cls-42" d="M77.23,377.94c4.76,2.38,10.36.87,12.73-3.35a7.47,7.47,0,0,1-.39.87,9.09,9.09,0,0,1-17-2.22A10.38,10.38,0,0,0,77.23,377.94Z"/><path class="cls-33" d="M75.44,365.92c-1.64,3.26,0,7.42,3.65,9.25s7.94.66,9.59-2.62,0-7.42-3.65-9.25S77.08,362.65,75.44,365.92Z"/><path class="cls-33" d="M77.29,365.88c-1.19,2.37.16,5.44,3,6.87s6.11.67,7.31-1.69-.17-5.44-3-6.86S78.46,363.53,77.29,365.88Z"/><path class="cls-34" d="M76.29,366.56a1.59,1.59,0,0,0,1.82-.17,6,6,0,0,1,7.53.45,1.53,1.53,0,0,0,1.77.37h0c.52-.31.47-1.31-.27-2a8.17,8.17,0,0,0-10.33-.61c-.81.59-1,1.58-.52,2Z"/><path class="cls-29" d="M45.07,393.36c.06.47,1.75.22,1.68-.24l-3.41-23.38a.86.86,0,0,0-1-.72h0a.86.86,0,0,0-.72,1Z"/><path class="cls-7" d="M43.34,369.74l3.41,23.38c0,.22-.32.38-.71.44C46,393.56,46.24,391.73,43.34,369.74Z"/><path class="cls-30" d="M45,391.51a.25.25,0,0,0,.28.2h0a.23.23,0,0,0,.2-.27l-3-20.66a.23.23,0,0,0-.28-.2h0a.24.24,0,0,0-.2.27Z"/><path class="cls-36" d="M33,367.86a9.09,9.09,0,1,0,7.68-10.3A9.08,9.08,0,0,0,33,367.86Z"/><path class="cls-40" d="M42.28,366.31A25.26,25.26,0,0,0,47,374.19a9,9,0,0,1-3.62,1.36,8.13,8.13,0,0,1-1.39.1A14.74,14.74,0,0,1,42.28,366.31Z"/><path class="cls-40" d="M44.4,357.78A9.11,9.11,0,0,1,50,362.23a14.9,14.9,0,0,1-7.74,4.08A25.3,25.3,0,0,0,44.4,357.78Z"/><path class="cls-40" d="M42.28,366.31A25.32,25.32,0,0,0,51,365.5a9.19,9.19,0,0,1-1.52,6.21A14.81,14.81,0,0,1,42.28,366.31Z"/><path class="cls-40" d="M42.28,366.31a24.72,24.72,0,0,0-4,8.54,9.05,9.05,0,0,1-4-3.53A14.73,14.73,0,0,1,42.28,366.31Z"/><path class="cls-40" d="M42.28,366.31A25,25,0,0,0,33,367.76a9.07,9.07,0,0,1,.89-5.26A14.84,14.84,0,0,1,42.28,366.31Z"/><path class="cls-40" d="M42.28,366.31a25.15,25.15,0,0,0-6.12-6.7,8.85,8.85,0,0,1,4.54-2.05.56.56,0,0,1,.22,0A14.71,14.71,0,0,1,42.28,366.31Z"/><path class="cls-41" d="M40.92,357.53a8.77,8.77,0,0,1,3.48.25,25.3,25.3,0,0,1-2.12,8.53A14.71,14.71,0,0,0,40.92,357.53Z"/><path class="cls-41" d="M42.28,366.31a14.84,14.84,0,0,0-8.39-3.81,8.88,8.88,0,0,1,2.27-2.89A25.15,25.15,0,0,1,42.28,366.31Z"/><path class="cls-41" d="M42.28,366.31a14.73,14.73,0,0,0-8,5A8.82,8.82,0,0,1,33,367.86s0-.06,0-.1A25,25,0,0,1,42.28,366.31Z"/><path class="cls-41" d="M41.94,375.65a9.12,9.12,0,0,1-3.64-.8,24.72,24.72,0,0,1,4-8.54A14.74,14.74,0,0,0,41.94,375.65Z"/><path class="cls-41" d="M49.52,371.71A9.63,9.63,0,0,1,47,374.19a25.26,25.26,0,0,1-4.67-7.88A14.81,14.81,0,0,0,49.52,371.71Z"/><path class="cls-41" d="M42.28,366.31A14.9,14.9,0,0,0,50,362.23a8.89,8.89,0,0,1,1,3,2.3,2.3,0,0,1,0,.26A25.32,25.32,0,0,1,42.28,366.31Z"/><path class="cls-42" d="M42,372.82a9.11,9.11,0,0,0,7.71-10.3c-.07-.41-.16-.81-.26-1.2a9.09,9.09,0,1,1-16.18,7.74A9.07,9.07,0,0,0,42,372.82Z"/><path class="cls-42" d="M42.32,374.34c5.25-.77,9-5.21,8.49-10a4.81,4.81,0,0,1,.2.93,9.09,9.09,0,0,1-15.23,7.93A10.36,10.36,0,0,0,42.32,374.34Z"/><path class="cls-33" d="M34,365.5c.52,3.64,4.23,6.1,8.27,5.51s6.9-4,6.37-7.64-4.23-6.09-8.28-5.5S33.44,361.88,34,365.5Z"/><path class="cls-33" d="M35.45,364.43c.39,2.62,3.24,4.36,6.41,3.91s5.41-3,5-5.57-3.25-4.37-6.4-3.9S35.07,361.82,35.45,364.43Z"/><path class="cls-34" d="M35,365.54a1.55,1.55,0,0,0,1.38-1.17,6,6,0,0,1,6.43-3.94,1.59,1.59,0,0,0,1.69-.71h0c.23-.56-.37-1.35-1.39-1.48a8.17,8.17,0,0,0-8.81,5.4c-.34,1,.1,1.86.7,1.9Z"/><path class="cls-45" d="M75.83,392.45c.34.83.92,1.44,1.31,1.34s5.09-2.09,4.75-2.93-5.59-.23-6-.12S75.49,391.61,75.83,392.45Z"/><path class="cls-46" d="M80.49,391.27a.17.17,0,0,0,0-.21c-.51-.54-1.45,0-2,0a7,7,0,0,1-2.2-.4c1.25-.18,5.33-.55,5.63.18.14.39-.75,1-1.81,1.57A2.42,2.42,0,0,1,80.49,391.27Z"/><path class="cls-38" d="M76.22,392.25c-.31-.75-.27-1.09,0-1.3a5,5,0,0,0,1.26.34,5.69,5.69,0,0,0,1.48.06c.28,0,.85-.32,1.2-.16-.26.42-2.88,1.28-3.31,2.24A3,3,0,0,1,76.22,392.25Z"/><path class="cls-45" d="M81.59,397.47c-.88-.22-1.55-.73-1.51-1.12s1.38-5.32,2.25-5.1,1,5.51.93,5.91S82.46,397.69,81.59,397.47Z"/><path class="cls-46" d="M82.13,392.7a.13.13,0,0,1,.2,0c.61.44.17,1.43.24,2a7.12,7.12,0,0,0,.71,2.13c0-1.26-.17-5.35-1-5.56-.39-.09-.89.87-1.31,2A2.64,2.64,0,0,0,82.13,392.7Z"/><path class="cls-38" d="M81.72,397.06c.79.21,1.12.12,1.29-.19a5.14,5.14,0,0,1-.5-1.21,4.8,4.8,0,0,1-.25-1.45c0-.29.2-.91,0-1.21-.38.3-.88,3-1.77,3.58A3.37,3.37,0,0,0,81.72,397.06Z"/><path class="cls-45" d="M78,395.57c.87.77,1.8,1.14,2,.86s2.83-4.59,2-5.36-4.87,2.29-5.13,2.58S77.16,394.8,78,395.57Z"/><path class="cls-46" d="M81.61,392.41a.18.18,0,0,0-.26-.07c-.09.08-.17.18-.25.26s-.64.44-.52.18.23-.42.32-.63-.11-.28-.23-.2-.45.39-.72.48A1,1,0,0,1,80,392c.07-.13-.15-.29-.26-.17a3.88,3.88,0,0,1-1.93,1.07c1.3-.95,3.55-2.38,4.18-1.83.88.77-1.68,5.06-2,5.36S81.94,393.3,81.61,392.41Z"/><path class="cls-38" d="M79.76,396.32c.52-.38.38-.73.77-1.6.14-.33,1.24-1.51.78-1.89-.4.3-.81.47-1,.11-.07-.16.41-.62.15-.49-.69.34-.73-.15-.73-.15a6.67,6.67,0,0,1-1,.53,5.9,5.9,0,0,0-1.54.79.52.52,0,0,0,.12.69c.2.16.7-.54.92-.56a6,6,0,0,0-.67.86,1.35,1.35,0,0,0,.37.27c.59-.31,1.16-.76,1.73-1-.29.5-1,.75-1.3,1.29,0,0,.08.05.1.09s-.06,0,0,.11a1.51,1.51,0,0,0,.43-.11,1.07,1.07,0,0,1-.24.38s.45.39.48.43Z"/><path class="cls-45" d="M90.75,375.75c.88.23,1.56.73,1.51,1.13S90.88,382.19,90,382s-1-5.49-.92-5.9S89.88,375.53,90.75,375.75Z"/><path class="cls-46" d="M90.22,380.53a.16.16,0,0,1-.22,0c-.59-.44-.16-1.43-.24-2a6.88,6.88,0,0,0-.7-2.14c0,1.27.17,5.36.94,5.56.4.1.9-.87,1.32-2A2.5,2.5,0,0,0,90.22,380.53Z"/><path class="cls-38" d="M90.62,376.16c-.79-.19-1.12-.11-1.3.19a4.51,4.51,0,0,1,.51,1.22,5.67,5.67,0,0,1,.26,1.46c0,.27-.21.89,0,1.19.39-.3.89-3,1.78-3.57A3.14,3.14,0,0,0,90.62,376.16Z"/><path class="cls-45" d="M96.51,380.77c-.33-.83-.93-1.44-1.32-1.32s-5.08,2.07-4.75,2.91,5.59.23,6,.13S96.85,381.62,96.51,380.77Z"/><path class="cls-46" d="M91.85,382a.16.16,0,0,0,0,.21c.51.52,1.44,0,2,0a6.73,6.73,0,0,1,2.21.41c-1.26.17-5.33.55-5.64-.19-.15-.38.75-1,1.8-1.58A2.54,2.54,0,0,1,91.85,382Z"/><path class="cls-38" d="M96.13,381c.3.76.26,1.09,0,1.31a4.28,4.28,0,0,0-1.26-.34,5.28,5.28,0,0,0-1.48-.06c-.28,0-.86.32-1.2.16.26-.43,2.88-1.29,3.3-2.24A3.16,3.16,0,0,1,96.13,381Z"/><path class="cls-45" d="M94.15,377.51c.87.78,1.38,1.64,1.12,1.92s-4.16,3.43-5,2.66,1.61-5.14,1.86-5.43S93.26,376.75,94.15,377.51Z"/><path class="cls-46" d="M91.5,381.48a.15.15,0,0,1-.09-.25,2.69,2.69,0,0,1,.2-.27s.36-.69.09-.55-.36.28-.57.4-.27-.07-.22-.2a4.37,4.37,0,0,0,.39-.78,1.21,1.21,0,0,0-.42.16c-.13.08-.3-.12-.2-.22a4,4,0,0,0,.8-2.07c-.77,1.41-1.88,3.83-1.26,4.39.89.77,4.8-2.36,5-2.66S92.42,381.69,91.5,381.48Z"/><path class="cls-38" d="M95.12,379.13c-.3.56-.67.49-1.48,1-.3.19-1.32,1.43-1.77,1,.23-.43.37-.88,0-1-.15-.05-.56.49-.45.21.24-.73-.25-.71-.25-.71a6.7,6.7,0,0,0,.39-1A5.7,5.7,0,0,1,92.1,377a.54.54,0,0,1,.72,0c.17.18-.47.76-.45,1a5.63,5.63,0,0,1,.76-.78,1.6,1.6,0,0,1,.31.33c-.21.63-.58,1.24-.78,1.85.47-.36.62-1.08,1.09-1.46,0,0,.08.07.12.08s0-.05.11,0a1.3,1.3,0,0,1-.06.44.75.75,0,0,0,.34-.29c.06,0,.46.41.5.43Z"/><path class="cls-45" d="M81.5,391.59c2.3,2,6.18,1.31,8.68-1.56s2.68-6.81.38-8.81-6.17-1.3-8.67,1.56S79.22,389.6,81.5,391.59Z"/><path class="cls-46" d="M88.42,389.39c2.5-2.87,2.67-6.81.38-8.81a4.11,4.11,0,0,0-.59-.44,4.54,4.54,0,0,1,2.35,1.08c2.3,2,2.13,5.95-.38,8.81-2.3,2.64-5.75,3.43-8.08,2A7.2,7.2,0,0,0,88.42,389.39Z"/><path class="cls-46" d="M89.16,390c2.65-3,3-7,.94-9.09a3.9,3.9,0,0,1,.46.34c2.3,2,2.13,5.95-.38,8.81a7.61,7.61,0,0,1-5.11,2.7A9.25,9.25,0,0,0,89.16,390Z"/><path class="cls-33" d="M81.13,390c1.68,1.46,4.69.75,6.73-1.58s2.33-5.41.66-6.87-4.68-.76-6.73,1.58S79.46,388.53,81.13,390Z"/><path class="cls-33" d="M81.57,388.73c1.2,1.06,3.46.43,5.05-1.38s1.9-4.15.69-5.21-3.46-.43-5.07,1.38S80.35,387.67,81.57,388.73Z"/><path class="cls-34" d="M81.74,389.47a1.26,1.26,0,0,0,.34-1.26,5,5,0,0,1,2.09-5.14,1.41,1.41,0,0,0,.68-1.19h0c-.08-.39-.73-.45-1.34,0-2.34,1.69-3.56,4.67-2.88,7.05.18.62.76.83,1.11.55Z"/><path class="cls-47" d="M60.38,385.59c-.51.75-.69,1.57-.38,1.84s4.51,3.11,5,2.37-2.86-4.8-3.15-5.07S60.9,384.85,60.38,385.59Z"/><path class="cls-46" d="M63.93,388.85c.08,0,.13-.05.16-.14.16-.72-.81-1.2-1.12-1.66a6.55,6.55,0,0,1-.86-2.06c.83.95,3.37,4.16,2.92,4.81-.24.33-1.25-.07-2.3-.65A2.43,2.43,0,0,1,63.93,388.85Z"/><path class="cls-38" d="M60.75,385.81c.47-.67.79-.82,1.11-.7a5.72,5.72,0,0,0,.41,1.25,6.19,6.19,0,0,0,.76,1.27c.19.21.75.54.79.91-.5,0-2.64-1.7-3.68-1.54A3.45,3.45,0,0,1,60.75,385.81Z"/><path class="cls-47" d="M59.32,393.17c-.3-.87-.22-1.71.14-1.88s5.19-1.76,5.49-.9-4.06,3.83-4.43,4S59.62,394,59.32,393.17Z"/><path class="cls-46" d="M63.63,391a.14.14,0,0,1,.12.17c0,.73-1.13.92-1.53,1.29a6.46,6.46,0,0,0-1.4,1.75c1.06-.7,4.38-3.08,4.13-3.83-.14-.39-1.22-.28-2.4,0A2.49,2.49,0,0,0,63.63,391Z"/><path class="cls-38" d="M59.76,393.06c.26.76.51,1,.85,1a5.4,5.4,0,0,1,.75-1.07,5.49,5.49,0,0,1,1.08-1c.24-.16.86-.32,1-.66-.48-.16-3,.9-4,.47A2.93,2.93,0,0,0,59.76,393.06Z"/><path class="cls-47" d="M59,389.15c-.15,1.15,0,2.14.41,2.19s5.38-.15,5.54-1.3-4.57-2.84-5-2.88S59.14,388,59,389.15Z"/><path class="cls-46" d="M63.58,390.41a.16.16,0,0,0-.08-.25l-.36-.07s-.72-.29-.41-.34.45,0,.68-.08a.17.17,0,0,0,.05-.3,5.16,5.16,0,0,1-.8-.33,1,1,0,0,1,.41-.16c.15,0,.16-.29,0-.31a3.85,3.85,0,0,1-2-1c1.5.57,3.93,1.67,3.81,2.51-.16,1.15-5.16,1.34-5.54,1.3S63,391.17,63.58,390.41Z"/><path class="cls-38" d="M59.3,391c.6.22.82-.08,1.76-.24.36-.06,1.94.21,2-.38-.46-.17-.85-.42-.65-.8.09-.16.74,0,.49-.14-.67-.39-.29-.7-.29-.7a5.91,5.91,0,0,1-.95-.51,5.65,5.65,0,0,0-1.49-.85.53.53,0,0,0-.54.48c0,.25.86.28,1,.45a5.57,5.57,0,0,0-1.07-.08,1.42,1.42,0,0,0,0,.46c.57.32,1.26.54,1.79.88-.57,0-1.17-.42-1.77-.39,0,0,0,.1,0,.14s-.06,0-.1.05a1.06,1.06,0,0,0,.33.3,1,1,0,0,1-.46,0s-.08.59-.09.64Z"/><path class="cls-47" d="M82.53,389c.3.86.24,1.7-.13,1.87s-5.18,1.75-5.48.9,4.06-3.83,4.43-4S82.24,388.09,82.53,389Z"/><path class="cls-46" d="M78.24,391.11a.16.16,0,0,1-.12-.18c0-.73,1.11-.92,1.53-1.29a6.58,6.58,0,0,0,1.4-1.75c-1.06.7-4.39,3.07-4.13,3.83.14.4,1.21.27,2.38,0A2.48,2.48,0,0,0,78.24,391.11Z"/><path class="cls-38" d="M82.12,389.06c-.27-.77-.52-1-.87-1a6.57,6.57,0,0,1-1.82,2.1c-.24.15-.87.32-1,.66.48.15,3-.91,4-.47A3.51,3.51,0,0,0,82.12,389.06Z"/><path class="cls-47" d="M81.48,396.51c.51-.74.69-1.56.39-1.83s-4.52-3.11-5-2.37,2.87,4.8,3.17,5.06S81,397.26,81.48,396.51Z"/><path class="cls-46" d="M77.93,393.26a.14.14,0,0,0-.15.14c-.16.72.82,1.19,1.12,1.65a7,7,0,0,1,.85,2.06c-.83-.94-3.37-4.15-2.92-4.8.24-.34,1.25.07,2.31.65A2.55,2.55,0,0,1,77.93,393.26Z"/><path class="cls-38" d="M81.1,396.3c-.47.67-.76.81-1.1.69a4.69,4.69,0,0,0-.41-1.23,4.87,4.87,0,0,0-.76-1.27c-.18-.23-.75-.55-.78-.93.49,0,2.64,1.71,3.68,1.54A3.32,3.32,0,0,1,81.1,396.3Z"/><path class="cls-47" d="M82.9,392.75c-.16,1.15-.6,2.05-1,2s-5.15-1.61-5-2.76,5.18-1.47,5.56-1.42S83.07,391.59,82.9,392.75Z"/><path class="cls-46" d="M78.14,392.7a.16.16,0,0,1,.15-.21l.36,0s.77-.1.5-.22-.43-.15-.65-.26a.17.17,0,0,1,0-.3,5,5,0,0,0,.87-.11,1.28,1.28,0,0,0-.36-.26.16.16,0,0,1,.08-.3,3.85,3.85,0,0,0,2.17-.46c-1.61.14-4.25.54-4.37,1.37-.16,1.15,4.59,2.71,5,2.76S78.47,393.59,78.14,392.7Z"/><path class="cls-38" d="M82.09,394.44c-.63.07-.76-.29-1.62-.69-.34-.16-1.92-.33-1.83-.92.48,0,.93-.17.84-.6,0-.17-.71-.19-.42-.27.74-.19.45-.59.45-.59a5.78,5.78,0,0,0,1.07-.23,5.51,5.51,0,0,1,1.66-.4.54.54,0,0,1,.4.61c-.07.23-.9,0-1.07.16a5.48,5.48,0,0,1,1.07.21,1.66,1.66,0,0,1-.12.45c-.64.15-1.36.18-2,.36.56.19,1.25-.09,1.82.11,0,0,0,.1,0,.15s.08,0,.09.06a1.28,1.28,0,0,1-.4.21,1.25,1.25,0,0,0,.44.13c0,.05-.08.59-.08.64Z"/><path class="cls-47" d="M64.21,389.88c-.42,3,2.29,5.88,6.06,6.41s7.16-1.49,7.58-4.51-2.29-5.88-6.06-6.4S64.63,386.86,64.21,389.88Z"/><path class="cls-46" d="M69.84,394.46C73.61,395,77,393,77.42,390a4.46,4.46,0,0,0,0-.73,4.51,4.51,0,0,1,.4,2.56c-.42,3-3.82,5-7.58,4.51-3.46-.49-6-3-6.09-5.67A7.18,7.18,0,0,0,69.84,394.46Z"/><path class="cls-46" d="M69.77,395.4c4,.54,7.54-1.31,8.12-4.19a3.64,3.64,0,0,1,0,.57c-.42,3-3.82,5-7.58,4.51a7.64,7.64,0,0,1-5.06-2.82A9.24,9.24,0,0,0,69.77,395.4Z"/><path class="cls-33" d="M65.35,388.7c-.31,2.2,1.93,4.32,5,4.75s5.8-1,6.1-3.2-1.93-4.34-5-4.76S65.66,386.5,65.35,388.7Z"/><path class="cls-33" d="M66.64,388.36c-.22,1.58,1.53,3.14,3.93,3.47s4.5-.67,4.74-2.27-1.54-3.13-4-3.47S66.86,386.77,66.64,388.36Z"/><path class="cls-34" d="M66.12,388.92a1.26,1.26,0,0,0,1.24-.42,5,5,0,0,1,5.45-1.06,1.39,1.39,0,0,0,1.36-.08h0c.28-.28,0-.86-.72-1.13-2.71-1-5.85-.42-7.47,1.46-.43.48-.3,1.09.14,1.23Z"/><path class="cls-47" d="M33,382.19c-.52.75-.69,1.58-.4,1.85s4.52,3.1,5,2.36-2.85-4.79-3.15-5.06S33.5,381.46,33,382.19Z"/><path class="cls-46" d="M36.52,385.45a.15.15,0,0,0,.16-.14c.16-.72-.82-1.19-1.12-1.65a6.86,6.86,0,0,1-.86-2.06c.84.95,3.37,4.15,2.92,4.8-.23.35-1.24-.07-2.3-.64A2.55,2.55,0,0,1,36.52,385.45Z"/><path class="cls-38" d="M33.36,382.42c.45-.67.76-.82,1.09-.7a5.31,5.31,0,0,0,.41,1.24,5.13,5.13,0,0,0,.77,1.27c.18.22.74.55.78.91-.5,0-2.64-1.7-3.68-1.53A3.14,3.14,0,0,1,33.36,382.42Z"/><path class="cls-47" d="M31.92,389.77c-.29-.86-.24-1.7.13-1.88s5.2-1.76,5.48-.9-4.06,3.83-4.42,4S32.21,390.62,31.92,389.77Z"/><path class="cls-46" d="M36.21,387.61a.14.14,0,0,1,.12.17c0,.73-1.11.92-1.52,1.29a6.82,6.82,0,0,0-1.41,1.75c1.07-.69,4.4-3.08,4.13-3.83-.13-.39-1.21-.27-2.38,0A2.56,2.56,0,0,0,36.21,387.61Z"/><path class="cls-38" d="M32.34,389.66c.27.77.52,1,.86,1a5.13,5.13,0,0,1,.76-1.08,4.67,4.67,0,0,1,1.07-1c.23-.17.86-.33,1-.67-.48-.16-3,.91-4,.47A3.2,3.2,0,0,0,32.34,389.66Z"/><path class="cls-47" d="M31.58,385.75c-.17,1.16,0,2.14.4,2.19s5.39-.15,5.55-1.3-4.59-2.82-5-2.88S31.74,384.59,31.58,385.75Z"/><path class="cls-46" d="M36.18,387a.16.16,0,0,0-.09-.24c-.12,0-.23,0-.34-.08s-.72-.29-.44-.34.46,0,.71-.08.16-.24,0-.29a7.11,7.11,0,0,1-.8-.34,1.41,1.41,0,0,1,.41-.17.15.15,0,0,0,0-.3,3.91,3.91,0,0,1-1.95-1c1.51.57,3.94,1.67,3.82,2.5-.16,1.15-5.17,1.36-5.55,1.3S35.61,387.78,36.18,387Z"/><path class="cls-38" d="M31.9,387.61c.6.22.81-.08,1.76-.23.35-.05,1.92.21,2-.38-.46-.17-.85-.43-.64-.81.07-.15.73,0,.47-.14-.65-.38-.27-.7-.27-.7a7.61,7.61,0,0,1-1-.5,5.69,5.69,0,0,0-1.49-.86.52.52,0,0,0-.52.48c0,.25.84.28,1,.46a4.87,4.87,0,0,0-1.08-.08,1.35,1.35,0,0,0,0,.45c.58.33,1.26.55,1.8.89-.58,0-1.18-.43-1.78-.39a.49.49,0,0,0,0,.14c-.05,0-.07,0-.1,0a1,1,0,0,0,.33.3,1,1,0,0,1-.46,0s-.08.6-.09.64Z"/><path class="cls-47" d="M55.13,385.55c.29.86.23,1.7-.12,1.87s-5.21,1.76-5.5.91,4.07-3.83,4.42-4S54.83,384.7,55.13,385.55Z"/><path class="cls-46" d="M50.83,387.71a.16.16,0,0,1-.13-.17c.06-.74,1.13-.92,1.55-1.3a6.35,6.35,0,0,0,1.39-1.74c-1.06.68-4.39,3.07-4.13,3.83.14.39,1.21.27,2.39,0A2.69,2.69,0,0,0,50.83,387.71Z"/><path class="cls-38" d="M54.7,385.66c-.26-.77-.5-1-.86-1a4.8,4.8,0,0,1-.74,1.08,5,5,0,0,1-1.08,1c-.23.16-.85.32-1,.66.48.16,3-.9,4-.47A3.19,3.19,0,0,0,54.7,385.66Z"/><path class="cls-47" d="M54.06,393.12c.53-.74.69-1.57.41-1.83s-4.52-3.12-5-2.37,2.87,4.79,3.16,5.06S53.56,393.86,54.06,393.12Z"/><path class="cls-46" d="M50.52,389.87c-.08,0-.13,0-.15.13-.17.73.81,1.2,1.12,1.66a7,7,0,0,1,.86,2.06c-.83-.94-3.37-4.16-2.93-4.8.24-.34,1.25.06,2.31.64A2.56,2.56,0,0,1,50.52,389.87Z"/><path class="cls-38" d="M53.7,392.9c-.47.66-.78.82-1.1.7a6.57,6.57,0,0,0-1.18-2.51c-.18-.22-.74-.55-.79-.92.5,0,2.65,1.7,3.69,1.54A3.33,3.33,0,0,1,53.7,392.9Z"/><path class="cls-47" d="M55.5,389.35c-.16,1.15-.61,2-1,2s-5.14-1.62-5-2.77,5.19-1.47,5.56-1.41S55.66,388.21,55.5,389.35Z"/><path class="cls-46" d="M50.73,389.32a.17.17,0,0,1,.16-.23c.12,0,.23,0,.35,0s.77-.08.51-.21-.45-.16-.65-.27-.1-.28,0-.3a4.32,4.32,0,0,0,.88-.1,1.11,1.11,0,0,0-.36-.26c-.14-.07-.08-.33.08-.31a3.86,3.86,0,0,0,2.16-.45c-1.61.14-4.24.52-4.36,1.36-.16,1.15,4.6,2.71,5,2.77S51.06,390.2,50.73,389.32Z"/><path class="cls-38" d="M54.68,391.06c-.64.05-.77-.31-1.62-.71-.33-.15-1.91-.33-1.83-.92.49,0,.93-.18.84-.6,0-.16-.71-.19-.42-.26.74-.2.46-.6.46-.6a5.5,5.5,0,0,0,1-.23,5.7,5.7,0,0,1,1.69-.39.53.53,0,0,1,.38.6c-.07.24-.9,0-1.08.16a6.46,6.46,0,0,1,1.08.22,2.3,2.3,0,0,1-.12.45c-.63.15-1.36.18-2,.35.56.19,1.25-.08,1.82.11,0,0,0,.11,0,.14s.07,0,.08.08a1.36,1.36,0,0,1-.4.2,1.13,1.13,0,0,0,.43.13s-.08.6-.07.64Z"/><path class="cls-47" d="M36.8,386.49c-.42,3,2.3,5.87,6.07,6.4s7.15-1.49,7.57-4.51-2.29-5.87-6.06-6.4S37.22,383.47,36.8,386.49Z"/><path class="cls-46" d="M42.43,391.06c3.77.53,7.16-1.49,7.59-4.5a4.58,4.58,0,0,0,0-.74,4.52,4.52,0,0,1,.39,2.56c-.42,3-3.82,5-7.57,4.51-3.47-.48-6-2.94-6.11-5.67A7.23,7.23,0,0,0,42.43,391.06Z"/><path class="cls-46" d="M42.36,392c4,.56,7.55-1.3,8.13-4.18a5.25,5.25,0,0,1-.05.57c-.42,3-3.82,5-7.57,4.51a7.63,7.63,0,0,1-5.07-2.81A9.26,9.26,0,0,0,42.36,392Z"/><path class="cls-33" d="M37.93,385.3c-.3,2.2,2,4.32,5,4.75s5.81-1,6.12-3.2-1.94-4.34-5-4.76S38.25,383.1,37.93,385.3Z"/><path class="cls-33" d="M39.23,385c-.22,1.58,1.54,3.13,3.94,3.47s4.5-.68,4.73-2.27S46.35,383,44,382.69,39.45,383.37,39.23,385Z"/><path class="cls-34" d="M38.7,385.53a1.26,1.26,0,0,0,1.24-.42,5,5,0,0,1,5.45-1.06,1.38,1.38,0,0,0,1.37-.09h0c.28-.27,0-.85-.72-1.12-2.7-1-5.85-.43-7.48,1.45-.43.49-.29,1.09.14,1.24Z"/><path class="cls-48" d="M46.75,390.05c-.26.87-.18,1.71.2,1.86s5.27,1.55,5.52.68-4.21-3.66-4.58-3.82S47,389.18,46.75,390.05Z"/><path class="cls-46" d="M51.12,392c.09,0,.13-.08.12-.19-.07-.73-1.16-.88-1.59-1.22a7.09,7.09,0,0,1-1.46-1.69c1.09.64,4.51,2.89,4.28,3.65-.12.41-1.2.33-2.39.11A2.56,2.56,0,0,1,51.12,392Z"/><path class="cls-38" d="M47.17,390.15c.24-.79.48-1,.83-1a4.28,4.28,0,0,0,.78,1.05,4.93,4.93,0,0,0,1.12,1c.24.15.87.28,1,.61-.48.19-3-.78-4-.31A3.35,3.35,0,0,1,47.17,390.15Z"/><path class="cls-48" d="M48.11,397.57c-.55-.72-.76-1.53-.47-1.82s4.39-3.29,4.93-2.57-2.66,4.91-3,5.19S48.66,398.29,48.11,397.57Z"/><path class="cls-46" d="M51.51,394.18c.09,0,.14,0,.17.13.19.71-.77,1.22-1,1.69a6.38,6.38,0,0,0-.78,2.1c.8-1,3.21-4.28,2.72-4.92-.24-.33-1.24.12-2.27.74A2.57,2.57,0,0,0,51.51,394.18Z"/><path class="cls-38" d="M48.47,397.33c.51.66.81.8,1.12.66a5.36,5.36,0,0,1,.36-1.26,5.57,5.57,0,0,1,.72-1.29c.18-.23.72-.58.75-.95-.5,0-2.58,1.8-3.62,1.68A3.35,3.35,0,0,0,48.47,397.33Z"/><path class="cls-48" d="M46.53,393.86c.2,1.15.68,2,1.06,1.95s5.07-1.81,4.87-3-5.25-1.26-5.63-1.19S46.32,392.72,46.53,393.86Z"/><path class="cls-46" d="M51.29,393.64a.17.17,0,0,0-.17-.22c-.11,0-.23,0-.34,0s-.77-.06-.53-.2.44-.17.64-.28a.17.17,0,0,0,0-.3,4.45,4.45,0,0,1-.89-.07,1.41,1.41,0,0,1,.35-.27.16.16,0,0,0-.09-.3,3.82,3.82,0,0,1-2.18-.38c1.62.08,4.27.36,4.42,1.19.2,1.15-4.5,2.9-4.87,3S51,394.52,51.29,393.64Z"/><path class="cls-38" d="M47.4,395.53c.64,0,.77-.34,1.6-.76.33-.18,1.91-.4,1.79-1-.49,0-.93-.13-.86-.56,0-.17.7-.23.42-.28-.76-.17-.49-.59-.49-.59a5.46,5.46,0,0,1-1.07-.18,5.68,5.68,0,0,0-1.69-.33.51.51,0,0,0-.35.62c.06.25.89,0,1.06.12a6,6,0,0,0-1.05.26,1.5,1.5,0,0,0,.13.44c.65.13,1.37.13,2,.28-.54.21-1.25,0-1.81.19a.71.71,0,0,0,0,.14c0,.05-.06,0-.08.08a1.62,1.62,0,0,0,.41.17.79.79,0,0,1-.42.15c0,.06.11.59.1.64Z"/><path class="cls-48" d="M68.83,386.32c.55.73.76,1.55.47,1.83s-4.39,3.29-4.93,2.56,2.66-4.91,2.95-5.18S68.29,385.6,68.83,386.32Z"/><path class="cls-46" d="M65.43,389.72c-.1,0-.14,0-.16-.14-.19-.71.75-1.22,1-1.69a7.45,7.45,0,0,0,.77-2.09c-.79,1-3.21,4.27-2.72,4.91.24.33,1.23-.12,2.27-.73A2.57,2.57,0,0,0,65.43,389.72Z"/><path class="cls-38" d="M68.47,386.56c-.49-.65-.8-.8-1.12-.66a5.24,5.24,0,0,1-.37,1.26,5.48,5.48,0,0,1-.72,1.3c-.17.22-.71.58-.74,1,.5,0,2.57-1.8,3.61-1.69A3.24,3.24,0,0,0,68.47,386.56Z"/><path class="cls-48" d="M70.2,393.84c.25-.86.16-1.7-.21-1.86s-5.26-1.55-5.53-.68,4.22,3.66,4.6,3.82S69.93,394.71,70.2,393.84Z"/><path class="cls-46" d="M65.81,391.86c-.08,0-.11.09-.11.18.07.74,1.15.88,1.58,1.22A7.1,7.1,0,0,1,68.75,395c-1.08-.64-4.51-2.89-4.29-3.65.13-.4,1.22-.33,2.4-.11A2.4,2.4,0,0,1,65.81,391.86Z"/><path class="cls-38" d="M69.77,393.76c-.24.78-.47,1-.83,1a4.61,4.61,0,0,0-.78-1.06,5.33,5.33,0,0,0-1.11-1c-.25-.15-.88-.29-1-.62.47-.18,3,.78,4,.3A3.52,3.52,0,0,1,69.77,393.76Z"/><path class="cls-48" d="M70.37,389.83c.21,1.14.08,2.13-.31,2.19s-5.39.08-5.6-1.08,4.47-3,4.84-3.07S70.16,388.67,70.37,389.83Z"/><path class="cls-46" d="M65.84,391.27a.15.15,0,0,1,.07-.25,1.39,1.39,0,0,1,.35-.09s.7-.33.4-.36-.46,0-.68-.05a.16.16,0,0,1-.07-.3,4.48,4.48,0,0,0,.8-.37,1.09,1.09,0,0,0-.42-.13.17.17,0,0,1,0-.32,3.74,3.74,0,0,0,1.9-1.11c-1.49.63-3.87,1.84-3.72,2.65.21,1.16,5.22,1.16,5.6,1.08S66.42,392,65.84,391.27Z"/><path class="cls-38" d="M70.13,391.69c-.58.25-.83-.05-1.76-.16-.36,0-1.93.29-2-.3.45-.19.84-.46.62-.84-.09-.14-.74,0-.49-.11.65-.41.24-.72.24-.72a6.38,6.38,0,0,0,1-.54,5.7,5.7,0,0,1,1.45-.91.53.53,0,0,1,.55.46c0,.25-.84.31-1,.49a5.58,5.58,0,0,1,1.08-.12,1.71,1.71,0,0,1,0,.45c-.56.35-1.24.6-1.76.95.58,0,1.15-.46,1.76-.45,0,0,0,.09,0,.13s.07,0,.1.05a1.05,1.05,0,0,1-.32.31,1,1,0,0,0,.46,0l.11.64Z"/><path class="cls-48" d="M51.72,392.93c.53,3,4,4.87,7.75,4.2s6.34-3.65,5.8-6.65-4-4.88-7.75-4.19S51.17,389.93,51.72,392.93Z"/><path class="cls-46" d="M58.49,395.53c3.74-.68,6.35-3.66,5.8-6.65a3.89,3.89,0,0,0-.19-.71,4.63,4.63,0,0,1,1.17,2.31c.54,3-2.06,6-5.8,6.65-3.44.62-6.65-.91-7.56-3.48A7.28,7.28,0,0,0,58.49,395.53Z"/><path class="cls-46" d="M58.71,396.43c4-.71,6.76-3.6,6.42-6.51a5.09,5.09,0,0,1,.14.56c.54,3-2.06,6-5.8,6.65A7.63,7.63,0,0,1,53.79,396,9.21,9.21,0,0,0,58.71,396.43Z"/><path class="cls-33" d="M52.43,391.45c.39,2.19,3.18,3.51,6.23,3s5.2-2.77,4.8-5-3.18-3.51-6.23-3S52,389.26,52.43,391.45Z"/><path class="cls-33" d="M53.56,390.73c.28,1.57,2.43,2.49,4.81,2.07s4.07-2.05,3.78-3.63-2.44-2.51-4.81-2.08S53.26,389.15,53.56,390.73Z"/><path class="cls-34" d="M53.23,391.42a1.21,1.21,0,0,0,1-.79,5,5,0,0,1,4.86-2.7,1.36,1.36,0,0,0,1.25-.51h0c.19-.35-.28-.8-1-.84-2.89-.15-5.7,1.43-6.65,3.71-.24.61.08,1.13.53,1.13Z"/><path class="cls-49" d="M26.12,385c-.64.64-1,1.41-.72,1.73s3.87,3.9,4.51,3.27-1.92-5.25-2.17-5.56S26.77,384.35,26.12,385Z"/><path class="cls-44" d="M29,388.85a.17.17,0,0,0,.18-.11c.3-.69-.57-1.33-.79-1.84a6.85,6.85,0,0,1-.47-2.2c.65,1.1,2.55,4.73,2,5.28-.3.3-1.22-.3-2.15-1.06A2.38,2.38,0,0,1,29,388.85Z"/><path class="cls-38" d="M26.46,385.27c.58-.57.9-.67,1.2-.49a5.58,5.58,0,0,0,.18,1.3,5.37,5.37,0,0,0,.51,1.39c.14.25.63.68.6,1-.49-.07-2.29-2.15-3.33-2.19A3.2,3.2,0,0,1,26.46,385.27Z"/><path class="cls-49" d="M23.67,392.23c-.11-.9.08-1.72.48-1.82s5.43-.76,5.55.13-4.7,3-5.09,3.11S23.81,393.12,23.67,392.23Z"/><path class="cls-44" d="M28.3,390.9a.15.15,0,0,1,.09.19c-.19.72-1.27.7-1.76,1A6.76,6.76,0,0,0,25,393.53c1.16-.47,4.88-2.2,4.75-3-.05-.41-1.13-.49-2.34-.46A2.39,2.39,0,0,0,28.3,390.9Z"/><path class="cls-38" d="M24.12,392.19c.1.81.31,1.08.67,1.11a4.41,4.41,0,0,1,.92-.91,5.15,5.15,0,0,1,1.24-.8c.25-.11.9-.15,1.12-.47-.44-.24-3.14.34-4-.27A3.42,3.42,0,0,0,24.12,392.19Z"/><path class="cls-49" d="M24.08,388.21c-.36,1.11-.36,2.1,0,2.22s5.32.87,5.7-.23-4-3.64-4.34-3.77S24.45,387.11,24.08,388.21Z"/><path class="cls-44" d="M28.36,390.31a.15.15,0,0,0-.05-.26,1.34,1.34,0,0,0-.32-.13s-.64-.43-.35-.43.47.06.69.06a.17.17,0,0,0,.11-.29,4.92,4.92,0,0,1-.74-.48,1.27,1.27,0,0,1,.44-.07.16.16,0,0,0,.06-.31A3.94,3.94,0,0,1,26.48,387c1.37.84,3.56,2.37,3.29,3.17-.38,1.1-5.33.36-5.7.23S27.68,391,28.36,390.31Z"/><path class="cls-38" d="M24.05,390.1c.55.33.83.07,1.77.1.37,0,1.86.56,2.05,0-.42-.26-.76-.58-.49-.91.11-.14.73.14.5-.06-.58-.49-.13-.74-.13-.74a6.28,6.28,0,0,1-.86-.67,5.76,5.76,0,0,0-1.33-1.12.53.53,0,0,0-.6.38c-.05.25.79.42.88.63a5.87,5.87,0,0,0-1.05-.29,1.4,1.4,0,0,0-.1.45c.5.43,1.15.77,1.61,1.2-.58-.08-1.08-.63-1.68-.71,0,0,0,.1-.06.13s0,0-.1,0a1.38,1.38,0,0,0,.26.36.84.84,0,0,1-.44-.08c0,.06-.19.58-.21.62Z"/><path class="cls-49" d="M47.27,392.4c.11.9-.1,1.72-.49,1.82s-5.42.76-5.55-.14,4.71-3,5.09-3.11S47.14,391.51,47.27,392.4Z"/><path class="cls-44" d="M42.63,393.72c-.07,0-.1-.09-.07-.19.17-.72,1.26-.7,1.74-1A6.63,6.63,0,0,0,46,391.09c-1.16.48-4.88,2.2-4.76,3,.05.41,1.14.49,2.34.46A2.57,2.57,0,0,0,42.63,393.72Z"/><path class="cls-38" d="M46.82,392.43c-.12-.8-.31-1.08-.67-1.12a5.17,5.17,0,0,1-.93.94A5.33,5.33,0,0,1,44,393c-.26.11-.91.15-1.11.46.44.24,3.12-.33,4,.28A3.27,3.27,0,0,0,46.82,392.43Z"/><path class="cls-49" d="M44.8,399.64c.66-.63,1-1.41.73-1.73s-3.85-3.9-4.5-3.26,1.92,5.24,2.17,5.57S44.17,400.28,44.8,399.64Z"/><path class="cls-44" d="M41.94,395.79a.15.15,0,0,0-.18.1c-.3.68.57,1.33.78,1.84a6.53,6.53,0,0,1,.46,2.19c-.63-1.09-2.54-4.71-2-5.27.29-.29,1.21.3,2.14,1.05A2.45,2.45,0,0,1,41.94,395.79Z"/><path class="cls-38" d="M44.48,399.36c-.59.56-.9.66-1.21.49a5.09,5.09,0,0,0-.17-1.3,5.25,5.25,0,0,0-.52-1.39c-.14-.26-.63-.67-.59-1.05.49.08,2.29,2.16,3.32,2.19A3.05,3.05,0,0,1,44.48,399.36Z"/><path class="cls-49" d="M46.92,396.22c-.37,1.09-1,1.88-1.35,1.77s-4.74-2.55-4.38-3.65,5.37-.48,5.74-.35S47.29,395.1,46.92,396.22Z"/><path class="cls-44" d="M42.24,395.28a.17.17,0,0,1,.19-.19l.34.1s.78.06.55-.12-.41-.24-.6-.38a.17.17,0,0,1,.1-.29,5,5,0,0,0,.87.06,1.11,1.11,0,0,0-.3-.32c-.12-.09,0-.33.13-.28a3.83,3.83,0,0,0,2.22-.05c-1.61-.16-4.27-.27-4.55.53-.36,1.1,4,3.52,4.38,3.65S42.41,396.22,42.24,395.28Z"/><path class="cls-38" d="M45.8,397.73c-.64-.07-.7-.44-1.47-1-.29-.2-1.81-.67-1.62-1.24.49.06.94,0,.94-.43,0-.17-.66-.32-.37-.34.77-.05.56-.5.56-.5a6.84,6.84,0,0,0,1.08,0,5.88,5.88,0,0,1,1.72-.09.53.53,0,0,1,.26.67c-.09.23-.88-.14-1.07,0a5.55,5.55,0,0,1,1,.42,1.5,1.5,0,0,1-.18.41c-.67,0-1.37-.08-2,0,.51.27,1.23.14,1.76.44,0,0,0,.1,0,.15s.06,0,.07.08a1.41,1.41,0,0,1-.42.12.83.83,0,0,0,.38.21c0,.05-.19.57-.19.62Z"/><path class="cls-49" d="M28.65,389.92a4.17,4.17,0,0,0,2.62,5.29l5.87,2a4.1,4.1,0,0,0,1.83.19h0a4,4,0,0,0,1.85-.7,4.06,4.06,0,0,0,1.61-2.1c0-.09.06-.18.07-.26a4.2,4.2,0,0,0-.28-2.93A4.1,4.1,0,0,0,41,389.94a4.59,4.59,0,0,0-1.22-.65l-5.88-2a4.16,4.16,0,0,0-5.28,2.61Z"/><path class="cls-44" d="M31.36,393l7,2.38a5.49,5.49,0,0,0,3.67,0,4.16,4.16,0,0,1-4.89,1.8l-5.9-2a4.16,4.16,0,0,1-2.79-4.41A5.41,5.41,0,0,0,31.36,393Z"/><path class="cls-33" d="M30.13,389.1a2.4,2.4,0,0,0,1.3,3.15l7.39,2.49A2.4,2.4,0,0,0,41.75,393h0a2.41,2.41,0,0,0-1.29-3.14l-7.4-2.5a2.41,2.41,0,0,0-2.93,1.71Z"/><path class="cls-33" d="M31.54,389.15a1.68,1.68,0,0,0,1.15,2.09l5.84,2a1.68,1.68,0,0,0,2.17-1h0a1.7,1.7,0,0,0-1.15-2.09l-5.83-2a1.7,1.7,0,0,0-2.18,1Z"/><path class="cls-33" d="M32.86,389.18c-.15.42.29.95,1,1.17l4.32,1.47c.67.22,1.35.07,1.49-.34h0c.14-.42-.3-.94-1-1.17l-4.33-1.46c-.68-.24-1.35-.09-1.48.33Z"/></g></g></svg>