<svg xmlns="http://www.w3.org/2000/svg" viewBox="0 0 283.11 643.59"><defs><style>.cls-1{isolation:isolate;}.cls-2{fill:#85bd46;}.cls-14,.cls-3{fill:#fff;}.cls-4{fill:#683c11;}.cls-5{fill:#512e07;}.cls-6{fill:#e84341;}.cls-7{fill:#4c1947;}.cls-8{fill:#3f133a;}.cls-9{fill:#b7cac8;}.cls-13,.cls-9{mix-blend-mode:multiply;}.cls-10{fill:#77a93f;}.cls-11{fill:#d0ebfc;}.cls-12{fill:#153c37;}.cls-13{fill:#6c8a99;}.cls-14{mix-blend-mode:soft-light;}.cls-15{fill:#e94e1b;}.cls-16{fill:#320b2d;}.cls-17{fill:#61235d;}.cls-18{fill:#ffde00;}.cls-19{fill:#a2816c;}.cls-20{fill:#9d9d9c;}.cls-21{fill:#8a8989;}.cls-22{fill:#c8c8c8;}.cls-23{fill:#c6c6c6;}.cls-24{fill:#6c9a39;}</style></defs><title>player</title><g class="cls-1"><g id="Capa_1" data-name="Capa 1"><polygon class="cls-2" points="125.72 620.17 150.21 620.17 150.21 535.42 119.44 535.42 125.72 620.17"/><polygon class="cls-3" points="123.74 597.35 125.16 615.66 150.86 615.66 150.86 597.35 123.74 597.35"/><path d="M84.16,642.74c3.39,1.25,66.72,1,68.43,0s2-3.44,0-4.48-67.49-1.17-68.43,0S80.77,641.49,84.16,642.74Z"/><polygon points="121.41 601.87 123.08 620.17 150.21 623.87 153.16 601.87 121.41 601.87"/><path d="M84.16,638.26C82,633.74,82.43,620.17,96,622.79c10.37,2,21.19-9.71,29.68-9.71,8.15,0,24.49,4.84,24.49,4.84s5.27,12.4,2.38,20.34Z"/><polygon class="cls-2" points="184.73 620.17 160.24 620.17 160.24 535.42 191.01 535.42 184.73 620.17"/><path class="cls-4" d="M85.93,340.35,70.64,337.6s-14.45-22.43-19.07-50.47,84.63-24.68,77.07,6.74S85.93,340.35,85.93,340.35Z"/><path class="cls-4" d="M85.93,340.35,70.64,337.6S56.93,377.7,60,385.17s27-2.72,33-9S85.93,340.35,85.93,340.35Z"/><path class="cls-5" d="M85.93,340.35H71.65s-9.82,38-6.74,45.52,15-1.66,21-8S85.93,340.35,85.93,340.35Z"/><path class="cls-4" d="M83.43,340l-7.68,1.11s-13.46,42.57-10.37,50,11.82-.7,17.8-7S83.43,340,83.43,340Z"/><path class="cls-6" d="M67.17,340.29A3.32,3.32,0,0,0,70,344.06l17,1.25a3.32,3.32,0,0,0,3.3-3.31h0a3.33,3.33,0,0,0-2.78-3.76l-17-1.25a3.31,3.31,0,0,0-3.3,3.3Z"/><path class="cls-4" d="M226.52,340.35l15.29-2.75s14.45-22.43,19.08-50.47-84.64-24.68-77.08,6.74S226.52,340.35,226.52,340.35Z"/><path class="cls-4" d="M226.52,340.35l15.29-2.75s13.71,40.1,10.63,47.57-27-2.72-33-9S226.52,340.35,226.52,340.35Z"/><path class="cls-5" d="M226.52,340.35h14.29s9.81,38,6.73,45.52-15-1.66-21-8S226.52,340.35,226.52,340.35Z"/><path class="cls-4" d="M229,340l7.69,1.11s13.45,42.57,10.37,50-11.82-.7-17.8-7S229,340,229,340Z"/><path class="cls-7" d="M195.85,362.5c5.15.58,14.57,5.68,20.6,19.92C223.88,400,228.21,411,226.7,427.28c-.57,6.14-18.3,14-24.32,7.78S200,397.87,200,397.87Z"/><path class="cls-7" d="M201.71,405l-4.59,15.79s-14.82,12.28-1.27,21.56,37.92,147.43,37.92,147.43-43.82,5-74.05,5c-28.68,0-74-6.51-74-6.51s13.86-141.67,33.44-145.93-1.36-21.56-1.36-21.56l-4.92-20.89,4.66-37.38s9.26-9.61,39-9.61c20.44,0,39.37,9.61,39.37,9.61Z"/><path class="cls-8" d="M122.24,480.1c6.38,7.3,14.12,4.82,22.61,3.22,6.26-1.18,16.61-2.91,16.16-11.15a2.13,2.13,0,0,1,.3-1.25c-.57-5-1.22-10-5-13.74a56.25,56.25,0,0,0-11.11-8.48c-6.36-3.68-13.81-7.44-21.29-8a17.64,17.64,0,0,1-4.76,1.67c-4.93,1.07-9.49,10.86-13.57,24.9C111.67,469.88,117.27,474.41,122.24,480.1Z"/><path d="M195.85,442.33c3,0,4-21.56,1.27-21.56H117.75c-2.38,0-.92,21.56,1.36,21.56Z"/><path class="cls-2" d="M175.91,354.69c-3.45,12.74-38,13.68-38.86-.08,3.68-6.76,0-29.81,0-29.81h38.86S168.77,349.37,175.91,354.69Z"/><path class="cls-9" d="M175.91,345.36V326.31H137.05v19.05s5.43,9,18.32,9A28.67,28.67,0,0,0,175.91,345.36Z"/><path class="cls-2" d="M251.7,268.35c0,44.47-52.32,80.52-96.43,80.52s-96.43-36.05-96.43-80.52,43.18-80.53,96.43-80.53S251.7,223.88,251.7,268.35Z"/><path class="cls-10" d="M62.41,249.62a44.15,44.15,0,0,1,4.89,11.14c24.58,2.72,55.44-5.4,68.26-28.51,3.08-5.56,7.15-16.14,15.52-13.64,8.67,2.58,15.23,9.66,21.22,16,16.5,17.55,37.68,39,64.45,30.51a38.68,38.68,0,0,0,14-8c-6.49-39.2-46.76-69.39-95.5-69.39-45.21,0-83.14,26-93.57,61.05A2.45,2.45,0,0,1,62.41,249.62Z"/><path class="cls-3" d="M128.05,268.62a13.93,13.93,0,1,1-13.93-13.92A13.92,13.92,0,0,1,128.05,268.62Z"/><path class="cls-11" d="M102.89,268.62a13.92,13.92,0,0,1,12.58-13.86c-.45,0-.89-.06-1.35-.06a13.92,13.92,0,1,0,0,27.84c.46,0,.9,0,1.35-.06A13.93,13.93,0,0,1,102.89,268.62Z"/><path class="cls-12" d="M112.83,270.72a6.29,6.29,0,1,0,6.28-6.28A6.28,6.28,0,0,0,112.83,270.72Z"/><path class="cls-13" d="M116.9,270.72a2.22,2.22,0,1,0,2.21-2.21A2.21,2.21,0,0,0,116.9,270.72Z"/><path class="cls-3" d="M117.9,268.62a1.72,1.72,0,1,0,1.71-1.72A1.72,1.72,0,0,0,117.9,268.62Z"/><path class="cls-3" d="M120.05,266a.91.91,0,0,0,1.82,0,.91.91,0,1,0-1.82,0Z"/><path class="cls-3" d="M180.64,268.62a13.93,13.93,0,1,0,13.93-13.92A13.91,13.91,0,0,0,180.64,268.62Z"/><path class="cls-11" d="M205.79,268.62a13.91,13.91,0,0,0-12.57-13.86q.66-.06,1.35-.06a13.92,13.92,0,0,1,0,27.84q-.69,0-1.35-.06A13.92,13.92,0,0,0,205.79,268.62Z"/><path class="cls-12" d="M195.85,270.72a6.28,6.28,0,1,1-6.28-6.28A6.28,6.28,0,0,1,195.85,270.72Z"/><path class="cls-13" d="M191.79,270.72a2.22,2.22,0,1,1-2.22-2.21A2.21,2.21,0,0,1,191.79,270.72Z"/><path class="cls-3" d="M190.78,268.62a1.71,1.71,0,0,1-1.7,1.71,1.72,1.72,0,1,1,1.7-1.71Z"/><path class="cls-3" d="M188.64,266a.91.91,0,1,1-.91-.91A.91.91,0,0,1,188.64,266Z"/><path class="cls-2" d="M271.38,270.69c0,11.63-11.18,18.39-24.36,18.39s-10.19-35.81,1.07-42.68C256.52,241.24,271.38,249.62,271.38,270.69Z"/><path class="cls-9" d="M260.3,268.68a105.19,105.19,0,0,1-.38,12.31c3.55-3.68,5.85-8.63,5.86-12.31,0-11.39-8.9-16.3-14.66-14.33C255.8,255.75,260.3,260.57,260.3,268.68Z"/><path class="cls-2" d="M40.65,270.69c0,11.63,11.16,18.39,24.34,18.39s10.2-35.81-1-42.68C55.51,241.24,40.65,249.62,40.65,270.69Z"/><path class="cls-9" d="M51.73,268.68A105.19,105.19,0,0,0,52.11,281c-3.56-3.68-5.86-8.63-5.86-12.31,0-11.39,8.9-16.3,14.66-14.33C56.23,255.75,51.72,260.57,51.73,268.68Z"/><path class="cls-9" d="M156.45,280.05c3,0,5.67,1.92,7.35,4.85-.47-6.83-3.58-12.11-7.35-12.11s-6.88,5.28-7.35,12.11C150.78,282,153.44,280.05,156.45,280.05Z"/><path class="cls-14" d="M219,291.28c0,3.88-8.58,7-19.16,7s-19.15-3.15-19.15-7,8.57-7,19.15-7S219,287.4,219,291.28Z"/><path class="cls-14" d="M132,291.28c0,3.88-8.58,7-19.16,7s-19.15-3.15-19.15-7,8.58-7,19.15-7S132,287.4,132,291.28Z"/><path class="cls-9" d="M204.28,305.2c-3.09,0-4.09,4.2-4.09,4.2s1.8-3.22,3.7-2.85c1.67.34,3.29,1.13,3.19,3.2-.18,3.87-5.45,2.78-5.45,2.78a5.93,5.93,0,0,0,2.65,1.09,4.21,4.21,0,1,0,0-8.42Z"/><path class="cls-9" d="M156.45,305.84c-3.11,0-6.09,2.68-8.87,2.07a32.9,32.9,0,0,1-9.72-3.72,19.49,19.49,0,0,0,9.5,7.89c2.75,1.11,5.83-1.26,9.09-1.26,3,0,5.93,2.46,8.53,1.47a19.58,19.58,0,0,0,10.05-8.1,32.43,32.43,0,0,1-8.78,3.51C163.21,308.45,159.91,305.84,156.45,305.84Z"/><path class="cls-9" d="M156.48,319.33a13.24,13.24,0,0,1-7-1.86,8.37,8.37,0,0,0,14.09,0A13.2,13.2,0,0,1,156.48,319.33Z"/><path class="cls-15" d="M125.4,244.71c-1.25-1.65-9.08-1.25-12.57-.58-10.92,2.1-14.08,8.65-14.08,8.65s6.32-4.44,13.24-5.08c7.67-.71,11.46,2.14,12.43,1.37S126.65,246.35,125.4,244.71Z"/><path class="cls-15" d="M183.88,244.71c1.25-1.65,9.08-1.25,12.56-.58,10.93,2.1,14.08,8.65,14.08,8.65s-6.31-4.44-13.24-5.08c-7.67-.71-11.45,2.14-12.42,1.37S182.62,246.35,183.88,244.71Z"/><path class="cls-15" d="M245.16,265.08s-16.16,6.58-36.67-9-33.57-45.5-74.84-45.5c3.1,27.7-66.85,50.32-66.85,50.32S60.91,241,50.4,247.73c-1.62-55.69,36.2-57.95,69.65-54.36,56.57-24.7,140.51-3.54,139.87,53.29C248.2,241.9,245.16,265.08,245.16,265.08Z"/><path class="cls-6" d="M245.29,340.29a3.32,3.32,0,0,1-2.78,3.77l-17,1.25a3.32,3.32,0,0,1-3.29-3.31h0a3.31,3.31,0,0,1,2.77-3.76L242,337a3.31,3.31,0,0,1,3.3,3.3Z"/><polygon class="cls-3" points="187.16 597.35 185.74 615.66 160.04 615.66 160.04 597.35 187.16 597.35"/><path d="M226.74,642.74c-3.38,1.25-66.72,1-68.43,0s-2.05-3.44,0-4.48,67.49-1.17,68.43,0S230.12,641.49,226.74,642.74Z"/><polygon points="189.49 601.87 187.82 620.17 160.69 623.87 157.73 601.87 189.49 601.87"/><path d="M226.74,638.26c2.13-4.52,1.72-18.09-11.88-15.47-10.36,2-21.2-9.71-29.68-9.71-8.14,0-24.49,4.84-24.49,4.84s-5.27,12.4-2.38,20.34Z"/><path class="cls-7" d="M280.41,190.8c0,15.84-49.27,57.37-121,57.37S20.68,206.64,20.68,190.8s67,0,138.74,0S280.41,175,280.41,190.8Z"/><path class="cls-16" d="M48.85,199.63c-4.4-9.13.34-15.46,22.62-14.09-30.36-2.57-50.79-3.49-50.79,5.26,0,10.67,30.41,33,72.16,46.41C82.35,230.85,54,210.33,48.85,199.63Z"/><path class="cls-17" d="M272,184.17a5.41,5.41,0,0,1,1.17,3.5c0,15.84-49.28,57.37-121,57.37-30.53,0-60.17-7.53-84.18-17.39,25.15,11.36,57.79,20.52,91.48,20.52,71.72,0,121-41.53,121-57.37C280.41,186.92,277.45,185,272,184.17Z"/><path class="cls-7" d="M211.4,157.42c-.07-4.26,3.72-48.47,3.65-54.77-.18-17.78-33.15-30.4-35.47-45.55-4-26.07,24.28-54.63,21.57-57-2-1.72-52.51,22.94-59.81,35.46-2.62,4.48-.76,48.17-5.57,61.19-2.36,6.41-34.42,31.09-40.33,41.26-3.65,6.31.39,20.52-.85,30.54-.78,6.19-8.92,14.67-8.92,18.22,0,11.43,27.73,26.46,64.88,26.46s70.78-14.39,70.78-25.81C221.33,184,211.48,162.7,211.4,157.42Z"/><path class="cls-16" d="M146.87,184.32c-6.91-4.25-15.49-8-20.77-14.42-5.72-6.93-7.23-13.94-4.51-22.57,1.94-6.13,6.22-11.21,8.14-17.4,1.8-5.77,3.71-11.35,6-16.94,5.39-13,11.51-25.2,12.25-39.53.55-10.54,0-21.07,0-31.62,0-4.56.14-9.14.51-13.65-3.35,2.68-5.91,5.21-7.17,7.36-2.62,4.48-.76,48.17-5.57,61.19-2.36,6.41-34.42,31.09-40.33,41.26-3.65,6.31.39,20.52-.85,30.54-.78,6.19-8.92,14.67-8.92,18.22,0,11.43,27.73,26.46,64.88,26.46q5.89,0,11.62-.47C163.12,200.88,158.38,191.39,146.87,184.32Z"/><path class="cls-17" d="M211.4,157.42c-.07-4.26,3.72-48.47,3.65-54.77-.18-17.78-33.15-30.4-35.47-45.55a37,37,0,0,1,0-10.4,36.58,36.58,0,0,0-.84,4c-1.64,10.9,1.41,21.11,8,29.86,4.08,5.4,10.87,11.94,12.5,18.73,1.87,7.82.24,14.55-1.59,22.25a75.7,75.7,0,0,0-.06,33.62c2.07,9.33,4.77,17.88,10.12,25.87a69.69,69.69,0,0,1,8.09,15c3.54-2.88,5.53-5.83,5.53-8.6C221.33,184,211.48,162.7,211.4,157.42Z"/><path d="M94.59,168.54c-.78,6.19-8.92,14.67-8.92,18.22,0,11.43,27.73,26.46,64.88,26.46s70.78-14.39,70.78-25.81c0-2-3.27-9.89-6.06-17.23C179.58,187.15,132.65,192.36,94.59,168.54Z"/><path class="cls-16" d="M178.19,79.36S172.29,95,165,98.13s-25.73,5.23-25.73,5.23,22.95,6.25,29.9,0S178.19,79.36,178.19,79.36Z"/><path class="cls-16" d="M206.71,158.5s-15,6.8-24.34,8.89-21.56,4.86-21.56,4.86,14.95,3.83,25,0S206.71,158.5,206.71,158.5Z"/><path class="cls-18" d="M172.2,180.89H150.46L140,215h36.08ZM146.42,209l6.74-22.06h14L169.72,209Z"/><path class="cls-18" d="M158.07,197.73a3,3,0,0,0,3.13,2.81h17.26a3,3,0,0,0,3.12-2.81h0a3,3,0,0,0-3.12-2.81H161.2a3,3,0,0,0-3.13,2.81Z"/><path class="cls-19" d="M95.85,539.09a4.87,4.87,0,0,1-.2-6.88l179-190.38a4.85,4.85,0,0,1,6.88-.21h0a4.88,4.88,0,0,1,.21,6.88l-179,190.39a4.87,4.87,0,0,1-6.89.2Z"/><path class="cls-20" d="M12.84,632.62s16.7-40.92,54.61-70c23.3-17.89,16.41-31.39,16.41-31.39S103.36,559.92,77,573C43.44,589.58,12.84,632.62,12.84,632.62Z"/><path class="cls-21" d="M16.16,630.9s45.7-38.68,66-60.24,4-46.86,15-36.52,14.24,24.71-6.06,46.27S16.16,630.9,16.16,630.9Z"/><path class="cls-22" d="M16.09,635.68s19.58-38.2,57.49-67.3c23.31-17.9,14.08-37,14.08-37s21.84,34.32-4.48,47.35C49.57,595.36,16.09,635.68,16.09,635.68Z"/><path class="cls-20" d="M24.73,631.48S60.05,596,80.19,574.6s2.35-48,14.08-37,15.65,25.95-4.49,47.34S24.73,631.48,24.73,631.48Z"/><path class="cls-23" d="M20,639.39s45.73-38,65.87-59.42,2.34-48.05,14.08-37,15.64,25.95-4.49,47.33S20,639.39,20,639.39Z"/><path class="cls-20" d="M7.18,627.29S47,608.16,73.79,568.57c16.45-24.33,29.11-19.42,29.11-19.42s-28.6-16.59-40,10.47C48.29,594.16,7.18,627.29,7.18,627.29Z"/><path class="cls-21" d="M8.69,623.87s35.86-47.94,56.16-69.5,46.55-6.81,35.57-17.15S74.89,524.49,54.59,546,8.69,623.87,8.69,623.87Z"/><path class="cls-22" d="M3.93,624.23s37-21.85,63.72-61.43c16.46-24.34,47.82-5.24,36.08-16.28s-35.56-19.74-47,7.32C42.16,588.38,3.93,624.23,3.93,624.23Z"/><path class="cls-20" d="M7.6,615.35S40.9,578,61,556.57s47.82-5.23,36.08-16.28-26.85-14-47,7.33S7.6,615.35,7.6,615.35Z"/><path class="cls-23" d="M0,620.52s35.21-47.93,55.34-69.32,47.82-5.23,36.08-16.28-26.85-14-47,7.34S0,620.52,0,620.52Z"/><path class="cls-19" d="M84.3,529.57c-.31-1.29,11-.37,16.74,5s6.74,14.43,5.46,15.06S84.6,530.87,84.3,529.57Z"/><path class="cls-2" d="M202.32,430.37c-4.5-5.94-2.83-14.78,3.74-19.76s15.52-4.2,20,1.73S206.82,436.3,202.32,430.37Z"/><path class="cls-24" d="M145.54,461.25c6.07,4.31,8.36,11.5,5.13,16s-10.78,4.75-16.85.43S139.47,456.93,145.54,461.25Z"/><path class="cls-7" d="M117.49,362.5c-5.15.58-16.31,5.06-20.6,19.92-6.26,21.72-11.17,39.85-15.29,55.72-3.86,14.87,50.46,34,47.49,46.06L159.3,464l-52.45-33.64,6.46-32.44Z"/><path class="cls-2" d="M159.3,464c6.07,4.32,7.11,13.25,2.34,20s-13.57,8.65-19.64,4.34S153.23,459.63,159.3,464Z"/></g></g></svg>