<svg xmlns="http://www.w3.org/2000/svg" viewBox="0 0 289.57 562.65"><defs><style>.cls-1{isolation:isolate;}.cls-2{fill:#f18626;}.cls-3{fill:#e5251d;}.cls-4{fill:#d7c4ba;}.cls-11,.cls-19,.cls-26,.cls-4,.cls-5,.cls-7{mix-blend-mode:multiply;}.cls-5,.cls-8{fill:#cbaeab;}.cls-6{fill:#db5913;}.cls-19,.cls-9{fill:none;}.cls-9{stroke:#d36801;stroke-miterlimit:10;stroke-width:2.57px;}.cls-10{fill:#dfb2a8;opacity:0.6;}.cls-10,.cls-14{mix-blend-mode:soft-light;}.cls-11{fill:#e8cbc7;}.cls-12{fill:#301b16;}.cls-13{fill:#f9bb8d;}.cls-14,.cls-18{fill:#fff;}.cls-14{opacity:0.3;}.cls-15{fill:#2f0d01;}.cls-16{fill:#45170d;}.cls-17{fill:#ee714f;}.cls-19{stroke:#c8926a;stroke-linecap:round;stroke-linejoin:round;stroke-width:2.81px;}.cls-20{fill:#ed8366;opacity:0.5;}.cls-21{fill:#30130c;}.cls-22{fill:#d36801;}.cls-23{fill:#008d36;}.cls-24{fill:#007a2e;}.cls-25{fill:#00983a;}.cls-26{fill:#c6958c;}</style></defs><title>player</title><g class="cls-1"><g id="Capa_1" data-name="Capa 1"><path class="cls-2" d="M214.11,235c-30.94,40.35-30.56,34.16-69.36,34.16S113,273.61,81.63,234.29C25.76,214,27.13,149.09,61.32,107.45c19.33-23.54,46.41-20.07,84.19-20.07,40.08,0,66.88-4.94,84.74,16.49C264.82,145.34,261.59,213,214.11,235Z"/><path class="cls-3" d="M145.31,428.81c-135.74,0-89.36-148.55-53.1-190,18.83-21.51,40.68-24.51,63.58-24.51,16.51,0,31.77,1.14,45.3,20.61C240,290.9,277.12,428.81,145.31,428.81Z"/><path class="cls-4" d="M73.6,386.36c-2.41-7.23-5.66-15-6.92-22.49a21,21,0,0,1,3.17-15.27c.59-1,6.6-10.92,5.13-11.17a6.92,6.92,0,0,1-3.58-1.25,1.46,1.46,0,0,1-.38-1.46c.81-3.27,3.15-8.6,5.83-10.73,1.28-1,7.9-5.12,3.48-7.34-.84-.42-2.27-.91-2.78-1.81-1.56-2.82.6-6.78.91-9.7C79,300.41,85.35,300,80,294.37c-4.12-4.36,7.75-15,5.89-20.88-2.05-6.45-3-12.49-6.3-16.55C55.36,299.1,36.49,376.56,81.76,411.22,79.37,402.82,76.36,394.65,73.6,386.36Z"/><path class="cls-4" d="M224,279.38c-5.88,7.5,7.06,28.17,7.73,36.29,2.43,29.25-9.45,56.95-11.85,85.67C245.56,370.85,239.57,320.53,224,279.38Z"/><path class="cls-5" d="M148.34,418.79c-21.86,0-39-3.87-52.18-10.51,11.13,12.63,27.94,20.53,52.3,20.53,24.59,0,41.62-7.94,52.9-20.73C188,414.86,170.55,418.79,148.34,418.79Z"/><path class="cls-6" d="M125.77,541.72l9.29-150.11H80.71L108,535c-.53.05-6-.76-3.69,5,.37.93-3.1,1.25-3,2.25a6.37,6.37,0,0,0,1.21,3.32,34.13,34.13,0,0,1-13.25,2.26c-9.33,0-22.19,14.79-12,14.79h45.57c7,0,4.15-15.77,3-20.93Z"/><g class="cls-7"><path class="cls-8" d="M132.74,429a32.82,32.82,0,0,0-6.79,7.2c-3.32,5.3-3.42,10.78-3.2,16.87.25,6.7,5.75,16.26-.26,21.63-1.28,1.14-3.35,1.69-4.42,3-2.16,2.72,2.43,5.34,3.89,6.68,2.23,2.06,1.62,6.27,1.38,8.86-.56,6-2.26,11.62-2,17.68.29,6.82-.85,14.13-.15,20.84.42,4.05,1.77,7.1-1.09,10.38,0,.06-4.5,1.88-3.09,3a9.26,9.26,0,0,1,2.61,2.57c3.46,5.91-6.86,12.31-11,13.81-1.2.44-2.41.82-3.63,1.16h17.77c7,0,4.15-15.77,3-20.93Z"/></g><path class="cls-6" d="M210.39,547.86a38.71,38.71,0,0,1-10.63-1.33c1.3-4-1.5-2.32-4.41-5.25-1.19-1.18,2.05-5.5-2.94-6.49l27-143.18H164.55l9.29,150.11h0c-1.12,5.16-4,20.93,3,20.93h45.57C232.58,562.65,219.72,547.86,210.39,547.86Z"/><g class="cls-7"><path class="cls-8" d="M183.43,540.72c-1.93-.66-4.09-1.88-2.84-4a15.31,15.31,0,0,1,3.34-3.48c2.33-2.09-.25-5.21-1.21-7.55-.73-1.76,1.09-5.22.94-6.89-.36-4.13-1.07-8.19-1.53-12.3-.91-8.11,1.73-17.16-1.41-24.79a1.48,1.48,0,0,1,1-1.84c1.06-.16,6.89-.35,4.35-2.57a45.11,45.11,0,0,1-3.93-3.49c-2.78-3.05-3.72-6.47-4.27-10.52-.72-5.28-6.6-43.36-11.81-46.72l7.74,125.15c-1.12,5.16-4,20.93,3,20.93h22C186.55,559.33,176.87,553.23,183.43,540.72Z"/></g><path class="cls-2" d="M246.56,321.58c0,85.67-45.85,111.27-102.42,111.27S41.72,400.36,41.72,321.58C41.72,233,87.58,210.3,144.14,210.3S246.56,231,246.56,321.58Z"/><path class="cls-9" d="M221.05,321.58c0,85.67-34.43,111.27-76.91,111.27s-76.9-32.49-76.9-111.27c0-88.62,34.43-111.28,76.9-111.28S221.05,231,221.05,321.58Z"/><path class="cls-9" d="M174.12,321.58c0,85.67-13.41,111.27-30,111.27s-30-32.49-30-111.27c0-88.62,13.42-111.28,30-111.28S174.12,231,174.12,321.58Z"/><path class="cls-10" d="M74.69,364.16c1.74,5.48,3.94,23,10.53,21.32.83-7.36-2.19-14-1.51-21.25,3.28,2.57,4.11,9.13,7.05,12.41,1-3.73.59-7.76.8-11.68,2.45,4.44,1.58,12.65,5.5,15.54,3.54-4.9.18-19.94,0-26.12-.3-8.62-4.89-32.09-.67-38.16,2.8,9.47.22,34.67,6.29,40.49,2.51-6.06,3.87-12.68,5-19.07.52,1.11,2,2.91,2.27,4.47,1.93-6.18.85-18.66.57-26a185.29,185.29,0,0,1,1.12-29.37c1.09-9.46,1.31-18.5,1.65-28.23.32-9.15,2.53-16.94,2.16-26.48-5-.82-5.19,13.54-8.74,16.81-.57-4.33,1.45-7.95.92-12.38-9.21-2.29-12,35.28-15.43,41.93-.28-5.35,5.06-36.24-.15-35.41-7.09,1.1-7.64,22.59-11.16,27.3-.74-2.88-1-6.21-2.79-8.18C63,299.92,74.69,364.16,74.69,364.16Z"/><path class="cls-10" d="M124.41,249.2c1.66,5.09-2.23,16.9-3.27,22.65-1.54,8.56-3.1,17.75-3.44,26.59-.31,8.46-.42,16.79-1,25.11-.57,7.67-1.3,17.34.27,24.62.86,4,2.06,8.78,4,12.14a34.41,34.41,0,0,1,.87-4.69,4.18,4.18,0,0,0,1,0,137.61,137.61,0,0,0,1.18,26c1,6.2,3.89,17.93,7.45,22.46-.07-6.6-.48-12.95-.76-19.38-.32-7.4-1.94-17.48-1.48-23.84,0,11.37.4,21,4.19,31.09.74,2,3,11.58,4.44,12.21,3,1.35,1.24-10.79,2.52-12.77,3.4,3.47,3.35,15.24,5.61,2.53,2.17-12.15,1.64,2.52,5.88,3.39,2.48-7.41,2.5-16,3-24,.4-6.11,1.18-12.18,1.52-18.25.3-5.12-.45-11.13,1.84-15.5,2.61,5.65,1.36,16.59,1.87,23.26.37,4.84.49,10.17,1.56,14.82,6.75-.68,7-23.33,7-29.36,0-11.76-.28-23.36-.74-34.93-.42-10.53,1.06-21.71-.09-32.13-.51-4.74-1.79-9.09-2.14-13.91s-.7-10.06-2.33-14.66c-1.17-3.28-3.43-8-5.4-10.29-1.85,6.19.2,11,.66,17.07s-1.2,12.44-3.35,17.45c-2.27-4.42-1.8-13.83-2.53-19.34-.59-4.34-1.91-8.77-2-13.18-3.3.24-5.4,15.47-6.73,19.08-2.73-3.11-1.25-10.9-4.77-13.79-3,3.81-2.93,11.13-3.35,16.41-.64,8.18-1.34,16.34-2.59,24.39-1.82-7.35-1.67-16.35-1.87-24-.12-4.94.94-13.4-1.87-16.8-2.3,2.91-.89,8.33-3,11.69,0-3.22,0-6.44,0-9.66Z"/><path class="cls-10" d="M178.41,353.58c0,6.82-.7,14.61.35,21.2.66,4.12,3.21,16.58,6.67,17.63.78-8.56-4-18.75-1.44-27.11,3.75,6.95,1.25,18.62,5.5,24.67,1.87-5.32.46-15.21.46-21.11,0-6.89-.52-14.22,1.58-20.66,3.78,5.18-1.5,35.35,5.43,36.84.82-5.68-.08-13.85,1.57-19.06,2.38-7.52,1.8,3.17,4.76,4.28.27-4.2-.15-9.65.88-13.65,3.15.17,2.25,8.44,6.2,8.21,1.76-5,1-13.43.81-19-.31-8.56-1-17-1.14-25.59,2.3,5.66,2.51,15.85,5.62,20.1,2.62-5.09.73-19.85.73-26.29,0-8.15.23-16.51-.39-24.48-.85-11.15-6-27.56-12.19-35.42-.36,2.69.37,5.15.23,7.78-2.58-1.71-4.44-12-7-15.58-2.09-2.93-7.25-9.8-10.37-9.39-1.69,4.52,1.86,10.33,1.8,15.18-.09,9.71-3.05-.38-4.53-3.35a8.93,8.93,0,0,0-1.37,0c-.4,2.63.11,6.19-1.25,8.22-2.13-1.09-1.85-5.05-4.33-4.76-1.76,5.77-1.18,16.21-1.17,22.57,0,7.6.15,15.51,1.49,22.65,3.11,16.54,1.85,32.41,1.85,49.71Z"/><path class="cls-10" d="M80.46,229.5c-3.72,6.18-9.12,9-13.4,14.26-3.94,4.89-6.77,12.19-9.4,18.24-8.21,18.78-10,37.82-11.55,58.59a118.18,118.18,0,0,0,2.33,35c1.44,6.47,9,29.49,9,29.49s-1.57-9.66-2.63-13.73a44.4,44.4,0,0,1-1.43-14.22c3.85,2.31,3.52,13.52,7.69,16.64.25-3.63-.66-7.18-.24-10.76.35,1,1.44,2.2,1.9,3.24,2-7.33.64-18,.64-25.93,0-11.07-.88-21.67,0-32.5,1.51-18.14,3.93-35.85,10-52.29,1.19-3.28,3.18-7,3-10.67-2.79,1.86-3.35,6.93-5.51,9.82-1.68,2.26-5,5.94-7.38,6.31-.16-3.83,3.69-6.25,5.44-8.81,1.62-2.35,2.76-5.4,4.17-7.83,2.92-5.05,6-6.6,8.2-12.34Z"/><path class="cls-10" d="M222.73,348.65c.16,6.3-4,18.28-.83,23.59,1.15-3.07,1.65-6.24,2.75-9.22a6.28,6.28,0,0,1,1.37,0c.24,2.52-.5,4.73-.25,7.25.55-.64,2-1.69,2.48-2.34,0,1.87-2.19,9.33.8,9.32,1.8,0,1.92-8,2.16-9.87.81-6.59,1.26-17.38,4.15-22.73,4.06,5-1.43,20.78-1,27.08,3.29-.24,7-15.09,7.77-19.13a174.39,174.39,0,0,0,3.34-22.65,151.65,151.65,0,0,0-4.94-48.25c-2.08-7.91-3.71-20.1-9.13-25.54-.11,2.06-.05,4.22-.14,6.29-1.78-1.23-3-8.33-4.32-11.25s-4.3-9.14-6.74-9.79c-.84,4.9,4.19,12.54,5.62,17.12a47.62,47.62,0,0,1,2.46,16.7c-3.63,1.1-2.91-7.25-3.67-10.27-1-3.75-2.8-7.57-4.08-11.29-.83-2.39-2.1-9-4.83-8.91-3.38.14-1.57,7.44-.77,9.85,2.52,7.61,5.84,13.19,6.71,21.69.86,8.33,2.76,16.73,3.36,25.09a117.69,117.69,0,0,1-.38,21.68c-.7,6.28-2.37,16.46-1.86,21.66Z"/><path class="cls-10" d="M226.45,334.38c.12,4.35-1.73,11.47.74,14.84,2-2.45,2.49-12.86,5.49-14s.08,7.48,4.15,6.94c1.34-10.78,2.66-21.71,3-32.9.38-11,.72-28.35-6.68-35.43-.28,3-.53,9.2-3.11,10.81-2.78,1.72-2.24-2.16-2.59-5.36-2.76,1.55-2.69,19.35-2.18,23.56.42,3.52,1.93,6.18,2.24,9.86.4,4.5-.73,8.89-.37,13.29Z"/><path class="cls-10" d="M182.51,336.83c-.66,3.59-.17,7.34-.73,10.83-.22,1.39-2.31,6.31-1.91,7.41,2.4,6.59,5.7-6.55,8.13-5,1.08-3.49,2.41-11.82,5.68-4.84,1.24,2.65.09,12.83,3.67,12.2.81-4.49.25-8.79,3.69-9.15,1.87-.2,1,4.43,3.08.86.62-1.1,0-6.48,0-7.87.05-7,.57-13.79.75-20.81.16-6.07,1.7-8.37,3.41-13.57,2.19,0,1.66,4.49,2.94,6.63-.09-8.84.67-18.12,0-26.91-.16-2.08-3.3-19.11-6.34-12.34-5.33-4.32-4.29-21-10.75-25-2,8.44.62,16.36-3.14,24.53-2.41-2.51-1.67-9-4.37-11.41-5.08-4.47-.67,8.6-4.85,6.07-2-1.23-2.72-11.06-4.48-2-.66,3.39-.14,8.82,0,12.34.36,8,2.47,17.39,4.1,25.1,1.68,8,1.52,16.87,1.87,25.1a26.63,26.63,0,0,1,0,3.46Z"/><path class="cls-10" d="M121.79,340.28c0,6.26,1,10.66,4.76,14.72.51-2.53.89-5.74,3.37-5.78,6.94,8.31.84,26.89,8.19,35.83,1.23-4.75-.62-24.4,4.11-25,1.76,7.24,2.91,19.57,7.08,24.95.53-12.11-.28-24.63.72-36.7.5-6.35,1.25-12.69,2-19,.51-4,.33-9.73,2.52-12.76,3.28,4,2.46,13.89,5.59,18.85,1.75-2.9.64-9.42.74-13.22.17-5.72.29-11.54.75-17.26.4-5.15,2-11.71,1.11-16.86-1.11-6.69-2-2.31-3.72,1.85-4.71,11.82-6.64-2.07-8.29-8.36-.68-2.61-1.59-8.65-3.7-10.1-3.13-2.15-3.44,2.08-4.47,5.73-1.5-.23-2-2.48-2.91-3.83-2.12,7.68-1.49,16.27-4.38,24.08-5.8,15.8-6.11-9.87-9.4-12.88-3.6,6.29-3.59,18.82-4.38,26.53s-.84,15.57-1.2,23.27Z"/><path class="cls-10" d="M76,279.72c0,19.79-4.18,40.33-2.63,60,.33,4.11,3.56,20,6.73,20.2s1.9-6.65,4.93-7.28c2.81-.57,1.74,4.77,3.94,5.74,3.7-17-3.94-35.34-1.53-52.48,1.26-8.95,4.48-8,7.46-1,.49,1.14,1.41,6.83,2.69,6.81,1.71,0,1.45-4.63,2.24-6,2.05,2.35,1.77,7.77,3.66,10.39,0-10.51,2-20.89,1.94-31.49,0-5.9,5.39-23.83,2.22-27.64-1.8,2-2,12.34-5.21,8.38-3.45,5.54-3.08,15-7.06,20.26-7.86,10.32-6-9.09-8.19-12.9-5.65,4.54-3,18.28-8.13,22.65-1.46-4.3-.82-10.32-.82-15.19Z"/><path class="cls-10" d="M48.8,338.32c0,3.82-1.07,12.1,2.92,12.74.86-2.67.53-9.59,3.35-9.21,1.19,2.61.84,7.55,3.44,8.23,1.8-6.75-1.09-15.28-1.8-22a77.86,77.86,0,0,1,.65-23.23c1.55-8.69,3.18-17.66,4.86-26.1.42-2.11,2.88-7.23,2.26-9.36-1.59-5.39-3.78,2.95-5.94,2.87.12-1.79-.46-2.63-.8-3.93-1.83,4.14-2.64,10.92-3,15.84-.44,6.08-1.93,11.3-3,17.23-1,5.29-2,10.83-2.82,16.23-.67,4.56-.21,11.69-1.94,15.27Z"/><path class="cls-11" d="M223.67,383.31c-6.55-5.47-4.43-26.34-3.69-37.2-5.07,11.77-8.1,33-14.76,43.37-4.6,7.18-13.78,13.92-21.85,9.32-6.76-3.85-7.8-15.9-8.17-24.4-.29-6.76-1.24-21.48-1.08-28.29-2.31,11.11-4.75,29.86-9.16,39.38-5.24,11.35-13.79,26.95-25.15,26.79-23.7-.32-17.59-46.75-26.58-66.17-6.32,13.26-3.93,40.7-18.4,44.15C79.14,394,71.75,375.11,69,357.53c-.48,11,1.13,24.86-6,30.14a5.82,5.82,0,0,1-5.49.92c18.15,30.72,50.15,44.26,86.62,44.26,41.13,0,76.57-13.57,92.86-53.87C233.31,383.79,228.54,387.36,223.67,383.31Z"/><path class="cls-11" d="M200.18,404.35c-9.45,6.24-31.61,17.51-34-1-6.64,9.49-12.84,17.51-23.45,18.14-9.36.57-18.51-3.81-23-15-5.41,5-12.22,8.08-18.88,6.64s-10.58-9.54-16.65-11.59c-2.54-.86-4.25,7.44-6.72,10.21,17.92,14.48,41.2,21.13,66.7,21.13,27.58,0,52.56-6.15,71-22.32C207.52,414.09,201.38,413.6,200.18,404.35Z"/><path class="cls-11" d="M86.74,228.89c-.44,5.84-3,11.09-4.47,16.72,10.9-11.6,22-18.72,36.55-19.55.6,0,1.13.71,1.12,1.48-.28,11.59-4.55,23.8-2.52,35.27,3.24-9.18,3.66-20.3,9.54-27.45.63-.76,1.62-.43,1.88.65,2.31,9.76,5.51,1.92,9.8-.11,2.8-1.34,4.8.21,6.36,2.88,3.59-6.85,12.64-9.66,16.43-2.15a72.2,72.2,0,0,1,6.39,20c1.13,6.42,1.88,15.06,5,20.72,1.4-13.23,0-26.7,1.91-39.88.09-.58.62-1.15,1.08-1.08a13.53,13.53,0,0,1,6.9,3.36,41.39,41.39,0,0,0,.36-7.79c-.08-.95.78-1.7,1.42-1.43,1.48.61,3,.82,4.4,1.48.12-1,.25-2,.33-3,.06-.78.45-1.52,1.12-1.48,10.67.66,14.7,17.33,19.29,27.54,1.56,3.51,3.24,7.23,5.62,9.86.3.35-6.29-21.11-4.76-28.89.18-.91.39-1.9,1.07-1.87A29.37,29.37,0,0,1,221.63,237c-18.78-20.48-46.51-26.72-77.49-26.72-22.73,0-43.73,3.68-60.73,13.82C85.45,224.64,87,226,86.74,228.89Z"/><path class="cls-12" d="M125.45,316.25c-4.23-16.88-35.27-33.63-35.27-33.63a49.23,49.23,0,0,0-13.31,33.63Z"/><path class="cls-12" d="M167.08,316.25c4.24-16.88,35.28-33.63,35.28-33.63a49.23,49.23,0,0,1,13.31,33.63Z"/><path class="cls-12" d="M207.65,345.75c4.4,8.45,1.89,18.72,1.89,18.72l-17.82-1.55-1.21,15.47-16.19-6.63-6.18,14.6-13.65-10.07L144.23,389,134,376.26l-13.73,10-6.13-14.62L98,378.29l-1.38-15.48-17.82,1.66s-.32-7.61,4.52-18.72S95.88,330.6,95.88,330.6l4.87,13.73,12.45-9.19,4.25,13.76,11.22-10.36,6.69,13,9.09-11.84,8.85,11.91,6.94-12.84,10.61,10.77,5-13.51,11.75,9.8,4.89-13.62S203.24,337.3,207.65,345.75Z"/><path class="cls-4" d="M124.09,256.64A122,122,0,0,0,167.7,260c14.17-1.57,25.92-8.06,33.16-20.61l.09-.16c-13.32-18.27-28.25-19.41-44.41-19.41-22,0-43.12,2.82-61.46,22.24C104.2,248,113.58,253.79,124.09,256.64Z"/><path class="cls-13" d="M245,186.19c0,39-37.75,63-97.19,63-60.39,0-97.19-27-97.19-63,0-44.72,33.63-94.72,96.85-94.72C207.84,91.47,245,141.47,245,186.19Z"/><path class="cls-13" d="M260.49,164.61a14.63,14.63,0,1,1-14.61-14.22A14.42,14.42,0,0,1,260.49,164.61Z"/><path class="cls-13" d="M62.19,167.62a14.63,14.63,0,1,1-14.61-14.24A14.42,14.42,0,0,1,62.19,167.62Z"/><path class="cls-14" d="M42.73,156.2c-1.76,1-5.83,5.83-6.9,7.56-2.86,4.6-.73,9,3.56,11.18,3.71,1.93,7.75,1.7,10.73,4.83s3,6.93,3.74,11c2.2,11.95,7.43,25.94,17.51,33,21.24,14.85,47.75,21.52,56.48,22.49,25.5,2.86,41.93,1.74,75-9.25,6.95-2.31,25.56-13.25,29.49-19.41,10.78-16.92,9.46-30,10-36.06.22-2.39-.74-5.2,1.76-6.7,1.89-1.13,6.64,1,8.65.39,6.51-2,6.05-11.43,3.91-16.93-.84-2.16-5.4-5.16-8.48-3.81-2.36,1-3,3.27-3.9,5.58-1.66,4.54-3.63,6.83-7.46,10.28-1.46,1.32-4.72,1.53-5-1.13-.34-3.71-1.64-7.76-2.67-11.37-.8-2.76-61.46-1.46-109.81-20.6-3.66.92-10.6,1.52-14.17,2.75S93,144.12,89.38,144.71c-6.51,1-12.59,10.84-19.17,11.49-6.42.63-6.15,15.64-9.74,18.12-2,1.42-4.08-3-5.74-6.7C50.6,158.26,45.14,154.78,42.73,156.2Z"/><path class="cls-14" d="M79.35,219.38c19.27,13,43.33,18.82,51.25,19.68,23.14,2.51,38.05,1.52,68-8.09,6.3-2,23.19-11.62,26.76-17,9.78-14.81-.24-40-.46-42.34a55.54,55.54,0,0,0-2.43-9.95c-.72-2.42-63.45-2.33-88.82-19-4.45.48-10,3-14.36,4-3.32.82-7.64,3.62-10.87,4.69a50.09,50.09,0,0,1-9,1.93c-5.91.92-10.77,2.25-16.74,2.82s-8.51,6.87-10.47,11.42c-2.47,5.73,5.4,13,.07,17.48C70.33,186.76,70.19,213.21,79.35,219.38Z"/><path class="cls-15" d="M192.05,206.38c9.24,14.25-16.85,33.83-43.36,33.83-26.92,0-49.12-19.11-43.34-33.83C113.7,185.08,129,200,148.69,200,168.89,200,178.8,186,192.05,206.38Z"/><path class="cls-16" d="M173.44,200.86c-1.8-1.47-3.66-2.89-5.56-4.27C162.45,198,156.31,200,148.69,200a57.53,57.53,0,0,1-13.55-1.91c-12.79,7.4-19.19,13.16-22.49,28.92,8.1,7.55,21.35,13.24,36,13.24,15.48,0,30.8-6.67,39-15.06C188.81,215.41,180.59,206.72,173.44,200.86Z"/><path class="cls-17" d="M181.73,230.12a60.42,60.42,0,0,1-33,10.09,56.16,56.16,0,0,1-30.5-8.89c-10.42-6.88,10.11-13.76,29.85-13.76C168.22,217.56,191.77,223.25,181.73,230.12Z"/><path class="cls-18" d="M184.29,205.26s-3.24.57-8.31,1.2c-.73.09-2.46-3.34-2.46-3.34s-1.43,3.81-2.3,3.9a205.4,205.4,0,0,1-21.42,1.26c-10.09,0-21.26-1.69-28.73-3.06-.41-.08-1-3.62-1-3.62s-1.66,3.11-2.31,3c-3.34-.66-5.37-1.14-5.37-1.14s-2.47-5.44.45-7c8.74-4.81,21,3.56,35.82,3.56,15.15,0,24.51-7.86,33.83-3.19C185.63,198.33,184.29,205.26,184.29,205.26Z"/><path class="cls-19" d="M154.93,184.06s1.74,4.92-5.75,4.92-5.73-6.92-5.73-6.92"/><path class="cls-20" d="M209.82,180.88c0,4.2-7.29,7.62-16.29,7.62s-16.29-3.42-16.29-7.62,7.29-7.62,16.29-7.62S209.82,176.67,209.82,180.88Z"/><path class="cls-20" d="M119.32,184.69c0,4.2-7.3,7.61-16.29,7.61s-16.3-3.41-16.3-7.61,7.29-7.62,16.3-7.62S119.32,180.48,119.32,184.69Z"/><path class="cls-21" d="M190.29,162.73a6.53,6.53,0,1,1-6.53-6.53A6.53,6.53,0,0,1,190.29,162.73Z"/><path class="cls-21" d="M117.64,162.73a6.53,6.53,0,1,1-6.53-6.53A6.53,6.53,0,0,1,117.64,162.73Z"/><path class="cls-18" d="M116.6,160.76a2.5,2.5,0,1,1-2.5-2.5A2.49,2.49,0,0,1,116.6,160.76Z"/><path class="cls-18" d="M188.76,160.23a2.5,2.5,0,1,1-2.5-2.5A2.51,2.51,0,0,1,188.76,160.23Z"/><path class="cls-21" d="M197.38,145.65c-1.61-2.42-5-3.44-7.69-4.26-3-.91-5.66-1-8.14.94a1.6,1.6,0,0,0,.31,2.5c2,1.19,4.12,1.33,6.31,2.08s4.46,2.75,7,2.61C197,149.42,198.51,147.38,197.38,145.65Z"/><path class="cls-21" d="M95.46,145.65c1.62-2.42,5-3.44,7.69-4.26,3-.91,5.66-1,8.15.94a1.61,1.61,0,0,1-.32,2.5c-2,1.19-4.11,1.33-6.31,2.08s-4.45,2.75-7,2.61C95.86,149.42,94.33,147.38,95.46,145.65Z"/><path class="cls-21" d="M154.87,86.16c-53.92,0-96.65,23.31-107.29,67.22C52,156.87,58,163.22,57.75,168.94a2,2,0,0,0,3.93,0c0-1.52-1.34-6.65.41-11.67,29.86-4.67,57.23-31,57.23-31S172.17,159,231.11,150.87c2.83,4.32.93,8.37,1.1,14.57.08,3.24,5,4.1,5.76.78a22.3,22.3,0,0,1,11.19-16.16C244.36,124.14,208.8,86.16,154.87,86.16Z"/><path class="cls-2" d="M143.46,133.11c33.65,0,64.2-11.14,86.79-29.24-21.66-22.25-51-29.35-83.27-29.35-33.5,0-63.8,8.32-85.66,32.93C83.38,123.44,112.07,133.11,143.46,133.11Z"/><path class="cls-22" d="M78.32,117.82c12.72-24,31.44-37.3,56.57-40.41-8.59,7.94-14.84,25.48-18.89,53.15l2.59.47c6.84-47,18.68-54.37,28.39-54.37,10.39,0,21.77,7.79,28.38,53l2.57-.57c-4-27.13-10.18-44.1-18.75-51.81,20.21,2.15,40.61,10.77,55.35,37.32.88-.5,1.76-1,2.63-1.55a96,96,0,0,0-5.25-8.68c-14.74-21.52-36-32-64.93-32-28.69,0-49.92,10.82-64.94,33.07a104.93,104.93,0,0,0-6.43,11C76.5,116.88,77.41,117.35,78.32,117.82Z"/><path class="cls-11" d="M79.37,101.47a76.34,76.34,0,0,1-3,15.36c1.17.61,2.36,1.2,3.55,1.78,11-12.58,22.64-20.2,37.24-21.23.69,0,1.33,1,1.31,2.13-.2,10.13-2.09,20.58-3,30.94,1.4.26,2.81.51,4.23.74,1.52-7.55,3.39-14.76,7.1-20.33.73-1.11,1.89-.62,2.2,1,2.71,14.16,6.49,2.78,11.54-.16,3.31-1.94,5.66.31,7.49,4.18,4.25-10,14.89-14,19.35-3.11a109.2,109.2,0,0,1,5.43,17.47q4.65-.93,9.17-2.14c.19-4.72.51-9.42,1.07-14.1.1-.86.72-1.67,1.27-1.57,3.13.56,5.61,2.29,8.14,4.87a80.35,80.35,0,0,0,.41-11.3c-.1-1.38.91-2.45,1.67-2.07,1.75.89,3.52,1.18,5.18,2.15.14-1.46.28-2.91.38-4.37.08-1.11.54-2.2,1.32-2.15,6.24.48,10.55,6.68,14,14.6a123,123,0,0,0,14.88-10.22C208.58,81.64,179.28,74.52,147,74.52c-26.78,0-51.52,5.33-71.53,20C77.85,95.32,79.62,97.23,79.37,101.47Z"/><path class="cls-23" d="M168.5,75.43c2.87,1.72-13.66-2-16.66-.56-2.3,1.07-3.15,9.23-6.32,8.44-2-.49-6.27-7.09-8.16-7.47-4.85-1-13.51,4-15.13,0-.62-1.57,14.4-3.47,14.26-6.48-.91-19.27,7.46-66.08,13.6-69,4.09-1.93,4.1,4.6,7.46,8.2,1.54,1.66,7.22,2.57,8.37,4.51,2.45,4.09-16.27,36.49-10.79,51.67C156.52,68.59,164.4,73,168.5,75.43Z"/><path class="cls-24" d="M168.5,75.43c2.87,1.72-13.66-2-16.66-.56-2.3,1.07-3.15,9.23-6.32,8.44-2-.49-6.27-7.09-8.16-7.47-4.85-1-13.51,4-15.13,0-.39-1,9.61-2,13.92-3.41,2.57-.86,5.87,1.67,5.82.54-.91-19.26,3.55,6.76,3.55,6.76s2.76-10.83,6.11-7.23c1.54,1.65,5.92-.5,5.92-.5s-5.71-3.85-2.42-7.23C156.52,68.59,164.4,73,168.5,75.43Z"/><path class="cls-25" d="M137.58,60.88c0,2.31-.59,8.25.67,9.68,3-2.71.14-10.2,3.72-12.83,1.46,1.48.28,4,1.54,5.6.37-2,.52-5.53,2-7.07,1.74,2.05-1.76,17.46,2.16,16.88.72-3.41.13-8,1.72-11,.94,1.86.78,5.29,2.45,6.48.2-4.2-.18-8.31-.18-12.52,0-5.71,1.4-10.74,2.79-16.22a62,62,0,0,1,5.7-14.17c1.69-3.07,4.72-8.34,4.41-12-2.41,1.41-4.12,6.37-5.46,9-1.7,3.29-3.21,6.92-5.49,9.76.48-4.87,3.69-9.45,4.9-14.16a47.33,47.33,0,0,0,1.05-5.69c-1.88,1.68-2.81,4.6-4.58,6.4-.28-2.83,1.4-5.1,1.46-7.68a9,9,0,0,0-1.5,1.46c-.63-1-.4-2.38-.47-3.61C153,9.42,152.13,13,151,14.32c-.22-2.4,3.67-9.88.38-11.54-2.64,3.68-3.42,8.07-4.76,12.59-1.45,4.86-3.32,10.44-4,15.36s-1.56,10-2,15c-.33,3.93-.57,7.6-1.75,11.28Z"/><path class="cls-26" d="M56.77,256.85c-4.23,14.73-1.58,28.43,5.93,30.6s17-8,21.3-22.76,1.58-28.43-5.93-30.59S61,242.13,56.77,256.85Z"/><path class="cls-26" d="M56.78,256.85c-3.57,12.39-1.34,23.9,5,25.73s14.34-6.76,17.9-19.14,1.33-23.9-5-25.72S60.35,244.46,56.78,256.85Z"/><path class="cls-13" d="M.75,331.15c-2.43,7.36,1.15,13.55,9.12,16.17s14.7-.83,16.93-7.63c2.77-8.45,1.95-21.33-6.53-24.11C12.18,312.92,3.51,322.7.75,331.15Z"/><path class="cls-6" d="M76.11,242.46C72,235,60.35,242,49.65,250.14s-31.86,37.73-40,67.43c4.49,12.6,19,9.07,19,9.07s22.74-39.52,41.48-50.2C78,268.1,82.07,253.26,76.11,242.46Z"/><path class="cls-26" d="M232.8,259.85c4.23,14.73,1.59,28.43-5.93,30.6s-17.05-8-21.3-22.76S204,239.26,211.5,237.1,228.56,245.12,232.8,259.85Z"/><path class="cls-26" d="M232.8,259.85c3.56,12.39,1.33,23.9-5,25.72s-14.33-6.75-17.9-19.13-1.33-23.89,5-25.72S229.23,247.46,232.8,259.85Z"/><path class="cls-13" d="M288.83,334.14c2.42,7.37-1.16,13.56-9.12,16.17s-14.7-.83-16.94-7.62c-2.77-8.45-1.94-21.33,6.53-24.11C277.39,315.92,286.06,325.69,288.83,334.14Z"/><path class="cls-6" d="M213.47,245.46c4.1-7.44,15.76-.46,26.45,7.67s31.88,37.74,40,67.44c-4.49,12.59-19,9.07-19,9.07s-22.74-39.52-41.47-50.2C211.55,271.1,207.5,256.27,213.47,245.46Z"/></g></g></svg>