<svg xmlns="http://www.w3.org/2000/svg" viewBox="0 0 230.72 508.76"><defs><style>.cls-1{isolation:isolate;}.cls-2{fill:#fff;}.cls-3{fill:#f8b894;}.cls-4{fill:#e73a3a;}.cls-5{fill:#ed674d;}.cls-6{fill:#bc322e;}.cls-7{fill:#f6f6f6;}.cls-18,.cls-23,.cls-8{fill:none;}.cls-9{fill:#df8f72;}.cls-10{fill:#d0ebfc;}.cls-11{fill:#259cc6;}.cls-12{fill:#6c8a99;mix-blend-mode:multiply;}.cls-13{fill:#df8f6f;}.cls-14{fill:#f5a177;}.cls-15{fill:#491d0e;}.cls-16{fill:#d84b58;}.cls-17{fill:#683c11;}.cls-18{stroke:#000;stroke-width:0.75px;}.cls-18,.cls-23{stroke-miterlimit:10;}.cls-19{fill:#412401;}.cls-20{fill:#e5251d;}.cls-21{fill:#ca2317;}.cls-22{fill:#af2112;}.cls-23{stroke:#fff;stroke-width:1.5px;}</style></defs><title>player</title><g class="cls-1"><g id="Capa_1" data-name="Capa 1"><rect class="cls-2" x="52.39" y="504.27" width="59.55" height="4.48"/><polygon class="cls-3" points="85.07 486.18 109.56 486.18 109.56 401.43 78.79 401.43 85.07 486.18"/><path d="M55.57,412.47s27,20.43,54,9c2.74-10.89,5-34.6,5-34.6L63.75,359.31Z"/><path d="M165.22,344.77c0,20.91,6.71,63.69-49,63.69-52.26,0-53.28-44-53.28-64.93s35.56-5.28,55.19-5.28S165.22,323.86,165.22,344.77Z"/><path class="cls-4" d="M52.39,504.27c-4.46-9.43,16.4-25.17,32.68-25.17,8.14,0,24.49,4.83,24.49,4.83s5.26,12.41,2.38,20.34Z"/><path class="cls-5" d="M73.33,493.59c8.16-6.9,9.44-13.07,7.88-12.82-10.46,1.69-21.62,8.65-26.33,15.62C56.15,500.1,69.4,496.9,73.33,493.59Z"/><path class="cls-6" d="M109.56,483.93s-7.16-2.11-14.37-3.55c.2,6.91-7.34,14.37-12.9,17.15-7.14,3.57-22.2,6.7-30.16,1.66a7.18,7.18,0,0,0,.26,5.08h59.55C114.82,496.34,109.56,483.93,109.56,483.93Z"/><rect class="cls-2" x="117.2" y="504.27" width="59.55" height="4.48"/><polygon class="cls-3" points="144.08 486.18 119.59 486.18 119.59 401.43 150.35 401.43 144.08 486.18"/><path d="M173.57,412.47s-27,20.43-54,9c-2.74-10.89-5-34.6-5-34.6l50.83-27.58Z"/><path class="cls-4" d="M176.75,504.27c4.46-9.43-16.39-25.17-32.67-25.17-8.14,0-24.49,4.83-24.49,4.83s-5.27,12.41-2.39,20.34Z"/><path class="cls-5" d="M155.82,493.59c-8.16-6.9-9.44-13.07-7.88-12.82,10.46,1.69,21.62,8.65,26.34,15.62C173,500.1,159.75,496.9,155.82,493.59Z"/><path class="cls-6" d="M119.59,483.93s7.16-2.11,14.37-3.55c-.2,6.91,7.33,14.37,12.89,17.15,7.15,3.57,22.21,6.7,30.17,1.66a7.12,7.12,0,0,1-.27,5.08H117.2C114.32,496.34,119.59,483.93,119.59,483.93Z"/><path class="cls-3" d="M65.91,234.86C55.57,237.2,35.38,268.1,27.65,291c-9.89,29.38,18.74,31.91,22.93,17,6.19-22.05,13.35-27.72,21.35-40.75s-6-32.43-6-32.43"/><path class="cls-3" d="M177.7,363.38c0,7.14,6.35,8.3,6.66,13.16.66,10.15-8.34,12.11-1.2,16.82s18-12.9,19.33-22.46c1.62-11.66-2.69-20.31-11.25-20.31S177.7,353.72,177.7,363.38Z"/><path class="cls-3" d="M163.24,234.16c12.63,6.19,25.64,26.46,33.34,49.37,9.9,29.38,1.88,72.33,1.88,72.33H181.09s1.68-30.65-2.51-48.52c-3.37-14.27-11.19-30.41-19.2-43.46s3.86-29.72,3.86-29.72"/><path class="cls-7" d="M162.26,268.72c0,5.06,3,76,3,76s-16.35,8.28-46.57,8.3c-28.69,0-55.72-9.54-55.72-9.54s5.82-45.08,4-68.71c6.52-23.83-1.9-37.42-1-40,1.5-4.46,20.19-16,49.92-16,20.44,0,38.29,5.51,47.41,15.26C167.38,238.59,155.21,238.81,162.26,268.72Z"/><path class="cls-8" d="M64.33,331.36H164.67c-.23-5.6-.51-12.44-.8-19.53H66.13C65.57,319.08,64.91,325.9,64.33,331.36Z"/><path class="cls-8" d="M67,274.82c.27,3.53.37,7.55.34,11.81h95.58c-.34-8.9-.59-15.77-.61-17.67h-94C67.94,270.84,67.51,272.79,67,274.82Z"/><path class="cls-8" d="M65.91,234.86c-.36,1.06.89,4,2,8.9h93.14c1.67-5.93,4.52-7.1,2.19-9.6a36.87,36.87,0,0,0-9.22-6.95H75.78C70,230.09,66.52,233.05,65.91,234.86Z"/><path d="M75.78,227.21H154c-9.78-5.37-23.28-8.31-38.19-8.31C98.14,218.9,84.36,223,75.78,227.21Z"/><path d="M68.29,269h94v-.24c-3.06-13-2.49-20.39-1.21-25H67.91A60.12,60.12,0,0,1,68.29,269Z"/><path d="M66.13,311.83h97.74c-.35-8.65-.71-17.64-1-25.2H67.29C67.24,294.62,66.75,303.5,66.13,311.83Z"/><path d="M62.93,343.53s27,9.56,55.72,9.54c30.22,0,46.57-8.3,46.57-8.3s-.22-5.44-.55-13.41H64.33C63.55,338.68,62.93,343.53,62.93,343.53Z"/><path class="cls-3" d="M135.25,220.7c-3.43,12.74-38,13.68-38.85-.06,3.68-6.78,0-29.82,0-29.82h38.85S128.13,215.38,135.25,220.7Z"/><path class="cls-9" d="M135.25,211.37V192.32H96.4v19.05s5.43,9,18.32,9A28.62,28.62,0,0,0,135.25,211.37Z"/><path class="cls-3" d="M211.06,134.36c0,44.47-19.66,80.52-96.43,80.52-78.66,0-96.44-36-96.44-80.52s43.17-80.52,96.44-80.52S211.06,89.89,211.06,134.36Z"/><path class="cls-2" d="M87.4,134.63a13.93,13.93,0,1,1-13.93-13.92A13.93,13.93,0,0,1,87.4,134.63Z"/><path class="cls-10" d="M62.24,134.63a13.92,13.92,0,0,1,12.57-13.85c-.44,0-.88-.07-1.34-.07a13.93,13.93,0,0,0,0,27.85c.46,0,.9,0,1.34-.06A13.93,13.93,0,0,1,62.24,134.63Z"/><path class="cls-11" d="M72.19,136.74a6.28,6.28,0,1,0,6.28-6.28A6.27,6.27,0,0,0,72.19,136.74Z"/><path class="cls-12" d="M76.25,136.74a2.22,2.22,0,1,0,2.22-2.22A2.21,2.21,0,0,0,76.25,136.74Z"/><path class="cls-2" d="M77.26,134.64A1.71,1.71,0,1,0,79,132.93,1.71,1.71,0,0,0,77.26,134.64Z"/><path class="cls-2" d="M79.39,132a.92.92,0,1,0,.91-.92A.92.92,0,0,0,79.39,132Z"/><path class="cls-2" d="M140,134.63a13.94,13.94,0,1,0,13.93-13.92A13.93,13.93,0,0,0,140,134.63Z"/><path class="cls-10" d="M165.15,134.63a13.92,13.92,0,0,0-12.58-13.85c.44,0,.89-.07,1.34-.07a13.93,13.93,0,1,1,0,27.85c-.45,0-.9,0-1.34-.06A13.94,13.94,0,0,0,165.15,134.63Z"/><path class="cls-11" d="M155.2,136.74a6.28,6.28,0,1,1-6.28-6.28A6.28,6.28,0,0,1,155.2,136.74Z"/><path class="cls-12" d="M151.14,136.74a2.22,2.22,0,1,1-2.22-2.22A2.21,2.21,0,0,1,151.14,136.74Z"/><path class="cls-2" d="M150.13,134.64a1.71,1.71,0,1,1-1.7-1.71A1.71,1.71,0,0,1,150.13,134.64Z"/><path class="cls-2" d="M148,132a.92.92,0,1,1-.91-.92A.92.92,0,0,1,148,132Z"/><path class="cls-3" d="M230.72,136.7c0,11.64-11.15,30.44-24.34,30.44s-10.2-47.86,1.05-54.73C215.86,107.26,230.73,115.65,230.72,136.7Z"/><path class="cls-13" d="M219.66,134.69a103.54,103.54,0,0,1-.4,12.31c3.56-3.67,5.86-8.62,5.86-12.31,0-11.39-8.9-16.29-14.65-14.32C215.15,121.76,219.66,126.58,219.66,134.69Z"/><path class="cls-3" d="M0,136.7c0,11.64,11.16,30.44,24.34,30.44s10.2-47.86-1.05-54.73C14.86,107.26,0,115.65,0,136.7Z"/><path class="cls-13" d="M11.07,134.69A105.4,105.4,0,0,0,11.46,147c-3.56-3.67-5.85-8.62-5.86-12.31,0-11.39,8.91-16.29,14.65-14.32C15.58,121.76,11.07,126.58,11.07,134.69Z"/><path class="cls-13" d="M115.8,146.06c5.87,0,11.08,1.91,14.36,4.86a14.58,14.58,0,0,0-28.74,0C104.71,148,109.92,146.06,115.8,146.06Z"/><path class="cls-14" d="M178.3,157.3c0,3.88-8.58,7-19.15,7s-19.17-3.15-19.17-7,8.58-7,19.17-7S178.3,153.42,178.3,157.3Z"/><path class="cls-14" d="M91.34,157.3c0,3.88-8.58,7-19.15,7S53,161.18,53,157.3s8.58-7,19.16-7S91.34,153.42,91.34,157.3Z"/><path class="cls-15" d="M141.4,169.75c0,11.75-11.47,21.26-25.6,21.26s-25.6-9.51-25.6-21.26Z"/><path class="cls-16" d="M99.35,186a28.82,28.82,0,0,0,16.45,5,28.42,28.42,0,0,0,17.62-5.85c.66-.51-11.74-7.3-17-2.81C111,177.86,98.46,185.41,99.35,186Z"/><path class="cls-2" d="M137.13,177.2c1.15-1,1.46-4.82,1.46-7.45H93c0,2.63-.12,6.69,1.46,7.45S136,178.19,137.13,177.2Z"/><path class="cls-13" d="M115.8,196.83a17.77,17.77,0,0,1-10.64-3.3,11.69,11.69,0,0,0,21.28,0A17.8,17.8,0,0,1,115.8,196.83Z"/><path class="cls-17" d="M204.51,131.09c-.23,12.87-9,18.89-13.11,19.83,5.22-9.68,7.26-34.22-2.33-43.71C145.18,123,109.85,80.06,68.59,80.06c-3.12,24.12-24.89,23.87-31.91,34.16s-1.4,30.64-1.4,30.64-8.37-5.43-9.13-18c0-7.84-5.9-19.9-16.4-13.13C8.13,58.06,54.44,36.38,114.63,35.36c54.62-.94,103.17,11.28,104.64,77.32C207.55,107.91,204.74,118.22,204.51,131.09Z"/><path class="cls-18" d="M188,279.8l1.33-3.12c.63-1.12,2.45.17,2.78-.75a1.75,1.75,0,0,0-1.06-2.25c-.55-.21-.81.51-1.6.21s-.53-1-1.09-1.19a1.77,1.77,0,0,0-2.26,1.06c-.33.91,1.42,1,1.07,2.25-.32,1.09-.41,1.38-.91,3.09"/><path class="cls-18" d="M178.19,282.1l-2.74-1.8c-1.08-.73.19-1.91-.65-2.4a1.76,1.76,0,0,0-2.41.67c-.29.51.35.87,0,1.61s-1.07.36-1.37.87a1.78,1.78,0,0,0,.66,2.41c.85.48,1.39-1.69,2.6-1.24l2.94,1.47A3.66,3.66,0,0,1,178.19,282.1Z"/><path class="cls-18" d="M181.36,289.09l-1.3,3.06c-.64,1.12-2.46-.17-2.8.75a1.76,1.76,0,0,0,1.07,2.25c.56.2.81-.51,1.61-.21s.53,1,1.09,1.2a1.76,1.76,0,0,0,2.25-1.07c.34-.91-1.42-1-1.05-2.25.3-1.05.21-1.11.7-2.74"/><path class="cls-18" d="M187.17,288c1.31.85,1.92,1.42,2.75,2,1.09.73-.19,1.92.66,2.4a1.73,1.73,0,0,0,2.39-.66c.29-.52-.35-.87.06-1.61s1.07-.37,1.36-.88a1.76,1.76,0,0,0-.65-2.41c-.84-.48-1.4,1.69-2.6,1.24l-2.89-1.44"/><path class="cls-18" d="M189.77,281.76c-.89-2.42-4.48-3.35-8-2.05s-5.64,4.32-4.74,6.75c.67,1.84,2.89,2.81,5.45,2.61.21.54.68,1.69,1.05,1.56l.56-.21-.37-1.3.57,1.22,1-.35-.36-1.3.56,1.23,1-.35-.35-1.3.57,1.23.54-.21c.4-.15.05-1.2-.17-1.78C189.28,286,190.48,283.69,189.77,281.76Zm-10.18,4.5c-1.1.4-1.19-.42-1.12-1a2.21,2.21,0,0,1,1.62-2c1.08-.4,1.52.08,1.76.76S180.67,285.86,179.59,286.26Zm5.11-.55a.24.24,0,0,1-.35,0c-.43-.47-.71-.36-.74.29a.31.31,0,0,1-.17.24l-.1,0a.27.27,0,0,1-.25-.27c0-1.71.66-1.89,1.66-.6A.25.25,0,0,1,184.7,285.71Zm3-2.43c-1.09.4-2.91.46-3.17-.22s-.23-1.32.87-1.72a2.17,2.17,0,0,1,2.52.48C188.31,282.2,188.76,282.88,187.67,283.28Z"/><path class="cls-3" d="M114.5,311.83c-4.85-10.91-13.65,2.61-13.78-2.26-.41-14.57-13.36.45-12.16,10,1.46,11.68-.92,7.53,7.34,9.79C108.87,332.93,118.41,320.65,114.5,311.83Z"/><path class="cls-3" d="M33.59,316C50,325.36,95.9,329.39,95.9,329.39s7.29-14.61-3.81-14.58-40.57-13.66-55.1-19C23.8,291,26.15,311.78,33.59,316Z"/><path class="cls-19" d="M84.74,103.2c-1.24-1.65-9.07-1.24-12.55-.57-10.93,2.09-14.8,7.85-14.09,8.65s6.32-4.45,13.24-5.09c7.68-.71,11.45,2.14,12.44,1.37S86,104.85,84.74,103.2Z"/><path class="cls-19" d="M143.23,103.2c1.25-1.65,9.08-1.24,12.57-.57,10.93,2.09,14.79,7.85,14.08,8.65s-6.32-4.45-13.25-5.09c-7.67-.71-11.45,2.14-12.43,1.37S142,104.85,143.23,103.2Z"/><path class="cls-20" d="M216.43,89.32c-2.87,5.32-203.21,12-208.1,10.41S6.21,88.3,8.33,84,206.17,64.39,210.87,65.48,219.29,84,216.43,89.32Z"/><path class="cls-21" d="M195,32C187.12,27.74,154.25,1.3,105.58,0,54.24-1.3,12.35,43.49,8.33,49s-2.12,39.29,0,35S206.17,64.39,210.87,65.48,202.93,36.18,195,32Z"/><path class="cls-22" d="M168.5,58.53s17.65,7-62.92,12c-20.94,1.31-88.76,1.51-88.76,1.51l11-5.75-11-1.53,23.6-8.64S19.48,60,6.53,55.59A103.42,103.42,0,0,0,6,70.18C6.26,78.77,7.27,86.13,8.33,84c2.13-4.32,197.84-19.58,202.54-18.49,1.35.31,1.27-2,.27-5.54-.18-.65-29.28,2.93-29.28,2.93s27.42-8.4,26.64-10.25a91.36,91.36,0,0,0-6.38-12.51C190,54.53,168.5,58.53,168.5,58.53Z"/><path class="cls-23" d="M119.32,29.71l5.13-6.58c2.21-2.26,5.71,2,7.08,0a4.31,4.31,0,0,0-1.08-6c-1.19-.83-2.25.7-3.94-.51s-.65-2.69-1.84-3.52a4.32,4.32,0,0,0-6,1.07c-1.37,2,2.74,3.25,1.08,6-1.44,2.4-1.82,3-4.11,6.73"/><path class="cls-23" d="M94.68,29c-2.78-3.1-3.58-4-5.34-6-2.13-2.42,1.66-4.43,0-6.1a4.33,4.33,0,0,0-6.12,0c-1,1.05.27,2.31-1.17,3.81s-2.77.17-3.78,1.22a4.3,4.3,0,0,0,0,6.1c1.71,1.68,4.39-3.11,7-1.28l6,5.35A9.13,9.13,0,0,1,94.68,29Z"/><path class="cls-23" d="M97.78,47.52l-5,6.46c-2.21,2.26-5.71-2-7.08,0a4.36,4.36,0,0,0,1.08,6c1.19.82,2.26-.72,3.94.5s.65,2.69,1.85,3.53a4.32,4.32,0,0,0,6-1.09c1.36-1.95-2.74-3.24-1.08-6,1.37-2.3,1.19-2.47,3.39-6.06"/><path class="cls-23" d="M112.23,48.69c2.55,2.84,3.64,4.59,5.25,6.41,2.14,2.42-1.67,4.43,0,6.12a4.32,4.32,0,0,0,6.11,0c1-1-.26-2.31,1.18-3.8s2.76-.18,3.79-1.21a4.31,4.31,0,0,0,0-6.12c-1.69-1.67-4.38,3.11-7,1.3l-5.93-5.27"/><path class="cls-23" d="M122.36,35.51c-.58-6.33-8.48-10.79-17.66-9.95s-16.12,6.65-15.54,13c.43,4.78,5.07,8.5,11.28,9.66.13,1.42.55,4.43,1.48,4.36.27,0,.8-.08,1.47-.15l0-3.31.57,3.27,2.5-.24,0-3.31.57,3.27c.88-.08,1.76-.15,2.5-.23l0-3.31.56,3.27,1.42-.13c1-.1.9-2.83.73-4.33C118.51,45.24,122.81,40.54,122.36,35.51Zm-27,4.19c-2.84.25-2.55-1.74-2-3A5.43,5.43,0,0,1,98.42,33c2.85-.25,3.56,1.14,3.73,2.92S98.19,39.45,95.36,39.7Zm12.49,2a.66.66,0,0,1-.85-.34c-.7-1.37-1.43-1.3-1.92.23a.67.67,0,0,1-.55.45.69.69,0,0,1-.25,0,.62.62,0,0,1-.42-.8c1.21-4,2.76-4.05,4.33-.35A.65.65,0,0,1,107.85,41.66Zm8.56-3.88c-2.83.26-7.2-.76-7.36-2.54s.29-3.28,3.13-3.54a5.42,5.42,0,0,1,5.7,2.73C118.62,35.6,119.25,37.52,116.41,37.78Z"/><path d="M92.87,97.91l5.72-.21s-6.2,14.72-5.72,16.32c1.68,5.65,3,16.61-1,24.45-6.15,12.05-26.64,13.91-37,8.65-1-.52-29.35-16.66-29.35-16.66l.29-6.67,23.45,15c-1.87-5.61.68-15,5.19-19.41,7.65-7.43,20.61-12.36,30-11.08C87,108.68,92.87,97.91,92.87,97.91Z"/></g></g></svg>